G04 #@! TF.GenerationSoftware,KiCad,Pcbnew,(5.0.0)*
G04 #@! TF.CreationDate,2020-02-21T08:35:06-08:00*
G04 #@! TF.ProjectId,spirometer_v1_2psensors,737069726F6D657465725F76315F3270,rev?*
G04 #@! TF.SameCoordinates,Original*
G04 #@! TF.FileFunction,Soldermask,Top*
G04 #@! TF.FilePolarity,Negative*
%FSLAX46Y46*%
G04 Gerber Fmt 4.6, Leading zero omitted, Abs format (unit mm)*
G04 Created by KiCad (PCBNEW (5.0.0)) date 02/21/20 08:35:06*
%MOMM*%
%LPD*%
G01*
G04 APERTURE LIST*
%ADD10C,2.082800*%
%ADD11R,2.082800X2.082800*%
%ADD12R,1.403200X1.603200*%
%ADD13R,0.903200X1.703200*%
%ADD14R,1.203200X1.003200*%
%ADD15C,4.019200*%
%ADD16R,0.703200X2.203200*%
%ADD17R,1.303200X1.203200*%
%ADD18R,1.203200X1.303200*%
%ADD19R,2.203200X0.703200*%
%ADD20R,0.963200X0.963200*%
%ADD21C,2.003200*%
%ADD22C,2.235200*%
%ADD23C,2.203200*%
%ADD24C,2.133600*%
G04 APERTURE END LIST*
D10*
G04 #@! TO.C,U1*
X155001100Y-129073600D03*
X152461100Y-129073600D03*
X149921100Y-129073600D03*
X147381100Y-129073600D03*
X144841100Y-129073600D03*
X142301100Y-129073600D03*
X139761100Y-129073600D03*
X137221100Y-129073600D03*
X133411100Y-129073600D03*
X130871100Y-129073600D03*
X128331100Y-129073600D03*
X125791100Y-129073600D03*
X123251100Y-129073600D03*
X120711100Y-129073600D03*
X118171100Y-129073600D03*
X115631100Y-129073600D03*
X115631100Y-80813600D03*
X118171100Y-80813600D03*
X120711100Y-80813600D03*
X123251100Y-80813600D03*
X125791100Y-80813600D03*
X128331100Y-80813600D03*
X133411100Y-80813600D03*
X135951100Y-80813600D03*
X138491100Y-80813600D03*
X141031100Y-80813600D03*
X143571100Y-80813600D03*
X146111100Y-80813600D03*
G04 #@! TD*
G04 #@! TO.C,JP1*
X177871100Y-80253600D03*
X175331100Y-80253600D03*
X172791100Y-80253600D03*
D11*
X170251100Y-80253600D03*
G04 #@! TD*
D12*
G04 #@! TO.C,LED1*
X183751100Y-124003600D03*
X180751100Y-124003600D03*
G04 #@! TD*
G04 #@! TO.C,LED2*
X183751100Y-126503600D03*
X180751100Y-126503600D03*
G04 #@! TD*
G04 #@! TO.C,LED3*
X183751100Y-129003600D03*
X180751100Y-129003600D03*
G04 #@! TD*
D10*
G04 #@! TO.C,RESET1*
X167011700Y-80752400D03*
X167011700Y-87254800D03*
X162490500Y-80752400D03*
X162490500Y-87254800D03*
G04 #@! TD*
D13*
G04 #@! TO.C,U$1*
X151501100Y-83253600D03*
X153001100Y-83253600D03*
X156001100Y-83253600D03*
D14*
X149601100Y-82103600D03*
X149601100Y-79903600D03*
X157901100Y-79903600D03*
X157901100Y-82103600D03*
G04 #@! TD*
D15*
G04 #@! TO.C,U$4*
X132923100Y-96585600D03*
X139673100Y-103335600D03*
X132923100Y-110085600D03*
G04 #@! TD*
D16*
G04 #@! TO.C,U$5*
X118791100Y-115773600D03*
X117521100Y-115773600D03*
X116251100Y-115773600D03*
X114981100Y-115773600D03*
X114981100Y-109693600D03*
X116251100Y-109693600D03*
X117521100Y-109693600D03*
X118791100Y-109693600D03*
G04 #@! TD*
D17*
G04 #@! TO.C,R1*
X118401100Y-106503600D03*
X120101100Y-106503600D03*
G04 #@! TD*
D18*
G04 #@! TO.C,R2*
X121251100Y-113353600D03*
X121251100Y-111653600D03*
G04 #@! TD*
G04 #@! TO.C,C1*
X123251100Y-113353600D03*
X123251100Y-111653600D03*
G04 #@! TD*
D17*
G04 #@! TO.C,C2*
X116101100Y-106503600D03*
X114401100Y-106503600D03*
G04 #@! TD*
D18*
G04 #@! TO.C,C3*
X117525900Y-119296800D03*
X117525900Y-120996800D03*
G04 #@! TD*
D19*
G04 #@! TO.C,U$6*
X128981100Y-125043600D03*
X128981100Y-123773600D03*
X128981100Y-122503600D03*
X128981100Y-121233600D03*
X135061100Y-121233600D03*
X135061100Y-122503600D03*
X135061100Y-123773600D03*
X135061100Y-125043600D03*
G04 #@! TD*
D16*
G04 #@! TO.C,U$7*
X117291100Y-99273600D03*
X116021100Y-99273600D03*
X114751100Y-99273600D03*
X113481100Y-99273600D03*
X113481100Y-93193600D03*
X114751100Y-93193600D03*
X116021100Y-93193600D03*
X117291100Y-93193600D03*
G04 #@! TD*
D20*
G04 #@! TO.C,U$8*
X145541100Y-117003600D03*
X143251100Y-116053600D03*
X143251100Y-117953600D03*
G04 #@! TD*
D17*
G04 #@! TO.C,R3*
X138901100Y-122503600D03*
X140601100Y-122503600D03*
G04 #@! TD*
G04 #@! TO.C,R4*
X129401100Y-115503600D03*
X131101100Y-115503600D03*
G04 #@! TD*
G04 #@! TO.C,R5*
X133401100Y-115503600D03*
X135101100Y-115503600D03*
G04 #@! TD*
G04 #@! TO.C,R6*
X143401100Y-122503600D03*
X145101100Y-122503600D03*
G04 #@! TD*
D18*
G04 #@! TO.C,R7*
X122751100Y-90353600D03*
X122751100Y-88653600D03*
G04 #@! TD*
D17*
G04 #@! TO.C,R8*
X119101100Y-89503600D03*
X117401100Y-89503600D03*
G04 #@! TD*
D18*
G04 #@! TO.C,R9*
X120251100Y-95353600D03*
X120251100Y-93653600D03*
G04 #@! TD*
G04 #@! TO.C,C4*
X122751100Y-95353600D03*
X122751100Y-93653600D03*
G04 #@! TD*
D17*
G04 #@! TO.C,C5*
X133401100Y-118003600D03*
X135101100Y-118003600D03*
G04 #@! TD*
G04 #@! TO.C,C6*
X131101100Y-118003600D03*
X129401100Y-118003600D03*
G04 #@! TD*
G04 #@! TO.C,C7*
X140601100Y-120003600D03*
X138901100Y-120003600D03*
G04 #@! TD*
G04 #@! TO.C,C8*
X125499500Y-123749600D03*
X123799500Y-123749600D03*
G04 #@! TD*
G04 #@! TO.C,C9*
X115101100Y-89503600D03*
X113401100Y-89503600D03*
G04 #@! TD*
G04 #@! TO.C,C10*
X114401100Y-103503600D03*
X116101100Y-103503600D03*
G04 #@! TD*
D19*
G04 #@! TO.C,U$9*
X165021100Y-118963600D03*
X165021100Y-120233600D03*
X165021100Y-121503600D03*
X165021100Y-122773600D03*
X158941100Y-122773600D03*
X158941100Y-121503600D03*
X158941100Y-120233600D03*
X158941100Y-118963600D03*
G04 #@! TD*
G04 #@! TO.C,U$10*
X146481100Y-93543600D03*
X146481100Y-92273600D03*
X146481100Y-91003600D03*
X146481100Y-89733600D03*
X152561100Y-89733600D03*
X152561100Y-91003600D03*
X152561100Y-92273600D03*
X152561100Y-93543600D03*
G04 #@! TD*
D17*
G04 #@! TO.C,R10*
X154101100Y-122503600D03*
X152401100Y-122503600D03*
G04 #@! TD*
G04 #@! TO.C,R11*
X150101100Y-122503600D03*
X148401100Y-122503600D03*
G04 #@! TD*
G04 #@! TO.C,R12*
X154101100Y-120003600D03*
X152401100Y-120003600D03*
G04 #@! TD*
G04 #@! TO.C,R13*
X150101100Y-120003600D03*
X148401100Y-120003600D03*
G04 #@! TD*
G04 #@! TO.C,R14*
X160601100Y-113003600D03*
X158901100Y-113003600D03*
G04 #@! TD*
G04 #@! TO.C,R15*
X164601100Y-113003600D03*
X162901100Y-113003600D03*
G04 #@! TD*
G04 #@! TO.C,R16*
X156901100Y-94003600D03*
X158601100Y-94003600D03*
G04 #@! TD*
G04 #@! TO.C,R17*
X156901100Y-91503600D03*
X158601100Y-91503600D03*
G04 #@! TD*
G04 #@! TO.C,R18*
X148401100Y-85253600D03*
X150101100Y-85253600D03*
G04 #@! TD*
G04 #@! TO.C,C11*
X164601100Y-115503600D03*
X162901100Y-115503600D03*
G04 #@! TD*
G04 #@! TO.C,C12*
X148401100Y-87253600D03*
X150101100Y-87253600D03*
G04 #@! TD*
G04 #@! TO.C,C13*
X160601100Y-126003600D03*
X158901100Y-126003600D03*
G04 #@! TD*
D18*
G04 #@! TO.C,C14*
X169345500Y-120247600D03*
X169345500Y-121947600D03*
G04 #@! TD*
D17*
G04 #@! TO.C,C15*
X158677100Y-89087600D03*
X156977100Y-89087600D03*
G04 #@! TD*
G04 #@! TO.C,C16*
X143183100Y-92349600D03*
X141483100Y-92349600D03*
G04 #@! TD*
G04 #@! TO.C,R19*
X175601100Y-121987600D03*
X173901100Y-121987600D03*
G04 #@! TD*
G04 #@! TO.C,R20*
X175601100Y-125495600D03*
X173901100Y-125495600D03*
G04 #@! TD*
G04 #@! TO.C,R21*
X175601100Y-129003600D03*
X173901100Y-129003600D03*
G04 #@! TD*
D21*
G04 #@! TO.C,U$11*
X182501100Y-108903600D03*
X182501100Y-111443600D03*
X182501100Y-113983600D03*
X182501100Y-116523600D03*
X182501100Y-119063600D03*
X182501100Y-121603600D03*
G04 #@! TD*
D18*
G04 #@! TO.C,C17*
X178345900Y-111386000D03*
X178345900Y-109686000D03*
G04 #@! TD*
D12*
G04 #@! TO.C,LED4*
X132751100Y-88503600D03*
X135751100Y-88503600D03*
G04 #@! TD*
D17*
G04 #@! TO.C,R22*
X139401100Y-88503600D03*
X141101100Y-88503600D03*
G04 #@! TD*
D22*
G04 #@! TO.C,U$12*
X150841100Y-106768600D03*
X150841100Y-101688600D03*
X150841100Y-104228600D03*
X150841100Y-99148600D03*
G04 #@! TD*
D23*
G04 #@! TO.C,U$2*
X167571100Y-106813600D03*
X167571100Y-104273600D03*
X167571100Y-101733600D03*
X167571100Y-99193600D03*
G04 #@! TD*
D24*
G04 #@! TO.C,U$3*
X182501100Y-87793600D03*
X182501100Y-85253600D03*
X182501100Y-82713600D03*
X182501100Y-80173600D03*
G04 #@! TD*
M02*
