G04 #@! TF.GenerationSoftware,KiCad,Pcbnew,(5.0.0)*
G04 #@! TF.CreationDate,2020-02-21T08:35:06-08:00*
G04 #@! TF.ProjectId,spirometer_v1_2psensors,737069726F6D657465725F76315F3270,rev?*
G04 #@! TF.SameCoordinates,Original*
G04 #@! TF.FileFunction,Legend,Bot*
G04 #@! TF.FilePolarity,Positive*
%FSLAX46Y46*%
G04 Gerber Fmt 4.6, Leading zero omitted, Abs format (unit mm)*
G04 Created by KiCad (PCBNEW (5.0.0)) date 02/21/20 08:35:06*
%MOMM*%
%LPD*%
G01*
G04 APERTURE LIST*
%ADD10C,0.101600*%
G04 APERTURE END LIST*
D10*
X180308552Y-129150298D02*
X181515052Y-129150298D01*
X181515052Y-128863036D01*
X181457600Y-128690679D01*
X181342695Y-128575774D01*
X181227790Y-128518321D01*
X180997980Y-128460869D01*
X180825623Y-128460869D01*
X180595814Y-128518321D01*
X180480909Y-128575774D01*
X180366004Y-128690679D01*
X180308552Y-128863036D01*
X180308552Y-129150298D01*
X180653266Y-128001250D02*
X180653266Y-127426726D01*
X180308552Y-128116155D02*
X181515052Y-127713988D01*
X180308552Y-127311821D01*
X181515052Y-127082012D02*
X180308552Y-126679845D01*
X181515052Y-126277679D01*
X180308552Y-125875512D02*
X181515052Y-125875512D01*
X180366004Y-125358440D02*
X180308552Y-125186083D01*
X180308552Y-124898821D01*
X180366004Y-124783917D01*
X180423457Y-124726464D01*
X180538361Y-124669012D01*
X180653266Y-124669012D01*
X180768171Y-124726464D01*
X180825623Y-124783917D01*
X180883076Y-124898821D01*
X180940528Y-125128631D01*
X180997980Y-125243536D01*
X181055433Y-125300988D01*
X181170338Y-125358440D01*
X181285242Y-125358440D01*
X181400147Y-125300988D01*
X181457600Y-125243536D01*
X181515052Y-125128631D01*
X181515052Y-124841369D01*
X181457600Y-124669012D01*
X180308552Y-122543274D02*
X180883076Y-122945440D01*
X180308552Y-123232702D02*
X181515052Y-123232702D01*
X181515052Y-122773083D01*
X181457600Y-122658179D01*
X181400147Y-122600726D01*
X181285242Y-122543274D01*
X181112885Y-122543274D01*
X180997980Y-122600726D01*
X180940528Y-122658179D01*
X180883076Y-122773083D01*
X180883076Y-123232702D01*
X180940528Y-122026202D02*
X180940528Y-121624036D01*
X180308552Y-121451679D02*
X180308552Y-122026202D01*
X181515052Y-122026202D01*
X181515052Y-121451679D01*
X180366004Y-120992060D02*
X180308552Y-120819702D01*
X180308552Y-120532440D01*
X180366004Y-120417536D01*
X180423457Y-120360083D01*
X180538361Y-120302631D01*
X180653266Y-120302631D01*
X180768171Y-120360083D01*
X180825623Y-120417536D01*
X180883076Y-120532440D01*
X180940528Y-120762250D01*
X180997980Y-120877155D01*
X181055433Y-120934607D01*
X181170338Y-120992060D01*
X181285242Y-120992060D01*
X181400147Y-120934607D01*
X181457600Y-120877155D01*
X181515052Y-120762250D01*
X181515052Y-120474988D01*
X181457600Y-120302631D01*
X180940528Y-119785560D02*
X180940528Y-119383393D01*
X180308552Y-119211036D02*
X180308552Y-119785560D01*
X181515052Y-119785560D01*
X181515052Y-119211036D01*
X180653266Y-118751417D02*
X180653266Y-118176893D01*
X180308552Y-118866321D02*
X181515052Y-118464155D01*
X180308552Y-118061988D01*
X180308552Y-116970393D02*
X180883076Y-117372560D01*
X180308552Y-117659821D02*
X181515052Y-117659821D01*
X181515052Y-117200202D01*
X181457600Y-117085298D01*
X181400147Y-117027845D01*
X181285242Y-116970393D01*
X181112885Y-116970393D01*
X180997980Y-117027845D01*
X180940528Y-117085298D01*
X180883076Y-117200202D01*
X180883076Y-117659821D01*
X180423457Y-115763893D02*
X180366004Y-115821345D01*
X180308552Y-115993702D01*
X180308552Y-116108607D01*
X180366004Y-116280964D01*
X180480909Y-116395869D01*
X180595814Y-116453321D01*
X180825623Y-116510774D01*
X180997980Y-116510774D01*
X181227790Y-116453321D01*
X181342695Y-116395869D01*
X181457600Y-116280964D01*
X181515052Y-116108607D01*
X181515052Y-115993702D01*
X181457600Y-115821345D01*
X181400147Y-115763893D01*
X180308552Y-115246821D02*
X181515052Y-115246821D01*
X180940528Y-115246821D02*
X180940528Y-114557393D01*
X180308552Y-114557393D02*
X181515052Y-114557393D01*
X181457600Y-112431655D02*
X181515052Y-112546560D01*
X181515052Y-112718917D01*
X181457600Y-112891274D01*
X181342695Y-113006179D01*
X181227790Y-113063631D01*
X180997980Y-113121083D01*
X180825623Y-113121083D01*
X180595814Y-113063631D01*
X180480909Y-113006179D01*
X180366004Y-112891274D01*
X180308552Y-112718917D01*
X180308552Y-112604012D01*
X180366004Y-112431655D01*
X180423457Y-112374202D01*
X180825623Y-112374202D01*
X180825623Y-112604012D01*
X180308552Y-111167702D02*
X180883076Y-111569869D01*
X180308552Y-111857131D02*
X181515052Y-111857131D01*
X181515052Y-111397512D01*
X181457600Y-111282607D01*
X181400147Y-111225155D01*
X181285242Y-111167702D01*
X181112885Y-111167702D01*
X180997980Y-111225155D01*
X180940528Y-111282607D01*
X180883076Y-111397512D01*
X180883076Y-111857131D01*
X181515052Y-110420821D02*
X181515052Y-110191012D01*
X181457600Y-110076107D01*
X181342695Y-109961202D01*
X181112885Y-109903750D01*
X180710719Y-109903750D01*
X180480909Y-109961202D01*
X180366004Y-110076107D01*
X180308552Y-110191012D01*
X180308552Y-110420821D01*
X180366004Y-110535726D01*
X180480909Y-110650631D01*
X180710719Y-110708083D01*
X181112885Y-110708083D01*
X181342695Y-110650631D01*
X181457600Y-110535726D01*
X181515052Y-110420821D01*
X181515052Y-109386679D02*
X180538361Y-109386679D01*
X180423457Y-109329226D01*
X180366004Y-109271774D01*
X180308552Y-109156869D01*
X180308552Y-108927060D01*
X180366004Y-108812155D01*
X180423457Y-108754702D01*
X180538361Y-108697250D01*
X181515052Y-108697250D01*
X180308552Y-108122726D02*
X181515052Y-108122726D01*
X181515052Y-107663107D01*
X181457600Y-107548202D01*
X181400147Y-107490750D01*
X181285242Y-107433298D01*
X181112885Y-107433298D01*
X180997980Y-107490750D01*
X180940528Y-107548202D01*
X180883076Y-107663107D01*
X180883076Y-108122726D01*
X180366004Y-106054440D02*
X180308552Y-105882083D01*
X180308552Y-105594821D01*
X180366004Y-105479917D01*
X180423457Y-105422464D01*
X180538361Y-105365012D01*
X180653266Y-105365012D01*
X180768171Y-105422464D01*
X180825623Y-105479917D01*
X180883076Y-105594821D01*
X180940528Y-105824631D01*
X180997980Y-105939536D01*
X181055433Y-105996988D01*
X181170338Y-106054440D01*
X181285242Y-106054440D01*
X181400147Y-105996988D01*
X181457600Y-105939536D01*
X181515052Y-105824631D01*
X181515052Y-105537369D01*
X181457600Y-105365012D01*
X180308552Y-104847940D02*
X181515052Y-104847940D01*
X181515052Y-104388321D01*
X181457600Y-104273417D01*
X181400147Y-104215964D01*
X181285242Y-104158512D01*
X181112885Y-104158512D01*
X180997980Y-104215964D01*
X180940528Y-104273417D01*
X180883076Y-104388321D01*
X180883076Y-104847940D01*
X180308552Y-103641440D02*
X181515052Y-103641440D01*
X180308552Y-102377488D02*
X180883076Y-102779655D01*
X180308552Y-103066917D02*
X181515052Y-103066917D01*
X181515052Y-102607298D01*
X181457600Y-102492393D01*
X181400147Y-102434940D01*
X181285242Y-102377488D01*
X181112885Y-102377488D01*
X180997980Y-102434940D01*
X180940528Y-102492393D01*
X180883076Y-102607298D01*
X180883076Y-103066917D01*
X181515052Y-101630607D02*
X181515052Y-101400798D01*
X181457600Y-101285893D01*
X181342695Y-101170988D01*
X181112885Y-101113536D01*
X180710719Y-101113536D01*
X180480909Y-101170988D01*
X180366004Y-101285893D01*
X180308552Y-101400798D01*
X180308552Y-101630607D01*
X180366004Y-101745512D01*
X180480909Y-101860417D01*
X180710719Y-101917869D01*
X181112885Y-101917869D01*
X181342695Y-101860417D01*
X181457600Y-101745512D01*
X181515052Y-101630607D01*
X180308552Y-100596464D02*
X181515052Y-100596464D01*
X180653266Y-100194298D01*
X181515052Y-99792131D01*
X180308552Y-99792131D01*
X180940528Y-99217607D02*
X180940528Y-98815440D01*
X180308552Y-98643083D02*
X180308552Y-99217607D01*
X181515052Y-99217607D01*
X181515052Y-98643083D01*
X181515052Y-98298369D02*
X181515052Y-97608940D01*
X180308552Y-97953655D02*
X181515052Y-97953655D01*
X180940528Y-97206774D02*
X180940528Y-96804607D01*
X180308552Y-96632250D02*
X180308552Y-97206774D01*
X181515052Y-97206774D01*
X181515052Y-96632250D01*
X180308552Y-95425750D02*
X180883076Y-95827917D01*
X180308552Y-96115179D02*
X181515052Y-96115179D01*
X181515052Y-95655560D01*
X181457600Y-95540655D01*
X181400147Y-95483202D01*
X181285242Y-95425750D01*
X181112885Y-95425750D01*
X180997980Y-95483202D01*
X180940528Y-95540655D01*
X180883076Y-95655560D01*
X180883076Y-96115179D01*
X181515052Y-94161798D02*
X180308552Y-93759631D01*
X181515052Y-93357464D01*
X181515052Y-92725488D02*
X181515052Y-92610583D01*
X181457600Y-92495679D01*
X181400147Y-92438226D01*
X181285242Y-92380774D01*
X181055433Y-92323321D01*
X180768171Y-92323321D01*
X180538361Y-92380774D01*
X180423457Y-92438226D01*
X180366004Y-92495679D01*
X180308552Y-92610583D01*
X180308552Y-92725488D01*
X180366004Y-92840393D01*
X180423457Y-92897845D01*
X180538361Y-92955298D01*
X180768171Y-93012750D01*
X181055433Y-93012750D01*
X181285242Y-92955298D01*
X181400147Y-92897845D01*
X181457600Y-92840393D01*
X181515052Y-92725488D01*
X180423457Y-91806250D02*
X180366004Y-91748798D01*
X180308552Y-91806250D01*
X180366004Y-91863702D01*
X180423457Y-91806250D01*
X180308552Y-91806250D01*
X180308552Y-90599750D02*
X180308552Y-91289179D01*
X180308552Y-90944464D02*
X181515052Y-90944464D01*
X181342695Y-91059369D01*
X181227790Y-91174274D01*
X181170338Y-91289179D01*
X178366004Y-129207750D02*
X178308552Y-129035393D01*
X178308552Y-128748131D01*
X178366004Y-128633226D01*
X178423457Y-128575774D01*
X178538361Y-128518321D01*
X178653266Y-128518321D01*
X178768171Y-128575774D01*
X178825623Y-128633226D01*
X178883076Y-128748131D01*
X178940528Y-128977940D01*
X178997980Y-129092845D01*
X179055433Y-129150298D01*
X179170338Y-129207750D01*
X179285242Y-129207750D01*
X179400147Y-129150298D01*
X179457600Y-129092845D01*
X179515052Y-128977940D01*
X179515052Y-128690679D01*
X179457600Y-128518321D01*
X178308552Y-128001250D02*
X179515052Y-128001250D01*
X179515052Y-127541631D01*
X179457600Y-127426726D01*
X179400147Y-127369274D01*
X179285242Y-127311821D01*
X179112885Y-127311821D01*
X178997980Y-127369274D01*
X178940528Y-127426726D01*
X178883076Y-127541631D01*
X178883076Y-128001250D01*
X179515052Y-126564940D02*
X179515052Y-126335131D01*
X179457600Y-126220226D01*
X179342695Y-126105321D01*
X179112885Y-126047869D01*
X178710719Y-126047869D01*
X178480909Y-126105321D01*
X178366004Y-126220226D01*
X178308552Y-126335131D01*
X178308552Y-126564940D01*
X178366004Y-126679845D01*
X178480909Y-126794750D01*
X178710719Y-126852202D01*
X179112885Y-126852202D01*
X179342695Y-126794750D01*
X179457600Y-126679845D01*
X179515052Y-126564940D01*
X178308552Y-125530798D02*
X179515052Y-125530798D01*
X178308552Y-124841369D01*
X179515052Y-124841369D01*
X178366004Y-124324298D02*
X178308552Y-124151940D01*
X178308552Y-123864679D01*
X178366004Y-123749774D01*
X178423457Y-123692321D01*
X178538361Y-123634869D01*
X178653266Y-123634869D01*
X178768171Y-123692321D01*
X178825623Y-123749774D01*
X178883076Y-123864679D01*
X178940528Y-124094488D01*
X178997980Y-124209393D01*
X179055433Y-124266845D01*
X179170338Y-124324298D01*
X179285242Y-124324298D01*
X179400147Y-124266845D01*
X179457600Y-124209393D01*
X179515052Y-124094488D01*
X179515052Y-123807226D01*
X179457600Y-123634869D01*
X179515052Y-122887988D02*
X179515052Y-122658179D01*
X179457600Y-122543274D01*
X179342695Y-122428369D01*
X179112885Y-122370917D01*
X178710719Y-122370917D01*
X178480909Y-122428369D01*
X178366004Y-122543274D01*
X178308552Y-122658179D01*
X178308552Y-122887988D01*
X178366004Y-123002893D01*
X178480909Y-123117798D01*
X178710719Y-123175250D01*
X179112885Y-123175250D01*
X179342695Y-123117798D01*
X179457600Y-123002893D01*
X179515052Y-122887988D01*
X178308552Y-121164417D02*
X178883076Y-121566583D01*
X178308552Y-121853845D02*
X179515052Y-121853845D01*
X179515052Y-121394226D01*
X179457600Y-121279321D01*
X179400147Y-121221869D01*
X179285242Y-121164417D01*
X179112885Y-121164417D01*
X178997980Y-121221869D01*
X178940528Y-121279321D01*
X178883076Y-121394226D01*
X178883076Y-121853845D01*
X178940528Y-120647345D02*
X178940528Y-120245179D01*
X178308552Y-120072821D02*
X178308552Y-120647345D01*
X179515052Y-120647345D01*
X179515052Y-120072821D01*
X178308552Y-119555750D02*
X179515052Y-119555750D01*
X179515052Y-119268488D01*
X179457600Y-119096131D01*
X179342695Y-118981226D01*
X179227790Y-118923774D01*
X178997980Y-118866321D01*
X178825623Y-118866321D01*
X178595814Y-118923774D01*
X178480909Y-118981226D01*
X178366004Y-119096131D01*
X178308552Y-119268488D01*
X178308552Y-119555750D01*
X178940528Y-117027845D02*
X178883076Y-116855488D01*
X178825623Y-116798036D01*
X178710719Y-116740583D01*
X178538361Y-116740583D01*
X178423457Y-116798036D01*
X178366004Y-116855488D01*
X178308552Y-116970393D01*
X178308552Y-117430012D01*
X179515052Y-117430012D01*
X179515052Y-117027845D01*
X179457600Y-116912940D01*
X179400147Y-116855488D01*
X179285242Y-116798036D01*
X179170338Y-116798036D01*
X179055433Y-116855488D01*
X178997980Y-116912940D01*
X178940528Y-117027845D01*
X178940528Y-117430012D01*
X178883076Y-115993702D02*
X178308552Y-115993702D01*
X179515052Y-116395869D02*
X178883076Y-115993702D01*
X179515052Y-115591536D01*
X178366004Y-114327583D02*
X178308552Y-114155226D01*
X178308552Y-113867964D01*
X178366004Y-113753060D01*
X178423457Y-113695607D01*
X178538361Y-113638155D01*
X178653266Y-113638155D01*
X178768171Y-113695607D01*
X178825623Y-113753060D01*
X178883076Y-113867964D01*
X178940528Y-114097774D01*
X178997980Y-114212679D01*
X179055433Y-114270131D01*
X179170338Y-114327583D01*
X179285242Y-114327583D01*
X179400147Y-114270131D01*
X179457600Y-114212679D01*
X179515052Y-114097774D01*
X179515052Y-113810512D01*
X179457600Y-113638155D01*
X178423457Y-112431655D02*
X178366004Y-112489107D01*
X178308552Y-112661464D01*
X178308552Y-112776369D01*
X178366004Y-112948726D01*
X178480909Y-113063631D01*
X178595814Y-113121083D01*
X178825623Y-113178536D01*
X178997980Y-113178536D01*
X179227790Y-113121083D01*
X179342695Y-113063631D01*
X179457600Y-112948726D01*
X179515052Y-112776369D01*
X179515052Y-112661464D01*
X179457600Y-112489107D01*
X179400147Y-112431655D01*
X178653266Y-111972036D02*
X178653266Y-111397512D01*
X178308552Y-112086940D02*
X179515052Y-111684774D01*
X178308552Y-111282607D01*
X178308552Y-110880440D02*
X179515052Y-110880440D01*
X178308552Y-110191012D01*
X179515052Y-110191012D01*
X178653266Y-109673940D02*
X178653266Y-109099417D01*
X178308552Y-109788845D02*
X179515052Y-109386679D01*
X178308552Y-108984512D01*
X178308552Y-108582345D02*
X179515052Y-108582345D01*
X179515052Y-108295083D01*
X179457600Y-108122726D01*
X179342695Y-108007821D01*
X179227790Y-107950369D01*
X178997980Y-107892917D01*
X178825623Y-107892917D01*
X178595814Y-107950369D01*
X178480909Y-108007821D01*
X178366004Y-108122726D01*
X178308552Y-108295083D01*
X178308552Y-108582345D01*
X179515052Y-107375845D02*
X178538361Y-107375845D01*
X178423457Y-107318393D01*
X178366004Y-107260940D01*
X178308552Y-107146036D01*
X178308552Y-106916226D01*
X178366004Y-106801321D01*
X178423457Y-106743869D01*
X178538361Y-106686417D01*
X179515052Y-106686417D01*
X178308552Y-105192655D02*
X179515052Y-105192655D01*
X178308552Y-104618131D02*
X179515052Y-104618131D01*
X178308552Y-103928702D01*
X179515052Y-103928702D01*
X178423457Y-102664750D02*
X178366004Y-102722202D01*
X178308552Y-102894560D01*
X178308552Y-103009464D01*
X178366004Y-103181821D01*
X178480909Y-103296726D01*
X178595814Y-103354179D01*
X178825623Y-103411631D01*
X178997980Y-103411631D01*
X179227790Y-103354179D01*
X179342695Y-103296726D01*
X179457600Y-103181821D01*
X179515052Y-103009464D01*
X179515052Y-102894560D01*
X179457600Y-102722202D01*
X179400147Y-102664750D01*
X178423457Y-102147679D02*
X178366004Y-102090226D01*
X178308552Y-102147679D01*
X178366004Y-102205131D01*
X178423457Y-102147679D01*
X178308552Y-102147679D01*
X176308552Y-129150298D02*
X177515052Y-129150298D01*
X177515052Y-128863036D01*
X177457600Y-128690679D01*
X177342695Y-128575774D01*
X177227790Y-128518321D01*
X176997980Y-128460869D01*
X176825623Y-128460869D01*
X176595814Y-128518321D01*
X176480909Y-128575774D01*
X176366004Y-128690679D01*
X176308552Y-128863036D01*
X176308552Y-129150298D01*
X176940528Y-127943798D02*
X176940528Y-127541631D01*
X176308552Y-127369274D02*
X176308552Y-127943798D01*
X177515052Y-127943798D01*
X177515052Y-127369274D01*
X176366004Y-126909655D02*
X176308552Y-126737298D01*
X176308552Y-126450036D01*
X176366004Y-126335131D01*
X176423457Y-126277679D01*
X176538361Y-126220226D01*
X176653266Y-126220226D01*
X176768171Y-126277679D01*
X176825623Y-126335131D01*
X176883076Y-126450036D01*
X176940528Y-126679845D01*
X176997980Y-126794750D01*
X177055433Y-126852202D01*
X177170338Y-126909655D01*
X177285242Y-126909655D01*
X177400147Y-126852202D01*
X177457600Y-126794750D01*
X177515052Y-126679845D01*
X177515052Y-126392583D01*
X177457600Y-126220226D01*
X176308552Y-125703155D02*
X177515052Y-125703155D01*
X177457600Y-124496655D02*
X177515052Y-124611559D01*
X177515052Y-124783917D01*
X177457600Y-124956274D01*
X177342695Y-125071179D01*
X177227790Y-125128631D01*
X176997980Y-125186083D01*
X176825623Y-125186083D01*
X176595814Y-125128631D01*
X176480909Y-125071179D01*
X176366004Y-124956274D01*
X176308552Y-124783917D01*
X176308552Y-124669012D01*
X176366004Y-124496655D01*
X176423457Y-124439202D01*
X176825623Y-124439202D01*
X176825623Y-124669012D01*
X176308552Y-123922131D02*
X177515052Y-123922131D01*
X176308552Y-123232702D01*
X177515052Y-123232702D01*
X176423457Y-122658179D02*
X176366004Y-122600726D01*
X176308552Y-122658179D01*
X176366004Y-122715631D01*
X176423457Y-122658179D01*
X176308552Y-122658179D01*
X177055433Y-122658179D02*
X176997980Y-122600726D01*
X176940528Y-122658179D01*
X176997980Y-122715631D01*
X177055433Y-122658179D01*
X176940528Y-122658179D01*
X176653266Y-121221869D02*
X176653266Y-120647345D01*
X176308552Y-121336774D02*
X177515052Y-120934607D01*
X176308552Y-120532440D01*
X176308552Y-119555750D02*
X176308552Y-120130274D01*
X177515052Y-120130274D01*
X176308552Y-119153583D02*
X177515052Y-119153583D01*
X176423457Y-117889631D02*
X176366004Y-117947083D01*
X176308552Y-118119440D01*
X176308552Y-118234345D01*
X176366004Y-118406702D01*
X176480909Y-118521607D01*
X176595814Y-118579060D01*
X176825623Y-118636512D01*
X176997980Y-118636512D01*
X177227790Y-118579060D01*
X177342695Y-118521607D01*
X177457600Y-118406702D01*
X177515052Y-118234345D01*
X177515052Y-118119440D01*
X177457600Y-117947083D01*
X177400147Y-117889631D01*
X176940528Y-117372560D02*
X176940528Y-116970393D01*
X176308552Y-116798036D02*
X176308552Y-117372560D01*
X177515052Y-117372560D01*
X177515052Y-116798036D01*
X176308552Y-115361726D02*
X177515052Y-115361726D01*
X176308552Y-114672298D02*
X176997980Y-115189369D01*
X177515052Y-114672298D02*
X176825623Y-115361726D01*
X177515052Y-114270131D02*
X176308552Y-113982869D01*
X177170338Y-113753060D01*
X176308552Y-113523250D01*
X177515052Y-113235988D01*
X176653266Y-112833821D02*
X176653266Y-112259298D01*
X176308552Y-112948726D02*
X177515052Y-112546560D01*
X176308552Y-112144393D01*
X176308552Y-111742226D02*
X177515052Y-111742226D01*
X176308552Y-111052798D01*
X177515052Y-111052798D01*
X174940528Y-128748131D02*
X174883076Y-128575774D01*
X174825623Y-128518321D01*
X174710719Y-128460869D01*
X174538361Y-128460869D01*
X174423457Y-128518321D01*
X174366004Y-128575774D01*
X174308552Y-128690679D01*
X174308552Y-129150298D01*
X175515052Y-129150298D01*
X175515052Y-128748131D01*
X175457600Y-128633226D01*
X175400147Y-128575774D01*
X175285242Y-128518321D01*
X175170338Y-128518321D01*
X175055433Y-128575774D01*
X174997980Y-128633226D01*
X174940528Y-128748131D01*
X174940528Y-129150298D01*
X175515052Y-127713988D02*
X175515052Y-127484179D01*
X175457600Y-127369274D01*
X175342695Y-127254369D01*
X175112885Y-127196917D01*
X174710719Y-127196917D01*
X174480909Y-127254369D01*
X174366004Y-127369274D01*
X174308552Y-127484179D01*
X174308552Y-127713988D01*
X174366004Y-127828893D01*
X174480909Y-127943798D01*
X174710719Y-128001250D01*
X175112885Y-128001250D01*
X175342695Y-127943798D01*
X175457600Y-127828893D01*
X175515052Y-127713988D01*
X174653266Y-126737298D02*
X174653266Y-126162774D01*
X174308552Y-126852202D02*
X175515052Y-126450036D01*
X174308552Y-126047869D01*
X174308552Y-124956274D02*
X174883076Y-125358440D01*
X174308552Y-125645702D02*
X175515052Y-125645702D01*
X175515052Y-125186083D01*
X175457600Y-125071179D01*
X175400147Y-125013726D01*
X175285242Y-124956274D01*
X175112885Y-124956274D01*
X174997980Y-125013726D01*
X174940528Y-125071179D01*
X174883076Y-125186083D01*
X174883076Y-125645702D01*
X174308552Y-124439202D02*
X175515052Y-124439202D01*
X175515052Y-124151940D01*
X175457600Y-123979583D01*
X175342695Y-123864679D01*
X175227790Y-123807226D01*
X174997980Y-123749774D01*
X174825623Y-123749774D01*
X174595814Y-123807226D01*
X174480909Y-123864679D01*
X174366004Y-123979583D01*
X174308552Y-124151940D01*
X174308552Y-124439202D01*
X174423457Y-123232702D02*
X174366004Y-123175250D01*
X174308552Y-123232702D01*
X174366004Y-123290155D01*
X174423457Y-123232702D01*
X174308552Y-123232702D01*
X175055433Y-123232702D02*
X174997980Y-123175250D01*
X174940528Y-123232702D01*
X174997980Y-123290155D01*
X175055433Y-123232702D01*
X174940528Y-123232702D01*
X174308552Y-121738940D02*
X175515052Y-121738940D01*
X175515052Y-121279321D01*
X175457600Y-121164417D01*
X175400147Y-121106964D01*
X175285242Y-121049512D01*
X175112885Y-121049512D01*
X174997980Y-121106964D01*
X174940528Y-121164417D01*
X174883076Y-121279321D01*
X174883076Y-121738940D01*
X174940528Y-120532440D02*
X174940528Y-120130274D01*
X174308552Y-119957917D02*
X174308552Y-120532440D01*
X175515052Y-120532440D01*
X175515052Y-119957917D01*
X175515052Y-119613202D02*
X175515052Y-118923774D01*
X174308552Y-119268488D02*
X175515052Y-119268488D01*
X174940528Y-118521607D02*
X174940528Y-118119440D01*
X174308552Y-117947083D02*
X174308552Y-118521607D01*
X175515052Y-118521607D01*
X175515052Y-117947083D01*
X174308552Y-116740583D02*
X174883076Y-117142750D01*
X174308552Y-117430012D02*
X175515052Y-117430012D01*
X175515052Y-116970393D01*
X175457600Y-116855488D01*
X175400147Y-116798036D01*
X175285242Y-116740583D01*
X175112885Y-116740583D01*
X174997980Y-116798036D01*
X174940528Y-116855488D01*
X174883076Y-116970393D01*
X174883076Y-117430012D01*
X175515052Y-114959560D02*
X174653266Y-114959560D01*
X174480909Y-115017012D01*
X174366004Y-115131917D01*
X174308552Y-115304274D01*
X174308552Y-115419179D01*
X174653266Y-114442488D02*
X174653266Y-113867964D01*
X174308552Y-114557393D02*
X175515052Y-114155226D01*
X174308552Y-113753060D01*
X174308552Y-113350893D02*
X175515052Y-113350893D01*
X174308552Y-112661464D01*
X175515052Y-112661464D01*
X174366004Y-112144393D02*
X174308552Y-111972036D01*
X174308552Y-111684774D01*
X174366004Y-111569869D01*
X174423457Y-111512417D01*
X174538361Y-111454964D01*
X174653266Y-111454964D01*
X174768171Y-111512417D01*
X174825623Y-111569869D01*
X174883076Y-111684774D01*
X174940528Y-111914583D01*
X174997980Y-112029488D01*
X175055433Y-112086940D01*
X175170338Y-112144393D01*
X175285242Y-112144393D01*
X175400147Y-112086940D01*
X175457600Y-112029488D01*
X175515052Y-111914583D01*
X175515052Y-111627321D01*
X175457600Y-111454964D01*
X174940528Y-110937893D02*
X174940528Y-110535726D01*
X174308552Y-110363369D02*
X174308552Y-110937893D01*
X175515052Y-110937893D01*
X175515052Y-110363369D01*
X174308552Y-109846298D02*
X175515052Y-109846298D01*
X174308552Y-109156869D01*
X175515052Y-109156869D01*
X173400147Y-129207750D02*
X173457600Y-129150298D01*
X173515052Y-129035393D01*
X173515052Y-128748131D01*
X173457600Y-128633226D01*
X173400147Y-128575774D01*
X173285242Y-128518321D01*
X173170338Y-128518321D01*
X172997980Y-128575774D01*
X172308552Y-129265202D01*
X172308552Y-128518321D01*
X173400147Y-128058702D02*
X173457600Y-128001250D01*
X173515052Y-127886345D01*
X173515052Y-127599083D01*
X173457600Y-127484179D01*
X173400147Y-127426726D01*
X173285242Y-127369274D01*
X173170338Y-127369274D01*
X172997980Y-127426726D01*
X172308552Y-128116155D01*
X172308552Y-127369274D01*
X173515052Y-125588250D02*
X172653266Y-125588250D01*
X172480909Y-125645702D01*
X172366004Y-125760607D01*
X172308552Y-125932964D01*
X172308552Y-126047869D01*
X173515052Y-125013726D02*
X172538361Y-125013726D01*
X172423457Y-124956274D01*
X172366004Y-124898821D01*
X172308552Y-124783917D01*
X172308552Y-124554107D01*
X172366004Y-124439202D01*
X172423457Y-124381750D01*
X172538361Y-124324298D01*
X173515052Y-124324298D01*
X172308552Y-123749774D02*
X173515052Y-123749774D01*
X172308552Y-123060345D01*
X173515052Y-123060345D01*
X173400147Y-121624036D02*
X173457600Y-121566583D01*
X173515052Y-121451679D01*
X173515052Y-121164417D01*
X173457600Y-121049512D01*
X173400147Y-120992060D01*
X173285242Y-120934607D01*
X173170338Y-120934607D01*
X172997980Y-120992060D01*
X172308552Y-121681488D01*
X172308552Y-120934607D01*
X173515052Y-120187726D02*
X173515052Y-120072821D01*
X173457600Y-119957917D01*
X173400147Y-119900464D01*
X173285242Y-119843012D01*
X173055433Y-119785560D01*
X172768171Y-119785560D01*
X172538361Y-119843012D01*
X172423457Y-119900464D01*
X172366004Y-119957917D01*
X172308552Y-120072821D01*
X172308552Y-120187726D01*
X172366004Y-120302631D01*
X172423457Y-120360083D01*
X172538361Y-120417536D01*
X172768171Y-120474988D01*
X173055433Y-120474988D01*
X173285242Y-120417536D01*
X173400147Y-120360083D01*
X173457600Y-120302631D01*
X173515052Y-120187726D01*
X172308552Y-118636512D02*
X172308552Y-119325940D01*
X172308552Y-118981226D02*
X173515052Y-118981226D01*
X173342695Y-119096131D01*
X173227790Y-119211036D01*
X173170338Y-119325940D01*
X173400147Y-118176893D02*
X173457600Y-118119440D01*
X173515052Y-118004536D01*
X173515052Y-117717274D01*
X173457600Y-117602369D01*
X173400147Y-117544917D01*
X173285242Y-117487464D01*
X173170338Y-117487464D01*
X172997980Y-117544917D01*
X172308552Y-118234345D01*
X172308552Y-117487464D01*
M02*
