M48
;DRILL file {KiCad (5.0.0)} date 02/21/20 08:35:01
;FORMAT={-:-/ absolute / inch / decimal}
FMAT,2
INCH,TZ
T1C0.0200
T2C0.0236
T3C0.0400
T4C0.0433
T5C0.0472
T6C0.0591
T7C0.1102
T8C0.0354
T9C0.1300
%
G90
G05
M72
T1
X6.0502Y-3.4417
T2
X4.4202Y-4.2937
X4.4222Y-4.4327
X4.5262Y-4.4257
X4.5337Y-4.0042
X4.6862Y-3.3737
X4.6922Y-4.0737
X4.6949Y-4.006
X4.7382Y-4.7557
X4.8102Y-4.5617
X4.8762Y-3.3567
X4.9022Y-3.4897
X4.9409Y-4.7485
X4.9622Y-4.3997
X4.9762Y-4.5517
X4.9902Y-3.9273
X5.0282Y-3.6277
X5.1522Y-3.3717
X5.4682Y-4.6397
X5.5162Y-4.3297
X5.5462Y-4.6057
X5.6462Y-4.7497
X5.6522Y-3.4837
X5.6912Y-3.9967
X5.6922Y-3.4057
X5.8202Y-3.7697
X5.8542Y-4.4277
X5.9086Y-4.5636
X6.0602Y-4.6057
X6.1402Y-4.8336
X6.2172Y-3.8847
X6.2182Y-3.3097
X6.3042Y-4.5417
X6.3052Y-4.3297
X6.3162Y-3.6037
X6.3422Y-3.7357
X6.4122Y-3.8287
X6.5882Y-4.9677
X6.6042Y-4.7342
X6.6241Y-4.6163
X6.7482Y-4.8557
X6.7502Y-4.9397
X6.7962Y-4.4937
X6.8012Y-4.4194
X6.8702Y-3.5197
T3
X6.3973Y-3.1792
X6.3973Y-3.4352
X6.5753Y-3.1792
X6.5753Y-3.4352
X4.5524Y-3.1816
X4.5524Y-5.0816
X4.6524Y-3.1816
X4.6524Y-5.0816
X4.7524Y-3.1816
X4.7524Y-5.0816
X4.8524Y-3.1816
X4.8524Y-5.0816
X4.9524Y-3.1816
X4.9524Y-5.0816
X5.0524Y-3.1816
X5.0524Y-5.0816
X5.1524Y-5.0816
X5.2524Y-3.1816
X5.2524Y-5.0816
X5.3524Y-3.1816
X5.4024Y-5.0816
X5.4524Y-3.1816
X5.5024Y-5.0816
X5.5524Y-3.1816
X5.6024Y-5.0816
X5.6524Y-3.1816
X5.7024Y-5.0816
X5.7524Y-3.1816
X5.8024Y-5.0816
X5.9024Y-5.0816
X6.0024Y-5.0816
X6.1024Y-5.0816
X6.7028Y-3.1596
X6.8028Y-3.1596
X6.9028Y-3.1596
X7.0028Y-3.1596
T4
X7.1851Y-3.1564
X7.1851Y-3.2564
X7.1851Y-3.3564
X7.1851Y-3.4564
T5
X7.1851Y-4.2875
X7.1851Y-4.3875
X7.1851Y-4.4875
X7.1851Y-4.5875
X7.1851Y-4.6875
X7.1851Y-4.7875
T6
X5.9386Y-3.9035
X5.9386Y-4.0035
X5.9386Y-4.1035
X5.9386Y-4.2035
X6.5973Y-3.9053
X6.5973Y-4.0053
X6.5973Y-4.1053
X6.5973Y-4.2053
T7
X5.2332Y-3.8026
X5.2332Y-4.3341
X5.4989Y-4.0683
T8
X5.9941Y-3.1891
X6.1122Y-3.1891
T9
X4.4524Y-3.3816
X6.4524Y-5.0816
T0
M30
