G04 #@! TF.GenerationSoftware,KiCad,Pcbnew,(5.0.0)*
G04 #@! TF.CreationDate,2020-02-21T08:35:06-08:00*
G04 #@! TF.ProjectId,spirometer_v1_2psensors,737069726F6D657465725F76315F3270,rev?*
G04 #@! TF.SameCoordinates,Original*
G04 #@! TF.FileFunction,Legend,Top*
G04 #@! TF.FilePolarity,Positive*
%FSLAX46Y46*%
G04 Gerber Fmt 4.6, Leading zero omitted, Abs format (unit mm)*
G04 Created by KiCad (PCBNEW (5.0.0)) date 02/21/20 08:35:06*
%MOMM*%
%LPD*%
G01*
G04 APERTURE LIST*
%ADD10C,0.142240*%
%ADD11C,0.081280*%
%ADD12C,0.150000*%
%ADD13C,0.101600*%
%ADD14C,0.203200*%
%ADD15C,0.127000*%
%ADD16C,0.300000*%
%ADD17C,0.558800*%
%ADD18C,0.152400*%
%ADD19C,0.032512*%
%ADD20C,0.096520*%
%ADD21C,0.077216*%
G04 APERTURE END LIST*
D10*
X178210922Y-122923166D02*
X177647889Y-122118833D01*
X177245722Y-122923166D02*
X177245722Y-121234066D01*
X177889189Y-121234066D01*
X178050056Y-121314500D01*
X178130489Y-121394933D01*
X178210922Y-121555800D01*
X178210922Y-121797100D01*
X178130489Y-121957966D01*
X178050056Y-122038400D01*
X177889189Y-122118833D01*
X177245722Y-122118833D01*
X177567456Y-125618833D02*
X177567456Y-126423166D01*
X177004422Y-124734066D02*
X177567456Y-125618833D01*
X178130489Y-124734066D01*
X178130489Y-128314500D02*
X177969622Y-128234066D01*
X177728322Y-128234066D01*
X177487022Y-128314500D01*
X177326156Y-128475366D01*
X177245722Y-128636233D01*
X177165289Y-128957966D01*
X177165289Y-129199266D01*
X177245722Y-129521000D01*
X177326156Y-129681866D01*
X177487022Y-129842733D01*
X177728322Y-129923166D01*
X177889189Y-129923166D01*
X178130489Y-129842733D01*
X178210922Y-129762300D01*
X178210922Y-129199266D01*
X177889189Y-129199266D01*
D11*
X177437900Y-84205377D02*
X177391938Y-84297301D01*
X177391938Y-84435187D01*
X177437900Y-84573072D01*
X177529823Y-84664996D01*
X177621747Y-84710958D01*
X177805595Y-84756920D01*
X177943480Y-84756920D01*
X178127328Y-84710958D01*
X178219252Y-84664996D01*
X178311176Y-84573072D01*
X178357138Y-84435187D01*
X178357138Y-84343263D01*
X178311176Y-84205377D01*
X178265214Y-84159415D01*
X177943480Y-84159415D01*
X177943480Y-84343263D01*
X178357138Y-83745758D02*
X177391938Y-83745758D01*
X178357138Y-83194215D01*
X177391938Y-83194215D01*
X178357138Y-82734596D02*
X177391938Y-82734596D01*
X177391938Y-82504787D01*
X177437900Y-82366901D01*
X177529823Y-82274977D01*
X177621747Y-82229015D01*
X177805595Y-82183053D01*
X177943480Y-82183053D01*
X178127328Y-82229015D01*
X178219252Y-82274977D01*
X178311176Y-82366901D01*
X178357138Y-82504787D01*
X178357138Y-82734596D01*
X175821138Y-83402996D02*
X175821138Y-83219148D01*
X175775176Y-83127225D01*
X175729214Y-83081263D01*
X175591328Y-82989339D01*
X175407480Y-82943377D01*
X175039785Y-82943377D01*
X174947861Y-82989339D01*
X174901900Y-83035301D01*
X174855938Y-83127225D01*
X174855938Y-83311072D01*
X174901900Y-83402996D01*
X174947861Y-83448958D01*
X175039785Y-83494920D01*
X175269595Y-83494920D01*
X175361519Y-83448958D01*
X175407480Y-83402996D01*
X175453442Y-83311072D01*
X175453442Y-83127225D01*
X175407480Y-83035301D01*
X175361519Y-82989339D01*
X175269595Y-82943377D01*
X174855938Y-82667606D02*
X175821138Y-82345872D01*
X174855938Y-82024139D01*
X173159442Y-84210958D02*
X173159442Y-83475568D01*
X173527138Y-83843263D02*
X172791747Y-83843263D01*
X172561938Y-82602291D02*
X172561938Y-82786139D01*
X172607900Y-82878063D01*
X172653861Y-82924025D01*
X172791747Y-83015948D01*
X172975595Y-83061910D01*
X173343290Y-83061910D01*
X173435214Y-83015948D01*
X173481176Y-82969987D01*
X173527138Y-82878063D01*
X173527138Y-82694215D01*
X173481176Y-82602291D01*
X173435214Y-82556329D01*
X173343290Y-82510368D01*
X173113480Y-82510368D01*
X173021557Y-82556329D01*
X172975595Y-82602291D01*
X172929633Y-82694215D01*
X172929633Y-82878063D01*
X172975595Y-82969987D01*
X173021557Y-83015948D01*
X173113480Y-83061910D01*
X172561938Y-82234596D02*
X173527138Y-81912863D01*
X172561938Y-81591129D01*
X170369442Y-84210958D02*
X170369442Y-83475568D01*
X169771938Y-81866901D02*
X169771938Y-82050748D01*
X169817900Y-82142672D01*
X169863861Y-82188634D01*
X170001747Y-82280558D01*
X170185595Y-82326520D01*
X170553290Y-82326520D01*
X170645214Y-82280558D01*
X170691176Y-82234596D01*
X170737138Y-82142672D01*
X170737138Y-81958825D01*
X170691176Y-81866901D01*
X170645214Y-81820939D01*
X170553290Y-81774977D01*
X170323480Y-81774977D01*
X170231557Y-81820939D01*
X170185595Y-81866901D01*
X170139633Y-81958825D01*
X170139633Y-82142672D01*
X170185595Y-82234596D01*
X170231557Y-82280558D01*
X170323480Y-82326520D01*
X169771938Y-81499206D02*
X170737138Y-81177472D01*
X169771938Y-80855739D01*
X152483741Y-85697638D02*
X152483741Y-84732438D01*
X152851436Y-84732438D01*
X152943360Y-84778400D01*
X152989322Y-84824361D01*
X153035284Y-84916285D01*
X153035284Y-85054171D01*
X152989322Y-85146095D01*
X152943360Y-85192057D01*
X152851436Y-85238019D01*
X152483741Y-85238019D01*
X153357017Y-84732438D02*
X153586827Y-85697638D01*
X153770674Y-85008209D01*
X153954522Y-85697638D01*
X154184332Y-84732438D01*
X155103570Y-85697638D02*
X154781836Y-85238019D01*
X154552027Y-85697638D02*
X154552027Y-84732438D01*
X154919722Y-84732438D01*
X155011646Y-84778400D01*
X155057608Y-84824361D01*
X155103570Y-84916285D01*
X155103570Y-85054171D01*
X155057608Y-85146095D01*
X155011646Y-85192057D01*
X154919722Y-85238019D01*
X154552027Y-85238019D01*
X131401741Y-91539638D02*
X131401741Y-90574438D01*
X131769436Y-90574438D01*
X131861360Y-90620400D01*
X131907322Y-90666361D01*
X131953284Y-90758285D01*
X131953284Y-90896171D01*
X131907322Y-90988095D01*
X131861360Y-91034057D01*
X131769436Y-91080019D01*
X131401741Y-91080019D01*
X132275017Y-90574438D02*
X132504827Y-91539638D01*
X132688674Y-90850209D01*
X132872522Y-91539638D01*
X133102332Y-90574438D01*
X134021570Y-91539638D02*
X133699836Y-91080019D01*
X133470027Y-91539638D02*
X133470027Y-90574438D01*
X133837722Y-90574438D01*
X133929646Y-90620400D01*
X133975608Y-90666361D01*
X134021570Y-90758285D01*
X134021570Y-90896171D01*
X133975608Y-90988095D01*
X133929646Y-91034057D01*
X133837722Y-91080019D01*
X133470027Y-91080019D01*
X135354465Y-90574438D02*
X135538312Y-90574438D01*
X135630236Y-90620400D01*
X135722160Y-90712323D01*
X135768122Y-90896171D01*
X135768122Y-91217904D01*
X135722160Y-91401752D01*
X135630236Y-91493676D01*
X135538312Y-91539638D01*
X135354465Y-91539638D01*
X135262541Y-91493676D01*
X135170617Y-91401752D01*
X135124655Y-91217904D01*
X135124655Y-90896171D01*
X135170617Y-90712323D01*
X135262541Y-90620400D01*
X135354465Y-90574438D01*
X136181779Y-91539638D02*
X136181779Y-90574438D01*
X136733322Y-91539638D01*
X136733322Y-90574438D01*
X180095138Y-101462958D02*
X179129938Y-101462958D01*
X179819366Y-101141225D01*
X179129938Y-100819491D01*
X180095138Y-100819491D01*
X180095138Y-100359872D02*
X179129938Y-100359872D01*
X179129938Y-99992177D01*
X179175900Y-99900253D01*
X179221861Y-99854291D01*
X179313785Y-99808329D01*
X179451671Y-99808329D01*
X179543595Y-99854291D01*
X179589557Y-99900253D01*
X179635519Y-99992177D01*
X179635519Y-100359872D01*
X179129938Y-99486596D02*
X180095138Y-98843129D01*
X179129938Y-98843129D02*
X180095138Y-99486596D01*
X179129938Y-98015815D02*
X179129938Y-98475434D01*
X179589557Y-98521396D01*
X179543595Y-98475434D01*
X179497633Y-98383510D01*
X179497633Y-98153701D01*
X179543595Y-98061777D01*
X179589557Y-98015815D01*
X179681480Y-97969853D01*
X179911290Y-97969853D01*
X180003214Y-98015815D01*
X180049176Y-98061777D01*
X180095138Y-98153701D01*
X180095138Y-98383510D01*
X180049176Y-98475434D01*
X180003214Y-98521396D01*
X179129938Y-97372348D02*
X179129938Y-97280425D01*
X179175900Y-97188501D01*
X179221861Y-97142539D01*
X179313785Y-97096577D01*
X179497633Y-97050615D01*
X179727442Y-97050615D01*
X179911290Y-97096577D01*
X180003214Y-97142539D01*
X180049176Y-97188501D01*
X180095138Y-97280425D01*
X180095138Y-97372348D01*
X180049176Y-97464272D01*
X180003214Y-97510234D01*
X179911290Y-97556196D01*
X179727442Y-97602158D01*
X179497633Y-97602158D01*
X179313785Y-97556196D01*
X179221861Y-97510234D01*
X179175900Y-97464272D01*
X179129938Y-97372348D01*
X180095138Y-96131377D02*
X180095138Y-96682920D01*
X180095138Y-96407148D02*
X179129938Y-96407148D01*
X179267823Y-96499072D01*
X179359747Y-96590996D01*
X179405709Y-96682920D01*
X179129938Y-95533872D02*
X179129938Y-95441948D01*
X179175900Y-95350025D01*
X179221861Y-95304063D01*
X179313785Y-95258101D01*
X179497633Y-95212139D01*
X179727442Y-95212139D01*
X179911290Y-95258101D01*
X180003214Y-95304063D01*
X180049176Y-95350025D01*
X180095138Y-95441948D01*
X180095138Y-95533872D01*
X180049176Y-95625796D01*
X180003214Y-95671758D01*
X179911290Y-95717720D01*
X179727442Y-95763682D01*
X179497633Y-95763682D01*
X179313785Y-95717720D01*
X179221861Y-95671758D01*
X179175900Y-95625796D01*
X179129938Y-95533872D01*
X153289284Y-112275714D02*
X153243322Y-112321676D01*
X153105436Y-112367638D01*
X153013512Y-112367638D01*
X152875627Y-112321676D01*
X152783703Y-112229752D01*
X152737741Y-112137828D01*
X152691779Y-111953980D01*
X152691779Y-111816095D01*
X152737741Y-111632247D01*
X152783703Y-111540323D01*
X152875627Y-111448400D01*
X153013512Y-111402438D01*
X153105436Y-111402438D01*
X153243322Y-111448400D01*
X153289284Y-111494361D01*
X153886789Y-111402438D02*
X154070636Y-111402438D01*
X154162560Y-111448400D01*
X154254484Y-111540323D01*
X154300446Y-111724171D01*
X154300446Y-112045904D01*
X154254484Y-112229752D01*
X154162560Y-112321676D01*
X154070636Y-112367638D01*
X153886789Y-112367638D01*
X153794865Y-112321676D01*
X153702941Y-112229752D01*
X153656979Y-112045904D01*
X153656979Y-111724171D01*
X153702941Y-111540323D01*
X153794865Y-111448400D01*
X153886789Y-111402438D01*
X169501741Y-112367638D02*
X169501741Y-111402438D01*
X170053284Y-112367638D01*
X170053284Y-111402438D01*
X170696751Y-111402438D02*
X170880598Y-111402438D01*
X170972522Y-111448400D01*
X171064446Y-111540323D01*
X171110408Y-111724171D01*
X171110408Y-112045904D01*
X171064446Y-112229752D01*
X170972522Y-112321676D01*
X170880598Y-112367638D01*
X170696751Y-112367638D01*
X170604827Y-112321676D01*
X170512903Y-112229752D01*
X170466941Y-112045904D01*
X170466941Y-111724171D01*
X170512903Y-111540323D01*
X170604827Y-111448400D01*
X170696751Y-111402438D01*
X140729589Y-111402438D02*
X140913436Y-111402438D01*
X141005360Y-111448400D01*
X141097284Y-111540323D01*
X141143246Y-111724171D01*
X141143246Y-112045904D01*
X141097284Y-112229752D01*
X141005360Y-112321676D01*
X140913436Y-112367638D01*
X140729589Y-112367638D01*
X140637665Y-112321676D01*
X140545741Y-112229752D01*
X140499779Y-112045904D01*
X140499779Y-111724171D01*
X140545741Y-111540323D01*
X140637665Y-111448400D01*
X140729589Y-111402438D01*
X141510941Y-111494361D02*
X141556903Y-111448400D01*
X141648827Y-111402438D01*
X141878636Y-111402438D01*
X141970560Y-111448400D01*
X142016522Y-111494361D01*
X142062484Y-111586285D01*
X142062484Y-111678209D01*
X142016522Y-111816095D01*
X141464979Y-112367638D01*
X142062484Y-112367638D01*
D12*
X110501100Y-116503600D02*
X113001100Y-119003600D01*
X113001100Y-119003600D02*
X113001100Y-130253600D01*
X113001100Y-130253600D02*
X114501100Y-131753600D01*
X114501100Y-131753600D02*
X185501100Y-131753600D01*
X185501100Y-131753600D02*
X186501100Y-130753600D01*
X186501100Y-79503600D02*
X185251100Y-78253600D01*
X185251100Y-78253600D02*
X113251100Y-78253600D01*
X113251100Y-78253600D02*
X113251100Y-80753600D01*
X113251100Y-80753600D02*
X110501100Y-83503600D01*
X110501100Y-83503600D02*
X110501100Y-116503600D01*
D13*
X173854401Y-88196147D02*
X173854401Y-86989647D01*
X174314020Y-86989647D01*
X174428925Y-87047100D01*
X174486378Y-87104552D01*
X174543830Y-87219457D01*
X174543830Y-87391814D01*
X174486378Y-87506719D01*
X174428925Y-87564171D01*
X174314020Y-87621623D01*
X173854401Y-87621623D01*
X175290711Y-86989647D02*
X175520520Y-86989647D01*
X175635425Y-87047100D01*
X175750330Y-87162004D01*
X175807782Y-87391814D01*
X175807782Y-87793980D01*
X175750330Y-88023790D01*
X175635425Y-88138695D01*
X175520520Y-88196147D01*
X175290711Y-88196147D01*
X175175806Y-88138695D01*
X175060901Y-88023790D01*
X175003449Y-87793980D01*
X175003449Y-87391814D01*
X175060901Y-87162004D01*
X175175806Y-87047100D01*
X175290711Y-86989647D01*
X176209949Y-86989647D02*
X176497211Y-88196147D01*
X176727020Y-87334361D01*
X176956830Y-88196147D01*
X177244092Y-86989647D01*
X177703711Y-87564171D02*
X178105878Y-87564171D01*
X178278235Y-88196147D02*
X177703711Y-88196147D01*
X177703711Y-86989647D01*
X178278235Y-86989647D01*
X179484735Y-88196147D02*
X179082568Y-87621623D01*
X178795306Y-88196147D02*
X178795306Y-86989647D01*
X179254925Y-86989647D01*
X179369830Y-87047100D01*
X179427282Y-87104552D01*
X179484735Y-87219457D01*
X179484735Y-87391814D01*
X179427282Y-87506719D01*
X179369830Y-87564171D01*
X179254925Y-87621623D01*
X178795306Y-87621623D01*
D14*
G04 #@! TO.C,JP1*
X179141100Y-79618600D02*
X179141100Y-80888600D01*
X170886100Y-81523600D02*
X169616100Y-81523600D01*
X168981100Y-80888600D02*
X169616100Y-81523600D01*
X169616100Y-78983600D02*
X168981100Y-79618600D01*
X168981100Y-79618600D02*
X168981100Y-80888600D01*
X172156100Y-81523600D02*
X171521100Y-80888600D01*
X173426100Y-81523600D02*
X172156100Y-81523600D01*
X174061100Y-80888600D02*
X173426100Y-81523600D01*
X173426100Y-78983600D02*
X174061100Y-79618600D01*
X172156100Y-78983600D02*
X173426100Y-78983600D01*
X171521100Y-79618600D02*
X172156100Y-78983600D01*
X171521100Y-80888600D02*
X170886100Y-81523600D01*
X170886100Y-78983600D02*
X171521100Y-79618600D01*
X169616100Y-78983600D02*
X170886100Y-78983600D01*
X178506100Y-81523600D02*
X177236100Y-81523600D01*
X176601100Y-80888600D02*
X177236100Y-81523600D01*
X177236100Y-78983600D02*
X176601100Y-79618600D01*
X174696100Y-81523600D02*
X174061100Y-80888600D01*
X175966100Y-81523600D02*
X174696100Y-81523600D01*
X176601100Y-80888600D02*
X175966100Y-81523600D01*
X175966100Y-78983600D02*
X176601100Y-79618600D01*
X174696100Y-78983600D02*
X175966100Y-78983600D01*
X174061100Y-79618600D02*
X174696100Y-78983600D01*
X179141100Y-80888600D02*
X178506100Y-81523600D01*
X178506100Y-78983600D02*
X179141100Y-79618600D01*
X177236100Y-78983600D02*
X178506100Y-78983600D01*
G04 #@! TO.C,LED1*
X181951100Y-124603600D02*
X182551100Y-124003600D01*
X181951100Y-123403600D02*
X181951100Y-124603600D01*
X182551100Y-124003600D02*
X181951100Y-123403600D01*
X182551100Y-124003600D02*
X182551100Y-124703600D01*
X182551100Y-123303600D02*
X182551100Y-124003600D01*
X184651100Y-125003600D02*
X183251100Y-125003600D01*
X184651100Y-123003600D02*
X184651100Y-125003600D01*
X183251100Y-123003600D02*
X184651100Y-123003600D01*
X179851100Y-125003600D02*
X181251100Y-125003600D01*
X179851100Y-123003600D02*
X179851100Y-125003600D01*
X181251100Y-123003600D02*
X179851100Y-123003600D01*
G04 #@! TO.C,LED2*
X181951100Y-127103600D02*
X182551100Y-126503600D01*
X181951100Y-125903600D02*
X181951100Y-127103600D01*
X182551100Y-126503600D02*
X181951100Y-125903600D01*
X182551100Y-126503600D02*
X182551100Y-127203600D01*
X182551100Y-125803600D02*
X182551100Y-126503600D01*
X184651100Y-127503600D02*
X183251100Y-127503600D01*
X184651100Y-125503600D02*
X184651100Y-127503600D01*
X183251100Y-125503600D02*
X184651100Y-125503600D01*
X179851100Y-127503600D02*
X181251100Y-127503600D01*
X179851100Y-125503600D02*
X179851100Y-127503600D01*
X181251100Y-125503600D02*
X179851100Y-125503600D01*
G04 #@! TO.C,LED3*
X181951100Y-129603600D02*
X182551100Y-129003600D01*
X181951100Y-128403600D02*
X181951100Y-129603600D01*
X182551100Y-129003600D02*
X181951100Y-128403600D01*
X182551100Y-129003600D02*
X182551100Y-129703600D01*
X182551100Y-128303600D02*
X182551100Y-129003600D01*
X184651100Y-130003600D02*
X183251100Y-130003600D01*
X184651100Y-128003600D02*
X184651100Y-130003600D01*
X183251100Y-128003600D02*
X184651100Y-128003600D01*
X179851100Y-130003600D02*
X181251100Y-130003600D01*
X179851100Y-128003600D02*
X179851100Y-130003600D01*
X181251100Y-128003600D02*
X179851100Y-128003600D01*
G04 #@! TO.C,RESET1*
X166529100Y-84003600D02*
G75*
G03X166529100Y-84003600I-1778000J0D01*
G01*
X163723100Y-87051600D02*
X165767100Y-87051600D01*
X163753100Y-80955600D02*
X165767100Y-80955600D01*
X167799100Y-86162600D02*
X167799100Y-81844600D01*
X161703100Y-81844600D02*
X161703100Y-86162600D01*
D15*
G04 #@! TO.C,U$1*
X150401100Y-82303600D02*
X157101100Y-82303600D01*
X150401100Y-79703600D02*
X150401100Y-82303600D01*
X157101100Y-79703600D02*
X150401100Y-79703600D01*
X157101100Y-82303600D02*
X157101100Y-79703600D01*
G04 #@! TO.C,U$4*
X143423100Y-103335600D02*
G75*
G03X143423100Y-103335600I-10500000J0D01*
G01*
G04 #@! TO.C,U$5*
X120751100Y-111503600D02*
G75*
G03X120751100Y-111503600I-500000J0D01*
G01*
X114251100Y-111003600D02*
X114251100Y-114503600D01*
X119251100Y-111003600D02*
X114251100Y-111003600D01*
X119251100Y-114503600D02*
X119251100Y-111003600D01*
X114251100Y-114503600D02*
X119251100Y-114503600D01*
D16*
G04 #@! TO.C,R1*
G36*
X119479700Y-106122600D02*
X119022500Y-106122600D01*
X119022500Y-106884600D01*
X119479700Y-106884600D01*
X119479700Y-106122600D01*
G37*
G04 #@! TO.C,R2*
G36*
X120870100Y-112275000D02*
X120870100Y-112732200D01*
X121632100Y-112732200D01*
X121632100Y-112275000D01*
X120870100Y-112275000D01*
G37*
D17*
G04 #@! TO.C,C1*
X123281600Y-112503600D02*
X123220600Y-112503600D01*
G04 #@! TO.C,C2*
X115251100Y-106473100D02*
X115251100Y-106534100D01*
G04 #@! TO.C,C3*
X117495400Y-120146800D02*
X117556400Y-120146800D01*
D15*
G04 #@! TO.C,U$6*
X133751100Y-126503600D02*
G75*
G03X133751100Y-126503600I-500000J0D01*
G01*
X133751100Y-120503600D02*
X130251100Y-120503600D01*
X133751100Y-125503600D02*
X133751100Y-120503600D01*
X130251100Y-125503600D02*
X133751100Y-125503600D01*
X130251100Y-120503600D02*
X130251100Y-125503600D01*
G04 #@! TO.C,U$7*
X119251100Y-95003600D02*
G75*
G03X119251100Y-95003600I-500000J0D01*
G01*
X112751100Y-94503600D02*
X112751100Y-98003600D01*
X117751100Y-94503600D02*
X112751100Y-94503600D01*
X117751100Y-98003600D02*
X117751100Y-94503600D01*
X112751100Y-98003600D02*
X117751100Y-98003600D01*
G04 #@! TO.C,U$8*
X145251100Y-119503600D02*
X145251100Y-118003600D01*
X144001100Y-119503600D02*
X145251100Y-119503600D01*
X144001100Y-114503600D02*
X144001100Y-119503600D01*
X145251100Y-114503600D02*
X144001100Y-114503600D01*
X145251100Y-116003600D02*
X145251100Y-114503600D01*
D16*
G04 #@! TO.C,R3*
G36*
X139979700Y-122122600D02*
X139522500Y-122122600D01*
X139522500Y-122884600D01*
X139979700Y-122884600D01*
X139979700Y-122122600D01*
G37*
G04 #@! TO.C,R4*
G36*
X130479700Y-115122600D02*
X130022500Y-115122600D01*
X130022500Y-115884600D01*
X130479700Y-115884600D01*
X130479700Y-115122600D01*
G37*
G04 #@! TO.C,R5*
G36*
X134479700Y-115122600D02*
X134022500Y-115122600D01*
X134022500Y-115884600D01*
X134479700Y-115884600D01*
X134479700Y-115122600D01*
G37*
G04 #@! TO.C,R6*
G36*
X144479700Y-122122600D02*
X144022500Y-122122600D01*
X144022500Y-122884600D01*
X144479700Y-122884600D01*
X144479700Y-122122600D01*
G37*
G04 #@! TO.C,R7*
G36*
X122370100Y-89275000D02*
X122370100Y-89732200D01*
X123132100Y-89732200D01*
X123132100Y-89275000D01*
X122370100Y-89275000D01*
G37*
G04 #@! TO.C,R8*
G36*
X118022500Y-89884600D02*
X118479700Y-89884600D01*
X118479700Y-89122600D01*
X118022500Y-89122600D01*
X118022500Y-89884600D01*
G37*
G04 #@! TO.C,R9*
G36*
X119870100Y-94275000D02*
X119870100Y-94732200D01*
X120632100Y-94732200D01*
X120632100Y-94275000D01*
X119870100Y-94275000D01*
G37*
D17*
G04 #@! TO.C,C4*
X122781600Y-94503600D02*
X122720600Y-94503600D01*
G04 #@! TO.C,C5*
X134251100Y-118034100D02*
X134251100Y-117973100D01*
G04 #@! TO.C,C6*
X130251100Y-117973100D02*
X130251100Y-118034100D01*
G04 #@! TO.C,C7*
X139751100Y-119973100D02*
X139751100Y-120034100D01*
G04 #@! TO.C,C8*
X124649500Y-123719100D02*
X124649500Y-123780100D01*
G04 #@! TO.C,C9*
X114251100Y-89473100D02*
X114251100Y-89534100D01*
G04 #@! TO.C,C10*
X115251100Y-103534100D02*
X115251100Y-103473100D01*
D15*
G04 #@! TO.C,U$9*
X161251100Y-117503600D02*
G75*
G03X161251100Y-117503600I-500000J0D01*
G01*
X160251100Y-123503600D02*
X163751100Y-123503600D01*
X160251100Y-118503600D02*
X160251100Y-123503600D01*
X163751100Y-118503600D02*
X160251100Y-118503600D01*
X163751100Y-123503600D02*
X163751100Y-118503600D01*
G04 #@! TO.C,U$10*
X151251100Y-95003600D02*
G75*
G03X151251100Y-95003600I-500000J0D01*
G01*
X151251100Y-89003600D02*
X147751100Y-89003600D01*
X151251100Y-94003600D02*
X151251100Y-89003600D01*
X147751100Y-94003600D02*
X151251100Y-94003600D01*
X147751100Y-89003600D02*
X147751100Y-94003600D01*
D16*
G04 #@! TO.C,R10*
G36*
X153022500Y-122884600D02*
X153479700Y-122884600D01*
X153479700Y-122122600D01*
X153022500Y-122122600D01*
X153022500Y-122884600D01*
G37*
G04 #@! TO.C,R11*
G36*
X149022500Y-122884600D02*
X149479700Y-122884600D01*
X149479700Y-122122600D01*
X149022500Y-122122600D01*
X149022500Y-122884600D01*
G37*
G04 #@! TO.C,R12*
G36*
X153022500Y-120384600D02*
X153479700Y-120384600D01*
X153479700Y-119622600D01*
X153022500Y-119622600D01*
X153022500Y-120384600D01*
G37*
G04 #@! TO.C,R13*
G36*
X149022500Y-120384600D02*
X149479700Y-120384600D01*
X149479700Y-119622600D01*
X149022500Y-119622600D01*
X149022500Y-120384600D01*
G37*
G04 #@! TO.C,R14*
G36*
X159522500Y-113384600D02*
X159979700Y-113384600D01*
X159979700Y-112622600D01*
X159522500Y-112622600D01*
X159522500Y-113384600D01*
G37*
G04 #@! TO.C,R15*
G36*
X163522500Y-113384600D02*
X163979700Y-113384600D01*
X163979700Y-112622600D01*
X163522500Y-112622600D01*
X163522500Y-113384600D01*
G37*
G04 #@! TO.C,R16*
G36*
X157979700Y-93622600D02*
X157522500Y-93622600D01*
X157522500Y-94384600D01*
X157979700Y-94384600D01*
X157979700Y-93622600D01*
G37*
G04 #@! TO.C,R17*
G36*
X157979700Y-91122600D02*
X157522500Y-91122600D01*
X157522500Y-91884600D01*
X157979700Y-91884600D01*
X157979700Y-91122600D01*
G37*
G04 #@! TO.C,R18*
G36*
X149479700Y-84872600D02*
X149022500Y-84872600D01*
X149022500Y-85634600D01*
X149479700Y-85634600D01*
X149479700Y-84872600D01*
G37*
D17*
G04 #@! TO.C,C11*
X163751100Y-115473100D02*
X163751100Y-115534100D01*
G04 #@! TO.C,C12*
X149251100Y-87284100D02*
X149251100Y-87223100D01*
G04 #@! TO.C,C13*
X159751100Y-125973100D02*
X159751100Y-126034100D01*
G04 #@! TO.C,C14*
X169315000Y-121097600D02*
X169376000Y-121097600D01*
G04 #@! TO.C,C15*
X157827100Y-89057100D02*
X157827100Y-89118100D01*
G04 #@! TO.C,C16*
X142333100Y-92319100D02*
X142333100Y-92380100D01*
D16*
G04 #@! TO.C,R19*
G36*
X174522500Y-122368600D02*
X174979700Y-122368600D01*
X174979700Y-121606600D01*
X174522500Y-121606600D01*
X174522500Y-122368600D01*
G37*
G04 #@! TO.C,R20*
G36*
X174522500Y-125876600D02*
X174979700Y-125876600D01*
X174979700Y-125114600D01*
X174522500Y-125114600D01*
X174522500Y-125876600D01*
G37*
G04 #@! TO.C,R21*
G36*
X174522500Y-129384600D02*
X174979700Y-129384600D01*
X174979700Y-128622600D01*
X174522500Y-128622600D01*
X174522500Y-129384600D01*
G37*
D15*
G04 #@! TO.C,U$11*
X179961100Y-106363600D02*
X179961100Y-124143600D01*
X185041100Y-106363600D02*
X179961100Y-106363600D01*
X185041100Y-124143600D02*
X185041100Y-106363600D01*
X179961100Y-124143600D02*
X185041100Y-124143600D01*
D17*
G04 #@! TO.C,C17*
X178376400Y-110536000D02*
X178315400Y-110536000D01*
D14*
G04 #@! TO.C,LED4*
X134551100Y-87903600D02*
X133951100Y-88503600D01*
X134551100Y-89103600D02*
X134551100Y-87903600D01*
X133951100Y-88503600D02*
X134551100Y-89103600D01*
X133951100Y-88503600D02*
X133951100Y-87803600D01*
X133951100Y-89203600D02*
X133951100Y-88503600D01*
X131851100Y-87503600D02*
X133251100Y-87503600D01*
X131851100Y-89503600D02*
X131851100Y-87503600D01*
X133251100Y-89503600D02*
X131851100Y-89503600D01*
X136651100Y-87503600D02*
X135251100Y-87503600D01*
X136651100Y-89503600D02*
X136651100Y-87503600D01*
X135251100Y-89503600D02*
X136651100Y-89503600D01*
D16*
G04 #@! TO.C,R22*
G36*
X140479700Y-88122600D02*
X140022500Y-88122600D01*
X140022500Y-88884600D01*
X140479700Y-88884600D01*
X140479700Y-88122600D01*
G37*
D15*
G04 #@! TO.C,U$12*
X152111100Y-94068600D02*
X152111100Y-95338600D01*
X154651100Y-94068600D02*
X152111100Y-94068600D01*
X154651100Y-95338600D02*
X154651100Y-94068600D01*
X160881100Y-102958600D02*
G75*
G03X160881100Y-102958600I-7500000J0D01*
G01*
G04 #@! TO.C,U$2*
X171381100Y-94113600D02*
X171381100Y-95383600D01*
X168841100Y-94113600D02*
X171381100Y-94113600D01*
X168841100Y-95383600D02*
X168841100Y-94113600D01*
X177361100Y-103003600D02*
G75*
G03X177361100Y-103003600I-7250000J0D01*
G01*
G04 #@! TO.C,U$3*
X179961100Y-76363600D02*
X185041100Y-76363600D01*
X179961100Y-91603600D02*
X179961100Y-76363600D01*
X185041100Y-91603600D02*
X179961100Y-91603600D01*
X185041100Y-76363600D02*
X185041100Y-91603600D01*
G04 #@! TO.C,U1*
D18*
X116093138Y-126923187D02*
X115633519Y-127244920D01*
X116093138Y-127474730D02*
X115127938Y-127474730D01*
X115127938Y-127107035D01*
X115173900Y-127015111D01*
X115219861Y-126969149D01*
X115311785Y-126923187D01*
X115449671Y-126923187D01*
X115541595Y-126969149D01*
X115587557Y-127015111D01*
X115633519Y-127107035D01*
X115633519Y-127474730D01*
X115127938Y-126601454D02*
X116093138Y-125957987D01*
X115127938Y-125957987D02*
X116093138Y-126601454D01*
X117667938Y-127612616D02*
X117667938Y-127061073D01*
X118633138Y-127336844D02*
X117667938Y-127336844D01*
X117667938Y-126831263D02*
X118633138Y-126187797D01*
X117667938Y-126187797D02*
X118633138Y-126831263D01*
X120299861Y-127520692D02*
X120253900Y-127474730D01*
X120207938Y-127382806D01*
X120207938Y-127152997D01*
X120253900Y-127061073D01*
X120299861Y-127015111D01*
X120391785Y-126969149D01*
X120483709Y-126969149D01*
X120621595Y-127015111D01*
X121173138Y-127566654D01*
X121173138Y-126969149D01*
X122747938Y-127566654D02*
X122747938Y-126969149D01*
X123115633Y-127290882D01*
X123115633Y-127152997D01*
X123161595Y-127061073D01*
X123207557Y-127015111D01*
X123299480Y-126969149D01*
X123529290Y-126969149D01*
X123621214Y-127015111D01*
X123667176Y-127061073D01*
X123713138Y-127152997D01*
X123713138Y-127428768D01*
X123667176Y-127520692D01*
X123621214Y-127566654D01*
X125609671Y-127061073D02*
X126253138Y-127061073D01*
X125241976Y-127290882D02*
X125931404Y-127520692D01*
X125931404Y-126923187D01*
X127827938Y-127015111D02*
X127827938Y-127474730D01*
X128287557Y-127520692D01*
X128241595Y-127474730D01*
X128195633Y-127382806D01*
X128195633Y-127152997D01*
X128241595Y-127061073D01*
X128287557Y-127015111D01*
X128379480Y-126969149D01*
X128609290Y-126969149D01*
X128701214Y-127015111D01*
X128747176Y-127061073D01*
X128793138Y-127152997D01*
X128793138Y-127382806D01*
X128747176Y-127474730D01*
X128701214Y-127520692D01*
X130367938Y-127061073D02*
X130367938Y-127244920D01*
X130413900Y-127336844D01*
X130459861Y-127382806D01*
X130597747Y-127474730D01*
X130781595Y-127520692D01*
X131149290Y-127520692D01*
X131241214Y-127474730D01*
X131287176Y-127428768D01*
X131333138Y-127336844D01*
X131333138Y-127152997D01*
X131287176Y-127061073D01*
X131241214Y-127015111D01*
X131149290Y-126969149D01*
X130919480Y-126969149D01*
X130827557Y-127015111D01*
X130781595Y-127061073D01*
X130735633Y-127152997D01*
X130735633Y-127336844D01*
X130781595Y-127428768D01*
X130827557Y-127474730D01*
X130919480Y-127520692D01*
X132907938Y-127566654D02*
X132907938Y-126923187D01*
X133873138Y-127336844D01*
X137131595Y-127336844D02*
X137085633Y-127428768D01*
X137039671Y-127474730D01*
X136947747Y-127520692D01*
X136901785Y-127520692D01*
X136809861Y-127474730D01*
X136763900Y-127428768D01*
X136717938Y-127336844D01*
X136717938Y-127152997D01*
X136763900Y-127061073D01*
X136809861Y-127015111D01*
X136901785Y-126969149D01*
X136947747Y-126969149D01*
X137039671Y-127015111D01*
X137085633Y-127061073D01*
X137131595Y-127152997D01*
X137131595Y-127336844D01*
X137177557Y-127428768D01*
X137223519Y-127474730D01*
X137315442Y-127520692D01*
X137499290Y-127520692D01*
X137591214Y-127474730D01*
X137637176Y-127428768D01*
X137683138Y-127336844D01*
X137683138Y-127152997D01*
X137637176Y-127061073D01*
X137591214Y-127015111D01*
X137499290Y-126969149D01*
X137315442Y-126969149D01*
X137223519Y-127015111D01*
X137177557Y-127061073D01*
X137131595Y-127152997D01*
X140223138Y-127428768D02*
X140223138Y-127244920D01*
X140177176Y-127152997D01*
X140131214Y-127107035D01*
X139993328Y-127015111D01*
X139809480Y-126969149D01*
X139441785Y-126969149D01*
X139349861Y-127015111D01*
X139303900Y-127061073D01*
X139257938Y-127152997D01*
X139257938Y-127336844D01*
X139303900Y-127428768D01*
X139349861Y-127474730D01*
X139441785Y-127520692D01*
X139671595Y-127520692D01*
X139763519Y-127474730D01*
X139809480Y-127428768D01*
X139855442Y-127336844D01*
X139855442Y-127152997D01*
X139809480Y-127061073D01*
X139763519Y-127015111D01*
X139671595Y-126969149D01*
X142763138Y-126969149D02*
X142763138Y-127520692D01*
X142763138Y-127244920D02*
X141797938Y-127244920D01*
X141935823Y-127336844D01*
X142027747Y-127428768D01*
X142073709Y-127520692D01*
X141797938Y-126371644D02*
X141797938Y-126279720D01*
X141843900Y-126187797D01*
X141889861Y-126141835D01*
X141981785Y-126095873D01*
X142165633Y-126049911D01*
X142395442Y-126049911D01*
X142579290Y-126095873D01*
X142671214Y-126141835D01*
X142717176Y-126187797D01*
X142763138Y-126279720D01*
X142763138Y-126371644D01*
X142717176Y-126463568D01*
X142671214Y-126509530D01*
X142579290Y-126555492D01*
X142395442Y-126601454D01*
X142165633Y-126601454D01*
X141981785Y-126555492D01*
X141889861Y-126509530D01*
X141843900Y-126463568D01*
X141797938Y-126371644D01*
X155187366Y-127520692D02*
X155187366Y-127061073D01*
X155463138Y-127612616D02*
X154497938Y-127290882D01*
X155463138Y-126969149D01*
X155463138Y-126095873D02*
X155003519Y-126417606D01*
X155463138Y-126647416D02*
X154497938Y-126647416D01*
X154497938Y-126279720D01*
X154543900Y-126187797D01*
X154589861Y-126141835D01*
X154681785Y-126095873D01*
X154819671Y-126095873D01*
X154911595Y-126141835D01*
X154957557Y-126187797D01*
X155003519Y-126279720D01*
X155003519Y-126647416D01*
X154957557Y-125682216D02*
X154957557Y-125360482D01*
X155463138Y-125222597D02*
X155463138Y-125682216D01*
X154497938Y-125682216D01*
X154497938Y-125222597D01*
X154957557Y-124487206D02*
X154957557Y-124808940D01*
X155463138Y-124808940D02*
X154497938Y-124808940D01*
X154497938Y-124349320D01*
X145303138Y-126969149D02*
X145303138Y-127520692D01*
X145303138Y-127244920D02*
X144337938Y-127244920D01*
X144475823Y-127336844D01*
X144567747Y-127428768D01*
X144613709Y-127520692D01*
X145303138Y-126049911D02*
X145303138Y-126601454D01*
X145303138Y-126325682D02*
X144337938Y-126325682D01*
X144475823Y-126417606D01*
X144567747Y-126509530D01*
X144613709Y-126601454D01*
X147843138Y-126969149D02*
X147843138Y-127520692D01*
X147843138Y-127244920D02*
X146877938Y-127244920D01*
X147015823Y-127336844D01*
X147107747Y-127428768D01*
X147153709Y-127520692D01*
X146969861Y-126601454D02*
X146923900Y-126555492D01*
X146877938Y-126463568D01*
X146877938Y-126233759D01*
X146923900Y-126141835D01*
X146969861Y-126095873D01*
X147061785Y-126049911D01*
X147153709Y-126049911D01*
X147291595Y-126095873D01*
X147843138Y-126647416D01*
X147843138Y-126049911D01*
X150383138Y-126969149D02*
X150383138Y-127520692D01*
X150383138Y-127244920D02*
X149417938Y-127244920D01*
X149555823Y-127336844D01*
X149647747Y-127428768D01*
X149693709Y-127520692D01*
X149417938Y-126647416D02*
X149417938Y-126049911D01*
X149785633Y-126371644D01*
X149785633Y-126233759D01*
X149831595Y-126141835D01*
X149877557Y-126095873D01*
X149969480Y-126049911D01*
X150199290Y-126049911D01*
X150291214Y-126095873D01*
X150337176Y-126141835D01*
X150383138Y-126233759D01*
X150383138Y-126509530D01*
X150337176Y-126601454D01*
X150291214Y-126647416D01*
X152003900Y-126969149D02*
X151957938Y-127061073D01*
X151957938Y-127198959D01*
X152003900Y-127336844D01*
X152095823Y-127428768D01*
X152187747Y-127474730D01*
X152371595Y-127520692D01*
X152509480Y-127520692D01*
X152693328Y-127474730D01*
X152785252Y-127428768D01*
X152877176Y-127336844D01*
X152923138Y-127198959D01*
X152923138Y-127107035D01*
X152877176Y-126969149D01*
X152831214Y-126923187D01*
X152509480Y-126923187D01*
X152509480Y-127107035D01*
X152923138Y-126509530D02*
X151957938Y-126509530D01*
X152923138Y-125957987D01*
X151957938Y-125957987D01*
X152923138Y-125498368D02*
X151957938Y-125498368D01*
X151957938Y-125268559D01*
X152003900Y-125130673D01*
X152095823Y-125038749D01*
X152187747Y-124992787D01*
X152371595Y-124946825D01*
X152509480Y-124946825D01*
X152693328Y-124992787D01*
X152785252Y-125038749D01*
X152877176Y-125130673D01*
X152923138Y-125268559D01*
X152923138Y-125498368D01*
X111234601Y-85381366D02*
X111694220Y-85381366D01*
X111142678Y-85657138D02*
X111464411Y-84691938D01*
X111786144Y-85657138D01*
X112107878Y-85013671D02*
X112107878Y-85657138D01*
X112107878Y-85105595D02*
X112153840Y-85059633D01*
X112245763Y-85013671D01*
X112383649Y-85013671D01*
X112475573Y-85059633D01*
X112521535Y-85151557D01*
X112521535Y-85657138D01*
X113394811Y-85657138D02*
X113394811Y-85151557D01*
X113348849Y-85059633D01*
X113256925Y-85013671D01*
X113073078Y-85013671D01*
X112981154Y-85059633D01*
X113394811Y-85611176D02*
X113302887Y-85657138D01*
X113073078Y-85657138D01*
X112981154Y-85611176D01*
X112935192Y-85519252D01*
X112935192Y-85427328D01*
X112981154Y-85335404D01*
X113073078Y-85289442D01*
X113302887Y-85289442D01*
X113394811Y-85243480D01*
X113992316Y-85657138D02*
X113900392Y-85611176D01*
X113854430Y-85519252D01*
X113854430Y-84691938D01*
X114497897Y-85657138D02*
X114405973Y-85611176D01*
X114360011Y-85565214D01*
X114314049Y-85473290D01*
X114314049Y-85197519D01*
X114360011Y-85105595D01*
X114405973Y-85059633D01*
X114497897Y-85013671D01*
X114635782Y-85013671D01*
X114727706Y-85059633D01*
X114773668Y-85105595D01*
X114819630Y-85197519D01*
X114819630Y-85473290D01*
X114773668Y-85565214D01*
X114727706Y-85611176D01*
X114635782Y-85657138D01*
X114497897Y-85657138D01*
X115646944Y-85013671D02*
X115646944Y-85795023D01*
X115600982Y-85886947D01*
X115555020Y-85932909D01*
X115463097Y-85978871D01*
X115325211Y-85978871D01*
X115233287Y-85932909D01*
X115646944Y-85611176D02*
X115555020Y-85657138D01*
X115371173Y-85657138D01*
X115279249Y-85611176D01*
X115233287Y-85565214D01*
X115187325Y-85473290D01*
X115187325Y-85197519D01*
X115233287Y-85105595D01*
X115279249Y-85059633D01*
X115371173Y-85013671D01*
X115555020Y-85013671D01*
X115646944Y-85059633D01*
X116841954Y-85657138D02*
X116841954Y-84691938D01*
X117301573Y-85013671D02*
X117301573Y-85657138D01*
X117301573Y-85105595D02*
X117347535Y-85059633D01*
X117439459Y-85013671D01*
X117577344Y-85013671D01*
X117669268Y-85059633D01*
X117715230Y-85151557D01*
X117715230Y-85657138D01*
X115077138Y-82526769D02*
X115077138Y-82986388D01*
X115536757Y-83032350D01*
X115490795Y-82986388D01*
X115444833Y-82894464D01*
X115444833Y-82664655D01*
X115490795Y-82572731D01*
X115536757Y-82526769D01*
X115628680Y-82480807D01*
X115858490Y-82480807D01*
X115950414Y-82526769D01*
X115996376Y-82572731D01*
X116042338Y-82664655D01*
X116042338Y-82894464D01*
X115996376Y-82986388D01*
X115950414Y-83032350D01*
X117938871Y-82572731D02*
X118582338Y-82572731D01*
X117571176Y-82802540D02*
X118260604Y-83032350D01*
X118260604Y-82434845D01*
X120157138Y-83078312D02*
X120157138Y-82480807D01*
X120524833Y-82802540D01*
X120524833Y-82664655D01*
X120570795Y-82572731D01*
X120616757Y-82526769D01*
X120708680Y-82480807D01*
X120938490Y-82480807D01*
X121030414Y-82526769D01*
X121076376Y-82572731D01*
X121122338Y-82664655D01*
X121122338Y-82940426D01*
X121076376Y-83032350D01*
X121030414Y-83078312D01*
X122789061Y-83032350D02*
X122743100Y-82986388D01*
X122697138Y-82894464D01*
X122697138Y-82664655D01*
X122743100Y-82572731D01*
X122789061Y-82526769D01*
X122880985Y-82480807D01*
X122972909Y-82480807D01*
X123110795Y-82526769D01*
X123662338Y-83078312D01*
X123662338Y-82480807D01*
X126202338Y-82480807D02*
X126202338Y-83032350D01*
X126202338Y-82756579D02*
X125237138Y-82756579D01*
X125375023Y-82848502D01*
X125466947Y-82940426D01*
X125512909Y-83032350D01*
X127777138Y-82802540D02*
X127777138Y-82710617D01*
X127823100Y-82618693D01*
X127869061Y-82572731D01*
X127960985Y-82526769D01*
X128144833Y-82480807D01*
X128374642Y-82480807D01*
X128558490Y-82526769D01*
X128650414Y-82572731D01*
X128696376Y-82618693D01*
X128742338Y-82710617D01*
X128742338Y-82802540D01*
X128696376Y-82894464D01*
X128650414Y-82940426D01*
X128558490Y-82986388D01*
X128374642Y-83032350D01*
X128144833Y-83032350D01*
X127960985Y-82986388D01*
X127869061Y-82940426D01*
X127823100Y-82894464D01*
X127777138Y-82802540D01*
X143614642Y-86387569D02*
X143614642Y-85652179D01*
X143982338Y-86019874D02*
X143246947Y-86019874D01*
X143017138Y-85284483D02*
X143017138Y-84686979D01*
X143384833Y-85008712D01*
X143384833Y-84870826D01*
X143430795Y-84778902D01*
X143476757Y-84732940D01*
X143568680Y-84686979D01*
X143798490Y-84686979D01*
X143890414Y-84732940D01*
X143936376Y-84778902D01*
X143982338Y-84870826D01*
X143982338Y-85146598D01*
X143936376Y-85238521D01*
X143890414Y-85284483D01*
X143890414Y-84273321D02*
X143936376Y-84227360D01*
X143982338Y-84273321D01*
X143936376Y-84319283D01*
X143890414Y-84273321D01*
X143982338Y-84273321D01*
X143017138Y-83905626D02*
X143017138Y-83308121D01*
X143384833Y-83629855D01*
X143384833Y-83491969D01*
X143430795Y-83400045D01*
X143476757Y-83354083D01*
X143568680Y-83308121D01*
X143798490Y-83308121D01*
X143890414Y-83354083D01*
X143936376Y-83400045D01*
X143982338Y-83491969D01*
X143982338Y-83767740D01*
X143936376Y-83859664D01*
X143890414Y-83905626D01*
X143017138Y-83032350D02*
X143982338Y-82710617D01*
X143017138Y-82388883D01*
X132857138Y-84503131D02*
X133822338Y-84181398D01*
X132857138Y-83859664D01*
X133822338Y-83537931D02*
X132857138Y-83537931D01*
X133822338Y-83078312D02*
X132857138Y-83078312D01*
X133822338Y-82526769D01*
X132857138Y-82526769D01*
X146522338Y-84135436D02*
X146062719Y-84457169D01*
X146522338Y-84686979D02*
X145557138Y-84686979D01*
X145557138Y-84319283D01*
X145603100Y-84227360D01*
X145649061Y-84181398D01*
X145740985Y-84135436D01*
X145878871Y-84135436D01*
X145970795Y-84181398D01*
X146016757Y-84227360D01*
X146062719Y-84319283D01*
X146062719Y-84686979D01*
X146476376Y-83767740D02*
X146522338Y-83629855D01*
X146522338Y-83400045D01*
X146476376Y-83308121D01*
X146430414Y-83262160D01*
X146338490Y-83216198D01*
X146246566Y-83216198D01*
X146154642Y-83262160D01*
X146108680Y-83308121D01*
X146062719Y-83400045D01*
X146016757Y-83583893D01*
X145970795Y-83675817D01*
X145924833Y-83721779D01*
X145832909Y-83767740D01*
X145740985Y-83767740D01*
X145649061Y-83721779D01*
X145603100Y-83675817D01*
X145557138Y-83583893D01*
X145557138Y-83354083D01*
X145603100Y-83216198D01*
X145557138Y-82940426D02*
X145557138Y-82388883D01*
X146522338Y-82664655D02*
X145557138Y-82664655D01*
X141074642Y-85008712D02*
X141074642Y-84273321D01*
X141442338Y-84641017D02*
X140706947Y-84641017D01*
X140477138Y-83354083D02*
X140477138Y-83813702D01*
X140936757Y-83859664D01*
X140890795Y-83813702D01*
X140844833Y-83721779D01*
X140844833Y-83491969D01*
X140890795Y-83400045D01*
X140936757Y-83354083D01*
X141028680Y-83308121D01*
X141258490Y-83308121D01*
X141350414Y-83354083D01*
X141396376Y-83400045D01*
X141442338Y-83491969D01*
X141442338Y-83721779D01*
X141396376Y-83813702D01*
X141350414Y-83859664D01*
X140477138Y-83032350D02*
X141442338Y-82710617D01*
X140477138Y-82388883D01*
X135443100Y-84503131D02*
X135397138Y-84595055D01*
X135397138Y-84732940D01*
X135443100Y-84870826D01*
X135535023Y-84962750D01*
X135626947Y-85008712D01*
X135810795Y-85054674D01*
X135948680Y-85054674D01*
X136132528Y-85008712D01*
X136224452Y-84962750D01*
X136316376Y-84870826D01*
X136362338Y-84732940D01*
X136362338Y-84641017D01*
X136316376Y-84503131D01*
X136270414Y-84457169D01*
X135948680Y-84457169D01*
X135948680Y-84641017D01*
X136362338Y-84043512D02*
X135397138Y-84043512D01*
X136362338Y-83491969D01*
X135397138Y-83491969D01*
X136362338Y-83032350D02*
X135397138Y-83032350D01*
X135397138Y-82802540D01*
X135443100Y-82664655D01*
X135535023Y-82572731D01*
X135626947Y-82526769D01*
X135810795Y-82480807D01*
X135948680Y-82480807D01*
X136132528Y-82526769D01*
X136224452Y-82572731D01*
X136316376Y-82664655D01*
X136362338Y-82802540D01*
X136362338Y-83032350D01*
X137983100Y-84503131D02*
X137937138Y-84595055D01*
X137937138Y-84732940D01*
X137983100Y-84870826D01*
X138075023Y-84962750D01*
X138166947Y-85008712D01*
X138350795Y-85054674D01*
X138488680Y-85054674D01*
X138672528Y-85008712D01*
X138764452Y-84962750D01*
X138856376Y-84870826D01*
X138902338Y-84732940D01*
X138902338Y-84641017D01*
X138856376Y-84503131D01*
X138810414Y-84457169D01*
X138488680Y-84457169D01*
X138488680Y-84641017D01*
X138902338Y-84043512D02*
X137937138Y-84043512D01*
X138902338Y-83491969D01*
X137937138Y-83491969D01*
X138902338Y-83032350D02*
X137937138Y-83032350D01*
X137937138Y-82802540D01*
X137983100Y-82664655D01*
X138075023Y-82572731D01*
X138166947Y-82526769D01*
X138350795Y-82480807D01*
X138488680Y-82480807D01*
X138672528Y-82526769D01*
X138764452Y-82572731D01*
X138856376Y-82664655D01*
X138902338Y-82802540D01*
X138902338Y-83032350D01*
G04 #@! TO.C,LED1*
D19*
X181659004Y-122588215D02*
X181475156Y-122588215D01*
X181475156Y-122202135D01*
X181787697Y-122385982D02*
X181916390Y-122385982D01*
X181971545Y-122588215D02*
X181787697Y-122588215D01*
X181787697Y-122202135D01*
X181971545Y-122202135D01*
X182137008Y-122588215D02*
X182137008Y-122202135D01*
X182228931Y-122202135D01*
X182284086Y-122220520D01*
X182320855Y-122257289D01*
X182339240Y-122294059D01*
X182357625Y-122367598D01*
X182357625Y-122422752D01*
X182339240Y-122496291D01*
X182320855Y-122533060D01*
X182284086Y-122569830D01*
X182228931Y-122588215D01*
X182137008Y-122588215D01*
X182725320Y-122588215D02*
X182504703Y-122588215D01*
X182615011Y-122588215D02*
X182615011Y-122202135D01*
X182578242Y-122257289D01*
X182541472Y-122294059D01*
X182504703Y-122312443D01*
G04 #@! TO.C,LED2*
X181659004Y-125088215D02*
X181475156Y-125088215D01*
X181475156Y-124702135D01*
X181787697Y-124885982D02*
X181916390Y-124885982D01*
X181971545Y-125088215D02*
X181787697Y-125088215D01*
X181787697Y-124702135D01*
X181971545Y-124702135D01*
X182137008Y-125088215D02*
X182137008Y-124702135D01*
X182228931Y-124702135D01*
X182284086Y-124720520D01*
X182320855Y-124757289D01*
X182339240Y-124794059D01*
X182357625Y-124867598D01*
X182357625Y-124922752D01*
X182339240Y-124996291D01*
X182320855Y-125033060D01*
X182284086Y-125069830D01*
X182228931Y-125088215D01*
X182137008Y-125088215D01*
X182504703Y-124738904D02*
X182523088Y-124720520D01*
X182559857Y-124702135D01*
X182651781Y-124702135D01*
X182688550Y-124720520D01*
X182706935Y-124738904D01*
X182725320Y-124775674D01*
X182725320Y-124812443D01*
X182706935Y-124867598D01*
X182486318Y-125088215D01*
X182725320Y-125088215D01*
G04 #@! TO.C,LED3*
X181659004Y-127588215D02*
X181475156Y-127588215D01*
X181475156Y-127202135D01*
X181787697Y-127385982D02*
X181916390Y-127385982D01*
X181971545Y-127588215D02*
X181787697Y-127588215D01*
X181787697Y-127202135D01*
X181971545Y-127202135D01*
X182137008Y-127588215D02*
X182137008Y-127202135D01*
X182228931Y-127202135D01*
X182284086Y-127220520D01*
X182320855Y-127257289D01*
X182339240Y-127294059D01*
X182357625Y-127367598D01*
X182357625Y-127422752D01*
X182339240Y-127496291D01*
X182320855Y-127533060D01*
X182284086Y-127569830D01*
X182228931Y-127588215D01*
X182137008Y-127588215D01*
X182486318Y-127202135D02*
X182725320Y-127202135D01*
X182596627Y-127349213D01*
X182651781Y-127349213D01*
X182688550Y-127367598D01*
X182706935Y-127385982D01*
X182725320Y-127422752D01*
X182725320Y-127514676D01*
X182706935Y-127551445D01*
X182688550Y-127569830D01*
X182651781Y-127588215D01*
X182541472Y-127588215D01*
X182504703Y-127569830D01*
X182486318Y-127551445D01*
G04 #@! TO.C,RESET1*
D15*
X160883647Y-85484359D02*
X160309123Y-85886526D01*
X160883647Y-86173788D02*
X159677147Y-86173788D01*
X159677147Y-85714169D01*
X159734600Y-85599264D01*
X159792052Y-85541811D01*
X159906957Y-85484359D01*
X160079314Y-85484359D01*
X160194219Y-85541811D01*
X160251671Y-85599264D01*
X160309123Y-85714169D01*
X160309123Y-86173788D01*
X160251671Y-84967288D02*
X160251671Y-84565121D01*
X160883647Y-84392764D02*
X160883647Y-84967288D01*
X159677147Y-84967288D01*
X159677147Y-84392764D01*
X160826195Y-83933145D02*
X160883647Y-83760788D01*
X160883647Y-83473526D01*
X160826195Y-83358621D01*
X160768742Y-83301169D01*
X160653838Y-83243716D01*
X160538933Y-83243716D01*
X160424028Y-83301169D01*
X160366576Y-83358621D01*
X160309123Y-83473526D01*
X160251671Y-83703335D01*
X160194219Y-83818240D01*
X160136766Y-83875692D01*
X160021861Y-83933145D01*
X159906957Y-83933145D01*
X159792052Y-83875692D01*
X159734600Y-83818240D01*
X159677147Y-83703335D01*
X159677147Y-83416073D01*
X159734600Y-83243716D01*
X160251671Y-82726645D02*
X160251671Y-82324478D01*
X160883647Y-82152121D02*
X160883647Y-82726645D01*
X159677147Y-82726645D01*
X159677147Y-82152121D01*
X159677147Y-81807407D02*
X159677147Y-81117978D01*
X160883647Y-81462692D02*
X159677147Y-81462692D01*
X160883647Y-80083835D02*
X160883647Y-80773264D01*
X160883647Y-80428550D02*
X159677147Y-80428550D01*
X159849504Y-80543454D01*
X159964409Y-80658359D01*
X160021861Y-80773264D01*
G04 #@! TO.C,U$4*
D20*
X137273099Y-96907647D02*
X137273099Y-97884338D01*
X137330552Y-97999242D01*
X137388004Y-98056695D01*
X137502909Y-98114147D01*
X137732718Y-98114147D01*
X137847623Y-98056695D01*
X137905076Y-97999242D01*
X137962528Y-97884338D01*
X137962528Y-96907647D01*
X138479599Y-98056695D02*
X138651957Y-98114147D01*
X138939218Y-98114147D01*
X139054123Y-98056695D01*
X139111576Y-97999242D01*
X139169028Y-97884338D01*
X139169028Y-97769433D01*
X139111576Y-97654528D01*
X139054123Y-97597076D01*
X138939218Y-97539623D01*
X138709409Y-97482171D01*
X138594504Y-97424719D01*
X138537052Y-97367266D01*
X138479599Y-97252361D01*
X138479599Y-97137457D01*
X138537052Y-97022552D01*
X138594504Y-96965100D01*
X138709409Y-96907647D01*
X138996671Y-96907647D01*
X139169028Y-96965100D01*
X138824314Y-96735290D02*
X138824314Y-98286504D01*
X140203171Y-97309814D02*
X140203171Y-98114147D01*
X139915909Y-96850195D02*
X139628647Y-97711980D01*
X140375528Y-97711980D01*
D13*
X125309147Y-97672488D02*
X125309147Y-97442679D01*
X125366600Y-97327774D01*
X125481504Y-97212869D01*
X125711314Y-97155417D01*
X126113480Y-97155417D01*
X126343290Y-97212869D01*
X126458195Y-97327774D01*
X126515647Y-97442679D01*
X126515647Y-97672488D01*
X126458195Y-97787393D01*
X126343290Y-97902298D01*
X126113480Y-97959750D01*
X125711314Y-97959750D01*
X125481504Y-97902298D01*
X125366600Y-97787393D01*
X125309147Y-97672488D01*
X125424052Y-96695798D02*
X125366600Y-96638345D01*
X125309147Y-96523440D01*
X125309147Y-96236179D01*
X125366600Y-96121274D01*
X125424052Y-96063821D01*
X125538957Y-96006369D01*
X125653861Y-96006369D01*
X125826219Y-96063821D01*
X126515647Y-96753250D01*
X126515647Y-96006369D01*
X126458195Y-94627512D02*
X126515647Y-94455155D01*
X126515647Y-94167893D01*
X126458195Y-94052988D01*
X126400742Y-93995536D01*
X126285838Y-93938083D01*
X126170933Y-93938083D01*
X126056028Y-93995536D01*
X125998576Y-94052988D01*
X125941123Y-94167893D01*
X125883671Y-94397702D01*
X125826219Y-94512607D01*
X125768766Y-94570060D01*
X125653861Y-94627512D01*
X125538957Y-94627512D01*
X125424052Y-94570060D01*
X125366600Y-94512607D01*
X125309147Y-94397702D01*
X125309147Y-94110440D01*
X125366600Y-93938083D01*
X125883671Y-93421012D02*
X125883671Y-93018845D01*
X126515647Y-92846488D02*
X126515647Y-93421012D01*
X125309147Y-93421012D01*
X125309147Y-92846488D01*
X126515647Y-92329417D02*
X125309147Y-92329417D01*
X126515647Y-91639988D01*
X125309147Y-91639988D01*
X126458195Y-91122917D02*
X126515647Y-90950560D01*
X126515647Y-90663298D01*
X126458195Y-90548393D01*
X126400742Y-90490940D01*
X126285838Y-90433488D01*
X126170933Y-90433488D01*
X126056028Y-90490940D01*
X125998576Y-90548393D01*
X125941123Y-90663298D01*
X125883671Y-90893107D01*
X125826219Y-91008012D01*
X125768766Y-91065464D01*
X125653861Y-91122917D01*
X125538957Y-91122917D01*
X125424052Y-91065464D01*
X125366600Y-91008012D01*
X125309147Y-90893107D01*
X125309147Y-90605845D01*
X125366600Y-90433488D01*
X125309147Y-89686607D02*
X125309147Y-89456798D01*
X125366600Y-89341893D01*
X125481504Y-89226988D01*
X125711314Y-89169536D01*
X126113480Y-89169536D01*
X126343290Y-89226988D01*
X126458195Y-89341893D01*
X126515647Y-89456798D01*
X126515647Y-89686607D01*
X126458195Y-89801512D01*
X126343290Y-89916417D01*
X126113480Y-89973869D01*
X125711314Y-89973869D01*
X125481504Y-89916417D01*
X125366600Y-89801512D01*
X125309147Y-89686607D01*
X126515647Y-87963036D02*
X125941123Y-88365202D01*
X126515647Y-88652464D02*
X125309147Y-88652464D01*
X125309147Y-88192845D01*
X125366600Y-88077940D01*
X125424052Y-88020488D01*
X125538957Y-87963036D01*
X125711314Y-87963036D01*
X125826219Y-88020488D01*
X125883671Y-88077940D01*
X125941123Y-88192845D01*
X125941123Y-88652464D01*
G04 #@! TO.C,U$5*
X112193647Y-112844425D02*
X113170338Y-112844425D01*
X113285242Y-112786973D01*
X113342695Y-112729520D01*
X113400147Y-112614616D01*
X113400147Y-112384806D01*
X113342695Y-112269901D01*
X113285242Y-112212449D01*
X113170338Y-112154997D01*
X112193647Y-112154997D01*
X113342695Y-111637925D02*
X113400147Y-111465568D01*
X113400147Y-111178306D01*
X113342695Y-111063401D01*
X113285242Y-111005949D01*
X113170338Y-110948497D01*
X113055433Y-110948497D01*
X112940528Y-111005949D01*
X112883076Y-111063401D01*
X112825623Y-111178306D01*
X112768171Y-111408116D01*
X112710719Y-111523020D01*
X112653266Y-111580473D01*
X112538361Y-111637925D01*
X112423457Y-111637925D01*
X112308552Y-111580473D01*
X112251100Y-111523020D01*
X112193647Y-111408116D01*
X112193647Y-111120854D01*
X112251100Y-110948497D01*
X112021290Y-111293211D02*
X113572504Y-111293211D01*
X112193647Y-109856901D02*
X112193647Y-110431425D01*
X112768171Y-110488878D01*
X112710719Y-110431425D01*
X112653266Y-110316520D01*
X112653266Y-110029259D01*
X112710719Y-109914354D01*
X112768171Y-109856901D01*
X112883076Y-109799449D01*
X113170338Y-109799449D01*
X113285242Y-109856901D01*
X113342695Y-109914354D01*
X113400147Y-110029259D01*
X113400147Y-110316520D01*
X113342695Y-110431425D01*
X113285242Y-110488878D01*
G04 #@! TO.C,R1*
D11*
X119484182Y-108184838D02*
X119162448Y-107725219D01*
X118932639Y-108184838D02*
X118932639Y-107219638D01*
X119300334Y-107219638D01*
X119392258Y-107265600D01*
X119438220Y-107311561D01*
X119484182Y-107403485D01*
X119484182Y-107541371D01*
X119438220Y-107633295D01*
X119392258Y-107679257D01*
X119300334Y-107725219D01*
X118932639Y-107725219D01*
X120403420Y-108184838D02*
X119851877Y-108184838D01*
X120127648Y-108184838D02*
X120127648Y-107219638D01*
X120035725Y-107357523D01*
X119943801Y-107449447D01*
X119851877Y-107495409D01*
G04 #@! TO.C,R2*
D21*
X121682338Y-115267876D02*
X121222719Y-115589609D01*
X121682338Y-115819418D02*
X120717138Y-115819418D01*
X120717138Y-115451723D01*
X120763100Y-115359799D01*
X120809061Y-115313838D01*
X120900985Y-115267876D01*
X121038871Y-115267876D01*
X121130795Y-115313838D01*
X121176757Y-115359799D01*
X121222719Y-115451723D01*
X121222719Y-115819418D01*
X120809061Y-114900180D02*
X120763100Y-114854218D01*
X120717138Y-114762295D01*
X120717138Y-114532485D01*
X120763100Y-114440561D01*
X120809061Y-114394599D01*
X120900985Y-114348638D01*
X120992909Y-114348638D01*
X121130795Y-114394599D01*
X121682338Y-114946142D01*
X121682338Y-114348638D01*
G04 #@! TO.C,C1*
X123601214Y-115061057D02*
X123647176Y-115107019D01*
X123693138Y-115244904D01*
X123693138Y-115336828D01*
X123647176Y-115474714D01*
X123555252Y-115566638D01*
X123463328Y-115612600D01*
X123279480Y-115658561D01*
X123141595Y-115658561D01*
X122957747Y-115612600D01*
X122865823Y-115566638D01*
X122773900Y-115474714D01*
X122727938Y-115336828D01*
X122727938Y-115244904D01*
X122773900Y-115107019D01*
X122819861Y-115061057D01*
X123693138Y-114141819D02*
X123693138Y-114693361D01*
X123693138Y-114417590D02*
X122727938Y-114417590D01*
X122865823Y-114509514D01*
X122957747Y-114601438D01*
X123003709Y-114693361D01*
G04 #@! TO.C,C2*
D11*
X114696284Y-105603714D02*
X114650322Y-105649676D01*
X114512436Y-105695638D01*
X114420512Y-105695638D01*
X114282627Y-105649676D01*
X114190703Y-105557752D01*
X114144741Y-105465828D01*
X114098779Y-105281980D01*
X114098779Y-105144095D01*
X114144741Y-104960247D01*
X114190703Y-104868323D01*
X114282627Y-104776400D01*
X114420512Y-104730438D01*
X114512436Y-104730438D01*
X114650322Y-104776400D01*
X114696284Y-104822361D01*
X115063979Y-104822361D02*
X115109941Y-104776400D01*
X115201865Y-104730438D01*
X115431674Y-104730438D01*
X115523598Y-104776400D01*
X115569560Y-104822361D01*
X115615522Y-104914285D01*
X115615522Y-105006209D01*
X115569560Y-105144095D01*
X115018017Y-105695638D01*
X115615522Y-105695638D01*
G04 #@! TO.C,C3*
X116626014Y-120701615D02*
X116671976Y-120747577D01*
X116717938Y-120885463D01*
X116717938Y-120977387D01*
X116671976Y-121115272D01*
X116580052Y-121207196D01*
X116488128Y-121253158D01*
X116304280Y-121299120D01*
X116166395Y-121299120D01*
X115982547Y-121253158D01*
X115890623Y-121207196D01*
X115798700Y-121115272D01*
X115752738Y-120977387D01*
X115752738Y-120885463D01*
X115798700Y-120747577D01*
X115844661Y-120701615D01*
X115752738Y-120379882D02*
X115752738Y-119782377D01*
X116120433Y-120104110D01*
X116120433Y-119966225D01*
X116166395Y-119874301D01*
X116212357Y-119828339D01*
X116304280Y-119782377D01*
X116534090Y-119782377D01*
X116626014Y-119828339D01*
X116671976Y-119874301D01*
X116717938Y-119966225D01*
X116717938Y-120241996D01*
X116671976Y-120333920D01*
X116626014Y-120379882D01*
G04 #@! TO.C,U$6*
D20*
X136443647Y-126341123D02*
X137420338Y-126341123D01*
X137535242Y-126283671D01*
X137592695Y-126226218D01*
X137650147Y-126111314D01*
X137650147Y-125881504D01*
X137592695Y-125766599D01*
X137535242Y-125709147D01*
X137420338Y-125651695D01*
X136443647Y-125651695D01*
X137592695Y-125134623D02*
X137650147Y-124962266D01*
X137650147Y-124675004D01*
X137592695Y-124560099D01*
X137535242Y-124502647D01*
X137420338Y-124445195D01*
X137305433Y-124445195D01*
X137190528Y-124502647D01*
X137133076Y-124560099D01*
X137075623Y-124675004D01*
X137018171Y-124904814D01*
X136960719Y-125019718D01*
X136903266Y-125077171D01*
X136788361Y-125134623D01*
X136673457Y-125134623D01*
X136558552Y-125077171D01*
X136501100Y-125019718D01*
X136443647Y-124904814D01*
X136443647Y-124617552D01*
X136501100Y-124445195D01*
X136271290Y-124789909D02*
X137822504Y-124789909D01*
X136443647Y-123411052D02*
X136443647Y-123640861D01*
X136501100Y-123755766D01*
X136558552Y-123813218D01*
X136730909Y-123928123D01*
X136960719Y-123985576D01*
X137420338Y-123985576D01*
X137535242Y-123928123D01*
X137592695Y-123870671D01*
X137650147Y-123755766D01*
X137650147Y-123525957D01*
X137592695Y-123411052D01*
X137535242Y-123353599D01*
X137420338Y-123296147D01*
X137133076Y-123296147D01*
X137018171Y-123353599D01*
X136960719Y-123411052D01*
X136903266Y-123525957D01*
X136903266Y-123755766D01*
X136960719Y-123870671D01*
X137018171Y-123928123D01*
X137133076Y-123985576D01*
G04 #@! TO.C,U$7*
D13*
X110693647Y-96344425D02*
X111670338Y-96344425D01*
X111785242Y-96286973D01*
X111842695Y-96229520D01*
X111900147Y-96114616D01*
X111900147Y-95884806D01*
X111842695Y-95769901D01*
X111785242Y-95712449D01*
X111670338Y-95654997D01*
X110693647Y-95654997D01*
X111842695Y-95137925D02*
X111900147Y-94965568D01*
X111900147Y-94678306D01*
X111842695Y-94563401D01*
X111785242Y-94505949D01*
X111670338Y-94448497D01*
X111555433Y-94448497D01*
X111440528Y-94505949D01*
X111383076Y-94563401D01*
X111325623Y-94678306D01*
X111268171Y-94908116D01*
X111210719Y-95023020D01*
X111153266Y-95080473D01*
X111038361Y-95137925D01*
X110923457Y-95137925D01*
X110808552Y-95080473D01*
X110751100Y-95023020D01*
X110693647Y-94908116D01*
X110693647Y-94620854D01*
X110751100Y-94448497D01*
X110521290Y-94793211D02*
X112072504Y-94793211D01*
X110693647Y-94046330D02*
X110693647Y-93241997D01*
X111900147Y-93759068D01*
G04 #@! TO.C,U$8*
X140693647Y-116844425D02*
X141670338Y-116844425D01*
X141785242Y-116786973D01*
X141842695Y-116729520D01*
X141900147Y-116614616D01*
X141900147Y-116384806D01*
X141842695Y-116269901D01*
X141785242Y-116212449D01*
X141670338Y-116154997D01*
X140693647Y-116154997D01*
X141842695Y-115637925D02*
X141900147Y-115465568D01*
X141900147Y-115178306D01*
X141842695Y-115063401D01*
X141785242Y-115005949D01*
X141670338Y-114948497D01*
X141555433Y-114948497D01*
X141440528Y-115005949D01*
X141383076Y-115063401D01*
X141325623Y-115178306D01*
X141268171Y-115408116D01*
X141210719Y-115523020D01*
X141153266Y-115580473D01*
X141038361Y-115637925D01*
X140923457Y-115637925D01*
X140808552Y-115580473D01*
X140751100Y-115523020D01*
X140693647Y-115408116D01*
X140693647Y-115120854D01*
X140751100Y-114948497D01*
X140521290Y-115293211D02*
X142072504Y-115293211D01*
X141210719Y-114259068D02*
X141153266Y-114373973D01*
X141095814Y-114431425D01*
X140980909Y-114488878D01*
X140923457Y-114488878D01*
X140808552Y-114431425D01*
X140751100Y-114373973D01*
X140693647Y-114259068D01*
X140693647Y-114029259D01*
X140751100Y-113914354D01*
X140808552Y-113856901D01*
X140923457Y-113799449D01*
X140980909Y-113799449D01*
X141095814Y-113856901D01*
X141153266Y-113914354D01*
X141210719Y-114029259D01*
X141210719Y-114259068D01*
X141268171Y-114373973D01*
X141325623Y-114431425D01*
X141440528Y-114488878D01*
X141670338Y-114488878D01*
X141785242Y-114431425D01*
X141842695Y-114373973D01*
X141900147Y-114259068D01*
X141900147Y-114029259D01*
X141842695Y-113914354D01*
X141785242Y-113856901D01*
X141670338Y-113799449D01*
X141440528Y-113799449D01*
X141325623Y-113856901D01*
X141268171Y-113914354D01*
X141210719Y-114029259D01*
G04 #@! TO.C,R3*
D21*
X139986823Y-124184838D02*
X139665090Y-123725219D01*
X139435281Y-124184838D02*
X139435281Y-123219638D01*
X139802976Y-123219638D01*
X139894900Y-123265600D01*
X139940861Y-123311561D01*
X139986823Y-123403485D01*
X139986823Y-123541371D01*
X139940861Y-123633295D01*
X139894900Y-123679257D01*
X139802976Y-123725219D01*
X139435281Y-123725219D01*
X140308557Y-123219638D02*
X140906061Y-123219638D01*
X140584328Y-123587333D01*
X140722214Y-123587333D01*
X140814138Y-123633295D01*
X140860100Y-123679257D01*
X140906061Y-123771180D01*
X140906061Y-124000990D01*
X140860100Y-124092914D01*
X140814138Y-124138876D01*
X140722214Y-124184838D01*
X140446442Y-124184838D01*
X140354519Y-124138876D01*
X140308557Y-124092914D01*
G04 #@! TO.C,R4*
X127736823Y-115934838D02*
X127415090Y-115475219D01*
X127185281Y-115934838D02*
X127185281Y-114969638D01*
X127552976Y-114969638D01*
X127644900Y-115015600D01*
X127690861Y-115061561D01*
X127736823Y-115153485D01*
X127736823Y-115291371D01*
X127690861Y-115383295D01*
X127644900Y-115429257D01*
X127552976Y-115475219D01*
X127185281Y-115475219D01*
X128564138Y-115291371D02*
X128564138Y-115934838D01*
X128334328Y-114923676D02*
X128104519Y-115613104D01*
X128702023Y-115613104D01*
G04 #@! TO.C,R5*
X136736823Y-115934838D02*
X136415090Y-115475219D01*
X136185281Y-115934838D02*
X136185281Y-114969638D01*
X136552976Y-114969638D01*
X136644900Y-115015600D01*
X136690861Y-115061561D01*
X136736823Y-115153485D01*
X136736823Y-115291371D01*
X136690861Y-115383295D01*
X136644900Y-115429257D01*
X136552976Y-115475219D01*
X136185281Y-115475219D01*
X137610100Y-114969638D02*
X137150481Y-114969638D01*
X137104519Y-115429257D01*
X137150481Y-115383295D01*
X137242404Y-115337333D01*
X137472214Y-115337333D01*
X137564138Y-115383295D01*
X137610100Y-115429257D01*
X137656061Y-115521180D01*
X137656061Y-115750990D01*
X137610100Y-115842914D01*
X137564138Y-115888876D01*
X137472214Y-115934838D01*
X137242404Y-115934838D01*
X137150481Y-115888876D01*
X137104519Y-115842914D01*
G04 #@! TO.C,R6*
X144486823Y-124184838D02*
X144165090Y-123725219D01*
X143935281Y-124184838D02*
X143935281Y-123219638D01*
X144302976Y-123219638D01*
X144394900Y-123265600D01*
X144440861Y-123311561D01*
X144486823Y-123403485D01*
X144486823Y-123541371D01*
X144440861Y-123633295D01*
X144394900Y-123679257D01*
X144302976Y-123725219D01*
X143935281Y-123725219D01*
X145314138Y-123219638D02*
X145130290Y-123219638D01*
X145038366Y-123265600D01*
X144992404Y-123311561D01*
X144900481Y-123449447D01*
X144854519Y-123633295D01*
X144854519Y-124000990D01*
X144900481Y-124092914D01*
X144946442Y-124138876D01*
X145038366Y-124184838D01*
X145222214Y-124184838D01*
X145314138Y-124138876D01*
X145360100Y-124092914D01*
X145406061Y-124000990D01*
X145406061Y-123771180D01*
X145360100Y-123679257D01*
X145314138Y-123633295D01*
X145222214Y-123587333D01*
X145038366Y-123587333D01*
X144946442Y-123633295D01*
X144900481Y-123679257D01*
X144854519Y-123771180D01*
G04 #@! TO.C,R7*
X124443138Y-89811057D02*
X123983519Y-90132790D01*
X124443138Y-90362600D02*
X123477938Y-90362600D01*
X123477938Y-89994904D01*
X123523900Y-89902981D01*
X123569861Y-89857019D01*
X123661785Y-89811057D01*
X123799671Y-89811057D01*
X123891595Y-89857019D01*
X123937557Y-89902981D01*
X123983519Y-89994904D01*
X123983519Y-90362600D01*
X123477938Y-89489323D02*
X123477938Y-88845857D01*
X124443138Y-89259514D01*
G04 #@! TO.C,R8*
D11*
X117696284Y-88695638D02*
X117374551Y-88236019D01*
X117144741Y-88695638D02*
X117144741Y-87730438D01*
X117512436Y-87730438D01*
X117604360Y-87776400D01*
X117650322Y-87822361D01*
X117696284Y-87914285D01*
X117696284Y-88052171D01*
X117650322Y-88144095D01*
X117604360Y-88190057D01*
X117512436Y-88236019D01*
X117144741Y-88236019D01*
X118247827Y-88144095D02*
X118155903Y-88098133D01*
X118109941Y-88052171D01*
X118063979Y-87960247D01*
X118063979Y-87914285D01*
X118109941Y-87822361D01*
X118155903Y-87776400D01*
X118247827Y-87730438D01*
X118431674Y-87730438D01*
X118523598Y-87776400D01*
X118569560Y-87822361D01*
X118615522Y-87914285D01*
X118615522Y-87960247D01*
X118569560Y-88052171D01*
X118523598Y-88098133D01*
X118431674Y-88144095D01*
X118247827Y-88144095D01*
X118155903Y-88190057D01*
X118109941Y-88236019D01*
X118063979Y-88327942D01*
X118063979Y-88511790D01*
X118109941Y-88603714D01*
X118155903Y-88649676D01*
X118247827Y-88695638D01*
X118431674Y-88695638D01*
X118523598Y-88649676D01*
X118569560Y-88603714D01*
X118615522Y-88511790D01*
X118615522Y-88327942D01*
X118569560Y-88236019D01*
X118523598Y-88190057D01*
X118431674Y-88144095D01*
G04 #@! TO.C,R9*
D21*
X120682338Y-97267876D02*
X120222719Y-97589609D01*
X120682338Y-97819418D02*
X119717138Y-97819418D01*
X119717138Y-97451723D01*
X119763100Y-97359799D01*
X119809061Y-97313838D01*
X119900985Y-97267876D01*
X120038871Y-97267876D01*
X120130795Y-97313838D01*
X120176757Y-97359799D01*
X120222719Y-97451723D01*
X120222719Y-97819418D01*
X120682338Y-96808257D02*
X120682338Y-96624409D01*
X120636376Y-96532485D01*
X120590414Y-96486523D01*
X120452528Y-96394599D01*
X120268680Y-96348638D01*
X119900985Y-96348638D01*
X119809061Y-96394599D01*
X119763100Y-96440561D01*
X119717138Y-96532485D01*
X119717138Y-96716333D01*
X119763100Y-96808257D01*
X119809061Y-96854218D01*
X119900985Y-96900180D01*
X120130795Y-96900180D01*
X120222719Y-96854218D01*
X120268680Y-96808257D01*
X120314642Y-96716333D01*
X120314642Y-96532485D01*
X120268680Y-96440561D01*
X120222719Y-96394599D01*
X120130795Y-96348638D01*
G04 #@! TO.C,C4*
X123090414Y-97267876D02*
X123136376Y-97313838D01*
X123182338Y-97451723D01*
X123182338Y-97543647D01*
X123136376Y-97681533D01*
X123044452Y-97773457D01*
X122952528Y-97819418D01*
X122768680Y-97865380D01*
X122630795Y-97865380D01*
X122446947Y-97819418D01*
X122355023Y-97773457D01*
X122263100Y-97681533D01*
X122217138Y-97543647D01*
X122217138Y-97451723D01*
X122263100Y-97313838D01*
X122309061Y-97267876D01*
X122538871Y-96440561D02*
X123182338Y-96440561D01*
X122171176Y-96670371D02*
X122860604Y-96900180D01*
X122860604Y-96302676D01*
G04 #@! TO.C,C5*
X136943642Y-118353714D02*
X136897680Y-118399676D01*
X136759795Y-118445638D01*
X136667871Y-118445638D01*
X136529985Y-118399676D01*
X136438061Y-118307752D01*
X136392099Y-118215828D01*
X136346138Y-118031980D01*
X136346138Y-117894095D01*
X136392099Y-117710247D01*
X136438061Y-117618323D01*
X136529985Y-117526400D01*
X136667871Y-117480438D01*
X136759795Y-117480438D01*
X136897680Y-117526400D01*
X136943642Y-117572361D01*
X137816918Y-117480438D02*
X137357299Y-117480438D01*
X137311338Y-117940057D01*
X137357299Y-117894095D01*
X137449223Y-117848133D01*
X137679033Y-117848133D01*
X137770957Y-117894095D01*
X137816918Y-117940057D01*
X137862880Y-118031980D01*
X137862880Y-118261790D01*
X137816918Y-118353714D01*
X137770957Y-118399676D01*
X137679033Y-118445638D01*
X137449223Y-118445638D01*
X137357299Y-118399676D01*
X137311338Y-118353714D01*
G04 #@! TO.C,C6*
X127693642Y-118353714D02*
X127647680Y-118399676D01*
X127509795Y-118445638D01*
X127417871Y-118445638D01*
X127279985Y-118399676D01*
X127188061Y-118307752D01*
X127142099Y-118215828D01*
X127096138Y-118031980D01*
X127096138Y-117894095D01*
X127142099Y-117710247D01*
X127188061Y-117618323D01*
X127279985Y-117526400D01*
X127417871Y-117480438D01*
X127509795Y-117480438D01*
X127647680Y-117526400D01*
X127693642Y-117572361D01*
X128520957Y-117480438D02*
X128337109Y-117480438D01*
X128245185Y-117526400D01*
X128199223Y-117572361D01*
X128107299Y-117710247D01*
X128061338Y-117894095D01*
X128061338Y-118261790D01*
X128107299Y-118353714D01*
X128153261Y-118399676D01*
X128245185Y-118445638D01*
X128429033Y-118445638D01*
X128520957Y-118399676D01*
X128566918Y-118353714D01*
X128612880Y-118261790D01*
X128612880Y-118031980D01*
X128566918Y-117940057D01*
X128520957Y-117894095D01*
X128429033Y-117848133D01*
X128245185Y-117848133D01*
X128153261Y-117894095D01*
X128107299Y-117940057D01*
X128061338Y-118031980D01*
G04 #@! TO.C,C7*
X137193642Y-120353714D02*
X137147680Y-120399676D01*
X137009795Y-120445638D01*
X136917871Y-120445638D01*
X136779985Y-120399676D01*
X136688061Y-120307752D01*
X136642099Y-120215828D01*
X136596138Y-120031980D01*
X136596138Y-119894095D01*
X136642099Y-119710247D01*
X136688061Y-119618323D01*
X136779985Y-119526400D01*
X136917871Y-119480438D01*
X137009795Y-119480438D01*
X137147680Y-119526400D01*
X137193642Y-119572361D01*
X137515376Y-119480438D02*
X138158842Y-119480438D01*
X137745185Y-120445638D01*
G04 #@! TO.C,C8*
D11*
X124094684Y-122849714D02*
X124048722Y-122895676D01*
X123910836Y-122941638D01*
X123818912Y-122941638D01*
X123681027Y-122895676D01*
X123589103Y-122803752D01*
X123543141Y-122711828D01*
X123497179Y-122527980D01*
X123497179Y-122390095D01*
X123543141Y-122206247D01*
X123589103Y-122114323D01*
X123681027Y-122022400D01*
X123818912Y-121976438D01*
X123910836Y-121976438D01*
X124048722Y-122022400D01*
X124094684Y-122068361D01*
X124646227Y-122390095D02*
X124554303Y-122344133D01*
X124508341Y-122298171D01*
X124462379Y-122206247D01*
X124462379Y-122160285D01*
X124508341Y-122068361D01*
X124554303Y-122022400D01*
X124646227Y-121976438D01*
X124830074Y-121976438D01*
X124921998Y-122022400D01*
X124967960Y-122068361D01*
X125013922Y-122160285D01*
X125013922Y-122206247D01*
X124967960Y-122298171D01*
X124921998Y-122344133D01*
X124830074Y-122390095D01*
X124646227Y-122390095D01*
X124554303Y-122436057D01*
X124508341Y-122482019D01*
X124462379Y-122573942D01*
X124462379Y-122757790D01*
X124508341Y-122849714D01*
X124554303Y-122895676D01*
X124646227Y-122941638D01*
X124830074Y-122941638D01*
X124921998Y-122895676D01*
X124967960Y-122849714D01*
X125013922Y-122757790D01*
X125013922Y-122573942D01*
X124967960Y-122482019D01*
X124921998Y-122436057D01*
X124830074Y-122390095D01*
G04 #@! TO.C,C9*
D21*
X113693642Y-88603714D02*
X113647680Y-88649676D01*
X113509795Y-88695638D01*
X113417871Y-88695638D01*
X113279985Y-88649676D01*
X113188061Y-88557752D01*
X113142099Y-88465828D01*
X113096138Y-88281980D01*
X113096138Y-88144095D01*
X113142099Y-87960247D01*
X113188061Y-87868323D01*
X113279985Y-87776400D01*
X113417871Y-87730438D01*
X113509795Y-87730438D01*
X113647680Y-87776400D01*
X113693642Y-87822361D01*
X114153261Y-88695638D02*
X114337109Y-88695638D01*
X114429033Y-88649676D01*
X114474995Y-88603714D01*
X114566918Y-88465828D01*
X114612880Y-88281980D01*
X114612880Y-87914285D01*
X114566918Y-87822361D01*
X114520957Y-87776400D01*
X114429033Y-87730438D01*
X114245185Y-87730438D01*
X114153261Y-87776400D01*
X114107299Y-87822361D01*
X114061338Y-87914285D01*
X114061338Y-88144095D01*
X114107299Y-88236019D01*
X114153261Y-88281980D01*
X114245185Y-88327942D01*
X114429033Y-88327942D01*
X114520957Y-88281980D01*
X114566918Y-88236019D01*
X114612880Y-88144095D01*
G04 #@! TO.C,C10*
X111693642Y-103853714D02*
X111647680Y-103899676D01*
X111509795Y-103945638D01*
X111417871Y-103945638D01*
X111279985Y-103899676D01*
X111188061Y-103807752D01*
X111142099Y-103715828D01*
X111096138Y-103531980D01*
X111096138Y-103394095D01*
X111142099Y-103210247D01*
X111188061Y-103118323D01*
X111279985Y-103026400D01*
X111417871Y-102980438D01*
X111509795Y-102980438D01*
X111647680Y-103026400D01*
X111693642Y-103072361D01*
X112612880Y-103945638D02*
X112061338Y-103945638D01*
X112337109Y-103945638D02*
X112337109Y-102980438D01*
X112245185Y-103118323D01*
X112153261Y-103210247D01*
X112061338Y-103256209D01*
X113210385Y-102980438D02*
X113302309Y-102980438D01*
X113394233Y-103026400D01*
X113440195Y-103072361D01*
X113486157Y-103164285D01*
X113532118Y-103348133D01*
X113532118Y-103577942D01*
X113486157Y-103761790D01*
X113440195Y-103853714D01*
X113394233Y-103899676D01*
X113302309Y-103945638D01*
X113210385Y-103945638D01*
X113118461Y-103899676D01*
X113072499Y-103853714D01*
X113026538Y-103761790D01*
X112980576Y-103577942D01*
X112980576Y-103348133D01*
X113026538Y-103164285D01*
X113072499Y-103072361D01*
X113118461Y-103026400D01*
X113210385Y-102980438D01*
G04 #@! TO.C,U$9*
D20*
X162851099Y-123989647D02*
X162851099Y-124966338D01*
X162908552Y-125081242D01*
X162966004Y-125138695D01*
X163080909Y-125196147D01*
X163310718Y-125196147D01*
X163425623Y-125138695D01*
X163483076Y-125081242D01*
X163540528Y-124966338D01*
X163540528Y-123989647D01*
X164057599Y-125138695D02*
X164229957Y-125196147D01*
X164517218Y-125196147D01*
X164632123Y-125138695D01*
X164689576Y-125081242D01*
X164747028Y-124966338D01*
X164747028Y-124851433D01*
X164689576Y-124736528D01*
X164632123Y-124679076D01*
X164517218Y-124621623D01*
X164287409Y-124564171D01*
X164172504Y-124506719D01*
X164115052Y-124449266D01*
X164057599Y-124334361D01*
X164057599Y-124219457D01*
X164115052Y-124104552D01*
X164172504Y-124047100D01*
X164287409Y-123989647D01*
X164574671Y-123989647D01*
X164747028Y-124047100D01*
X164402314Y-123817290D02*
X164402314Y-125368504D01*
X165321552Y-125196147D02*
X165551361Y-125196147D01*
X165666266Y-125138695D01*
X165723718Y-125081242D01*
X165838623Y-124908885D01*
X165896076Y-124679076D01*
X165896076Y-124219457D01*
X165838623Y-124104552D01*
X165781171Y-124047100D01*
X165666266Y-123989647D01*
X165436457Y-123989647D01*
X165321552Y-124047100D01*
X165264099Y-124104552D01*
X165206647Y-124219457D01*
X165206647Y-124506719D01*
X165264099Y-124621623D01*
X165321552Y-124679076D01*
X165436457Y-124736528D01*
X165666266Y-124736528D01*
X165781171Y-124679076D01*
X165838623Y-124621623D01*
X165896076Y-124506719D01*
G04 #@! TO.C,U$10*
X148693647Y-95490171D02*
X149670338Y-95490171D01*
X149785242Y-95432718D01*
X149842695Y-95375266D01*
X149900147Y-95260361D01*
X149900147Y-95030552D01*
X149842695Y-94915647D01*
X149785242Y-94858195D01*
X149670338Y-94800742D01*
X148693647Y-94800742D01*
X149842695Y-94283671D02*
X149900147Y-94111314D01*
X149900147Y-93824052D01*
X149842695Y-93709147D01*
X149785242Y-93651695D01*
X149670338Y-93594242D01*
X149555433Y-93594242D01*
X149440528Y-93651695D01*
X149383076Y-93709147D01*
X149325623Y-93824052D01*
X149268171Y-94053861D01*
X149210719Y-94168766D01*
X149153266Y-94226218D01*
X149038361Y-94283671D01*
X148923457Y-94283671D01*
X148808552Y-94226218D01*
X148751100Y-94168766D01*
X148693647Y-94053861D01*
X148693647Y-93766599D01*
X148751100Y-93594242D01*
X148521290Y-93938957D02*
X150072504Y-93938957D01*
X149900147Y-92445195D02*
X149900147Y-93134623D01*
X149900147Y-92789909D02*
X148693647Y-92789909D01*
X148866004Y-92904814D01*
X148980909Y-93019718D01*
X149038361Y-93134623D01*
X148693647Y-91698314D02*
X148693647Y-91583409D01*
X148751100Y-91468504D01*
X148808552Y-91411052D01*
X148923457Y-91353599D01*
X149153266Y-91296147D01*
X149440528Y-91296147D01*
X149670338Y-91353599D01*
X149785242Y-91411052D01*
X149842695Y-91468504D01*
X149900147Y-91583409D01*
X149900147Y-91698314D01*
X149842695Y-91813218D01*
X149785242Y-91870671D01*
X149670338Y-91928123D01*
X149440528Y-91985576D01*
X149153266Y-91985576D01*
X148923457Y-91928123D01*
X148808552Y-91870671D01*
X148751100Y-91813218D01*
X148693647Y-91698314D01*
G04 #@! TO.C,R10*
D11*
X152696284Y-121695638D02*
X152374551Y-121236019D01*
X152144741Y-121695638D02*
X152144741Y-120730438D01*
X152512436Y-120730438D01*
X152604360Y-120776400D01*
X152650322Y-120822361D01*
X152696284Y-120914285D01*
X152696284Y-121052171D01*
X152650322Y-121144095D01*
X152604360Y-121190057D01*
X152512436Y-121236019D01*
X152144741Y-121236019D01*
X153615522Y-121695638D02*
X153063979Y-121695638D01*
X153339751Y-121695638D02*
X153339751Y-120730438D01*
X153247827Y-120868323D01*
X153155903Y-120960247D01*
X153063979Y-121006209D01*
X154213027Y-120730438D02*
X154304951Y-120730438D01*
X154396874Y-120776400D01*
X154442836Y-120822361D01*
X154488798Y-120914285D01*
X154534760Y-121098133D01*
X154534760Y-121327942D01*
X154488798Y-121511790D01*
X154442836Y-121603714D01*
X154396874Y-121649676D01*
X154304951Y-121695638D01*
X154213027Y-121695638D01*
X154121103Y-121649676D01*
X154075141Y-121603714D01*
X154029179Y-121511790D01*
X153983217Y-121327942D01*
X153983217Y-121098133D01*
X154029179Y-120914285D01*
X154075141Y-120822361D01*
X154121103Y-120776400D01*
X154213027Y-120730438D01*
G04 #@! TO.C,R11*
X148696284Y-121695638D02*
X148374551Y-121236019D01*
X148144741Y-121695638D02*
X148144741Y-120730438D01*
X148512436Y-120730438D01*
X148604360Y-120776400D01*
X148650322Y-120822361D01*
X148696284Y-120914285D01*
X148696284Y-121052171D01*
X148650322Y-121144095D01*
X148604360Y-121190057D01*
X148512436Y-121236019D01*
X148144741Y-121236019D01*
X149615522Y-121695638D02*
X149063979Y-121695638D01*
X149339751Y-121695638D02*
X149339751Y-120730438D01*
X149247827Y-120868323D01*
X149155903Y-120960247D01*
X149063979Y-121006209D01*
X150534760Y-121695638D02*
X149983217Y-121695638D01*
X150258989Y-121695638D02*
X150258989Y-120730438D01*
X150167065Y-120868323D01*
X150075141Y-120960247D01*
X149983217Y-121006209D01*
G04 #@! TO.C,R12*
D21*
X155943642Y-120445638D02*
X155621909Y-119986019D01*
X155392099Y-120445638D02*
X155392099Y-119480438D01*
X155759795Y-119480438D01*
X155851718Y-119526400D01*
X155897680Y-119572361D01*
X155943642Y-119664285D01*
X155943642Y-119802171D01*
X155897680Y-119894095D01*
X155851718Y-119940057D01*
X155759795Y-119986019D01*
X155392099Y-119986019D01*
X156862880Y-120445638D02*
X156311338Y-120445638D01*
X156587109Y-120445638D02*
X156587109Y-119480438D01*
X156495185Y-119618323D01*
X156403261Y-119710247D01*
X156311338Y-119756209D01*
X157230576Y-119572361D02*
X157276538Y-119526400D01*
X157368461Y-119480438D01*
X157598271Y-119480438D01*
X157690195Y-119526400D01*
X157736157Y-119572361D01*
X157782118Y-119664285D01*
X157782118Y-119756209D01*
X157736157Y-119894095D01*
X157184614Y-120445638D01*
X157782118Y-120445638D01*
G04 #@! TO.C,R13*
X145943642Y-120445638D02*
X145621909Y-119986019D01*
X145392099Y-120445638D02*
X145392099Y-119480438D01*
X145759795Y-119480438D01*
X145851718Y-119526400D01*
X145897680Y-119572361D01*
X145943642Y-119664285D01*
X145943642Y-119802171D01*
X145897680Y-119894095D01*
X145851718Y-119940057D01*
X145759795Y-119986019D01*
X145392099Y-119986019D01*
X146862880Y-120445638D02*
X146311338Y-120445638D01*
X146587109Y-120445638D02*
X146587109Y-119480438D01*
X146495185Y-119618323D01*
X146403261Y-119710247D01*
X146311338Y-119756209D01*
X147184614Y-119480438D02*
X147782118Y-119480438D01*
X147460385Y-119848133D01*
X147598271Y-119848133D01*
X147690195Y-119894095D01*
X147736157Y-119940057D01*
X147782118Y-120031980D01*
X147782118Y-120261790D01*
X147736157Y-120353714D01*
X147690195Y-120399676D01*
X147598271Y-120445638D01*
X147322499Y-120445638D01*
X147230576Y-120399676D01*
X147184614Y-120353714D01*
G04 #@! TO.C,R14*
D11*
X159196284Y-112195638D02*
X158874551Y-111736019D01*
X158644741Y-112195638D02*
X158644741Y-111230438D01*
X159012436Y-111230438D01*
X159104360Y-111276400D01*
X159150322Y-111322361D01*
X159196284Y-111414285D01*
X159196284Y-111552171D01*
X159150322Y-111644095D01*
X159104360Y-111690057D01*
X159012436Y-111736019D01*
X158644741Y-111736019D01*
X160115522Y-112195638D02*
X159563979Y-112195638D01*
X159839751Y-112195638D02*
X159839751Y-111230438D01*
X159747827Y-111368323D01*
X159655903Y-111460247D01*
X159563979Y-111506209D01*
X160942836Y-111552171D02*
X160942836Y-112195638D01*
X160713027Y-111184476D02*
X160483217Y-111873904D01*
X161080722Y-111873904D01*
G04 #@! TO.C,R15*
X163196284Y-112195638D02*
X162874551Y-111736019D01*
X162644741Y-112195638D02*
X162644741Y-111230438D01*
X163012436Y-111230438D01*
X163104360Y-111276400D01*
X163150322Y-111322361D01*
X163196284Y-111414285D01*
X163196284Y-111552171D01*
X163150322Y-111644095D01*
X163104360Y-111690057D01*
X163012436Y-111736019D01*
X162644741Y-111736019D01*
X164115522Y-112195638D02*
X163563979Y-112195638D01*
X163839751Y-112195638D02*
X163839751Y-111230438D01*
X163747827Y-111368323D01*
X163655903Y-111460247D01*
X163563979Y-111506209D01*
X164988798Y-111230438D02*
X164529179Y-111230438D01*
X164483217Y-111690057D01*
X164529179Y-111644095D01*
X164621103Y-111598133D01*
X164850912Y-111598133D01*
X164942836Y-111644095D01*
X164988798Y-111690057D01*
X165034760Y-111781980D01*
X165034760Y-112011790D01*
X164988798Y-112103714D01*
X164942836Y-112149676D01*
X164850912Y-112195638D01*
X164621103Y-112195638D01*
X164529179Y-112149676D01*
X164483217Y-112103714D01*
G04 #@! TO.C,R16*
D21*
X157067585Y-95684838D02*
X156745852Y-95225219D01*
X156516042Y-95684838D02*
X156516042Y-94719638D01*
X156883738Y-94719638D01*
X156975661Y-94765600D01*
X157021623Y-94811561D01*
X157067585Y-94903485D01*
X157067585Y-95041371D01*
X157021623Y-95133295D01*
X156975661Y-95179257D01*
X156883738Y-95225219D01*
X156516042Y-95225219D01*
X157986823Y-95684838D02*
X157435281Y-95684838D01*
X157711052Y-95684838D02*
X157711052Y-94719638D01*
X157619128Y-94857523D01*
X157527204Y-94949447D01*
X157435281Y-94995409D01*
X158814138Y-94719638D02*
X158630290Y-94719638D01*
X158538366Y-94765600D01*
X158492404Y-94811561D01*
X158400481Y-94949447D01*
X158354519Y-95133295D01*
X158354519Y-95500990D01*
X158400481Y-95592914D01*
X158446442Y-95638876D01*
X158538366Y-95684838D01*
X158722214Y-95684838D01*
X158814138Y-95638876D01*
X158860100Y-95592914D01*
X158906061Y-95500990D01*
X158906061Y-95271180D01*
X158860100Y-95179257D01*
X158814138Y-95133295D01*
X158722214Y-95087333D01*
X158538366Y-95087333D01*
X158446442Y-95133295D01*
X158400481Y-95179257D01*
X158354519Y-95271180D01*
G04 #@! TO.C,R17*
X157067585Y-93184838D02*
X156745852Y-92725219D01*
X156516042Y-93184838D02*
X156516042Y-92219638D01*
X156883738Y-92219638D01*
X156975661Y-92265600D01*
X157021623Y-92311561D01*
X157067585Y-92403485D01*
X157067585Y-92541371D01*
X157021623Y-92633295D01*
X156975661Y-92679257D01*
X156883738Y-92725219D01*
X156516042Y-92725219D01*
X157986823Y-93184838D02*
X157435281Y-93184838D01*
X157711052Y-93184838D02*
X157711052Y-92219638D01*
X157619128Y-92357523D01*
X157527204Y-92449447D01*
X157435281Y-92495409D01*
X158308557Y-92219638D02*
X158952023Y-92219638D01*
X158538366Y-93184838D01*
G04 #@! TO.C,R18*
X145817585Y-86184838D02*
X145495852Y-85725219D01*
X145266042Y-86184838D02*
X145266042Y-85219638D01*
X145633738Y-85219638D01*
X145725661Y-85265600D01*
X145771623Y-85311561D01*
X145817585Y-85403485D01*
X145817585Y-85541371D01*
X145771623Y-85633295D01*
X145725661Y-85679257D01*
X145633738Y-85725219D01*
X145266042Y-85725219D01*
X146736823Y-86184838D02*
X146185281Y-86184838D01*
X146461052Y-86184838D02*
X146461052Y-85219638D01*
X146369128Y-85357523D01*
X146277204Y-85449447D01*
X146185281Y-85495409D01*
X147288366Y-85633295D02*
X147196442Y-85587333D01*
X147150481Y-85541371D01*
X147104519Y-85449447D01*
X147104519Y-85403485D01*
X147150481Y-85311561D01*
X147196442Y-85265600D01*
X147288366Y-85219638D01*
X147472214Y-85219638D01*
X147564138Y-85265600D01*
X147610100Y-85311561D01*
X147656061Y-85403485D01*
X147656061Y-85449447D01*
X147610100Y-85541371D01*
X147564138Y-85587333D01*
X147472214Y-85633295D01*
X147288366Y-85633295D01*
X147196442Y-85679257D01*
X147150481Y-85725219D01*
X147104519Y-85817142D01*
X147104519Y-86000990D01*
X147150481Y-86092914D01*
X147196442Y-86138876D01*
X147288366Y-86184838D01*
X147472214Y-86184838D01*
X147564138Y-86138876D01*
X147610100Y-86092914D01*
X147656061Y-86000990D01*
X147656061Y-85817142D01*
X147610100Y-85725219D01*
X147564138Y-85679257D01*
X147472214Y-85633295D01*
G04 #@! TO.C,C11*
X166443642Y-115853714D02*
X166397680Y-115899676D01*
X166259795Y-115945638D01*
X166167871Y-115945638D01*
X166029985Y-115899676D01*
X165938061Y-115807752D01*
X165892099Y-115715828D01*
X165846138Y-115531980D01*
X165846138Y-115394095D01*
X165892099Y-115210247D01*
X165938061Y-115118323D01*
X166029985Y-115026400D01*
X166167871Y-114980438D01*
X166259795Y-114980438D01*
X166397680Y-115026400D01*
X166443642Y-115072361D01*
X167362880Y-115945638D02*
X166811338Y-115945638D01*
X167087109Y-115945638D02*
X167087109Y-114980438D01*
X166995185Y-115118323D01*
X166903261Y-115210247D01*
X166811338Y-115256209D01*
X168282118Y-115945638D02*
X167730576Y-115945638D01*
X168006347Y-115945638D02*
X168006347Y-114980438D01*
X167914423Y-115118323D01*
X167822499Y-115210247D01*
X167730576Y-115256209D01*
G04 #@! TO.C,C12*
X145567585Y-88092914D02*
X145521623Y-88138876D01*
X145383738Y-88184838D01*
X145291814Y-88184838D01*
X145153928Y-88138876D01*
X145062004Y-88046952D01*
X145016042Y-87955028D01*
X144970081Y-87771180D01*
X144970081Y-87633295D01*
X145016042Y-87449447D01*
X145062004Y-87357523D01*
X145153928Y-87265600D01*
X145291814Y-87219638D01*
X145383738Y-87219638D01*
X145521623Y-87265600D01*
X145567585Y-87311561D01*
X146486823Y-88184838D02*
X145935281Y-88184838D01*
X146211052Y-88184838D02*
X146211052Y-87219638D01*
X146119128Y-87357523D01*
X146027204Y-87449447D01*
X145935281Y-87495409D01*
X146854519Y-87311561D02*
X146900481Y-87265600D01*
X146992404Y-87219638D01*
X147222214Y-87219638D01*
X147314138Y-87265600D01*
X147360100Y-87311561D01*
X147406061Y-87403485D01*
X147406061Y-87495409D01*
X147360100Y-87633295D01*
X146808557Y-88184838D01*
X147406061Y-88184838D01*
G04 #@! TO.C,C13*
D11*
X159196284Y-125103714D02*
X159150322Y-125149676D01*
X159012436Y-125195638D01*
X158920512Y-125195638D01*
X158782627Y-125149676D01*
X158690703Y-125057752D01*
X158644741Y-124965828D01*
X158598779Y-124781980D01*
X158598779Y-124644095D01*
X158644741Y-124460247D01*
X158690703Y-124368323D01*
X158782627Y-124276400D01*
X158920512Y-124230438D01*
X159012436Y-124230438D01*
X159150322Y-124276400D01*
X159196284Y-124322361D01*
X160115522Y-125195638D02*
X159563979Y-125195638D01*
X159839751Y-125195638D02*
X159839751Y-124230438D01*
X159747827Y-124368323D01*
X159655903Y-124460247D01*
X159563979Y-124506209D01*
X160437255Y-124230438D02*
X161034760Y-124230438D01*
X160713027Y-124598133D01*
X160850912Y-124598133D01*
X160942836Y-124644095D01*
X160988798Y-124690057D01*
X161034760Y-124781980D01*
X161034760Y-125011790D01*
X160988798Y-125103714D01*
X160942836Y-125149676D01*
X160850912Y-125195638D01*
X160575141Y-125195638D01*
X160483217Y-125149676D01*
X160437255Y-125103714D01*
G04 #@! TO.C,C14*
D21*
X168445614Y-122655057D02*
X168491576Y-122701019D01*
X168537538Y-122838904D01*
X168537538Y-122930828D01*
X168491576Y-123068714D01*
X168399652Y-123160638D01*
X168307728Y-123206600D01*
X168123880Y-123252561D01*
X167985995Y-123252561D01*
X167802147Y-123206600D01*
X167710223Y-123160638D01*
X167618300Y-123068714D01*
X167572338Y-122930828D01*
X167572338Y-122838904D01*
X167618300Y-122701019D01*
X167664261Y-122655057D01*
X168537538Y-121735819D02*
X168537538Y-122287361D01*
X168537538Y-122011590D02*
X167572338Y-122011590D01*
X167710223Y-122103514D01*
X167802147Y-122195438D01*
X167848109Y-122287361D01*
X167894071Y-120908504D02*
X168537538Y-120908504D01*
X167526376Y-121138314D02*
X168215804Y-121368123D01*
X168215804Y-120770619D01*
G04 #@! TO.C,C15*
X157269642Y-88187714D02*
X157223680Y-88233676D01*
X157085795Y-88279638D01*
X156993871Y-88279638D01*
X156855985Y-88233676D01*
X156764061Y-88141752D01*
X156718099Y-88049828D01*
X156672138Y-87865980D01*
X156672138Y-87728095D01*
X156718099Y-87544247D01*
X156764061Y-87452323D01*
X156855985Y-87360400D01*
X156993871Y-87314438D01*
X157085795Y-87314438D01*
X157223680Y-87360400D01*
X157269642Y-87406361D01*
X158188880Y-88279638D02*
X157637338Y-88279638D01*
X157913109Y-88279638D02*
X157913109Y-87314438D01*
X157821185Y-87452323D01*
X157729261Y-87544247D01*
X157637338Y-87590209D01*
X159062157Y-87314438D02*
X158602538Y-87314438D01*
X158556576Y-87774057D01*
X158602538Y-87728095D01*
X158694461Y-87682133D01*
X158924271Y-87682133D01*
X159016195Y-87728095D01*
X159062157Y-87774057D01*
X159108118Y-87865980D01*
X159108118Y-88095790D01*
X159062157Y-88187714D01*
X159016195Y-88233676D01*
X158924271Y-88279638D01*
X158694461Y-88279638D01*
X158602538Y-88233676D01*
X158556576Y-88187714D01*
G04 #@! TO.C,C16*
D11*
X141778284Y-91449714D02*
X141732322Y-91495676D01*
X141594436Y-91541638D01*
X141502512Y-91541638D01*
X141364627Y-91495676D01*
X141272703Y-91403752D01*
X141226741Y-91311828D01*
X141180779Y-91127980D01*
X141180779Y-90990095D01*
X141226741Y-90806247D01*
X141272703Y-90714323D01*
X141364627Y-90622400D01*
X141502512Y-90576438D01*
X141594436Y-90576438D01*
X141732322Y-90622400D01*
X141778284Y-90668361D01*
X142697522Y-91541638D02*
X142145979Y-91541638D01*
X142421751Y-91541638D02*
X142421751Y-90576438D01*
X142329827Y-90714323D01*
X142237903Y-90806247D01*
X142145979Y-90852209D01*
X143524836Y-90576438D02*
X143340989Y-90576438D01*
X143249065Y-90622400D01*
X143203103Y-90668361D01*
X143111179Y-90806247D01*
X143065217Y-90990095D01*
X143065217Y-91357790D01*
X143111179Y-91449714D01*
X143157141Y-91495676D01*
X143249065Y-91541638D01*
X143432912Y-91541638D01*
X143524836Y-91495676D01*
X143570798Y-91449714D01*
X143616760Y-91357790D01*
X143616760Y-91127980D01*
X143570798Y-91036057D01*
X143524836Y-90990095D01*
X143432912Y-90944133D01*
X143249065Y-90944133D01*
X143157141Y-90990095D01*
X143111179Y-91036057D01*
X143065217Y-91127980D01*
G04 #@! TO.C,R19*
D21*
X174193642Y-121179638D02*
X173871909Y-120720019D01*
X173642099Y-121179638D02*
X173642099Y-120214438D01*
X174009795Y-120214438D01*
X174101718Y-120260400D01*
X174147680Y-120306361D01*
X174193642Y-120398285D01*
X174193642Y-120536171D01*
X174147680Y-120628095D01*
X174101718Y-120674057D01*
X174009795Y-120720019D01*
X173642099Y-120720019D01*
X175112880Y-121179638D02*
X174561338Y-121179638D01*
X174837109Y-121179638D02*
X174837109Y-120214438D01*
X174745185Y-120352323D01*
X174653261Y-120444247D01*
X174561338Y-120490209D01*
X175572499Y-121179638D02*
X175756347Y-121179638D01*
X175848271Y-121133676D01*
X175894233Y-121087714D01*
X175986157Y-120949828D01*
X176032118Y-120765980D01*
X176032118Y-120398285D01*
X175986157Y-120306361D01*
X175940195Y-120260400D01*
X175848271Y-120214438D01*
X175664423Y-120214438D01*
X175572499Y-120260400D01*
X175526538Y-120306361D01*
X175480576Y-120398285D01*
X175480576Y-120628095D01*
X175526538Y-120720019D01*
X175572499Y-120765980D01*
X175664423Y-120811942D01*
X175848271Y-120811942D01*
X175940195Y-120765980D01*
X175986157Y-120720019D01*
X176032118Y-120628095D01*
G04 #@! TO.C,R20*
X174193642Y-124687638D02*
X173871909Y-124228019D01*
X173642099Y-124687638D02*
X173642099Y-123722438D01*
X174009795Y-123722438D01*
X174101718Y-123768400D01*
X174147680Y-123814361D01*
X174193642Y-123906285D01*
X174193642Y-124044171D01*
X174147680Y-124136095D01*
X174101718Y-124182057D01*
X174009795Y-124228019D01*
X173642099Y-124228019D01*
X174561338Y-123814361D02*
X174607299Y-123768400D01*
X174699223Y-123722438D01*
X174929033Y-123722438D01*
X175020957Y-123768400D01*
X175066918Y-123814361D01*
X175112880Y-123906285D01*
X175112880Y-123998209D01*
X175066918Y-124136095D01*
X174515376Y-124687638D01*
X175112880Y-124687638D01*
X175710385Y-123722438D02*
X175802309Y-123722438D01*
X175894233Y-123768400D01*
X175940195Y-123814361D01*
X175986157Y-123906285D01*
X176032118Y-124090133D01*
X176032118Y-124319942D01*
X175986157Y-124503790D01*
X175940195Y-124595714D01*
X175894233Y-124641676D01*
X175802309Y-124687638D01*
X175710385Y-124687638D01*
X175618461Y-124641676D01*
X175572499Y-124595714D01*
X175526538Y-124503790D01*
X175480576Y-124319942D01*
X175480576Y-124090133D01*
X175526538Y-123906285D01*
X175572499Y-123814361D01*
X175618461Y-123768400D01*
X175710385Y-123722438D01*
G04 #@! TO.C,R21*
X174193642Y-128195638D02*
X173871909Y-127736019D01*
X173642099Y-128195638D02*
X173642099Y-127230438D01*
X174009795Y-127230438D01*
X174101718Y-127276400D01*
X174147680Y-127322361D01*
X174193642Y-127414285D01*
X174193642Y-127552171D01*
X174147680Y-127644095D01*
X174101718Y-127690057D01*
X174009795Y-127736019D01*
X173642099Y-127736019D01*
X174561338Y-127322361D02*
X174607299Y-127276400D01*
X174699223Y-127230438D01*
X174929033Y-127230438D01*
X175020957Y-127276400D01*
X175066918Y-127322361D01*
X175112880Y-127414285D01*
X175112880Y-127506209D01*
X175066918Y-127644095D01*
X174515376Y-128195638D01*
X175112880Y-128195638D01*
X176032118Y-128195638D02*
X175480576Y-128195638D01*
X175756347Y-128195638D02*
X175756347Y-127230438D01*
X175664423Y-127368323D01*
X175572499Y-127460247D01*
X175480576Y-127506209D01*
G04 #@! TO.C,C17*
X178756414Y-114278657D02*
X178802376Y-114324619D01*
X178848338Y-114462504D01*
X178848338Y-114554428D01*
X178802376Y-114692314D01*
X178710452Y-114784238D01*
X178618528Y-114830200D01*
X178434680Y-114876161D01*
X178296795Y-114876161D01*
X178112947Y-114830200D01*
X178021023Y-114784238D01*
X177929100Y-114692314D01*
X177883138Y-114554428D01*
X177883138Y-114462504D01*
X177929100Y-114324619D01*
X177975061Y-114278657D01*
X178848338Y-113359419D02*
X178848338Y-113910961D01*
X178848338Y-113635190D02*
X177883138Y-113635190D01*
X178021023Y-113727114D01*
X178112947Y-113819038D01*
X178158909Y-113910961D01*
X177883138Y-113037685D02*
X177883138Y-112394219D01*
X178848338Y-112807876D01*
G04 #@! TO.C,LED4*
D19*
X133979111Y-90268295D02*
X133795264Y-90268295D01*
X133795264Y-89882215D01*
X134107805Y-90066062D02*
X134236498Y-90066062D01*
X134291652Y-90268295D02*
X134107805Y-90268295D01*
X134107805Y-89882215D01*
X134291652Y-89882215D01*
X134457115Y-90268295D02*
X134457115Y-89882215D01*
X134549039Y-89882215D01*
X134604193Y-89900600D01*
X134640963Y-89937369D01*
X134659348Y-89974139D01*
X134677732Y-90047678D01*
X134677732Y-90102832D01*
X134659348Y-90176371D01*
X134640963Y-90213140D01*
X134604193Y-90249910D01*
X134549039Y-90268295D01*
X134457115Y-90268295D01*
X135008658Y-90010908D02*
X135008658Y-90268295D01*
X134916734Y-89863830D02*
X134824811Y-90139601D01*
X135063812Y-90139601D01*
G04 #@! TO.C,R22*
D11*
X139564944Y-90184838D02*
X139243210Y-89725219D01*
X139013401Y-90184838D02*
X139013401Y-89219638D01*
X139381096Y-89219638D01*
X139473020Y-89265600D01*
X139518982Y-89311561D01*
X139564944Y-89403485D01*
X139564944Y-89541371D01*
X139518982Y-89633295D01*
X139473020Y-89679257D01*
X139381096Y-89725219D01*
X139013401Y-89725219D01*
X139932639Y-89311561D02*
X139978601Y-89265600D01*
X140070525Y-89219638D01*
X140300334Y-89219638D01*
X140392258Y-89265600D01*
X140438220Y-89311561D01*
X140484182Y-89403485D01*
X140484182Y-89495409D01*
X140438220Y-89633295D01*
X139886677Y-90184838D01*
X140484182Y-90184838D01*
X140851877Y-89311561D02*
X140897839Y-89265600D01*
X140989763Y-89219638D01*
X141219572Y-89219638D01*
X141311496Y-89265600D01*
X141357458Y-89311561D01*
X141403420Y-89403485D01*
X141403420Y-89495409D01*
X141357458Y-89633295D01*
X140805915Y-90184838D01*
X141403420Y-90184838D01*
G04 #@! TO.C,U$12*
D13*
X146114401Y-95344647D02*
X146114401Y-96321338D01*
X146171854Y-96436242D01*
X146229306Y-96493695D01*
X146344211Y-96551147D01*
X146574020Y-96551147D01*
X146688925Y-96493695D01*
X146746378Y-96436242D01*
X146803830Y-96321338D01*
X146803830Y-95344647D01*
X147320901Y-96493695D02*
X147493259Y-96551147D01*
X147780520Y-96551147D01*
X147895425Y-96493695D01*
X147952878Y-96436242D01*
X148010330Y-96321338D01*
X148010330Y-96206433D01*
X147952878Y-96091528D01*
X147895425Y-96034076D01*
X147780520Y-95976623D01*
X147550711Y-95919171D01*
X147435806Y-95861719D01*
X147378354Y-95804266D01*
X147320901Y-95689361D01*
X147320901Y-95574457D01*
X147378354Y-95459552D01*
X147435806Y-95402100D01*
X147550711Y-95344647D01*
X147837973Y-95344647D01*
X148010330Y-95402100D01*
X147665616Y-95172290D02*
X147665616Y-96723504D01*
X149159378Y-96551147D02*
X148469949Y-96551147D01*
X148814663Y-96551147D02*
X148814663Y-95344647D01*
X148699759Y-95517004D01*
X148584854Y-95631909D01*
X148469949Y-95689361D01*
X149618997Y-95459552D02*
X149676449Y-95402100D01*
X149791354Y-95344647D01*
X150078616Y-95344647D01*
X150193520Y-95402100D01*
X150250973Y-95459552D01*
X150308425Y-95574457D01*
X150308425Y-95689361D01*
X150250973Y-95861719D01*
X149561544Y-96551147D01*
X150308425Y-96551147D01*
X153444600Y-95623321D02*
X153387147Y-95738226D01*
X153387147Y-95910583D01*
X153444600Y-96082940D01*
X153559504Y-96197845D01*
X153674409Y-96255298D01*
X153904219Y-96312750D01*
X154076576Y-96312750D01*
X154306385Y-96255298D01*
X154421290Y-96197845D01*
X154536195Y-96082940D01*
X154593647Y-95910583D01*
X154593647Y-95795679D01*
X154536195Y-95623321D01*
X154478742Y-95565869D01*
X154076576Y-95565869D01*
X154076576Y-95795679D01*
X154248933Y-95106250D02*
X154248933Y-94531726D01*
X154593647Y-95221155D02*
X153387147Y-94818988D01*
X154593647Y-94416821D01*
X154536195Y-94072107D02*
X154593647Y-93899750D01*
X154593647Y-93612488D01*
X154536195Y-93497583D01*
X154478742Y-93440131D01*
X154363838Y-93382679D01*
X154248933Y-93382679D01*
X154134028Y-93440131D01*
X154076576Y-93497583D01*
X154019123Y-93612488D01*
X153961671Y-93842298D01*
X153904219Y-93957202D01*
X153846766Y-94014655D01*
X153731861Y-94072107D01*
X153616957Y-94072107D01*
X153502052Y-94014655D01*
X153444600Y-93957202D01*
X153387147Y-93842298D01*
X153387147Y-93555036D01*
X153444600Y-93382679D01*
X154536195Y-92003821D02*
X154593647Y-91831464D01*
X154593647Y-91544202D01*
X154536195Y-91429298D01*
X154478742Y-91371845D01*
X154363838Y-91314393D01*
X154248933Y-91314393D01*
X154134028Y-91371845D01*
X154076576Y-91429298D01*
X154019123Y-91544202D01*
X153961671Y-91774012D01*
X153904219Y-91888917D01*
X153846766Y-91946369D01*
X153731861Y-92003821D01*
X153616957Y-92003821D01*
X153502052Y-91946369D01*
X153444600Y-91888917D01*
X153387147Y-91774012D01*
X153387147Y-91486750D01*
X153444600Y-91314393D01*
X153961671Y-90797321D02*
X153961671Y-90395155D01*
X154593647Y-90222798D02*
X154593647Y-90797321D01*
X153387147Y-90797321D01*
X153387147Y-90222798D01*
X154593647Y-89705726D02*
X153387147Y-89705726D01*
X154593647Y-89016298D01*
X153387147Y-89016298D01*
X154536195Y-88499226D02*
X154593647Y-88326869D01*
X154593647Y-88039607D01*
X154536195Y-87924702D01*
X154478742Y-87867250D01*
X154363838Y-87809798D01*
X154248933Y-87809798D01*
X154134028Y-87867250D01*
X154076576Y-87924702D01*
X154019123Y-88039607D01*
X153961671Y-88269417D01*
X153904219Y-88384321D01*
X153846766Y-88441774D01*
X153731861Y-88499226D01*
X153616957Y-88499226D01*
X153502052Y-88441774D01*
X153444600Y-88384321D01*
X153387147Y-88269417D01*
X153387147Y-87982155D01*
X153444600Y-87809798D01*
X153387147Y-87062917D02*
X153387147Y-86833107D01*
X153444600Y-86718202D01*
X153559504Y-86603298D01*
X153789314Y-86545845D01*
X154191480Y-86545845D01*
X154421290Y-86603298D01*
X154536195Y-86718202D01*
X154593647Y-86833107D01*
X154593647Y-87062917D01*
X154536195Y-87177821D01*
X154421290Y-87292726D01*
X154191480Y-87350179D01*
X153789314Y-87350179D01*
X153559504Y-87292726D01*
X153444600Y-87177821D01*
X153387147Y-87062917D01*
X154593647Y-85339345D02*
X154019123Y-85741512D01*
X154593647Y-86028774D02*
X153387147Y-86028774D01*
X153387147Y-85569155D01*
X153444600Y-85454250D01*
X153502052Y-85396798D01*
X153616957Y-85339345D01*
X153789314Y-85339345D01*
X153904219Y-85396798D01*
X153961671Y-85454250D01*
X154019123Y-85569155D01*
X154019123Y-86028774D01*
G04 #@! TO.C,U$2*
X162614401Y-94119647D02*
X162614401Y-95096338D01*
X162671854Y-95211242D01*
X162729306Y-95268695D01*
X162844211Y-95326147D01*
X163074020Y-95326147D01*
X163188925Y-95268695D01*
X163246378Y-95211242D01*
X163303830Y-95096338D01*
X163303830Y-94119647D01*
X163820901Y-95268695D02*
X163993259Y-95326147D01*
X164280520Y-95326147D01*
X164395425Y-95268695D01*
X164452878Y-95211242D01*
X164510330Y-95096338D01*
X164510330Y-94981433D01*
X164452878Y-94866528D01*
X164395425Y-94809076D01*
X164280520Y-94751623D01*
X164050711Y-94694171D01*
X163935806Y-94636719D01*
X163878354Y-94579266D01*
X163820901Y-94464361D01*
X163820901Y-94349457D01*
X163878354Y-94234552D01*
X163935806Y-94177100D01*
X164050711Y-94119647D01*
X164337973Y-94119647D01*
X164510330Y-94177100D01*
X164165616Y-93947290D02*
X164165616Y-95498504D01*
X164969949Y-94234552D02*
X165027401Y-94177100D01*
X165142306Y-94119647D01*
X165429568Y-94119647D01*
X165544473Y-94177100D01*
X165601925Y-94234552D01*
X165659378Y-94349457D01*
X165659378Y-94464361D01*
X165601925Y-94636719D01*
X164912497Y-95326147D01*
X165659378Y-95326147D01*
X169904600Y-96518321D02*
X169847147Y-96633226D01*
X169847147Y-96805583D01*
X169904600Y-96977940D01*
X170019504Y-97092845D01*
X170134409Y-97150298D01*
X170364219Y-97207750D01*
X170536576Y-97207750D01*
X170766385Y-97150298D01*
X170881290Y-97092845D01*
X170996195Y-96977940D01*
X171053647Y-96805583D01*
X171053647Y-96690679D01*
X170996195Y-96518321D01*
X170938742Y-96460869D01*
X170536576Y-96460869D01*
X170536576Y-96690679D01*
X170708933Y-96001250D02*
X170708933Y-95426726D01*
X171053647Y-96116155D02*
X169847147Y-95713988D01*
X171053647Y-95311821D01*
X170996195Y-94967107D02*
X171053647Y-94794750D01*
X171053647Y-94507488D01*
X170996195Y-94392583D01*
X170938742Y-94335131D01*
X170823838Y-94277679D01*
X170708933Y-94277679D01*
X170594028Y-94335131D01*
X170536576Y-94392583D01*
X170479123Y-94507488D01*
X170421671Y-94737298D01*
X170364219Y-94852202D01*
X170306766Y-94909655D01*
X170191861Y-94967107D01*
X170076957Y-94967107D01*
X169962052Y-94909655D01*
X169904600Y-94852202D01*
X169847147Y-94737298D01*
X169847147Y-94450036D01*
X169904600Y-94277679D01*
X170996195Y-92898821D02*
X171053647Y-92726464D01*
X171053647Y-92439202D01*
X170996195Y-92324298D01*
X170938742Y-92266845D01*
X170823838Y-92209393D01*
X170708933Y-92209393D01*
X170594028Y-92266845D01*
X170536576Y-92324298D01*
X170479123Y-92439202D01*
X170421671Y-92669012D01*
X170364219Y-92783917D01*
X170306766Y-92841369D01*
X170191861Y-92898821D01*
X170076957Y-92898821D01*
X169962052Y-92841369D01*
X169904600Y-92783917D01*
X169847147Y-92669012D01*
X169847147Y-92381750D01*
X169904600Y-92209393D01*
X170421671Y-91692321D02*
X170421671Y-91290155D01*
X171053647Y-91117798D02*
X171053647Y-91692321D01*
X169847147Y-91692321D01*
X169847147Y-91117798D01*
X171053647Y-90600726D02*
X169847147Y-90600726D01*
X171053647Y-89911298D01*
X169847147Y-89911298D01*
X170996195Y-89394226D02*
X171053647Y-89221869D01*
X171053647Y-88934607D01*
X170996195Y-88819702D01*
X170938742Y-88762250D01*
X170823838Y-88704798D01*
X170708933Y-88704798D01*
X170594028Y-88762250D01*
X170536576Y-88819702D01*
X170479123Y-88934607D01*
X170421671Y-89164417D01*
X170364219Y-89279321D01*
X170306766Y-89336774D01*
X170191861Y-89394226D01*
X170076957Y-89394226D01*
X169962052Y-89336774D01*
X169904600Y-89279321D01*
X169847147Y-89164417D01*
X169847147Y-88877155D01*
X169904600Y-88704798D01*
X169847147Y-87957917D02*
X169847147Y-87728107D01*
X169904600Y-87613202D01*
X170019504Y-87498298D01*
X170249314Y-87440845D01*
X170651480Y-87440845D01*
X170881290Y-87498298D01*
X170996195Y-87613202D01*
X171053647Y-87728107D01*
X171053647Y-87957917D01*
X170996195Y-88072821D01*
X170881290Y-88187726D01*
X170651480Y-88245179D01*
X170249314Y-88245179D01*
X170019504Y-88187726D01*
X169904600Y-88072821D01*
X169847147Y-87957917D01*
X171053647Y-86234345D02*
X170479123Y-86636512D01*
X171053647Y-86923774D02*
X169847147Y-86923774D01*
X169847147Y-86464155D01*
X169904600Y-86349250D01*
X169962052Y-86291798D01*
X170076957Y-86234345D01*
X170249314Y-86234345D01*
X170364219Y-86291798D01*
X170421671Y-86349250D01*
X170479123Y-86464155D01*
X170479123Y-86923774D01*
G04 #@! TO.C,U$3*
X184179314Y-76010298D02*
X184524028Y-75091060D01*
X184868742Y-76010298D01*
X184926195Y-74573988D02*
X184983647Y-74401631D01*
X184983647Y-74114369D01*
X184926195Y-73999464D01*
X184868742Y-73942012D01*
X184753838Y-73884560D01*
X184638933Y-73884560D01*
X184524028Y-73942012D01*
X184466576Y-73999464D01*
X184409123Y-74114369D01*
X184351671Y-74344179D01*
X184294219Y-74459083D01*
X184236766Y-74516536D01*
X184121861Y-74573988D01*
X184006957Y-74573988D01*
X183892052Y-74516536D01*
X183834600Y-74459083D01*
X183777147Y-74344179D01*
X183777147Y-74056917D01*
X183834600Y-73884560D01*
X184983647Y-73367488D02*
X183777147Y-73367488D01*
X184983647Y-72792964D02*
X183777147Y-72792964D01*
X183777147Y-72333345D01*
X183834600Y-72218440D01*
X183892052Y-72160988D01*
X184006957Y-72103536D01*
X184179314Y-72103536D01*
X184294219Y-72160988D01*
X184351671Y-72218440D01*
X184409123Y-72333345D01*
X184409123Y-72792964D01*
X184524028Y-71586464D02*
X184524028Y-70667226D01*
X184983647Y-70092702D02*
X183777147Y-70092702D01*
X184983647Y-69403274D01*
X183777147Y-69403274D01*
X184351671Y-68426583D02*
X184409123Y-68254226D01*
X184466576Y-68196774D01*
X184581480Y-68139321D01*
X184753838Y-68139321D01*
X184868742Y-68196774D01*
X184926195Y-68254226D01*
X184983647Y-68369131D01*
X184983647Y-68828750D01*
X183777147Y-68828750D01*
X183777147Y-68426583D01*
X183834600Y-68311679D01*
X183892052Y-68254226D01*
X184006957Y-68196774D01*
X184121861Y-68196774D01*
X184236766Y-68254226D01*
X184294219Y-68311679D01*
X184351671Y-68426583D01*
X184351671Y-68828750D01*
G04 #@! TD*
M02*
