G04 #@! TF.GenerationSoftware,KiCad,Pcbnew,(5.0.0)*
G04 #@! TF.CreationDate,2020-02-21T08:36:11-08:00*
G04 #@! TF.ProjectId,12V Power Circuit V4,31325620506F77657220436972637569,rev?*
G04 #@! TF.SameCoordinates,Original*
G04 #@! TF.FileFunction,Legend,Top*
G04 #@! TF.FilePolarity,Positive*
%FSLAX46Y46*%
G04 Gerber Fmt 4.6, Leading zero omitted, Abs format (unit mm)*
G04 Created by KiCad (PCBNEW (5.0.0)) date 02/21/20 08:36:11*
%MOMM*%
%LPD*%
G01*
G04 APERTURE LIST*
%ADD10C,0.152400*%
%ADD11C,0.203200*%
%ADD12C,0.609600*%
%ADD13C,0.150000*%
%ADD14C,0.101600*%
%ADD15C,0.127000*%
G04 APERTURE END LIST*
D10*
G04 #@! TO.C,U$1*
X144121100Y-108910600D02*
X144121100Y-108866600D01*
X144121100Y-106210600D02*
X144121100Y-106166600D01*
X145591100Y-106166600D02*
X145591100Y-106210600D01*
X145591100Y-108866600D02*
X145591100Y-108910600D01*
X145591100Y-107016600D02*
X145591100Y-107110600D01*
X145591100Y-107966600D02*
X145591100Y-108060600D01*
X144121100Y-108060600D02*
X144121100Y-107016600D01*
X145591100Y-108910600D02*
X144121100Y-108910600D01*
X144121100Y-106166600D02*
X145591100Y-106166600D01*
G04 #@! TO.C,JP1*
X162890100Y-115158600D02*
X164922100Y-115158600D01*
X162890100Y-115158600D02*
X162636100Y-114904600D01*
X162636100Y-112872600D02*
X162636100Y-114904600D01*
X162636100Y-110332600D02*
X162636100Y-112364600D01*
X162636100Y-110332600D02*
X162890100Y-110078600D01*
X164922100Y-110078600D02*
X162890100Y-110078600D01*
X165176100Y-110332600D02*
X165176100Y-112364600D01*
X165176100Y-110332600D02*
X164922100Y-110078600D01*
X164922100Y-115158600D02*
X165176100Y-114904600D01*
X165176100Y-112872600D02*
X165176100Y-114904600D01*
X164922100Y-112618600D02*
X165176100Y-112872600D01*
X164922100Y-112618600D02*
X165176100Y-112364600D01*
X162890100Y-112618600D02*
X162636100Y-112872600D01*
X162890100Y-112618600D02*
X162636100Y-112364600D01*
G04 #@! TO.C,JP2*
X135966100Y-112872600D02*
X135966100Y-114904600D01*
X135966100Y-112872600D02*
X136220100Y-112618600D01*
X138252100Y-112618600D02*
X136220100Y-112618600D01*
X140792100Y-112618600D02*
X138760100Y-112618600D01*
X140792100Y-112618600D02*
X141046100Y-112872600D01*
X141046100Y-114904600D02*
X141046100Y-112872600D01*
X140792100Y-115158600D02*
X138760100Y-115158600D01*
X140792100Y-115158600D02*
X141046100Y-114904600D01*
X135966100Y-114904600D02*
X136220100Y-115158600D01*
X138252100Y-115158600D02*
X136220100Y-115158600D01*
X138506100Y-114904600D02*
X138252100Y-115158600D01*
X138506100Y-114904600D02*
X138760100Y-115158600D01*
X138506100Y-112872600D02*
X138252100Y-112618600D01*
X138506100Y-112872600D02*
X138760100Y-112618600D01*
D11*
G04 #@! TO.C,J1*
X159606100Y-106028600D02*
X159606100Y-107628600D01*
X159606100Y-93328600D02*
X159606100Y-101278600D01*
X159606100Y-107628600D02*
X161206100Y-107628600D01*
X166606100Y-107628600D02*
X168206100Y-107628600D01*
X168206100Y-107628600D02*
X168206100Y-93328600D01*
X168206100Y-93328600D02*
X159606100Y-93328600D01*
D12*
G04 #@! TO.C,J2*
X146202300Y-101188600D02*
X140969900Y-101188600D01*
D10*
G04 #@! TO.C,PAD1*
X151968100Y-110586600D02*
X151968100Y-110840600D01*
X151714100Y-110586600D02*
X151968100Y-110586600D01*
X150444100Y-110586600D02*
X150698100Y-110586600D01*
X150444100Y-110840600D02*
X150444100Y-110586600D01*
X150444100Y-112110600D02*
X150698100Y-112110600D01*
X150444100Y-112110600D02*
X150444100Y-111856600D01*
X151968100Y-112110600D02*
X151968100Y-111856600D01*
X151968100Y-112110600D02*
X151714100Y-112110600D01*
D12*
G04 #@! TO.C,J3*
X151129900Y-103728600D02*
X156362300Y-103728600D01*
G04 #@! TO.C,@HOLE0*
D13*
G04 #@! TO.C,@HOLE1*
G04 #@! TO.C,@HOLE2*
G04 #@! TO.C,@HOLE3*
G04 #@! TO.C,U$1*
D14*
X141687147Y-109090298D02*
X142663838Y-109090298D01*
X142778742Y-109032845D01*
X142836195Y-108975393D01*
X142893647Y-108860488D01*
X142893647Y-108630679D01*
X142836195Y-108515774D01*
X142778742Y-108458321D01*
X142663838Y-108400869D01*
X141687147Y-108400869D01*
X142836195Y-107883798D02*
X142893647Y-107711440D01*
X142893647Y-107424179D01*
X142836195Y-107309274D01*
X142778742Y-107251821D01*
X142663838Y-107194369D01*
X142548933Y-107194369D01*
X142434028Y-107251821D01*
X142376576Y-107309274D01*
X142319123Y-107424179D01*
X142261671Y-107653988D01*
X142204219Y-107768893D01*
X142146766Y-107826345D01*
X142031861Y-107883798D01*
X141916957Y-107883798D01*
X141802052Y-107826345D01*
X141744600Y-107768893D01*
X141687147Y-107653988D01*
X141687147Y-107366726D01*
X141744600Y-107194369D01*
X141514790Y-107539083D02*
X143066004Y-107539083D01*
X142893647Y-106045321D02*
X142893647Y-106734750D01*
X142893647Y-106390036D02*
X141687147Y-106390036D01*
X141859504Y-106504940D01*
X141974409Y-106619845D01*
X142031861Y-106734750D01*
G04 #@! TO.C,D1*
X154269401Y-100131147D02*
X154269401Y-98924647D01*
X154556663Y-98924647D01*
X154729020Y-98982100D01*
X154843925Y-99097004D01*
X154901378Y-99211909D01*
X154958830Y-99441719D01*
X154958830Y-99614076D01*
X154901378Y-99843885D01*
X154843925Y-99958790D01*
X154729020Y-100073695D01*
X154556663Y-100131147D01*
X154269401Y-100131147D01*
X156107878Y-100131147D02*
X155418449Y-100131147D01*
X155763163Y-100131147D02*
X155763163Y-98924647D01*
X155648259Y-99097004D01*
X155533354Y-99211909D01*
X155418449Y-99269361D01*
G04 #@! TO.C,D2*
X155539401Y-107751147D02*
X155539401Y-106544647D01*
X155826663Y-106544647D01*
X155999020Y-106602100D01*
X156113925Y-106717004D01*
X156171378Y-106831909D01*
X156228830Y-107061719D01*
X156228830Y-107234076D01*
X156171378Y-107463885D01*
X156113925Y-107578790D01*
X155999020Y-107693695D01*
X155826663Y-107751147D01*
X155539401Y-107751147D01*
X156688449Y-106659552D02*
X156745901Y-106602100D01*
X156860806Y-106544647D01*
X157148068Y-106544647D01*
X157262973Y-106602100D01*
X157320425Y-106659552D01*
X157377878Y-106774457D01*
X157377878Y-106889361D01*
X157320425Y-107061719D01*
X156630997Y-107751147D01*
X157377878Y-107751147D01*
G04 #@! TO.C,C1*
X145316202Y-115557742D02*
X145258750Y-115615195D01*
X145086393Y-115672647D01*
X144971488Y-115672647D01*
X144799131Y-115615195D01*
X144684226Y-115500290D01*
X144626774Y-115385385D01*
X144569321Y-115155576D01*
X144569321Y-114983219D01*
X144626774Y-114753409D01*
X144684226Y-114638504D01*
X144799131Y-114523600D01*
X144971488Y-114466147D01*
X145086393Y-114466147D01*
X145258750Y-114523600D01*
X145316202Y-114581052D01*
X146465250Y-115672647D02*
X145775821Y-115672647D01*
X146120536Y-115672647D02*
X146120536Y-114466147D01*
X146005631Y-114638504D01*
X145890726Y-114753409D01*
X145775821Y-114810861D01*
G04 #@! TO.C,C2*
X132616202Y-110477742D02*
X132558750Y-110535195D01*
X132386393Y-110592647D01*
X132271488Y-110592647D01*
X132099131Y-110535195D01*
X131984226Y-110420290D01*
X131926774Y-110305385D01*
X131869321Y-110075576D01*
X131869321Y-109903219D01*
X131926774Y-109673409D01*
X131984226Y-109558504D01*
X132099131Y-109443600D01*
X132271488Y-109386147D01*
X132386393Y-109386147D01*
X132558750Y-109443600D01*
X132616202Y-109501052D01*
X133075821Y-109501052D02*
X133133274Y-109443600D01*
X133248179Y-109386147D01*
X133535440Y-109386147D01*
X133650345Y-109443600D01*
X133707798Y-109501052D01*
X133765250Y-109615957D01*
X133765250Y-109730861D01*
X133707798Y-109903219D01*
X133018369Y-110592647D01*
X133765250Y-110592647D01*
G04 #@! TO.C,C3*
X137061202Y-106032742D02*
X137003750Y-106090195D01*
X136831393Y-106147647D01*
X136716488Y-106147647D01*
X136544131Y-106090195D01*
X136429226Y-105975290D01*
X136371774Y-105860385D01*
X136314321Y-105630576D01*
X136314321Y-105458219D01*
X136371774Y-105228409D01*
X136429226Y-105113504D01*
X136544131Y-104998600D01*
X136716488Y-104941147D01*
X136831393Y-104941147D01*
X137003750Y-104998600D01*
X137061202Y-105056052D01*
X137463369Y-104941147D02*
X138210250Y-104941147D01*
X137808083Y-105400766D01*
X137980440Y-105400766D01*
X138095345Y-105458219D01*
X138152798Y-105515671D01*
X138210250Y-105630576D01*
X138210250Y-105917838D01*
X138152798Y-106032742D01*
X138095345Y-106090195D01*
X137980440Y-106147647D01*
X137635726Y-106147647D01*
X137520821Y-106090195D01*
X137463369Y-106032742D01*
G04 #@! TO.C,R1*
X145951202Y-101067647D02*
X145549036Y-100493123D01*
X145261774Y-101067647D02*
X145261774Y-99861147D01*
X145721393Y-99861147D01*
X145836298Y-99918600D01*
X145893750Y-99976052D01*
X145951202Y-100090957D01*
X145951202Y-100263314D01*
X145893750Y-100378219D01*
X145836298Y-100435671D01*
X145721393Y-100493123D01*
X145261774Y-100493123D01*
X147100250Y-101067647D02*
X146410821Y-101067647D01*
X146755536Y-101067647D02*
X146755536Y-99861147D01*
X146640631Y-100033504D01*
X146525726Y-100148409D01*
X146410821Y-100205861D01*
G04 #@! TO.C,R2*
X140925147Y-107713497D02*
X140350623Y-108115663D01*
X140925147Y-108402925D02*
X139718647Y-108402925D01*
X139718647Y-107943306D01*
X139776100Y-107828401D01*
X139833552Y-107770949D01*
X139948457Y-107713497D01*
X140120814Y-107713497D01*
X140235719Y-107770949D01*
X140293171Y-107828401D01*
X140350623Y-107943306D01*
X140350623Y-108402925D01*
X139833552Y-107253878D02*
X139776100Y-107196425D01*
X139718647Y-107081520D01*
X139718647Y-106794259D01*
X139776100Y-106679354D01*
X139833552Y-106621901D01*
X139948457Y-106564449D01*
X140063361Y-106564449D01*
X140235719Y-106621901D01*
X140925147Y-107311330D01*
X140925147Y-106564449D01*
G04 #@! TO.C,JP1*
D15*
X160991147Y-114444073D02*
X161852933Y-114444073D01*
X162025290Y-114501526D01*
X162140195Y-114616430D01*
X162197647Y-114788788D01*
X162197647Y-114903692D01*
X162197647Y-113869550D02*
X160991147Y-113869550D01*
X160991147Y-113409930D01*
X161048600Y-113295026D01*
X161106052Y-113237573D01*
X161220957Y-113180121D01*
X161393314Y-113180121D01*
X161508219Y-113237573D01*
X161565671Y-113295026D01*
X161623123Y-113409930D01*
X161623123Y-113869550D01*
X162197647Y-112031073D02*
X162197647Y-112720502D01*
X162197647Y-112375788D02*
X160991147Y-112375788D01*
X161163504Y-112490692D01*
X161278409Y-112605597D01*
X161335861Y-112720502D01*
G04 #@! TO.C,JP2*
X136680626Y-110973647D02*
X136680626Y-111835433D01*
X136623173Y-112007790D01*
X136508269Y-112122695D01*
X136335911Y-112180147D01*
X136221007Y-112180147D01*
X137255150Y-112180147D02*
X137255150Y-110973647D01*
X137714769Y-110973647D01*
X137829673Y-111031100D01*
X137887126Y-111088552D01*
X137944578Y-111203457D01*
X137944578Y-111375814D01*
X137887126Y-111490719D01*
X137829673Y-111548171D01*
X137714769Y-111605623D01*
X137255150Y-111605623D01*
X138404197Y-111088552D02*
X138461650Y-111031100D01*
X138576554Y-110973647D01*
X138863816Y-110973647D01*
X138978721Y-111031100D01*
X139036173Y-111088552D01*
X139093626Y-111203457D01*
X139093626Y-111318361D01*
X139036173Y-111490719D01*
X138346745Y-112180147D01*
X139093626Y-112180147D01*
G04 #@! TO.C,J1*
D14*
X166213750Y-108751147D02*
X166213750Y-109612933D01*
X166156298Y-109785290D01*
X166041393Y-109900195D01*
X165869036Y-109957647D01*
X165754131Y-109957647D01*
X167420250Y-109957647D02*
X166730821Y-109957647D01*
X167075536Y-109957647D02*
X167075536Y-108751147D01*
X166960631Y-108923504D01*
X166845726Y-109038409D01*
X166730821Y-109095861D01*
G04 #@! TO.C,J2*
D15*
X144607240Y-101766147D02*
X144607240Y-102627933D01*
X144549788Y-102800290D01*
X144434883Y-102915195D01*
X144262526Y-102972647D01*
X144147621Y-102972647D01*
X145124311Y-101881052D02*
X145181764Y-101823600D01*
X145296669Y-101766147D01*
X145583930Y-101766147D01*
X145698835Y-101823600D01*
X145756288Y-101881052D01*
X145813740Y-101995957D01*
X145813740Y-102110861D01*
X145756288Y-102283219D01*
X145066859Y-102972647D01*
X145813740Y-102972647D01*
G04 #@! TO.C,PAD1*
X147576621Y-113513647D02*
X147576621Y-112307147D01*
X148036240Y-112307147D01*
X148151145Y-112364600D01*
X148208597Y-112422052D01*
X148266050Y-112536957D01*
X148266050Y-112709314D01*
X148208597Y-112824219D01*
X148151145Y-112881671D01*
X148036240Y-112939123D01*
X147576621Y-112939123D01*
X148725669Y-113168933D02*
X149300192Y-113168933D01*
X148610764Y-113513647D02*
X149012930Y-112307147D01*
X149415097Y-113513647D01*
X149817264Y-113513647D02*
X149817264Y-112307147D01*
X150104526Y-112307147D01*
X150276883Y-112364600D01*
X150391788Y-112479504D01*
X150449240Y-112594409D01*
X150506692Y-112824219D01*
X150506692Y-112996576D01*
X150449240Y-113226385D01*
X150391788Y-113341290D01*
X150276883Y-113456195D01*
X150104526Y-113513647D01*
X149817264Y-113513647D01*
X151655740Y-113513647D02*
X150966311Y-113513647D01*
X151311026Y-113513647D02*
X151311026Y-112307147D01*
X151196121Y-112479504D01*
X151081216Y-112594409D01*
X150966311Y-112651861D01*
G04 #@! TO.C,J3*
X151920626Y-101829647D02*
X151920626Y-102691433D01*
X151863173Y-102863790D01*
X151748269Y-102978695D01*
X151575911Y-103036147D01*
X151461007Y-103036147D01*
X152380245Y-101829647D02*
X153127126Y-101829647D01*
X152724959Y-102289266D01*
X152897316Y-102289266D01*
X153012221Y-102346719D01*
X153069673Y-102404171D01*
X153127126Y-102519076D01*
X153127126Y-102806338D01*
X153069673Y-102921242D01*
X153012221Y-102978695D01*
X152897316Y-103036147D01*
X152552602Y-103036147D01*
X152437697Y-102978695D01*
X152380245Y-102921242D01*
G04 #@! TD*
M02*
