G04 #@! TF.GenerationSoftware,KiCad,Pcbnew,(5.0.0)*
G04 #@! TF.CreationDate,2020-02-21T08:36:11-08:00*
G04 #@! TF.ProjectId,12V Power Circuit V4,31325620506F77657220436972637569,rev?*
G04 #@! TF.SameCoordinates,Original*
G04 #@! TF.FileFunction,Copper,L1,Top,Signal*
G04 #@! TF.FilePolarity,Positive*
%FSLAX46Y46*%
G04 Gerber Fmt 4.6, Leading zero omitted, Abs format (unit mm)*
G04 Created by KiCad (PCBNEW (5.0.0)) date 02/21/20 08:36:11*
%MOMM*%
%LPD*%
G01*
G04 APERTURE LIST*
G04 #@! TA.AperFunction,SMDPad,CuDef*
%ADD10R,1.200000X0.550000*%
G04 #@! TD*
G04 #@! TA.AperFunction,SMDPad,CuDef*
%ADD11R,1.400000X1.400000*%
G04 #@! TD*
G04 #@! TA.AperFunction,SMDPad,CuDef*
%ADD12R,1.600000X2.700000*%
G04 #@! TD*
G04 #@! TA.AperFunction,SMDPad,CuDef*
%ADD13R,1.600000X1.800000*%
G04 #@! TD*
G04 #@! TA.AperFunction,SMDPad,CuDef*
%ADD14R,1.600000X2.000000*%
G04 #@! TD*
G04 #@! TA.AperFunction,SMDPad,CuDef*
%ADD15R,2.000000X1.600000*%
G04 #@! TD*
G04 #@! TA.AperFunction,ComponentPad*
%ADD16O,2.844800X1.422400*%
G04 #@! TD*
G04 #@! TA.AperFunction,ComponentPad*
%ADD17O,1.422400X2.844800*%
G04 #@! TD*
G04 #@! TA.AperFunction,ComponentPad*
%ADD18O,2.000000X4.000000*%
G04 #@! TD*
G04 #@! TA.AperFunction,ComponentPad*
%ADD19O,4.000000X2.000000*%
G04 #@! TD*
G04 #@! TA.AperFunction,ComponentPad*
%ADD20C,1.600200*%
G04 #@! TD*
G04 #@! TA.AperFunction,Conductor*
%ADD21C,0.406400*%
G04 #@! TD*
G04 #@! TA.AperFunction,Conductor*
%ADD22C,0.254000*%
G04 #@! TD*
G04 #@! TA.AperFunction,NonConductor*
%ADD23C,0.406400*%
G04 #@! TD*
G04 APERTURE END LIST*
D10*
G04 #@! TO.P,U$1,5*
G04 #@! TO.N,Net-(C2-Pad1)*
X143556100Y-108488600D03*
G04 #@! TO.P,U$1,4*
G04 #@! TO.N,Net-(R1-Pad2)*
X143556100Y-106588600D03*
G04 #@! TO.P,U$1,3*
G04 #@! TO.N,Net-(J2-Pad1)*
X146156100Y-106588600D03*
G04 #@! TO.P,U$1,2*
G04 #@! TO.N,GND*
X146156100Y-107538600D03*
G04 #@! TO.P,U$1,1*
G04 #@! TO.N,Net-(C1-Pad1)*
X146156100Y-108488600D03*
G04 #@! TD*
D11*
G04 #@! TO.P,D1,A*
G04 #@! TO.N,Net-(D1-PadA)*
X156916100Y-101188600D03*
G04 #@! TO.P,D1,C*
G04 #@! TO.N,Net-(C1-Pad1)*
X153116100Y-101188600D03*
G04 #@! TD*
G04 #@! TO.P,D2,A*
G04 #@! TO.N,Net-(D2-PadA)*
X158186100Y-108808600D03*
G04 #@! TO.P,D2,C*
G04 #@! TO.N,Net-(C1-Pad1)*
X154386100Y-108808600D03*
G04 #@! TD*
D12*
G04 #@! TO.P,C1,2*
G04 #@! TO.N,GND*
X143456100Y-112618600D03*
G04 #@! TO.P,C1,1*
G04 #@! TO.N,Net-(C1-Pad1)*
X146256100Y-112618600D03*
G04 #@! TD*
G04 #@! TO.P,C2,2*
G04 #@! TO.N,GND*
X130756100Y-107538600D03*
G04 #@! TO.P,C2,1*
G04 #@! TO.N,Net-(C2-Pad1)*
X133556100Y-107538600D03*
G04 #@! TD*
D13*
G04 #@! TO.P,C3,2*
G04 #@! TO.N,Net-(C2-Pad1)*
X135836100Y-103728600D03*
G04 #@! TO.P,C3,1*
G04 #@! TO.N,Net-(C3-Pad1)*
X138636100Y-103728600D03*
G04 #@! TD*
D14*
G04 #@! TO.P,R1,2*
G04 #@! TO.N,Net-(R1-Pad2)*
X144726100Y-98648600D03*
G04 #@! TO.P,R1,1*
G04 #@! TO.N,GND*
X147526100Y-98648600D03*
G04 #@! TD*
D15*
G04 #@! TO.P,R2,2*
G04 #@! TO.N,Net-(C2-Pad1)*
X138506100Y-108938600D03*
G04 #@! TO.P,R2,1*
G04 #@! TO.N,Net-(R1-Pad2)*
X138506100Y-106138600D03*
G04 #@! TD*
D16*
G04 #@! TO.P,JP1,2*
G04 #@! TO.N,Net-(J1-Pad3)*
X163906100Y-111348600D03*
G04 #@! TO.P,JP1,1*
G04 #@! TO.N,Net-(D2-PadA)*
X163906100Y-113888600D03*
G04 #@! TD*
D17*
G04 #@! TO.P,JP2,2*
G04 #@! TO.N,Net-(C2-Pad1)*
X139776100Y-113888600D03*
G04 #@! TO.P,JP2,1*
G04 #@! TO.N,GND*
X137236100Y-113888600D03*
G04 #@! TD*
D18*
G04 #@! TO.P,J1,2*
G04 #@! TO.N,Net-(J1-Pad2)*
X168706100Y-103728600D03*
D19*
G04 #@! TO.P,J1,3*
G04 #@! TO.N,Net-(J1-Pad3)*
X163906100Y-100728600D03*
G04 #@! TO.P,J1,1*
G04 #@! TO.N,Net-(D1-PadA)*
X163906100Y-106828600D03*
G04 #@! TD*
D20*
G04 #@! TO.P,J2,2*
G04 #@! TO.N,Net-(C3-Pad1)*
X139776100Y-101188600D03*
G04 #@! TO.P,J2,1*
G04 #@! TO.N,Net-(J2-Pad1)*
X147396100Y-101188600D03*
G04 #@! TD*
G04 #@! TO.P,PAD1,1*
G04 #@! TO.N,Net-(C1-Pad1)*
X151206100Y-111348600D03*
G04 #@! TD*
G04 #@! TO.P,J3,2*
G04 #@! TO.N,Net-(J1-Pad3)*
X157556100Y-103728600D03*
G04 #@! TO.P,J3,1*
G04 #@! TO.N,GND*
X149936100Y-103728600D03*
G04 #@! TD*
D21*
G04 #@! TO.N,Net-(C1-Pad1)*
X146256100Y-112618600D02*
X147396100Y-112618600D01*
X146156100Y-108488600D02*
X147396100Y-108488600D01*
X147396100Y-108488600D02*
X147396100Y-112618600D01*
X147396100Y-112618600D02*
X149936100Y-112618600D01*
X149936100Y-112618600D02*
X151206100Y-111348600D01*
X154386100Y-108808600D02*
X153116100Y-107538600D01*
X153116100Y-107538600D02*
X153116100Y-101188600D01*
X151206100Y-111348600D02*
X153746100Y-108808600D01*
X153746100Y-108808600D02*
X154386100Y-108808600D01*
G04 #@! TO.N,Net-(C2-Pad1)*
X138506100Y-108938600D02*
X139776100Y-108938600D01*
X139776100Y-108938600D02*
X143106100Y-108938600D01*
X143106100Y-108938600D02*
X143556100Y-108488600D01*
X139776100Y-113888600D02*
X139776100Y-108938600D01*
X138506100Y-108938600D02*
X138506100Y-108808600D01*
X138506100Y-108808600D02*
X135966100Y-108808600D01*
X135966100Y-108808600D02*
X135966100Y-107538600D01*
X135966100Y-107538600D02*
X135966100Y-103728600D01*
X135966100Y-103728600D02*
X135836100Y-103728600D01*
X133556100Y-107538600D02*
X135966100Y-107538600D01*
G04 #@! TO.N,Net-(R1-Pad2)*
X144726100Y-98648600D02*
X143556100Y-98648600D01*
X143556100Y-98648600D02*
X143556100Y-106588600D01*
X143556100Y-106588600D02*
X138506100Y-106588600D01*
X138506100Y-106588600D02*
X138506100Y-106268600D01*
D22*
X138506100Y-106268600D02*
X138506100Y-106138600D01*
D21*
G04 #@! TO.N,GND*
X149936100Y-103728600D02*
X149936100Y-107538600D01*
X130756100Y-107538600D02*
X130756100Y-105128600D01*
X130756100Y-105128600D02*
X139776100Y-96108600D01*
X139776100Y-96108600D02*
X147396100Y-96108600D01*
X147396100Y-96108600D02*
X147396100Y-98518600D01*
X147396100Y-98518600D02*
X147526100Y-98648600D01*
X147526100Y-98648600D02*
X148666100Y-98648600D01*
X148666100Y-98648600D02*
X149936100Y-99918600D01*
X149936100Y-99918600D02*
X149936100Y-103728600D01*
X146156100Y-107538600D02*
X149936100Y-107538600D01*
X143456100Y-112618600D02*
X143456100Y-116428600D01*
X143456100Y-116428600D02*
X137236100Y-116428600D01*
X137236100Y-116428600D02*
X137236100Y-113888600D01*
X137236100Y-111348600D02*
X133426100Y-111348600D01*
X133426100Y-111348600D02*
X130886100Y-108808600D01*
X130886100Y-108808600D02*
X130886100Y-107668600D01*
X130886100Y-107668600D02*
X130756100Y-107538600D01*
X137236100Y-111348600D02*
X137236100Y-113888600D01*
G04 #@! TO.N,Net-(D2-PadA)*
X163906100Y-113888600D02*
X162636100Y-113888600D01*
X162636100Y-113888600D02*
X157556100Y-108808600D01*
X157556100Y-108808600D02*
X158186100Y-108808600D01*
G04 #@! TO.N,Net-(D1-PadA)*
X163906100Y-106828600D02*
X163906100Y-104998600D01*
X163906100Y-104998600D02*
X167716100Y-101188600D01*
X167716100Y-101188600D02*
X167716100Y-99918600D01*
X167716100Y-99918600D02*
X166446100Y-98648600D01*
X166446100Y-98648600D02*
X159456100Y-98648600D01*
X159456100Y-98648600D02*
X156916100Y-101188600D01*
G04 #@! TO.N,Net-(C3-Pad1)*
X139776100Y-101188600D02*
X139776100Y-103728600D01*
X139776100Y-103728600D02*
X138636100Y-103728600D01*
G04 #@! TO.N,Net-(J2-Pad1)*
X147396100Y-101188600D02*
X147396100Y-106588600D01*
X146156100Y-106588600D02*
X147396100Y-106588600D01*
G04 #@! TO.N,Net-(J1-Pad3)*
X157556100Y-103728600D02*
X161366100Y-103728600D01*
X161366100Y-103728600D02*
X162636100Y-103728600D01*
X163906100Y-111348600D02*
X161366100Y-108808600D01*
X161366100Y-108808600D02*
X161366100Y-103728600D01*
X163906100Y-100728600D02*
X163906100Y-102458600D01*
X163906100Y-102458600D02*
X162636100Y-103728600D01*
G04 #@! TD*
D23*
G36*
X170917900Y-117420400D02*
X126084300Y-117420400D01*
X126084300Y-113824445D01*
X127346473Y-113824445D01*
X127377568Y-114268460D01*
X127494687Y-114697877D01*
X127693332Y-115096195D01*
X127764617Y-115202880D01*
X128109620Y-115359725D01*
X128181946Y-115287399D01*
X128217301Y-115322754D01*
X128144975Y-115395080D01*
X128301820Y-115740083D01*
X128688280Y-115960910D01*
X129110396Y-116102100D01*
X129551945Y-116158227D01*
X129995960Y-116127132D01*
X130425377Y-116010013D01*
X130823695Y-115811368D01*
X130930380Y-115740083D01*
X131087225Y-115395080D01*
X131014899Y-115322754D01*
X131050254Y-115287399D01*
X131122580Y-115359725D01*
X131467583Y-115202880D01*
X131688410Y-114816420D01*
X131829600Y-114394304D01*
X131885727Y-113952755D01*
X131854632Y-113508740D01*
X131737513Y-113079323D01*
X131538868Y-112681005D01*
X131467583Y-112574320D01*
X131122580Y-112417475D01*
X131050254Y-112489801D01*
X131014899Y-112454446D01*
X131087225Y-112382120D01*
X130930380Y-112037117D01*
X130543920Y-111816290D01*
X130121804Y-111675100D01*
X129680255Y-111618973D01*
X129236240Y-111650068D01*
X128806823Y-111767187D01*
X128408505Y-111965832D01*
X128301820Y-112037117D01*
X128144975Y-112382120D01*
X128217301Y-112454446D01*
X128181946Y-112489801D01*
X128109620Y-112417475D01*
X127764617Y-112574320D01*
X127543790Y-112960780D01*
X127402600Y-113382896D01*
X127346473Y-113824445D01*
X126084300Y-113824445D01*
X126084300Y-106188600D01*
X129550950Y-106188600D01*
X129550950Y-108888600D01*
X129558735Y-108967641D01*
X129581790Y-109043644D01*
X129619230Y-109113689D01*
X129669616Y-109175084D01*
X129731011Y-109225470D01*
X129801056Y-109262910D01*
X129877059Y-109285965D01*
X129956100Y-109293750D01*
X130513672Y-109293750D01*
X132976246Y-111756325D01*
X132995236Y-111779464D01*
X133087572Y-111855243D01*
X133192918Y-111911551D01*
X133307225Y-111946226D01*
X133396310Y-111955000D01*
X133396319Y-111955000D01*
X133426099Y-111957933D01*
X133455879Y-111955000D01*
X136629700Y-111955000D01*
X136629700Y-112237923D01*
X136613978Y-112246327D01*
X136444288Y-112385587D01*
X136305028Y-112555277D01*
X136201548Y-112748874D01*
X136137824Y-112958939D01*
X136121700Y-113122653D01*
X136121700Y-114654546D01*
X136137824Y-114818260D01*
X136201547Y-115028325D01*
X136305027Y-115221923D01*
X136444287Y-115391613D01*
X136613977Y-115530873D01*
X136629700Y-115539277D01*
X136629700Y-116398810D01*
X136626766Y-116428600D01*
X136638474Y-116547475D01*
X136673149Y-116661782D01*
X136729457Y-116767128D01*
X136805236Y-116859464D01*
X136897572Y-116935243D01*
X137002918Y-116991551D01*
X137117225Y-117026226D01*
X137236100Y-117037934D01*
X137265890Y-117035000D01*
X143426310Y-117035000D01*
X143456100Y-117037934D01*
X143574975Y-117026226D01*
X143689282Y-116991551D01*
X143794628Y-116935243D01*
X143886964Y-116859464D01*
X143962743Y-116767128D01*
X144019051Y-116661782D01*
X144053726Y-116547475D01*
X144062500Y-116458390D01*
X144062500Y-116458389D01*
X144065434Y-116428600D01*
X144062500Y-116398810D01*
X144062500Y-114373750D01*
X144256100Y-114373750D01*
X144335141Y-114365965D01*
X144411144Y-114342910D01*
X144481189Y-114305470D01*
X144542584Y-114255084D01*
X144592970Y-114193689D01*
X144630410Y-114123644D01*
X144653465Y-114047641D01*
X144661250Y-113968600D01*
X144661250Y-111268600D01*
X144653465Y-111189559D01*
X144630410Y-111113556D01*
X144592970Y-111043511D01*
X144542584Y-110982116D01*
X144481189Y-110931730D01*
X144411144Y-110894290D01*
X144335141Y-110871235D01*
X144256100Y-110863450D01*
X142656100Y-110863450D01*
X142577059Y-110871235D01*
X142501056Y-110894290D01*
X142431011Y-110931730D01*
X142369616Y-110982116D01*
X142319230Y-111043511D01*
X142281790Y-111113556D01*
X142258735Y-111189559D01*
X142250950Y-111268600D01*
X142250950Y-113968600D01*
X142258735Y-114047641D01*
X142281790Y-114123644D01*
X142319230Y-114193689D01*
X142369616Y-114255084D01*
X142431011Y-114305470D01*
X142501056Y-114342910D01*
X142577059Y-114365965D01*
X142656100Y-114373750D01*
X142849700Y-114373750D01*
X142849701Y-115822200D01*
X137842500Y-115822200D01*
X137842500Y-115539277D01*
X137858223Y-115530873D01*
X138027913Y-115391613D01*
X138167173Y-115221923D01*
X138270653Y-115028326D01*
X138334376Y-114818261D01*
X138350500Y-114654547D01*
X138350500Y-113122653D01*
X138334376Y-112958939D01*
X138270653Y-112748874D01*
X138167173Y-112555277D01*
X138027913Y-112385587D01*
X137858223Y-112246327D01*
X137842500Y-112237923D01*
X137842500Y-111378390D01*
X137845434Y-111348600D01*
X137833726Y-111229725D01*
X137799051Y-111115418D01*
X137742743Y-111010072D01*
X137666964Y-110917736D01*
X137574628Y-110841957D01*
X137469282Y-110785649D01*
X137354975Y-110750974D01*
X137265890Y-110742200D01*
X137236100Y-110739266D01*
X137206310Y-110742200D01*
X133677279Y-110742200D01*
X131941654Y-109006576D01*
X131953465Y-108967641D01*
X131961250Y-108888600D01*
X131961250Y-106188600D01*
X132350950Y-106188600D01*
X132350950Y-108888600D01*
X132358735Y-108967641D01*
X132381790Y-109043644D01*
X132419230Y-109113689D01*
X132469616Y-109175084D01*
X132531011Y-109225470D01*
X132601056Y-109262910D01*
X132677059Y-109285965D01*
X132756100Y-109293750D01*
X134356100Y-109293750D01*
X134435141Y-109285965D01*
X134511144Y-109262910D01*
X134581189Y-109225470D01*
X134642584Y-109175084D01*
X134692970Y-109113689D01*
X134730410Y-109043644D01*
X134753465Y-108967641D01*
X134761250Y-108888600D01*
X134761250Y-108145000D01*
X135359701Y-108145000D01*
X135359700Y-108778810D01*
X135356766Y-108808600D01*
X135368474Y-108927475D01*
X135403149Y-109041782D01*
X135459457Y-109147128D01*
X135516245Y-109216324D01*
X135535236Y-109239464D01*
X135627572Y-109315243D01*
X135732918Y-109371551D01*
X135847225Y-109406226D01*
X135966100Y-109417934D01*
X135995890Y-109415000D01*
X137100950Y-109415000D01*
X137100950Y-109738600D01*
X137108735Y-109817641D01*
X137131790Y-109893644D01*
X137169230Y-109963689D01*
X137219616Y-110025084D01*
X137281011Y-110075470D01*
X137351056Y-110112910D01*
X137427059Y-110135965D01*
X137506100Y-110143750D01*
X139169701Y-110143750D01*
X139169700Y-112237923D01*
X139153978Y-112246327D01*
X138984288Y-112385587D01*
X138845028Y-112555277D01*
X138741548Y-112748874D01*
X138677824Y-112958939D01*
X138661700Y-113122653D01*
X138661700Y-114654546D01*
X138677824Y-114818260D01*
X138741547Y-115028325D01*
X138845027Y-115221923D01*
X138984287Y-115391613D01*
X139153977Y-115530873D01*
X139347574Y-115634353D01*
X139557639Y-115698076D01*
X139776100Y-115719592D01*
X139994560Y-115698076D01*
X140204625Y-115634353D01*
X140398223Y-115530873D01*
X140567913Y-115391613D01*
X140707173Y-115221923D01*
X140810653Y-115028326D01*
X140874376Y-114818261D01*
X140890500Y-114654547D01*
X140890500Y-113122653D01*
X140874376Y-112958939D01*
X140810653Y-112748874D01*
X140707173Y-112555277D01*
X140567913Y-112385587D01*
X140398223Y-112246327D01*
X140382500Y-112237923D01*
X140382500Y-109545000D01*
X143076318Y-109545000D01*
X143106100Y-109547933D01*
X143135882Y-109545000D01*
X143135890Y-109545000D01*
X143224975Y-109536226D01*
X143339282Y-109501551D01*
X143444628Y-109445243D01*
X143536964Y-109369464D01*
X143555958Y-109346321D01*
X143733528Y-109168750D01*
X144156100Y-109168750D01*
X144235141Y-109160965D01*
X144311144Y-109137910D01*
X144381189Y-109100470D01*
X144442584Y-109050084D01*
X144492970Y-108988689D01*
X144530410Y-108918644D01*
X144553465Y-108842641D01*
X144561250Y-108763600D01*
X144561250Y-108213600D01*
X144553465Y-108134559D01*
X144530410Y-108058556D01*
X144492970Y-107988511D01*
X144442584Y-107927116D01*
X144381189Y-107876730D01*
X144311144Y-107839290D01*
X144235141Y-107816235D01*
X144156100Y-107808450D01*
X142956100Y-107808450D01*
X142877059Y-107816235D01*
X142801056Y-107839290D01*
X142731011Y-107876730D01*
X142669616Y-107927116D01*
X142619230Y-107988511D01*
X142581790Y-108058556D01*
X142558735Y-108134559D01*
X142550950Y-108213600D01*
X142550950Y-108332200D01*
X139911250Y-108332200D01*
X139911250Y-108138600D01*
X139903465Y-108059559D01*
X139880410Y-107983556D01*
X139842970Y-107913511D01*
X139792584Y-107852116D01*
X139731189Y-107801730D01*
X139661144Y-107764290D01*
X139585141Y-107741235D01*
X139506100Y-107733450D01*
X137506100Y-107733450D01*
X137427059Y-107741235D01*
X137351056Y-107764290D01*
X137281011Y-107801730D01*
X137219616Y-107852116D01*
X137169230Y-107913511D01*
X137131790Y-107983556D01*
X137108735Y-108059559D01*
X137100950Y-108138600D01*
X137100950Y-108202200D01*
X136572500Y-108202200D01*
X136572500Y-107568389D01*
X136575434Y-107538600D01*
X136572500Y-107508810D01*
X136572500Y-105338600D01*
X137100950Y-105338600D01*
X137100950Y-106938600D01*
X137108735Y-107017641D01*
X137131790Y-107093644D01*
X137169230Y-107163689D01*
X137219616Y-107225084D01*
X137281011Y-107275470D01*
X137351056Y-107312910D01*
X137427059Y-107335965D01*
X137506100Y-107343750D01*
X139506100Y-107343750D01*
X139585141Y-107335965D01*
X139661144Y-107312910D01*
X139731189Y-107275470D01*
X139792584Y-107225084D01*
X139817274Y-107195000D01*
X142724346Y-107195000D01*
X142731011Y-107200470D01*
X142801056Y-107237910D01*
X142877059Y-107260965D01*
X142956100Y-107268750D01*
X144156100Y-107268750D01*
X144235141Y-107260965D01*
X144311144Y-107237910D01*
X144381189Y-107200470D01*
X144442584Y-107150084D01*
X144492970Y-107088689D01*
X144530410Y-107018644D01*
X144553465Y-106942641D01*
X144561250Y-106863600D01*
X144561250Y-106313600D01*
X144553465Y-106234559D01*
X144530410Y-106158556D01*
X144492970Y-106088511D01*
X144442584Y-106027116D01*
X144381189Y-105976730D01*
X144311144Y-105939290D01*
X144235141Y-105916235D01*
X144162500Y-105909080D01*
X144162500Y-100053750D01*
X145526100Y-100053750D01*
X145605141Y-100045965D01*
X145681144Y-100022910D01*
X145751189Y-99985470D01*
X145812584Y-99935084D01*
X145862970Y-99873689D01*
X145900410Y-99803644D01*
X145923465Y-99727641D01*
X145931250Y-99648600D01*
X145931250Y-97648600D01*
X145923465Y-97569559D01*
X145900410Y-97493556D01*
X145862970Y-97423511D01*
X145812584Y-97362116D01*
X145751189Y-97311730D01*
X145681144Y-97274290D01*
X145605141Y-97251235D01*
X145526100Y-97243450D01*
X143926100Y-97243450D01*
X143847059Y-97251235D01*
X143771056Y-97274290D01*
X143701011Y-97311730D01*
X143639616Y-97362116D01*
X143589230Y-97423511D01*
X143551790Y-97493556D01*
X143528735Y-97569559D01*
X143520950Y-97648600D01*
X143520950Y-98042728D01*
X143437225Y-98050974D01*
X143322918Y-98085649D01*
X143217572Y-98141957D01*
X143125236Y-98217736D01*
X143049457Y-98310072D01*
X142993149Y-98415418D01*
X142958474Y-98529725D01*
X142946766Y-98648600D01*
X142949700Y-98678390D01*
X142949701Y-105909080D01*
X142877059Y-105916235D01*
X142801056Y-105939290D01*
X142731011Y-105976730D01*
X142724346Y-105982200D01*
X139911250Y-105982200D01*
X139911250Y-105338600D01*
X139903465Y-105259559D01*
X139880410Y-105183556D01*
X139842970Y-105113511D01*
X139792584Y-105052116D01*
X139731189Y-105001730D01*
X139662042Y-104964770D01*
X139722584Y-104915084D01*
X139772970Y-104853689D01*
X139810410Y-104783644D01*
X139833465Y-104707641D01*
X139841250Y-104628600D01*
X139841250Y-104331517D01*
X139894975Y-104326226D01*
X140009282Y-104291551D01*
X140114628Y-104235243D01*
X140206964Y-104159464D01*
X140282743Y-104067128D01*
X140339051Y-103961782D01*
X140373726Y-103847475D01*
X140382500Y-103758390D01*
X140385434Y-103728600D01*
X140382500Y-103698810D01*
X140382500Y-102230612D01*
X140543159Y-102123264D01*
X140710764Y-101955659D01*
X140842450Y-101758576D01*
X140933158Y-101539590D01*
X140979400Y-101307115D01*
X140979400Y-101070085D01*
X140933158Y-100837610D01*
X140842450Y-100618624D01*
X140710764Y-100421541D01*
X140543159Y-100253936D01*
X140346076Y-100122250D01*
X140127090Y-100031542D01*
X139894615Y-99985300D01*
X139657585Y-99985300D01*
X139425110Y-100031542D01*
X139206124Y-100122250D01*
X139009041Y-100253936D01*
X138841436Y-100421541D01*
X138709750Y-100618624D01*
X138619042Y-100837610D01*
X138572800Y-101070085D01*
X138572800Y-101307115D01*
X138619042Y-101539590D01*
X138709750Y-101758576D01*
X138841436Y-101955659D01*
X139009041Y-102123264D01*
X139169700Y-102230613D01*
X139169700Y-102423450D01*
X137836100Y-102423450D01*
X137757059Y-102431235D01*
X137681056Y-102454290D01*
X137611011Y-102491730D01*
X137549616Y-102542116D01*
X137499230Y-102603511D01*
X137461790Y-102673556D01*
X137438735Y-102749559D01*
X137430950Y-102828600D01*
X137430950Y-104628600D01*
X137438735Y-104707641D01*
X137461790Y-104783644D01*
X137499230Y-104853689D01*
X137549616Y-104915084D01*
X137571995Y-104933450D01*
X137506100Y-104933450D01*
X137427059Y-104941235D01*
X137351056Y-104964290D01*
X137281011Y-105001730D01*
X137219616Y-105052116D01*
X137169230Y-105113511D01*
X137131790Y-105183556D01*
X137108735Y-105259559D01*
X137100950Y-105338600D01*
X136572500Y-105338600D01*
X136572500Y-105033750D01*
X136636100Y-105033750D01*
X136715141Y-105025965D01*
X136791144Y-105002910D01*
X136861189Y-104965470D01*
X136922584Y-104915084D01*
X136972970Y-104853689D01*
X137010410Y-104783644D01*
X137033465Y-104707641D01*
X137041250Y-104628600D01*
X137041250Y-102828600D01*
X137033465Y-102749559D01*
X137010410Y-102673556D01*
X136972970Y-102603511D01*
X136922584Y-102542116D01*
X136861189Y-102491730D01*
X136791144Y-102454290D01*
X136715141Y-102431235D01*
X136636100Y-102423450D01*
X135036100Y-102423450D01*
X134957059Y-102431235D01*
X134881056Y-102454290D01*
X134811011Y-102491730D01*
X134749616Y-102542116D01*
X134699230Y-102603511D01*
X134661790Y-102673556D01*
X134638735Y-102749559D01*
X134630950Y-102828600D01*
X134630950Y-104628600D01*
X134638735Y-104707641D01*
X134661790Y-104783644D01*
X134699230Y-104853689D01*
X134749616Y-104915084D01*
X134811011Y-104965470D01*
X134881056Y-105002910D01*
X134957059Y-105025965D01*
X135036100Y-105033750D01*
X135359701Y-105033750D01*
X135359700Y-106932200D01*
X134761250Y-106932200D01*
X134761250Y-106188600D01*
X134753465Y-106109559D01*
X134730410Y-106033556D01*
X134692970Y-105963511D01*
X134642584Y-105902116D01*
X134581189Y-105851730D01*
X134511144Y-105814290D01*
X134435141Y-105791235D01*
X134356100Y-105783450D01*
X132756100Y-105783450D01*
X132677059Y-105791235D01*
X132601056Y-105814290D01*
X132531011Y-105851730D01*
X132469616Y-105902116D01*
X132419230Y-105963511D01*
X132381790Y-106033556D01*
X132358735Y-106109559D01*
X132350950Y-106188600D01*
X131961250Y-106188600D01*
X131953465Y-106109559D01*
X131930410Y-106033556D01*
X131892970Y-105963511D01*
X131842584Y-105902116D01*
X131781189Y-105851730D01*
X131711144Y-105814290D01*
X131635141Y-105791235D01*
X131556100Y-105783450D01*
X131362500Y-105783450D01*
X131362500Y-105379778D01*
X140027280Y-96715000D01*
X146789700Y-96715000D01*
X146789700Y-97243450D01*
X146726100Y-97243450D01*
X146647059Y-97251235D01*
X146571056Y-97274290D01*
X146501011Y-97311730D01*
X146439616Y-97362116D01*
X146389230Y-97423511D01*
X146351790Y-97493556D01*
X146328735Y-97569559D01*
X146320950Y-97648600D01*
X146320950Y-99648600D01*
X146328735Y-99727641D01*
X146351790Y-99803644D01*
X146389230Y-99873689D01*
X146439616Y-99935084D01*
X146501011Y-99985470D01*
X146571056Y-100022910D01*
X146647059Y-100045965D01*
X146726100Y-100053750D01*
X146991496Y-100053750D01*
X146826124Y-100122250D01*
X146629041Y-100253936D01*
X146461436Y-100421541D01*
X146329750Y-100618624D01*
X146239042Y-100837610D01*
X146192800Y-101070085D01*
X146192800Y-101307115D01*
X146239042Y-101539590D01*
X146329750Y-101758576D01*
X146461436Y-101955659D01*
X146629041Y-102123264D01*
X146789700Y-102230613D01*
X146789701Y-105911759D01*
X146756100Y-105908450D01*
X145556100Y-105908450D01*
X145477059Y-105916235D01*
X145401056Y-105939290D01*
X145331011Y-105976730D01*
X145269616Y-106027116D01*
X145219230Y-106088511D01*
X145181790Y-106158556D01*
X145158735Y-106234559D01*
X145150950Y-106313600D01*
X145150950Y-106863600D01*
X145158735Y-106942641D01*
X145181790Y-107018644D01*
X145205820Y-107063600D01*
X145181790Y-107108556D01*
X145158735Y-107184559D01*
X145150950Y-107263600D01*
X145150950Y-107813600D01*
X145158735Y-107892641D01*
X145181790Y-107968644D01*
X145205820Y-108013600D01*
X145181790Y-108058556D01*
X145158735Y-108134559D01*
X145150950Y-108213600D01*
X145150950Y-108763600D01*
X145158735Y-108842641D01*
X145181790Y-108918644D01*
X145219230Y-108988689D01*
X145269616Y-109050084D01*
X145331011Y-109100470D01*
X145401056Y-109137910D01*
X145477059Y-109160965D01*
X145556100Y-109168750D01*
X146756100Y-109168750D01*
X146789700Y-109165441D01*
X146789701Y-110863450D01*
X145456100Y-110863450D01*
X145377059Y-110871235D01*
X145301056Y-110894290D01*
X145231011Y-110931730D01*
X145169616Y-110982116D01*
X145119230Y-111043511D01*
X145081790Y-111113556D01*
X145058735Y-111189559D01*
X145050950Y-111268600D01*
X145050950Y-113968600D01*
X145058735Y-114047641D01*
X145081790Y-114123644D01*
X145119230Y-114193689D01*
X145169616Y-114255084D01*
X145231011Y-114305470D01*
X145301056Y-114342910D01*
X145377059Y-114365965D01*
X145456100Y-114373750D01*
X147056100Y-114373750D01*
X147135141Y-114365965D01*
X147211144Y-114342910D01*
X147281189Y-114305470D01*
X147342584Y-114255084D01*
X147392970Y-114193689D01*
X147430410Y-114123644D01*
X147453465Y-114047641D01*
X147461250Y-113968600D01*
X147461250Y-113824445D01*
X154016473Y-113824445D01*
X154047568Y-114268460D01*
X154164687Y-114697877D01*
X154363332Y-115096195D01*
X154434617Y-115202880D01*
X154779620Y-115359725D01*
X154851946Y-115287399D01*
X154887301Y-115322754D01*
X154814975Y-115395080D01*
X154971820Y-115740083D01*
X155358280Y-115960910D01*
X155780396Y-116102100D01*
X156221945Y-116158227D01*
X156665960Y-116127132D01*
X157095377Y-116010013D01*
X157493695Y-115811368D01*
X157600380Y-115740083D01*
X157757225Y-115395080D01*
X157684899Y-115322754D01*
X157720254Y-115287399D01*
X157792580Y-115359725D01*
X158137583Y-115202880D01*
X158358410Y-114816420D01*
X158499600Y-114394304D01*
X158555727Y-113952755D01*
X158524632Y-113508740D01*
X158407513Y-113079323D01*
X158208868Y-112681005D01*
X158137583Y-112574320D01*
X157792580Y-112417475D01*
X157720254Y-112489801D01*
X157684899Y-112454446D01*
X157757225Y-112382120D01*
X157600380Y-112037117D01*
X157213920Y-111816290D01*
X156791804Y-111675100D01*
X156350255Y-111618973D01*
X155906240Y-111650068D01*
X155476823Y-111767187D01*
X155078505Y-111965832D01*
X154971820Y-112037117D01*
X154814975Y-112382120D01*
X154887301Y-112454446D01*
X154851946Y-112489801D01*
X154779620Y-112417475D01*
X154434617Y-112574320D01*
X154213790Y-112960780D01*
X154072600Y-113382896D01*
X154016473Y-113824445D01*
X147461250Y-113824445D01*
X147461250Y-113225000D01*
X149906318Y-113225000D01*
X149936100Y-113227933D01*
X149965882Y-113225000D01*
X149965890Y-113225000D01*
X150054975Y-113216226D01*
X150169282Y-113181551D01*
X150274628Y-113125243D01*
X150366964Y-113049464D01*
X150385958Y-113026320D01*
X150898074Y-112514204D01*
X151087585Y-112551900D01*
X151324615Y-112551900D01*
X151557090Y-112505658D01*
X151776076Y-112414950D01*
X151973159Y-112283264D01*
X152140764Y-112115659D01*
X152272450Y-111918576D01*
X152363158Y-111699590D01*
X152409400Y-111467115D01*
X152409400Y-111230085D01*
X152371704Y-111040574D01*
X153529956Y-109882322D01*
X153531056Y-109882910D01*
X153607059Y-109905965D01*
X153686100Y-109913750D01*
X155086100Y-109913750D01*
X155165141Y-109905965D01*
X155241144Y-109882910D01*
X155311189Y-109845470D01*
X155372584Y-109795084D01*
X155422970Y-109733689D01*
X155460410Y-109663644D01*
X155483465Y-109587641D01*
X155491250Y-109508600D01*
X155491250Y-108808600D01*
X156946766Y-108808600D01*
X156958474Y-108927475D01*
X156993149Y-109041782D01*
X157049457Y-109147128D01*
X157080950Y-109185502D01*
X157080950Y-109508600D01*
X157088735Y-109587641D01*
X157111790Y-109663644D01*
X157149230Y-109733689D01*
X157199616Y-109795084D01*
X157261011Y-109845470D01*
X157331056Y-109882910D01*
X157407059Y-109905965D01*
X157486100Y-109913750D01*
X157803672Y-109913750D01*
X162140012Y-114250091D01*
X162160347Y-114317126D01*
X162263827Y-114510723D01*
X162403087Y-114680413D01*
X162572777Y-114819673D01*
X162766374Y-114923153D01*
X162976439Y-114986876D01*
X163140153Y-115003000D01*
X164672047Y-115003000D01*
X164835761Y-114986876D01*
X165045826Y-114923153D01*
X165239423Y-114819673D01*
X165409113Y-114680413D01*
X165548373Y-114510723D01*
X165651853Y-114317126D01*
X165715576Y-114107061D01*
X165737092Y-113888600D01*
X165715576Y-113670139D01*
X165651853Y-113460074D01*
X165548373Y-113266477D01*
X165409113Y-113096787D01*
X165239423Y-112957527D01*
X165045826Y-112854047D01*
X164835761Y-112790324D01*
X164672047Y-112774200D01*
X163140153Y-112774200D01*
X162976439Y-112790324D01*
X162766374Y-112854047D01*
X162572777Y-112957527D01*
X162567191Y-112962112D01*
X159262345Y-109657266D01*
X159283465Y-109587641D01*
X159291250Y-109508600D01*
X159291250Y-108108600D01*
X159283465Y-108029559D01*
X159260410Y-107953556D01*
X159222970Y-107883511D01*
X159172584Y-107822116D01*
X159111189Y-107771730D01*
X159041144Y-107734290D01*
X158965141Y-107711235D01*
X158886100Y-107703450D01*
X157486100Y-107703450D01*
X157407059Y-107711235D01*
X157331056Y-107734290D01*
X157261011Y-107771730D01*
X157199616Y-107822116D01*
X157149230Y-107883511D01*
X157111790Y-107953556D01*
X157088735Y-108029559D01*
X157080950Y-108108600D01*
X157080950Y-108431698D01*
X157049457Y-108470072D01*
X156993149Y-108575418D01*
X156958474Y-108689725D01*
X156946766Y-108808600D01*
X155491250Y-108808600D01*
X155491250Y-108108600D01*
X155483465Y-108029559D01*
X155460410Y-107953556D01*
X155422970Y-107883511D01*
X155372584Y-107822116D01*
X155311189Y-107771730D01*
X155241144Y-107734290D01*
X155165141Y-107711235D01*
X155086100Y-107703450D01*
X154138528Y-107703450D01*
X153722500Y-107287422D01*
X153722500Y-102293750D01*
X153816100Y-102293750D01*
X153895141Y-102285965D01*
X153971144Y-102262910D01*
X154041189Y-102225470D01*
X154102584Y-102175084D01*
X154152970Y-102113689D01*
X154190410Y-102043644D01*
X154213465Y-101967641D01*
X154221250Y-101888600D01*
X154221250Y-100488600D01*
X155810950Y-100488600D01*
X155810950Y-101888600D01*
X155818735Y-101967641D01*
X155841790Y-102043644D01*
X155879230Y-102113689D01*
X155929616Y-102175084D01*
X155991011Y-102225470D01*
X156061056Y-102262910D01*
X156137059Y-102285965D01*
X156216100Y-102293750D01*
X157616100Y-102293750D01*
X157695141Y-102285965D01*
X157771144Y-102262910D01*
X157841189Y-102225470D01*
X157902584Y-102175084D01*
X157952970Y-102113689D01*
X157990410Y-102043644D01*
X158013465Y-101967641D01*
X158021250Y-101888600D01*
X158021250Y-100941028D01*
X159707279Y-99255000D01*
X166194922Y-99255000D01*
X167109701Y-100169780D01*
X167109700Y-100937421D01*
X163498375Y-104548747D01*
X163475237Y-104567736D01*
X163456248Y-104590874D01*
X163456246Y-104590876D01*
X163399458Y-104660072D01*
X163343149Y-104765419D01*
X163308474Y-104879725D01*
X163296767Y-104998600D01*
X163299701Y-105028392D01*
X163299701Y-105425400D01*
X162837171Y-105425400D01*
X162631025Y-105445704D01*
X162366521Y-105525940D01*
X162122752Y-105656237D01*
X161972500Y-105779545D01*
X161972500Y-104335000D01*
X162606318Y-104335000D01*
X162636100Y-104337933D01*
X162665882Y-104335000D01*
X162665890Y-104335000D01*
X162754975Y-104326226D01*
X162869282Y-104291551D01*
X162974628Y-104235243D01*
X163066964Y-104159464D01*
X163085958Y-104136320D01*
X164313825Y-102908454D01*
X164336964Y-102889464D01*
X164412743Y-102797128D01*
X164469051Y-102691782D01*
X164503726Y-102577475D01*
X164512500Y-102488390D01*
X164512500Y-102488381D01*
X164515433Y-102458601D01*
X164512500Y-102428821D01*
X164512500Y-102131800D01*
X164975029Y-102131800D01*
X165181175Y-102111496D01*
X165445679Y-102031260D01*
X165689448Y-101900963D01*
X165903113Y-101725613D01*
X166078463Y-101511948D01*
X166208760Y-101268179D01*
X166288996Y-101003675D01*
X166316089Y-100728600D01*
X166288996Y-100453525D01*
X166208760Y-100189021D01*
X166078463Y-99945252D01*
X165903113Y-99731587D01*
X165689448Y-99556237D01*
X165445679Y-99425940D01*
X165181175Y-99345704D01*
X164975029Y-99325400D01*
X162837171Y-99325400D01*
X162631025Y-99345704D01*
X162366521Y-99425940D01*
X162122752Y-99556237D01*
X161909087Y-99731587D01*
X161733737Y-99945252D01*
X161603440Y-100189021D01*
X161523204Y-100453525D01*
X161496111Y-100728600D01*
X161523204Y-101003675D01*
X161603440Y-101268179D01*
X161733737Y-101511948D01*
X161909087Y-101725613D01*
X162122752Y-101900963D01*
X162366521Y-102031260D01*
X162631025Y-102111496D01*
X162837171Y-102131800D01*
X163299701Y-102131800D01*
X163299701Y-102207420D01*
X162384922Y-103122200D01*
X161395890Y-103122200D01*
X161366100Y-103119266D01*
X161336310Y-103122200D01*
X158598112Y-103122200D01*
X158490764Y-102961541D01*
X158323159Y-102793936D01*
X158126076Y-102662250D01*
X157907090Y-102571542D01*
X157674615Y-102525300D01*
X157437585Y-102525300D01*
X157205110Y-102571542D01*
X156986124Y-102662250D01*
X156789041Y-102793936D01*
X156621436Y-102961541D01*
X156489750Y-103158624D01*
X156399042Y-103377610D01*
X156352800Y-103610085D01*
X156352800Y-103847115D01*
X156399042Y-104079590D01*
X156489750Y-104298576D01*
X156621436Y-104495659D01*
X156789041Y-104663264D01*
X156986124Y-104794950D01*
X157205110Y-104885658D01*
X157437585Y-104931900D01*
X157674615Y-104931900D01*
X157907090Y-104885658D01*
X158126076Y-104794950D01*
X158323159Y-104663264D01*
X158490764Y-104495659D01*
X158598112Y-104335000D01*
X160759701Y-104335000D01*
X160759700Y-108778818D01*
X160756767Y-108808600D01*
X160759700Y-108838382D01*
X160759700Y-108838389D01*
X160765406Y-108896325D01*
X160768474Y-108927475D01*
X160789032Y-108995243D01*
X160803149Y-109041781D01*
X160859457Y-109147127D01*
X160935236Y-109239464D01*
X160958380Y-109258458D01*
X162337106Y-110637185D01*
X162263827Y-110726477D01*
X162160347Y-110920074D01*
X162096624Y-111130139D01*
X162075108Y-111348600D01*
X162096624Y-111567061D01*
X162160347Y-111777126D01*
X162263827Y-111970723D01*
X162403087Y-112140413D01*
X162572777Y-112279673D01*
X162766374Y-112383153D01*
X162976439Y-112446876D01*
X163140153Y-112463000D01*
X164672047Y-112463000D01*
X164835761Y-112446876D01*
X165045826Y-112383153D01*
X165239423Y-112279673D01*
X165409113Y-112140413D01*
X165548373Y-111970723D01*
X165651853Y-111777126D01*
X165715576Y-111567061D01*
X165737092Y-111348600D01*
X165715576Y-111130139D01*
X165651853Y-110920074D01*
X165548373Y-110726477D01*
X165409113Y-110556787D01*
X165239423Y-110417527D01*
X165045826Y-110314047D01*
X164835761Y-110250324D01*
X164672047Y-110234200D01*
X163649279Y-110234200D01*
X161972500Y-108557422D01*
X161972500Y-107877655D01*
X162122752Y-108000963D01*
X162366521Y-108131260D01*
X162631025Y-108211496D01*
X162837171Y-108231800D01*
X164975029Y-108231800D01*
X165181175Y-108211496D01*
X165445679Y-108131260D01*
X165689448Y-108000963D01*
X165903113Y-107825613D01*
X166078463Y-107611948D01*
X166208760Y-107368179D01*
X166288996Y-107103675D01*
X166316089Y-106828600D01*
X166288996Y-106553525D01*
X166208760Y-106289021D01*
X166078463Y-106045252D01*
X165903113Y-105831587D01*
X165689448Y-105656237D01*
X165445679Y-105525940D01*
X165181175Y-105445704D01*
X164975029Y-105425400D01*
X164512500Y-105425400D01*
X164512500Y-105249778D01*
X167329498Y-102432781D01*
X167323205Y-102453525D01*
X167302901Y-102659671D01*
X167302900Y-104797528D01*
X167323204Y-105003674D01*
X167403440Y-105268178D01*
X167533737Y-105511947D01*
X167709087Y-105725612D01*
X167922752Y-105900963D01*
X168166521Y-106031260D01*
X168431025Y-106111496D01*
X168706100Y-106138589D01*
X168981174Y-106111496D01*
X169245678Y-106031260D01*
X169489447Y-105900963D01*
X169703112Y-105725613D01*
X169878463Y-105511948D01*
X170008760Y-105268179D01*
X170088996Y-105003675D01*
X170109300Y-104797529D01*
X170109300Y-102659671D01*
X170088996Y-102453525D01*
X170008760Y-102189021D01*
X169878463Y-101945252D01*
X169703113Y-101731587D01*
X169489448Y-101556237D01*
X169245679Y-101425940D01*
X168981175Y-101345704D01*
X168706100Y-101318611D01*
X168431026Y-101345704D01*
X168289066Y-101388767D01*
X168313726Y-101307475D01*
X168313762Y-101307115D01*
X168317596Y-101268179D01*
X168322500Y-101218390D01*
X168322500Y-101218382D01*
X168325433Y-101188600D01*
X168322500Y-101158818D01*
X168322500Y-99948379D01*
X168325433Y-99918599D01*
X168322500Y-99888819D01*
X168322500Y-99888810D01*
X168313726Y-99799725D01*
X168279051Y-99685418D01*
X168222743Y-99580072D01*
X168146964Y-99487736D01*
X168123825Y-99468746D01*
X166895958Y-98240880D01*
X166876964Y-98217736D01*
X166784628Y-98141957D01*
X166679282Y-98085649D01*
X166564975Y-98050974D01*
X166475890Y-98042200D01*
X166475882Y-98042200D01*
X166446100Y-98039267D01*
X166416318Y-98042200D01*
X159485879Y-98042200D01*
X159456099Y-98039267D01*
X159426319Y-98042200D01*
X159426310Y-98042200D01*
X159337225Y-98050974D01*
X159222918Y-98085649D01*
X159117572Y-98141957D01*
X159025236Y-98217736D01*
X159006247Y-98240874D01*
X157163672Y-100083450D01*
X156216100Y-100083450D01*
X156137059Y-100091235D01*
X156061056Y-100114290D01*
X155991011Y-100151730D01*
X155929616Y-100202116D01*
X155879230Y-100263511D01*
X155841790Y-100333556D01*
X155818735Y-100409559D01*
X155810950Y-100488600D01*
X154221250Y-100488600D01*
X154213465Y-100409559D01*
X154190410Y-100333556D01*
X154152970Y-100263511D01*
X154102584Y-100202116D01*
X154041189Y-100151730D01*
X153971144Y-100114290D01*
X153895141Y-100091235D01*
X153816100Y-100083450D01*
X152416100Y-100083450D01*
X152337059Y-100091235D01*
X152261056Y-100114290D01*
X152191011Y-100151730D01*
X152129616Y-100202116D01*
X152079230Y-100263511D01*
X152041790Y-100333556D01*
X152018735Y-100409559D01*
X152010950Y-100488600D01*
X152010950Y-101888600D01*
X152018735Y-101967641D01*
X152041790Y-102043644D01*
X152079230Y-102113689D01*
X152129616Y-102175084D01*
X152191011Y-102225470D01*
X152261056Y-102262910D01*
X152337059Y-102285965D01*
X152416100Y-102293750D01*
X152509701Y-102293750D01*
X152509700Y-107508818D01*
X152506767Y-107538600D01*
X152509700Y-107568382D01*
X152509700Y-107568389D01*
X152518474Y-107657474D01*
X152553149Y-107771781D01*
X152609457Y-107877127D01*
X152685236Y-107969464D01*
X152708380Y-107988458D01*
X153208521Y-108488600D01*
X151514126Y-110182996D01*
X151324615Y-110145300D01*
X151087585Y-110145300D01*
X150855110Y-110191542D01*
X150636124Y-110282250D01*
X150439041Y-110413936D01*
X150271436Y-110581541D01*
X150139750Y-110778624D01*
X150049042Y-110997610D01*
X150002800Y-111230085D01*
X150002800Y-111467115D01*
X150040496Y-111656626D01*
X149684922Y-112012200D01*
X148002500Y-112012200D01*
X148002500Y-108518390D01*
X148005434Y-108488600D01*
X147993726Y-108369725D01*
X147959051Y-108255418D01*
X147902743Y-108150072D01*
X147898580Y-108145000D01*
X149906310Y-108145000D01*
X149936100Y-108147934D01*
X150054975Y-108136226D01*
X150169282Y-108101551D01*
X150274628Y-108045243D01*
X150366964Y-107969464D01*
X150442743Y-107877128D01*
X150499051Y-107771782D01*
X150533726Y-107657475D01*
X150542500Y-107568390D01*
X150542500Y-107568389D01*
X150545434Y-107538600D01*
X150542500Y-107508810D01*
X150542500Y-104770612D01*
X150703159Y-104663264D01*
X150870764Y-104495659D01*
X151002450Y-104298576D01*
X151093158Y-104079590D01*
X151139400Y-103847115D01*
X151139400Y-103610085D01*
X151093158Y-103377610D01*
X151002450Y-103158624D01*
X150870764Y-102961541D01*
X150703159Y-102793936D01*
X150542500Y-102686588D01*
X150542500Y-99948379D01*
X150545433Y-99918599D01*
X150542500Y-99888819D01*
X150542500Y-99888810D01*
X150533726Y-99799725D01*
X150499051Y-99685418D01*
X150442743Y-99580072D01*
X150366964Y-99487736D01*
X150343827Y-99468748D01*
X149115958Y-98240880D01*
X149096964Y-98217736D01*
X149004628Y-98141957D01*
X148899282Y-98085649D01*
X148784975Y-98050974D01*
X148731250Y-98045683D01*
X148731250Y-97648600D01*
X148723465Y-97569559D01*
X148700410Y-97493556D01*
X148662970Y-97423511D01*
X148612584Y-97362116D01*
X148551189Y-97311730D01*
X148481144Y-97274290D01*
X148405141Y-97251235D01*
X148326100Y-97243450D01*
X148002500Y-97243450D01*
X148002500Y-96138390D01*
X148005434Y-96108600D01*
X147999116Y-96044445D01*
X154016473Y-96044445D01*
X154047568Y-96488460D01*
X154164687Y-96917877D01*
X154363332Y-97316195D01*
X154434617Y-97422880D01*
X154779620Y-97579725D01*
X154851946Y-97507399D01*
X154887301Y-97542754D01*
X154814975Y-97615080D01*
X154971820Y-97960083D01*
X155358280Y-98180910D01*
X155780396Y-98322100D01*
X156221945Y-98378227D01*
X156665960Y-98347132D01*
X157095377Y-98230013D01*
X157493695Y-98031368D01*
X157600380Y-97960083D01*
X157757225Y-97615080D01*
X157684899Y-97542754D01*
X157720254Y-97507399D01*
X157792580Y-97579725D01*
X158137583Y-97422880D01*
X158358410Y-97036420D01*
X158499600Y-96614304D01*
X158555727Y-96172755D01*
X158524632Y-95728740D01*
X158407513Y-95299323D01*
X158208868Y-94901005D01*
X158137583Y-94794320D01*
X157792580Y-94637475D01*
X157720254Y-94709801D01*
X157684899Y-94674446D01*
X157757225Y-94602120D01*
X157600380Y-94257117D01*
X157213920Y-94036290D01*
X156791804Y-93895100D01*
X156350255Y-93838973D01*
X155906240Y-93870068D01*
X155476823Y-93987187D01*
X155078505Y-94185832D01*
X154971820Y-94257117D01*
X154814975Y-94602120D01*
X154887301Y-94674446D01*
X154851946Y-94709801D01*
X154779620Y-94637475D01*
X154434617Y-94794320D01*
X154213790Y-95180780D01*
X154072600Y-95602896D01*
X154016473Y-96044445D01*
X147999116Y-96044445D01*
X147993726Y-95989725D01*
X147959051Y-95875418D01*
X147902743Y-95770072D01*
X147826964Y-95677736D01*
X147734628Y-95601957D01*
X147629282Y-95545649D01*
X147514975Y-95510974D01*
X147425890Y-95502200D01*
X147396100Y-95499266D01*
X147366310Y-95502200D01*
X139805879Y-95502200D01*
X139776099Y-95499267D01*
X139746319Y-95502200D01*
X139746310Y-95502200D01*
X139657225Y-95510974D01*
X139542918Y-95545649D01*
X139437572Y-95601957D01*
X139437570Y-95601958D01*
X139437571Y-95601958D01*
X139368374Y-95658746D01*
X139368369Y-95658751D01*
X139345236Y-95677736D01*
X139326251Y-95700869D01*
X130348375Y-104678747D01*
X130325237Y-104697736D01*
X130306248Y-104720874D01*
X130306246Y-104720876D01*
X130249458Y-104790072D01*
X130193149Y-104895419D01*
X130158474Y-105009725D01*
X130146767Y-105128600D01*
X130149701Y-105158392D01*
X130149701Y-105783450D01*
X129956100Y-105783450D01*
X129877059Y-105791235D01*
X129801056Y-105814290D01*
X129731011Y-105851730D01*
X129669616Y-105902116D01*
X129619230Y-105963511D01*
X129581790Y-106033556D01*
X129558735Y-106109559D01*
X129550950Y-106188600D01*
X126084300Y-106188600D01*
X126084300Y-96044445D01*
X127346473Y-96044445D01*
X127377568Y-96488460D01*
X127494687Y-96917877D01*
X127693332Y-97316195D01*
X127764617Y-97422880D01*
X128109620Y-97579725D01*
X128181946Y-97507399D01*
X128217301Y-97542754D01*
X128144975Y-97615080D01*
X128301820Y-97960083D01*
X128688280Y-98180910D01*
X129110396Y-98322100D01*
X129551945Y-98378227D01*
X129995960Y-98347132D01*
X130425377Y-98230013D01*
X130823695Y-98031368D01*
X130930380Y-97960083D01*
X131087225Y-97615080D01*
X131014899Y-97542754D01*
X131050254Y-97507399D01*
X131122580Y-97579725D01*
X131467583Y-97422880D01*
X131688410Y-97036420D01*
X131829600Y-96614304D01*
X131885727Y-96172755D01*
X131854632Y-95728740D01*
X131737513Y-95299323D01*
X131538868Y-94901005D01*
X131467583Y-94794320D01*
X131122580Y-94637475D01*
X131050254Y-94709801D01*
X131014899Y-94674446D01*
X131087225Y-94602120D01*
X130930380Y-94257117D01*
X130543920Y-94036290D01*
X130121804Y-93895100D01*
X129680255Y-93838973D01*
X129236240Y-93870068D01*
X128806823Y-93987187D01*
X128408505Y-94185832D01*
X128301820Y-94257117D01*
X128144975Y-94602120D01*
X128217301Y-94674446D01*
X128181946Y-94709801D01*
X128109620Y-94637475D01*
X127764617Y-94794320D01*
X127543790Y-95180780D01*
X127402600Y-95602896D01*
X127346473Y-96044445D01*
X126084300Y-96044445D01*
X126084300Y-92586800D01*
X170917901Y-92586800D01*
X170917900Y-117420400D01*
X170917900Y-117420400D01*
G37*
X170917900Y-117420400D02*
X126084300Y-117420400D01*
X126084300Y-113824445D01*
X127346473Y-113824445D01*
X127377568Y-114268460D01*
X127494687Y-114697877D01*
X127693332Y-115096195D01*
X127764617Y-115202880D01*
X128109620Y-115359725D01*
X128181946Y-115287399D01*
X128217301Y-115322754D01*
X128144975Y-115395080D01*
X128301820Y-115740083D01*
X128688280Y-115960910D01*
X129110396Y-116102100D01*
X129551945Y-116158227D01*
X129995960Y-116127132D01*
X130425377Y-116010013D01*
X130823695Y-115811368D01*
X130930380Y-115740083D01*
X131087225Y-115395080D01*
X131014899Y-115322754D01*
X131050254Y-115287399D01*
X131122580Y-115359725D01*
X131467583Y-115202880D01*
X131688410Y-114816420D01*
X131829600Y-114394304D01*
X131885727Y-113952755D01*
X131854632Y-113508740D01*
X131737513Y-113079323D01*
X131538868Y-112681005D01*
X131467583Y-112574320D01*
X131122580Y-112417475D01*
X131050254Y-112489801D01*
X131014899Y-112454446D01*
X131087225Y-112382120D01*
X130930380Y-112037117D01*
X130543920Y-111816290D01*
X130121804Y-111675100D01*
X129680255Y-111618973D01*
X129236240Y-111650068D01*
X128806823Y-111767187D01*
X128408505Y-111965832D01*
X128301820Y-112037117D01*
X128144975Y-112382120D01*
X128217301Y-112454446D01*
X128181946Y-112489801D01*
X128109620Y-112417475D01*
X127764617Y-112574320D01*
X127543790Y-112960780D01*
X127402600Y-113382896D01*
X127346473Y-113824445D01*
X126084300Y-113824445D01*
X126084300Y-106188600D01*
X129550950Y-106188600D01*
X129550950Y-108888600D01*
X129558735Y-108967641D01*
X129581790Y-109043644D01*
X129619230Y-109113689D01*
X129669616Y-109175084D01*
X129731011Y-109225470D01*
X129801056Y-109262910D01*
X129877059Y-109285965D01*
X129956100Y-109293750D01*
X130513672Y-109293750D01*
X132976246Y-111756325D01*
X132995236Y-111779464D01*
X133087572Y-111855243D01*
X133192918Y-111911551D01*
X133307225Y-111946226D01*
X133396310Y-111955000D01*
X133396319Y-111955000D01*
X133426099Y-111957933D01*
X133455879Y-111955000D01*
X136629700Y-111955000D01*
X136629700Y-112237923D01*
X136613978Y-112246327D01*
X136444288Y-112385587D01*
X136305028Y-112555277D01*
X136201548Y-112748874D01*
X136137824Y-112958939D01*
X136121700Y-113122653D01*
X136121700Y-114654546D01*
X136137824Y-114818260D01*
X136201547Y-115028325D01*
X136305027Y-115221923D01*
X136444287Y-115391613D01*
X136613977Y-115530873D01*
X136629700Y-115539277D01*
X136629700Y-116398810D01*
X136626766Y-116428600D01*
X136638474Y-116547475D01*
X136673149Y-116661782D01*
X136729457Y-116767128D01*
X136805236Y-116859464D01*
X136897572Y-116935243D01*
X137002918Y-116991551D01*
X137117225Y-117026226D01*
X137236100Y-117037934D01*
X137265890Y-117035000D01*
X143426310Y-117035000D01*
X143456100Y-117037934D01*
X143574975Y-117026226D01*
X143689282Y-116991551D01*
X143794628Y-116935243D01*
X143886964Y-116859464D01*
X143962743Y-116767128D01*
X144019051Y-116661782D01*
X144053726Y-116547475D01*
X144062500Y-116458390D01*
X144062500Y-116458389D01*
X144065434Y-116428600D01*
X144062500Y-116398810D01*
X144062500Y-114373750D01*
X144256100Y-114373750D01*
X144335141Y-114365965D01*
X144411144Y-114342910D01*
X144481189Y-114305470D01*
X144542584Y-114255084D01*
X144592970Y-114193689D01*
X144630410Y-114123644D01*
X144653465Y-114047641D01*
X144661250Y-113968600D01*
X144661250Y-111268600D01*
X144653465Y-111189559D01*
X144630410Y-111113556D01*
X144592970Y-111043511D01*
X144542584Y-110982116D01*
X144481189Y-110931730D01*
X144411144Y-110894290D01*
X144335141Y-110871235D01*
X144256100Y-110863450D01*
X142656100Y-110863450D01*
X142577059Y-110871235D01*
X142501056Y-110894290D01*
X142431011Y-110931730D01*
X142369616Y-110982116D01*
X142319230Y-111043511D01*
X142281790Y-111113556D01*
X142258735Y-111189559D01*
X142250950Y-111268600D01*
X142250950Y-113968600D01*
X142258735Y-114047641D01*
X142281790Y-114123644D01*
X142319230Y-114193689D01*
X142369616Y-114255084D01*
X142431011Y-114305470D01*
X142501056Y-114342910D01*
X142577059Y-114365965D01*
X142656100Y-114373750D01*
X142849700Y-114373750D01*
X142849701Y-115822200D01*
X137842500Y-115822200D01*
X137842500Y-115539277D01*
X137858223Y-115530873D01*
X138027913Y-115391613D01*
X138167173Y-115221923D01*
X138270653Y-115028326D01*
X138334376Y-114818261D01*
X138350500Y-114654547D01*
X138350500Y-113122653D01*
X138334376Y-112958939D01*
X138270653Y-112748874D01*
X138167173Y-112555277D01*
X138027913Y-112385587D01*
X137858223Y-112246327D01*
X137842500Y-112237923D01*
X137842500Y-111378390D01*
X137845434Y-111348600D01*
X137833726Y-111229725D01*
X137799051Y-111115418D01*
X137742743Y-111010072D01*
X137666964Y-110917736D01*
X137574628Y-110841957D01*
X137469282Y-110785649D01*
X137354975Y-110750974D01*
X137265890Y-110742200D01*
X137236100Y-110739266D01*
X137206310Y-110742200D01*
X133677279Y-110742200D01*
X131941654Y-109006576D01*
X131953465Y-108967641D01*
X131961250Y-108888600D01*
X131961250Y-106188600D01*
X132350950Y-106188600D01*
X132350950Y-108888600D01*
X132358735Y-108967641D01*
X132381790Y-109043644D01*
X132419230Y-109113689D01*
X132469616Y-109175084D01*
X132531011Y-109225470D01*
X132601056Y-109262910D01*
X132677059Y-109285965D01*
X132756100Y-109293750D01*
X134356100Y-109293750D01*
X134435141Y-109285965D01*
X134511144Y-109262910D01*
X134581189Y-109225470D01*
X134642584Y-109175084D01*
X134692970Y-109113689D01*
X134730410Y-109043644D01*
X134753465Y-108967641D01*
X134761250Y-108888600D01*
X134761250Y-108145000D01*
X135359701Y-108145000D01*
X135359700Y-108778810D01*
X135356766Y-108808600D01*
X135368474Y-108927475D01*
X135403149Y-109041782D01*
X135459457Y-109147128D01*
X135516245Y-109216324D01*
X135535236Y-109239464D01*
X135627572Y-109315243D01*
X135732918Y-109371551D01*
X135847225Y-109406226D01*
X135966100Y-109417934D01*
X135995890Y-109415000D01*
X137100950Y-109415000D01*
X137100950Y-109738600D01*
X137108735Y-109817641D01*
X137131790Y-109893644D01*
X137169230Y-109963689D01*
X137219616Y-110025084D01*
X137281011Y-110075470D01*
X137351056Y-110112910D01*
X137427059Y-110135965D01*
X137506100Y-110143750D01*
X139169701Y-110143750D01*
X139169700Y-112237923D01*
X139153978Y-112246327D01*
X138984288Y-112385587D01*
X138845028Y-112555277D01*
X138741548Y-112748874D01*
X138677824Y-112958939D01*
X138661700Y-113122653D01*
X138661700Y-114654546D01*
X138677824Y-114818260D01*
X138741547Y-115028325D01*
X138845027Y-115221923D01*
X138984287Y-115391613D01*
X139153977Y-115530873D01*
X139347574Y-115634353D01*
X139557639Y-115698076D01*
X139776100Y-115719592D01*
X139994560Y-115698076D01*
X140204625Y-115634353D01*
X140398223Y-115530873D01*
X140567913Y-115391613D01*
X140707173Y-115221923D01*
X140810653Y-115028326D01*
X140874376Y-114818261D01*
X140890500Y-114654547D01*
X140890500Y-113122653D01*
X140874376Y-112958939D01*
X140810653Y-112748874D01*
X140707173Y-112555277D01*
X140567913Y-112385587D01*
X140398223Y-112246327D01*
X140382500Y-112237923D01*
X140382500Y-109545000D01*
X143076318Y-109545000D01*
X143106100Y-109547933D01*
X143135882Y-109545000D01*
X143135890Y-109545000D01*
X143224975Y-109536226D01*
X143339282Y-109501551D01*
X143444628Y-109445243D01*
X143536964Y-109369464D01*
X143555958Y-109346321D01*
X143733528Y-109168750D01*
X144156100Y-109168750D01*
X144235141Y-109160965D01*
X144311144Y-109137910D01*
X144381189Y-109100470D01*
X144442584Y-109050084D01*
X144492970Y-108988689D01*
X144530410Y-108918644D01*
X144553465Y-108842641D01*
X144561250Y-108763600D01*
X144561250Y-108213600D01*
X144553465Y-108134559D01*
X144530410Y-108058556D01*
X144492970Y-107988511D01*
X144442584Y-107927116D01*
X144381189Y-107876730D01*
X144311144Y-107839290D01*
X144235141Y-107816235D01*
X144156100Y-107808450D01*
X142956100Y-107808450D01*
X142877059Y-107816235D01*
X142801056Y-107839290D01*
X142731011Y-107876730D01*
X142669616Y-107927116D01*
X142619230Y-107988511D01*
X142581790Y-108058556D01*
X142558735Y-108134559D01*
X142550950Y-108213600D01*
X142550950Y-108332200D01*
X139911250Y-108332200D01*
X139911250Y-108138600D01*
X139903465Y-108059559D01*
X139880410Y-107983556D01*
X139842970Y-107913511D01*
X139792584Y-107852116D01*
X139731189Y-107801730D01*
X139661144Y-107764290D01*
X139585141Y-107741235D01*
X139506100Y-107733450D01*
X137506100Y-107733450D01*
X137427059Y-107741235D01*
X137351056Y-107764290D01*
X137281011Y-107801730D01*
X137219616Y-107852116D01*
X137169230Y-107913511D01*
X137131790Y-107983556D01*
X137108735Y-108059559D01*
X137100950Y-108138600D01*
X137100950Y-108202200D01*
X136572500Y-108202200D01*
X136572500Y-107568389D01*
X136575434Y-107538600D01*
X136572500Y-107508810D01*
X136572500Y-105338600D01*
X137100950Y-105338600D01*
X137100950Y-106938600D01*
X137108735Y-107017641D01*
X137131790Y-107093644D01*
X137169230Y-107163689D01*
X137219616Y-107225084D01*
X137281011Y-107275470D01*
X137351056Y-107312910D01*
X137427059Y-107335965D01*
X137506100Y-107343750D01*
X139506100Y-107343750D01*
X139585141Y-107335965D01*
X139661144Y-107312910D01*
X139731189Y-107275470D01*
X139792584Y-107225084D01*
X139817274Y-107195000D01*
X142724346Y-107195000D01*
X142731011Y-107200470D01*
X142801056Y-107237910D01*
X142877059Y-107260965D01*
X142956100Y-107268750D01*
X144156100Y-107268750D01*
X144235141Y-107260965D01*
X144311144Y-107237910D01*
X144381189Y-107200470D01*
X144442584Y-107150084D01*
X144492970Y-107088689D01*
X144530410Y-107018644D01*
X144553465Y-106942641D01*
X144561250Y-106863600D01*
X144561250Y-106313600D01*
X144553465Y-106234559D01*
X144530410Y-106158556D01*
X144492970Y-106088511D01*
X144442584Y-106027116D01*
X144381189Y-105976730D01*
X144311144Y-105939290D01*
X144235141Y-105916235D01*
X144162500Y-105909080D01*
X144162500Y-100053750D01*
X145526100Y-100053750D01*
X145605141Y-100045965D01*
X145681144Y-100022910D01*
X145751189Y-99985470D01*
X145812584Y-99935084D01*
X145862970Y-99873689D01*
X145900410Y-99803644D01*
X145923465Y-99727641D01*
X145931250Y-99648600D01*
X145931250Y-97648600D01*
X145923465Y-97569559D01*
X145900410Y-97493556D01*
X145862970Y-97423511D01*
X145812584Y-97362116D01*
X145751189Y-97311730D01*
X145681144Y-97274290D01*
X145605141Y-97251235D01*
X145526100Y-97243450D01*
X143926100Y-97243450D01*
X143847059Y-97251235D01*
X143771056Y-97274290D01*
X143701011Y-97311730D01*
X143639616Y-97362116D01*
X143589230Y-97423511D01*
X143551790Y-97493556D01*
X143528735Y-97569559D01*
X143520950Y-97648600D01*
X143520950Y-98042728D01*
X143437225Y-98050974D01*
X143322918Y-98085649D01*
X143217572Y-98141957D01*
X143125236Y-98217736D01*
X143049457Y-98310072D01*
X142993149Y-98415418D01*
X142958474Y-98529725D01*
X142946766Y-98648600D01*
X142949700Y-98678390D01*
X142949701Y-105909080D01*
X142877059Y-105916235D01*
X142801056Y-105939290D01*
X142731011Y-105976730D01*
X142724346Y-105982200D01*
X139911250Y-105982200D01*
X139911250Y-105338600D01*
X139903465Y-105259559D01*
X139880410Y-105183556D01*
X139842970Y-105113511D01*
X139792584Y-105052116D01*
X139731189Y-105001730D01*
X139662042Y-104964770D01*
X139722584Y-104915084D01*
X139772970Y-104853689D01*
X139810410Y-104783644D01*
X139833465Y-104707641D01*
X139841250Y-104628600D01*
X139841250Y-104331517D01*
X139894975Y-104326226D01*
X140009282Y-104291551D01*
X140114628Y-104235243D01*
X140206964Y-104159464D01*
X140282743Y-104067128D01*
X140339051Y-103961782D01*
X140373726Y-103847475D01*
X140382500Y-103758390D01*
X140385434Y-103728600D01*
X140382500Y-103698810D01*
X140382500Y-102230612D01*
X140543159Y-102123264D01*
X140710764Y-101955659D01*
X140842450Y-101758576D01*
X140933158Y-101539590D01*
X140979400Y-101307115D01*
X140979400Y-101070085D01*
X140933158Y-100837610D01*
X140842450Y-100618624D01*
X140710764Y-100421541D01*
X140543159Y-100253936D01*
X140346076Y-100122250D01*
X140127090Y-100031542D01*
X139894615Y-99985300D01*
X139657585Y-99985300D01*
X139425110Y-100031542D01*
X139206124Y-100122250D01*
X139009041Y-100253936D01*
X138841436Y-100421541D01*
X138709750Y-100618624D01*
X138619042Y-100837610D01*
X138572800Y-101070085D01*
X138572800Y-101307115D01*
X138619042Y-101539590D01*
X138709750Y-101758576D01*
X138841436Y-101955659D01*
X139009041Y-102123264D01*
X139169700Y-102230613D01*
X139169700Y-102423450D01*
X137836100Y-102423450D01*
X137757059Y-102431235D01*
X137681056Y-102454290D01*
X137611011Y-102491730D01*
X137549616Y-102542116D01*
X137499230Y-102603511D01*
X137461790Y-102673556D01*
X137438735Y-102749559D01*
X137430950Y-102828600D01*
X137430950Y-104628600D01*
X137438735Y-104707641D01*
X137461790Y-104783644D01*
X137499230Y-104853689D01*
X137549616Y-104915084D01*
X137571995Y-104933450D01*
X137506100Y-104933450D01*
X137427059Y-104941235D01*
X137351056Y-104964290D01*
X137281011Y-105001730D01*
X137219616Y-105052116D01*
X137169230Y-105113511D01*
X137131790Y-105183556D01*
X137108735Y-105259559D01*
X137100950Y-105338600D01*
X136572500Y-105338600D01*
X136572500Y-105033750D01*
X136636100Y-105033750D01*
X136715141Y-105025965D01*
X136791144Y-105002910D01*
X136861189Y-104965470D01*
X136922584Y-104915084D01*
X136972970Y-104853689D01*
X137010410Y-104783644D01*
X137033465Y-104707641D01*
X137041250Y-104628600D01*
X137041250Y-102828600D01*
X137033465Y-102749559D01*
X137010410Y-102673556D01*
X136972970Y-102603511D01*
X136922584Y-102542116D01*
X136861189Y-102491730D01*
X136791144Y-102454290D01*
X136715141Y-102431235D01*
X136636100Y-102423450D01*
X135036100Y-102423450D01*
X134957059Y-102431235D01*
X134881056Y-102454290D01*
X134811011Y-102491730D01*
X134749616Y-102542116D01*
X134699230Y-102603511D01*
X134661790Y-102673556D01*
X134638735Y-102749559D01*
X134630950Y-102828600D01*
X134630950Y-104628600D01*
X134638735Y-104707641D01*
X134661790Y-104783644D01*
X134699230Y-104853689D01*
X134749616Y-104915084D01*
X134811011Y-104965470D01*
X134881056Y-105002910D01*
X134957059Y-105025965D01*
X135036100Y-105033750D01*
X135359701Y-105033750D01*
X135359700Y-106932200D01*
X134761250Y-106932200D01*
X134761250Y-106188600D01*
X134753465Y-106109559D01*
X134730410Y-106033556D01*
X134692970Y-105963511D01*
X134642584Y-105902116D01*
X134581189Y-105851730D01*
X134511144Y-105814290D01*
X134435141Y-105791235D01*
X134356100Y-105783450D01*
X132756100Y-105783450D01*
X132677059Y-105791235D01*
X132601056Y-105814290D01*
X132531011Y-105851730D01*
X132469616Y-105902116D01*
X132419230Y-105963511D01*
X132381790Y-106033556D01*
X132358735Y-106109559D01*
X132350950Y-106188600D01*
X131961250Y-106188600D01*
X131953465Y-106109559D01*
X131930410Y-106033556D01*
X131892970Y-105963511D01*
X131842584Y-105902116D01*
X131781189Y-105851730D01*
X131711144Y-105814290D01*
X131635141Y-105791235D01*
X131556100Y-105783450D01*
X131362500Y-105783450D01*
X131362500Y-105379778D01*
X140027280Y-96715000D01*
X146789700Y-96715000D01*
X146789700Y-97243450D01*
X146726100Y-97243450D01*
X146647059Y-97251235D01*
X146571056Y-97274290D01*
X146501011Y-97311730D01*
X146439616Y-97362116D01*
X146389230Y-97423511D01*
X146351790Y-97493556D01*
X146328735Y-97569559D01*
X146320950Y-97648600D01*
X146320950Y-99648600D01*
X146328735Y-99727641D01*
X146351790Y-99803644D01*
X146389230Y-99873689D01*
X146439616Y-99935084D01*
X146501011Y-99985470D01*
X146571056Y-100022910D01*
X146647059Y-100045965D01*
X146726100Y-100053750D01*
X146991496Y-100053750D01*
X146826124Y-100122250D01*
X146629041Y-100253936D01*
X146461436Y-100421541D01*
X146329750Y-100618624D01*
X146239042Y-100837610D01*
X146192800Y-101070085D01*
X146192800Y-101307115D01*
X146239042Y-101539590D01*
X146329750Y-101758576D01*
X146461436Y-101955659D01*
X146629041Y-102123264D01*
X146789700Y-102230613D01*
X146789701Y-105911759D01*
X146756100Y-105908450D01*
X145556100Y-105908450D01*
X145477059Y-105916235D01*
X145401056Y-105939290D01*
X145331011Y-105976730D01*
X145269616Y-106027116D01*
X145219230Y-106088511D01*
X145181790Y-106158556D01*
X145158735Y-106234559D01*
X145150950Y-106313600D01*
X145150950Y-106863600D01*
X145158735Y-106942641D01*
X145181790Y-107018644D01*
X145205820Y-107063600D01*
X145181790Y-107108556D01*
X145158735Y-107184559D01*
X145150950Y-107263600D01*
X145150950Y-107813600D01*
X145158735Y-107892641D01*
X145181790Y-107968644D01*
X145205820Y-108013600D01*
X145181790Y-108058556D01*
X145158735Y-108134559D01*
X145150950Y-108213600D01*
X145150950Y-108763600D01*
X145158735Y-108842641D01*
X145181790Y-108918644D01*
X145219230Y-108988689D01*
X145269616Y-109050084D01*
X145331011Y-109100470D01*
X145401056Y-109137910D01*
X145477059Y-109160965D01*
X145556100Y-109168750D01*
X146756100Y-109168750D01*
X146789700Y-109165441D01*
X146789701Y-110863450D01*
X145456100Y-110863450D01*
X145377059Y-110871235D01*
X145301056Y-110894290D01*
X145231011Y-110931730D01*
X145169616Y-110982116D01*
X145119230Y-111043511D01*
X145081790Y-111113556D01*
X145058735Y-111189559D01*
X145050950Y-111268600D01*
X145050950Y-113968600D01*
X145058735Y-114047641D01*
X145081790Y-114123644D01*
X145119230Y-114193689D01*
X145169616Y-114255084D01*
X145231011Y-114305470D01*
X145301056Y-114342910D01*
X145377059Y-114365965D01*
X145456100Y-114373750D01*
X147056100Y-114373750D01*
X147135141Y-114365965D01*
X147211144Y-114342910D01*
X147281189Y-114305470D01*
X147342584Y-114255084D01*
X147392970Y-114193689D01*
X147430410Y-114123644D01*
X147453465Y-114047641D01*
X147461250Y-113968600D01*
X147461250Y-113824445D01*
X154016473Y-113824445D01*
X154047568Y-114268460D01*
X154164687Y-114697877D01*
X154363332Y-115096195D01*
X154434617Y-115202880D01*
X154779620Y-115359725D01*
X154851946Y-115287399D01*
X154887301Y-115322754D01*
X154814975Y-115395080D01*
X154971820Y-115740083D01*
X155358280Y-115960910D01*
X155780396Y-116102100D01*
X156221945Y-116158227D01*
X156665960Y-116127132D01*
X157095377Y-116010013D01*
X157493695Y-115811368D01*
X157600380Y-115740083D01*
X157757225Y-115395080D01*
X157684899Y-115322754D01*
X157720254Y-115287399D01*
X157792580Y-115359725D01*
X158137583Y-115202880D01*
X158358410Y-114816420D01*
X158499600Y-114394304D01*
X158555727Y-113952755D01*
X158524632Y-113508740D01*
X158407513Y-113079323D01*
X158208868Y-112681005D01*
X158137583Y-112574320D01*
X157792580Y-112417475D01*
X157720254Y-112489801D01*
X157684899Y-112454446D01*
X157757225Y-112382120D01*
X157600380Y-112037117D01*
X157213920Y-111816290D01*
X156791804Y-111675100D01*
X156350255Y-111618973D01*
X155906240Y-111650068D01*
X155476823Y-111767187D01*
X155078505Y-111965832D01*
X154971820Y-112037117D01*
X154814975Y-112382120D01*
X154887301Y-112454446D01*
X154851946Y-112489801D01*
X154779620Y-112417475D01*
X154434617Y-112574320D01*
X154213790Y-112960780D01*
X154072600Y-113382896D01*
X154016473Y-113824445D01*
X147461250Y-113824445D01*
X147461250Y-113225000D01*
X149906318Y-113225000D01*
X149936100Y-113227933D01*
X149965882Y-113225000D01*
X149965890Y-113225000D01*
X150054975Y-113216226D01*
X150169282Y-113181551D01*
X150274628Y-113125243D01*
X150366964Y-113049464D01*
X150385958Y-113026320D01*
X150898074Y-112514204D01*
X151087585Y-112551900D01*
X151324615Y-112551900D01*
X151557090Y-112505658D01*
X151776076Y-112414950D01*
X151973159Y-112283264D01*
X152140764Y-112115659D01*
X152272450Y-111918576D01*
X152363158Y-111699590D01*
X152409400Y-111467115D01*
X152409400Y-111230085D01*
X152371704Y-111040574D01*
X153529956Y-109882322D01*
X153531056Y-109882910D01*
X153607059Y-109905965D01*
X153686100Y-109913750D01*
X155086100Y-109913750D01*
X155165141Y-109905965D01*
X155241144Y-109882910D01*
X155311189Y-109845470D01*
X155372584Y-109795084D01*
X155422970Y-109733689D01*
X155460410Y-109663644D01*
X155483465Y-109587641D01*
X155491250Y-109508600D01*
X155491250Y-108808600D01*
X156946766Y-108808600D01*
X156958474Y-108927475D01*
X156993149Y-109041782D01*
X157049457Y-109147128D01*
X157080950Y-109185502D01*
X157080950Y-109508600D01*
X157088735Y-109587641D01*
X157111790Y-109663644D01*
X157149230Y-109733689D01*
X157199616Y-109795084D01*
X157261011Y-109845470D01*
X157331056Y-109882910D01*
X157407059Y-109905965D01*
X157486100Y-109913750D01*
X157803672Y-109913750D01*
X162140012Y-114250091D01*
X162160347Y-114317126D01*
X162263827Y-114510723D01*
X162403087Y-114680413D01*
X162572777Y-114819673D01*
X162766374Y-114923153D01*
X162976439Y-114986876D01*
X163140153Y-115003000D01*
X164672047Y-115003000D01*
X164835761Y-114986876D01*
X165045826Y-114923153D01*
X165239423Y-114819673D01*
X165409113Y-114680413D01*
X165548373Y-114510723D01*
X165651853Y-114317126D01*
X165715576Y-114107061D01*
X165737092Y-113888600D01*
X165715576Y-113670139D01*
X165651853Y-113460074D01*
X165548373Y-113266477D01*
X165409113Y-113096787D01*
X165239423Y-112957527D01*
X165045826Y-112854047D01*
X164835761Y-112790324D01*
X164672047Y-112774200D01*
X163140153Y-112774200D01*
X162976439Y-112790324D01*
X162766374Y-112854047D01*
X162572777Y-112957527D01*
X162567191Y-112962112D01*
X159262345Y-109657266D01*
X159283465Y-109587641D01*
X159291250Y-109508600D01*
X159291250Y-108108600D01*
X159283465Y-108029559D01*
X159260410Y-107953556D01*
X159222970Y-107883511D01*
X159172584Y-107822116D01*
X159111189Y-107771730D01*
X159041144Y-107734290D01*
X158965141Y-107711235D01*
X158886100Y-107703450D01*
X157486100Y-107703450D01*
X157407059Y-107711235D01*
X157331056Y-107734290D01*
X157261011Y-107771730D01*
X157199616Y-107822116D01*
X157149230Y-107883511D01*
X157111790Y-107953556D01*
X157088735Y-108029559D01*
X157080950Y-108108600D01*
X157080950Y-108431698D01*
X157049457Y-108470072D01*
X156993149Y-108575418D01*
X156958474Y-108689725D01*
X156946766Y-108808600D01*
X155491250Y-108808600D01*
X155491250Y-108108600D01*
X155483465Y-108029559D01*
X155460410Y-107953556D01*
X155422970Y-107883511D01*
X155372584Y-107822116D01*
X155311189Y-107771730D01*
X155241144Y-107734290D01*
X155165141Y-107711235D01*
X155086100Y-107703450D01*
X154138528Y-107703450D01*
X153722500Y-107287422D01*
X153722500Y-102293750D01*
X153816100Y-102293750D01*
X153895141Y-102285965D01*
X153971144Y-102262910D01*
X154041189Y-102225470D01*
X154102584Y-102175084D01*
X154152970Y-102113689D01*
X154190410Y-102043644D01*
X154213465Y-101967641D01*
X154221250Y-101888600D01*
X154221250Y-100488600D01*
X155810950Y-100488600D01*
X155810950Y-101888600D01*
X155818735Y-101967641D01*
X155841790Y-102043644D01*
X155879230Y-102113689D01*
X155929616Y-102175084D01*
X155991011Y-102225470D01*
X156061056Y-102262910D01*
X156137059Y-102285965D01*
X156216100Y-102293750D01*
X157616100Y-102293750D01*
X157695141Y-102285965D01*
X157771144Y-102262910D01*
X157841189Y-102225470D01*
X157902584Y-102175084D01*
X157952970Y-102113689D01*
X157990410Y-102043644D01*
X158013465Y-101967641D01*
X158021250Y-101888600D01*
X158021250Y-100941028D01*
X159707279Y-99255000D01*
X166194922Y-99255000D01*
X167109701Y-100169780D01*
X167109700Y-100937421D01*
X163498375Y-104548747D01*
X163475237Y-104567736D01*
X163456248Y-104590874D01*
X163456246Y-104590876D01*
X163399458Y-104660072D01*
X163343149Y-104765419D01*
X163308474Y-104879725D01*
X163296767Y-104998600D01*
X163299701Y-105028392D01*
X163299701Y-105425400D01*
X162837171Y-105425400D01*
X162631025Y-105445704D01*
X162366521Y-105525940D01*
X162122752Y-105656237D01*
X161972500Y-105779545D01*
X161972500Y-104335000D01*
X162606318Y-104335000D01*
X162636100Y-104337933D01*
X162665882Y-104335000D01*
X162665890Y-104335000D01*
X162754975Y-104326226D01*
X162869282Y-104291551D01*
X162974628Y-104235243D01*
X163066964Y-104159464D01*
X163085958Y-104136320D01*
X164313825Y-102908454D01*
X164336964Y-102889464D01*
X164412743Y-102797128D01*
X164469051Y-102691782D01*
X164503726Y-102577475D01*
X164512500Y-102488390D01*
X164512500Y-102488381D01*
X164515433Y-102458601D01*
X164512500Y-102428821D01*
X164512500Y-102131800D01*
X164975029Y-102131800D01*
X165181175Y-102111496D01*
X165445679Y-102031260D01*
X165689448Y-101900963D01*
X165903113Y-101725613D01*
X166078463Y-101511948D01*
X166208760Y-101268179D01*
X166288996Y-101003675D01*
X166316089Y-100728600D01*
X166288996Y-100453525D01*
X166208760Y-100189021D01*
X166078463Y-99945252D01*
X165903113Y-99731587D01*
X165689448Y-99556237D01*
X165445679Y-99425940D01*
X165181175Y-99345704D01*
X164975029Y-99325400D01*
X162837171Y-99325400D01*
X162631025Y-99345704D01*
X162366521Y-99425940D01*
X162122752Y-99556237D01*
X161909087Y-99731587D01*
X161733737Y-99945252D01*
X161603440Y-100189021D01*
X161523204Y-100453525D01*
X161496111Y-100728600D01*
X161523204Y-101003675D01*
X161603440Y-101268179D01*
X161733737Y-101511948D01*
X161909087Y-101725613D01*
X162122752Y-101900963D01*
X162366521Y-102031260D01*
X162631025Y-102111496D01*
X162837171Y-102131800D01*
X163299701Y-102131800D01*
X163299701Y-102207420D01*
X162384922Y-103122200D01*
X161395890Y-103122200D01*
X161366100Y-103119266D01*
X161336310Y-103122200D01*
X158598112Y-103122200D01*
X158490764Y-102961541D01*
X158323159Y-102793936D01*
X158126076Y-102662250D01*
X157907090Y-102571542D01*
X157674615Y-102525300D01*
X157437585Y-102525300D01*
X157205110Y-102571542D01*
X156986124Y-102662250D01*
X156789041Y-102793936D01*
X156621436Y-102961541D01*
X156489750Y-103158624D01*
X156399042Y-103377610D01*
X156352800Y-103610085D01*
X156352800Y-103847115D01*
X156399042Y-104079590D01*
X156489750Y-104298576D01*
X156621436Y-104495659D01*
X156789041Y-104663264D01*
X156986124Y-104794950D01*
X157205110Y-104885658D01*
X157437585Y-104931900D01*
X157674615Y-104931900D01*
X157907090Y-104885658D01*
X158126076Y-104794950D01*
X158323159Y-104663264D01*
X158490764Y-104495659D01*
X158598112Y-104335000D01*
X160759701Y-104335000D01*
X160759700Y-108778818D01*
X160756767Y-108808600D01*
X160759700Y-108838382D01*
X160759700Y-108838389D01*
X160765406Y-108896325D01*
X160768474Y-108927475D01*
X160789032Y-108995243D01*
X160803149Y-109041781D01*
X160859457Y-109147127D01*
X160935236Y-109239464D01*
X160958380Y-109258458D01*
X162337106Y-110637185D01*
X162263827Y-110726477D01*
X162160347Y-110920074D01*
X162096624Y-111130139D01*
X162075108Y-111348600D01*
X162096624Y-111567061D01*
X162160347Y-111777126D01*
X162263827Y-111970723D01*
X162403087Y-112140413D01*
X162572777Y-112279673D01*
X162766374Y-112383153D01*
X162976439Y-112446876D01*
X163140153Y-112463000D01*
X164672047Y-112463000D01*
X164835761Y-112446876D01*
X165045826Y-112383153D01*
X165239423Y-112279673D01*
X165409113Y-112140413D01*
X165548373Y-111970723D01*
X165651853Y-111777126D01*
X165715576Y-111567061D01*
X165737092Y-111348600D01*
X165715576Y-111130139D01*
X165651853Y-110920074D01*
X165548373Y-110726477D01*
X165409113Y-110556787D01*
X165239423Y-110417527D01*
X165045826Y-110314047D01*
X164835761Y-110250324D01*
X164672047Y-110234200D01*
X163649279Y-110234200D01*
X161972500Y-108557422D01*
X161972500Y-107877655D01*
X162122752Y-108000963D01*
X162366521Y-108131260D01*
X162631025Y-108211496D01*
X162837171Y-108231800D01*
X164975029Y-108231800D01*
X165181175Y-108211496D01*
X165445679Y-108131260D01*
X165689448Y-108000963D01*
X165903113Y-107825613D01*
X166078463Y-107611948D01*
X166208760Y-107368179D01*
X166288996Y-107103675D01*
X166316089Y-106828600D01*
X166288996Y-106553525D01*
X166208760Y-106289021D01*
X166078463Y-106045252D01*
X165903113Y-105831587D01*
X165689448Y-105656237D01*
X165445679Y-105525940D01*
X165181175Y-105445704D01*
X164975029Y-105425400D01*
X164512500Y-105425400D01*
X164512500Y-105249778D01*
X167329498Y-102432781D01*
X167323205Y-102453525D01*
X167302901Y-102659671D01*
X167302900Y-104797528D01*
X167323204Y-105003674D01*
X167403440Y-105268178D01*
X167533737Y-105511947D01*
X167709087Y-105725612D01*
X167922752Y-105900963D01*
X168166521Y-106031260D01*
X168431025Y-106111496D01*
X168706100Y-106138589D01*
X168981174Y-106111496D01*
X169245678Y-106031260D01*
X169489447Y-105900963D01*
X169703112Y-105725613D01*
X169878463Y-105511948D01*
X170008760Y-105268179D01*
X170088996Y-105003675D01*
X170109300Y-104797529D01*
X170109300Y-102659671D01*
X170088996Y-102453525D01*
X170008760Y-102189021D01*
X169878463Y-101945252D01*
X169703113Y-101731587D01*
X169489448Y-101556237D01*
X169245679Y-101425940D01*
X168981175Y-101345704D01*
X168706100Y-101318611D01*
X168431026Y-101345704D01*
X168289066Y-101388767D01*
X168313726Y-101307475D01*
X168313762Y-101307115D01*
X168317596Y-101268179D01*
X168322500Y-101218390D01*
X168322500Y-101218382D01*
X168325433Y-101188600D01*
X168322500Y-101158818D01*
X168322500Y-99948379D01*
X168325433Y-99918599D01*
X168322500Y-99888819D01*
X168322500Y-99888810D01*
X168313726Y-99799725D01*
X168279051Y-99685418D01*
X168222743Y-99580072D01*
X168146964Y-99487736D01*
X168123825Y-99468746D01*
X166895958Y-98240880D01*
X166876964Y-98217736D01*
X166784628Y-98141957D01*
X166679282Y-98085649D01*
X166564975Y-98050974D01*
X166475890Y-98042200D01*
X166475882Y-98042200D01*
X166446100Y-98039267D01*
X166416318Y-98042200D01*
X159485879Y-98042200D01*
X159456099Y-98039267D01*
X159426319Y-98042200D01*
X159426310Y-98042200D01*
X159337225Y-98050974D01*
X159222918Y-98085649D01*
X159117572Y-98141957D01*
X159025236Y-98217736D01*
X159006247Y-98240874D01*
X157163672Y-100083450D01*
X156216100Y-100083450D01*
X156137059Y-100091235D01*
X156061056Y-100114290D01*
X155991011Y-100151730D01*
X155929616Y-100202116D01*
X155879230Y-100263511D01*
X155841790Y-100333556D01*
X155818735Y-100409559D01*
X155810950Y-100488600D01*
X154221250Y-100488600D01*
X154213465Y-100409559D01*
X154190410Y-100333556D01*
X154152970Y-100263511D01*
X154102584Y-100202116D01*
X154041189Y-100151730D01*
X153971144Y-100114290D01*
X153895141Y-100091235D01*
X153816100Y-100083450D01*
X152416100Y-100083450D01*
X152337059Y-100091235D01*
X152261056Y-100114290D01*
X152191011Y-100151730D01*
X152129616Y-100202116D01*
X152079230Y-100263511D01*
X152041790Y-100333556D01*
X152018735Y-100409559D01*
X152010950Y-100488600D01*
X152010950Y-101888600D01*
X152018735Y-101967641D01*
X152041790Y-102043644D01*
X152079230Y-102113689D01*
X152129616Y-102175084D01*
X152191011Y-102225470D01*
X152261056Y-102262910D01*
X152337059Y-102285965D01*
X152416100Y-102293750D01*
X152509701Y-102293750D01*
X152509700Y-107508818D01*
X152506767Y-107538600D01*
X152509700Y-107568382D01*
X152509700Y-107568389D01*
X152518474Y-107657474D01*
X152553149Y-107771781D01*
X152609457Y-107877127D01*
X152685236Y-107969464D01*
X152708380Y-107988458D01*
X153208521Y-108488600D01*
X151514126Y-110182996D01*
X151324615Y-110145300D01*
X151087585Y-110145300D01*
X150855110Y-110191542D01*
X150636124Y-110282250D01*
X150439041Y-110413936D01*
X150271436Y-110581541D01*
X150139750Y-110778624D01*
X150049042Y-110997610D01*
X150002800Y-111230085D01*
X150002800Y-111467115D01*
X150040496Y-111656626D01*
X149684922Y-112012200D01*
X148002500Y-112012200D01*
X148002500Y-108518390D01*
X148005434Y-108488600D01*
X147993726Y-108369725D01*
X147959051Y-108255418D01*
X147902743Y-108150072D01*
X147898580Y-108145000D01*
X149906310Y-108145000D01*
X149936100Y-108147934D01*
X150054975Y-108136226D01*
X150169282Y-108101551D01*
X150274628Y-108045243D01*
X150366964Y-107969464D01*
X150442743Y-107877128D01*
X150499051Y-107771782D01*
X150533726Y-107657475D01*
X150542500Y-107568390D01*
X150542500Y-107568389D01*
X150545434Y-107538600D01*
X150542500Y-107508810D01*
X150542500Y-104770612D01*
X150703159Y-104663264D01*
X150870764Y-104495659D01*
X151002450Y-104298576D01*
X151093158Y-104079590D01*
X151139400Y-103847115D01*
X151139400Y-103610085D01*
X151093158Y-103377610D01*
X151002450Y-103158624D01*
X150870764Y-102961541D01*
X150703159Y-102793936D01*
X150542500Y-102686588D01*
X150542500Y-99948379D01*
X150545433Y-99918599D01*
X150542500Y-99888819D01*
X150542500Y-99888810D01*
X150533726Y-99799725D01*
X150499051Y-99685418D01*
X150442743Y-99580072D01*
X150366964Y-99487736D01*
X150343827Y-99468748D01*
X149115958Y-98240880D01*
X149096964Y-98217736D01*
X149004628Y-98141957D01*
X148899282Y-98085649D01*
X148784975Y-98050974D01*
X148731250Y-98045683D01*
X148731250Y-97648600D01*
X148723465Y-97569559D01*
X148700410Y-97493556D01*
X148662970Y-97423511D01*
X148612584Y-97362116D01*
X148551189Y-97311730D01*
X148481144Y-97274290D01*
X148405141Y-97251235D01*
X148326100Y-97243450D01*
X148002500Y-97243450D01*
X148002500Y-96138390D01*
X148005434Y-96108600D01*
X147999116Y-96044445D01*
X154016473Y-96044445D01*
X154047568Y-96488460D01*
X154164687Y-96917877D01*
X154363332Y-97316195D01*
X154434617Y-97422880D01*
X154779620Y-97579725D01*
X154851946Y-97507399D01*
X154887301Y-97542754D01*
X154814975Y-97615080D01*
X154971820Y-97960083D01*
X155358280Y-98180910D01*
X155780396Y-98322100D01*
X156221945Y-98378227D01*
X156665960Y-98347132D01*
X157095377Y-98230013D01*
X157493695Y-98031368D01*
X157600380Y-97960083D01*
X157757225Y-97615080D01*
X157684899Y-97542754D01*
X157720254Y-97507399D01*
X157792580Y-97579725D01*
X158137583Y-97422880D01*
X158358410Y-97036420D01*
X158499600Y-96614304D01*
X158555727Y-96172755D01*
X158524632Y-95728740D01*
X158407513Y-95299323D01*
X158208868Y-94901005D01*
X158137583Y-94794320D01*
X157792580Y-94637475D01*
X157720254Y-94709801D01*
X157684899Y-94674446D01*
X157757225Y-94602120D01*
X157600380Y-94257117D01*
X157213920Y-94036290D01*
X156791804Y-93895100D01*
X156350255Y-93838973D01*
X155906240Y-93870068D01*
X155476823Y-93987187D01*
X155078505Y-94185832D01*
X154971820Y-94257117D01*
X154814975Y-94602120D01*
X154887301Y-94674446D01*
X154851946Y-94709801D01*
X154779620Y-94637475D01*
X154434617Y-94794320D01*
X154213790Y-95180780D01*
X154072600Y-95602896D01*
X154016473Y-96044445D01*
X147999116Y-96044445D01*
X147993726Y-95989725D01*
X147959051Y-95875418D01*
X147902743Y-95770072D01*
X147826964Y-95677736D01*
X147734628Y-95601957D01*
X147629282Y-95545649D01*
X147514975Y-95510974D01*
X147425890Y-95502200D01*
X147396100Y-95499266D01*
X147366310Y-95502200D01*
X139805879Y-95502200D01*
X139776099Y-95499267D01*
X139746319Y-95502200D01*
X139746310Y-95502200D01*
X139657225Y-95510974D01*
X139542918Y-95545649D01*
X139437572Y-95601957D01*
X139437570Y-95601958D01*
X139437571Y-95601958D01*
X139368374Y-95658746D01*
X139368369Y-95658751D01*
X139345236Y-95677736D01*
X139326251Y-95700869D01*
X130348375Y-104678747D01*
X130325237Y-104697736D01*
X130306248Y-104720874D01*
X130306246Y-104720876D01*
X130249458Y-104790072D01*
X130193149Y-104895419D01*
X130158474Y-105009725D01*
X130146767Y-105128600D01*
X130149701Y-105158392D01*
X130149701Y-105783450D01*
X129956100Y-105783450D01*
X129877059Y-105791235D01*
X129801056Y-105814290D01*
X129731011Y-105851730D01*
X129669616Y-105902116D01*
X129619230Y-105963511D01*
X129581790Y-106033556D01*
X129558735Y-106109559D01*
X129550950Y-106188600D01*
X126084300Y-106188600D01*
X126084300Y-96044445D01*
X127346473Y-96044445D01*
X127377568Y-96488460D01*
X127494687Y-96917877D01*
X127693332Y-97316195D01*
X127764617Y-97422880D01*
X128109620Y-97579725D01*
X128181946Y-97507399D01*
X128217301Y-97542754D01*
X128144975Y-97615080D01*
X128301820Y-97960083D01*
X128688280Y-98180910D01*
X129110396Y-98322100D01*
X129551945Y-98378227D01*
X129995960Y-98347132D01*
X130425377Y-98230013D01*
X130823695Y-98031368D01*
X130930380Y-97960083D01*
X131087225Y-97615080D01*
X131014899Y-97542754D01*
X131050254Y-97507399D01*
X131122580Y-97579725D01*
X131467583Y-97422880D01*
X131688410Y-97036420D01*
X131829600Y-96614304D01*
X131885727Y-96172755D01*
X131854632Y-95728740D01*
X131737513Y-95299323D01*
X131538868Y-94901005D01*
X131467583Y-94794320D01*
X131122580Y-94637475D01*
X131050254Y-94709801D01*
X131014899Y-94674446D01*
X131087225Y-94602120D01*
X130930380Y-94257117D01*
X130543920Y-94036290D01*
X130121804Y-93895100D01*
X129680255Y-93838973D01*
X129236240Y-93870068D01*
X128806823Y-93987187D01*
X128408505Y-94185832D01*
X128301820Y-94257117D01*
X128144975Y-94602120D01*
X128217301Y-94674446D01*
X128181946Y-94709801D01*
X128109620Y-94637475D01*
X127764617Y-94794320D01*
X127543790Y-95180780D01*
X127402600Y-95602896D01*
X127346473Y-96044445D01*
X126084300Y-96044445D01*
X126084300Y-92586800D01*
X170917901Y-92586800D01*
X170917900Y-117420400D01*
G36*
X149329700Y-100169779D02*
X149329701Y-102686587D01*
X149169041Y-102793936D01*
X149001436Y-102961541D01*
X148869750Y-103158624D01*
X148779042Y-103377610D01*
X148732800Y-103610085D01*
X148732800Y-103847115D01*
X148779042Y-104079590D01*
X148869750Y-104298576D01*
X149001436Y-104495659D01*
X149169041Y-104663264D01*
X149329700Y-104770613D01*
X149329701Y-106932200D01*
X147898580Y-106932200D01*
X147902743Y-106927128D01*
X147959051Y-106821782D01*
X147993726Y-106707475D01*
X148002500Y-106618390D01*
X148002500Y-106618389D01*
X148005434Y-106588600D01*
X148002500Y-106558810D01*
X148002500Y-102230612D01*
X148163159Y-102123264D01*
X148330764Y-101955659D01*
X148462450Y-101758576D01*
X148553158Y-101539590D01*
X148599400Y-101307115D01*
X148599400Y-101070085D01*
X148553158Y-100837610D01*
X148462450Y-100618624D01*
X148330764Y-100421541D01*
X148163159Y-100253936D01*
X147966076Y-100122250D01*
X147800704Y-100053750D01*
X148326100Y-100053750D01*
X148405141Y-100045965D01*
X148481144Y-100022910D01*
X148551189Y-99985470D01*
X148612584Y-99935084D01*
X148662970Y-99873689D01*
X148700410Y-99803644D01*
X148723465Y-99727641D01*
X148731250Y-99648600D01*
X148731250Y-99571328D01*
X149329700Y-100169779D01*
X149329700Y-100169779D01*
G37*
X149329700Y-100169779D02*
X149329701Y-102686587D01*
X149169041Y-102793936D01*
X149001436Y-102961541D01*
X148869750Y-103158624D01*
X148779042Y-103377610D01*
X148732800Y-103610085D01*
X148732800Y-103847115D01*
X148779042Y-104079590D01*
X148869750Y-104298576D01*
X149001436Y-104495659D01*
X149169041Y-104663264D01*
X149329700Y-104770613D01*
X149329701Y-106932200D01*
X147898580Y-106932200D01*
X147902743Y-106927128D01*
X147959051Y-106821782D01*
X147993726Y-106707475D01*
X148002500Y-106618390D01*
X148002500Y-106618389D01*
X148005434Y-106588600D01*
X148002500Y-106558810D01*
X148002500Y-102230612D01*
X148163159Y-102123264D01*
X148330764Y-101955659D01*
X148462450Y-101758576D01*
X148553158Y-101539590D01*
X148599400Y-101307115D01*
X148599400Y-101070085D01*
X148553158Y-100837610D01*
X148462450Y-100618624D01*
X148330764Y-100421541D01*
X148163159Y-100253936D01*
X147966076Y-100122250D01*
X147800704Y-100053750D01*
X148326100Y-100053750D01*
X148405141Y-100045965D01*
X148481144Y-100022910D01*
X148551189Y-99985470D01*
X148612584Y-99935084D01*
X148662970Y-99873689D01*
X148700410Y-99803644D01*
X148723465Y-99727641D01*
X148731250Y-99648600D01*
X148731250Y-99571328D01*
X149329700Y-100169779D01*
M02*
