G04 #@! TF.GenerationSoftware,KiCad,Pcbnew,(5.0.0)*
G04 #@! TF.CreationDate,2020-02-21T08:37:36-08:00*
G04 #@! TF.ProjectId,Battery Power Circuit V3,4261747465727920506F776572204369,rev?*
G04 #@! TF.SameCoordinates,Original*
G04 #@! TF.FileFunction,Copper,L1,Top,Signal*
G04 #@! TF.FilePolarity,Positive*
%FSLAX46Y46*%
G04 Gerber Fmt 4.6, Leading zero omitted, Abs format (unit mm)*
G04 Created by KiCad (PCBNEW (5.0.0)) date 02/21/20 08:37:36*
%MOMM*%
%LPD*%
G01*
G04 APERTURE LIST*
G04 #@! TA.AperFunction,SMDPad,CuDef*
%ADD10R,0.550000X1.200000*%
G04 #@! TD*
G04 #@! TA.AperFunction,SMDPad,CuDef*
%ADD11R,1.400000X1.400000*%
G04 #@! TD*
G04 #@! TA.AperFunction,SMDPad,CuDef*
%ADD12R,1.600000X2.700000*%
G04 #@! TD*
G04 #@! TA.AperFunction,SMDPad,CuDef*
%ADD13R,2.700000X1.600000*%
G04 #@! TD*
G04 #@! TA.AperFunction,SMDPad,CuDef*
%ADD14R,1.800000X1.600000*%
G04 #@! TD*
G04 #@! TA.AperFunction,SMDPad,CuDef*
%ADD15R,1.600000X2.000000*%
G04 #@! TD*
G04 #@! TA.AperFunction,SMDPad,CuDef*
%ADD16R,2.000000X1.600000*%
G04 #@! TD*
G04 #@! TA.AperFunction,ComponentPad*
%ADD17O,1.422400X2.844800*%
G04 #@! TD*
G04 #@! TA.AperFunction,ComponentPad*
%ADD18O,2.000000X4.000000*%
G04 #@! TD*
G04 #@! TA.AperFunction,ComponentPad*
%ADD19O,4.000000X2.000000*%
G04 #@! TD*
G04 #@! TA.AperFunction,ComponentPad*
%ADD20C,1.600200*%
G04 #@! TD*
G04 #@! TA.AperFunction,Conductor*
%ADD21C,0.406400*%
G04 #@! TD*
G04 #@! TA.AperFunction,Conductor*
%ADD22C,0.250000*%
G04 #@! TD*
G04 APERTURE END LIST*
D10*
G04 #@! TO.P,U$1,5*
G04 #@! TO.N,Net-(C2-Pad1)*
X147716100Y-104968600D03*
G04 #@! TO.P,U$1,4*
G04 #@! TO.N,Net-(R1-Pad2)*
X149616100Y-104968600D03*
G04 #@! TO.P,U$1,3*
G04 #@! TO.N,Net-(J2-Pad1)*
X149616100Y-107568600D03*
G04 #@! TO.P,U$1,2*
G04 #@! TO.N,GND*
X148666100Y-107568600D03*
G04 #@! TO.P,U$1,1*
G04 #@! TO.N,Net-(C1-Pad1)*
X147716100Y-107568600D03*
G04 #@! TD*
D11*
G04 #@! TO.P,D1,A*
G04 #@! TO.N,Net-(D1-PadA)*
X140416100Y-110078600D03*
G04 #@! TO.P,D1,C*
G04 #@! TO.N,Net-(C1-Pad1)*
X144216100Y-110078600D03*
G04 #@! TD*
G04 #@! TO.P,D2,A*
G04 #@! TO.N,Net-(D2-PadA)*
X140416100Y-113888600D03*
G04 #@! TO.P,D2,C*
G04 #@! TO.N,Net-(C1-Pad1)*
X144216100Y-113888600D03*
G04 #@! TD*
D12*
G04 #@! TO.P,C1,2*
G04 #@! TO.N,GND*
X151336100Y-113888600D03*
G04 #@! TO.P,C1,1*
G04 #@! TO.N,Net-(C1-Pad1)*
X148536100Y-113888600D03*
G04 #@! TD*
D13*
G04 #@! TO.P,C2,2*
G04 #@! TO.N,GND*
X157556100Y-98778600D03*
G04 #@! TO.P,C2,1*
G04 #@! TO.N,Net-(C2-Pad1)*
X157556100Y-95978600D03*
G04 #@! TD*
D14*
G04 #@! TO.P,C3,2*
G04 #@! TO.N,Net-(C2-Pad1)*
X162636100Y-102328600D03*
G04 #@! TO.P,C3,1*
G04 #@! TO.N,Net-(C3-Pad1)*
X162636100Y-105128600D03*
G04 #@! TD*
D15*
G04 #@! TO.P,R1,2*
G04 #@! TO.N,Net-(R1-Pad2)*
X154886100Y-103728600D03*
G04 #@! TO.P,R1,1*
G04 #@! TO.N,GND*
X157686100Y-103728600D03*
G04 #@! TD*
D16*
G04 #@! TO.P,R2,2*
G04 #@! TO.N,Net-(C2-Pad1)*
X151206100Y-95978600D03*
G04 #@! TO.P,R2,1*
G04 #@! TO.N,Net-(R1-Pad2)*
X151206100Y-98778600D03*
G04 #@! TD*
D17*
G04 #@! TO.P,JP1,2*
G04 #@! TO.N,GND*
X135966100Y-113888600D03*
G04 #@! TO.P,JP1,1*
G04 #@! TO.N,Net-(D2-PadA)*
X138506100Y-113888600D03*
G04 #@! TD*
G04 #@! TO.P,JP2,2*
G04 #@! TO.N,Net-(C2-Pad1)*
X146126100Y-98648600D03*
G04 #@! TO.P,JP2,1*
G04 #@! TO.N,GND*
X143586100Y-98648600D03*
G04 #@! TD*
D18*
G04 #@! TO.P,J1,2*
G04 #@! TO.N,Net-(J1-Pad2)*
X142036100Y-103728600D03*
D19*
G04 #@! TO.P,J1,3*
G04 #@! TO.N,GND*
X137236100Y-100728600D03*
G04 #@! TO.P,J1,1*
G04 #@! TO.N,Net-(D1-PadA)*
X137236100Y-106828600D03*
G04 #@! TD*
D20*
G04 #@! TO.P,J2,2*
G04 #@! TO.N,Net-(C3-Pad1)*
X160096100Y-110078600D03*
G04 #@! TO.P,J2,1*
G04 #@! TO.N,Net-(J2-Pad1)*
X152476100Y-110078600D03*
G04 #@! TD*
D21*
G04 #@! TO.N,Net-(C1-Pad1)*
X144216100Y-113888600D02*
X144216100Y-110078600D01*
X144216100Y-110078600D02*
X145456100Y-107568600D01*
X145456100Y-107568600D02*
X147716100Y-107568600D01*
X148536100Y-113888600D02*
X148026100Y-113888600D01*
X148026100Y-113888600D02*
X144216100Y-110078600D01*
G04 #@! TO.N,Net-(C2-Pad1)*
X147716100Y-104968600D02*
X147716100Y-98518600D01*
X151206100Y-95978600D02*
X157556100Y-95978600D01*
X146126100Y-98648600D02*
X146256100Y-98518600D01*
X146256100Y-98518600D02*
X147716100Y-98518600D01*
X147716100Y-98518600D02*
X151206100Y-95978600D01*
X162636100Y-102328600D02*
X162636100Y-98648600D01*
X162636100Y-98648600D02*
X160096100Y-96108600D01*
X160096100Y-96108600D02*
X157686100Y-96108600D01*
X157686100Y-96108600D02*
X157556100Y-95978600D01*
G04 #@! TO.N,Net-(R1-Pad2)*
X151206100Y-98778600D02*
X151206100Y-104998600D01*
X151206100Y-104998600D02*
X149616100Y-104998600D01*
X149616100Y-104998600D02*
X149616100Y-104968600D01*
X151206100Y-104998600D02*
X153616100Y-104998600D01*
X153616100Y-104998600D02*
X154886100Y-103728600D01*
G04 #@! TO.N,GND*
X148666100Y-107568600D02*
X148666100Y-110078600D01*
X149936100Y-111348600D02*
X149936100Y-112488600D01*
X149936100Y-112488600D02*
X151336100Y-113888600D01*
G04 #@! TO.N,Net-(D1-PadA)*
X140416100Y-110078600D02*
X138436100Y-106828600D01*
X138436100Y-106828600D02*
X137236100Y-106828600D01*
G04 #@! TO.N,Net-(C3-Pad1)*
X160096100Y-110078600D02*
X162636100Y-107538600D01*
X162636100Y-107538600D02*
X162636100Y-105128600D01*
G04 #@! TO.N,Net-(J2-Pad1)*
X149616100Y-107568600D02*
X149646100Y-107538600D01*
X152476100Y-110078600D02*
X152126100Y-110078600D01*
X152126100Y-110078600D02*
X149616100Y-107568600D01*
D22*
G04 #@! TO.N,Net-(D2-PadA)*
X138506100Y-113888600D02*
X140365400Y-113888600D01*
X140365400Y-113888600D02*
X140462000Y-113985200D01*
X140462000Y-113985200D02*
X140462000Y-114046000D01*
G04 #@! TD*
D21*
G04 #@! TO.N,GND*
G36*
X170917900Y-117420400D02*
X126084300Y-117420400D01*
X126084300Y-113691302D01*
X127612900Y-113691302D01*
X127612900Y-114085898D01*
X127689881Y-114472912D01*
X127840887Y-114837471D01*
X128060113Y-115165566D01*
X128339134Y-115444587D01*
X128667229Y-115663813D01*
X129031788Y-115814819D01*
X129418802Y-115891800D01*
X129813398Y-115891800D01*
X130200412Y-115814819D01*
X130564971Y-115663813D01*
X130893066Y-115444587D01*
X131172087Y-115165566D01*
X131391313Y-114837471D01*
X131542319Y-114472912D01*
X131619300Y-114085898D01*
X131619300Y-113913600D01*
X134595300Y-113913600D01*
X134595300Y-114624800D01*
X134626517Y-114891749D01*
X134709213Y-115147479D01*
X134840211Y-115382162D01*
X135014476Y-115586779D01*
X135225311Y-115753467D01*
X135464614Y-115875820D01*
X135723189Y-115949137D01*
X135727003Y-115949587D01*
X135941100Y-115805441D01*
X135941100Y-113913600D01*
X135991100Y-113913600D01*
X135991100Y-115805441D01*
X136205197Y-115949587D01*
X136209011Y-115949137D01*
X136467586Y-115875820D01*
X136706889Y-115753467D01*
X136917724Y-115586779D01*
X137091989Y-115382162D01*
X137222987Y-115147479D01*
X137305683Y-114891749D01*
X137336900Y-114624800D01*
X137336900Y-113913600D01*
X135991100Y-113913600D01*
X135941100Y-113913600D01*
X134595300Y-113913600D01*
X131619300Y-113913600D01*
X131619300Y-113691302D01*
X131542319Y-113304288D01*
X131479405Y-113152400D01*
X134595300Y-113152400D01*
X134595300Y-113863600D01*
X135941100Y-113863600D01*
X135941100Y-111971759D01*
X135991100Y-111971759D01*
X135991100Y-113863600D01*
X137336900Y-113863600D01*
X137336900Y-113152400D01*
X137333422Y-113122654D01*
X137391700Y-113122654D01*
X137391700Y-114654547D01*
X137407824Y-114818261D01*
X137471548Y-115028326D01*
X137575028Y-115221923D01*
X137714288Y-115391613D01*
X137883978Y-115530873D01*
X138077575Y-115634353D01*
X138287640Y-115698076D01*
X138506100Y-115719592D01*
X138724561Y-115698076D01*
X138934626Y-115634353D01*
X139128223Y-115530873D01*
X139297913Y-115391613D01*
X139437173Y-115221923D01*
X139540653Y-115028326D01*
X139560575Y-114962653D01*
X139561056Y-114962910D01*
X139637059Y-114985965D01*
X139716100Y-114993750D01*
X141116100Y-114993750D01*
X141195141Y-114985965D01*
X141271144Y-114962910D01*
X141341189Y-114925470D01*
X141402584Y-114875084D01*
X141452970Y-114813689D01*
X141490410Y-114743644D01*
X141513465Y-114667641D01*
X141521250Y-114588600D01*
X141521250Y-113188600D01*
X141513465Y-113109559D01*
X141490410Y-113033556D01*
X141452970Y-112963511D01*
X141402584Y-112902116D01*
X141341189Y-112851730D01*
X141271144Y-112814290D01*
X141195141Y-112791235D01*
X141116100Y-112783450D01*
X139716100Y-112783450D01*
X139637059Y-112791235D01*
X139561056Y-112814290D01*
X139560575Y-112814547D01*
X139540653Y-112748874D01*
X139437173Y-112555277D01*
X139297913Y-112385587D01*
X139128223Y-112246327D01*
X138934625Y-112142847D01*
X138724560Y-112079124D01*
X138506100Y-112057608D01*
X138287639Y-112079124D01*
X138077574Y-112142847D01*
X137883977Y-112246327D01*
X137714287Y-112385587D01*
X137575027Y-112555277D01*
X137471547Y-112748875D01*
X137407824Y-112958940D01*
X137391700Y-113122654D01*
X137333422Y-113122654D01*
X137305683Y-112885451D01*
X137222987Y-112629721D01*
X137091989Y-112395038D01*
X136917724Y-112190421D01*
X136706889Y-112023733D01*
X136467586Y-111901380D01*
X136209011Y-111828063D01*
X136205197Y-111827613D01*
X135991100Y-111971759D01*
X135941100Y-111971759D01*
X135727003Y-111827613D01*
X135723189Y-111828063D01*
X135464614Y-111901380D01*
X135225311Y-112023733D01*
X135014476Y-112190421D01*
X134840211Y-112395038D01*
X134709213Y-112629721D01*
X134626517Y-112885451D01*
X134595300Y-113152400D01*
X131479405Y-113152400D01*
X131391313Y-112939729D01*
X131172087Y-112611634D01*
X130893066Y-112332613D01*
X130564971Y-112113387D01*
X130200412Y-111962381D01*
X129813398Y-111885400D01*
X129418802Y-111885400D01*
X129031788Y-111962381D01*
X128667229Y-112113387D01*
X128339134Y-112332613D01*
X128060113Y-112611634D01*
X127840887Y-112939729D01*
X127689881Y-113304288D01*
X127612900Y-113691302D01*
X126084300Y-113691302D01*
X126084300Y-106828600D01*
X134826111Y-106828600D01*
X134853204Y-107103675D01*
X134933440Y-107368179D01*
X135063737Y-107611948D01*
X135239087Y-107825613D01*
X135452752Y-108000963D01*
X135696521Y-108131260D01*
X135961025Y-108211496D01*
X136167171Y-108231800D01*
X138305029Y-108231800D01*
X138511175Y-108211496D01*
X138559583Y-108196812D01*
X139310950Y-109430116D01*
X139310950Y-110778600D01*
X139318735Y-110857641D01*
X139341790Y-110933644D01*
X139379230Y-111003689D01*
X139429616Y-111065084D01*
X139491011Y-111115470D01*
X139561056Y-111152910D01*
X139637059Y-111175965D01*
X139716100Y-111183750D01*
X141116100Y-111183750D01*
X141195141Y-111175965D01*
X141271144Y-111152910D01*
X141341189Y-111115470D01*
X141402584Y-111065084D01*
X141452970Y-111003689D01*
X141490410Y-110933644D01*
X141513465Y-110857641D01*
X141521250Y-110778600D01*
X141521250Y-109378600D01*
X143110950Y-109378600D01*
X143110950Y-110778600D01*
X143118735Y-110857641D01*
X143141790Y-110933644D01*
X143179230Y-111003689D01*
X143229616Y-111065084D01*
X143291011Y-111115470D01*
X143361056Y-111152910D01*
X143437059Y-111175965D01*
X143516100Y-111183750D01*
X143609701Y-111183750D01*
X143609700Y-112783450D01*
X143516100Y-112783450D01*
X143437059Y-112791235D01*
X143361056Y-112814290D01*
X143291011Y-112851730D01*
X143229616Y-112902116D01*
X143179230Y-112963511D01*
X143141790Y-113033556D01*
X143118735Y-113109559D01*
X143110950Y-113188600D01*
X143110950Y-114588600D01*
X143118735Y-114667641D01*
X143141790Y-114743644D01*
X143179230Y-114813689D01*
X143229616Y-114875084D01*
X143291011Y-114925470D01*
X143361056Y-114962910D01*
X143437059Y-114985965D01*
X143516100Y-114993750D01*
X144916100Y-114993750D01*
X144995141Y-114985965D01*
X145071144Y-114962910D01*
X145141189Y-114925470D01*
X145202584Y-114875084D01*
X145252970Y-114813689D01*
X145290410Y-114743644D01*
X145313465Y-114667641D01*
X145321250Y-114588600D01*
X145321250Y-113188600D01*
X145313465Y-113109559D01*
X145290410Y-113033556D01*
X145252970Y-112963511D01*
X145202584Y-112902116D01*
X145141189Y-112851730D01*
X145071144Y-112814290D01*
X144995141Y-112791235D01*
X144916100Y-112783450D01*
X144822500Y-112783450D01*
X144822500Y-111542578D01*
X147330950Y-114051029D01*
X147330950Y-115238600D01*
X147338735Y-115317641D01*
X147361790Y-115393644D01*
X147399230Y-115463689D01*
X147449616Y-115525084D01*
X147511011Y-115575470D01*
X147581056Y-115612910D01*
X147657059Y-115635965D01*
X147736100Y-115643750D01*
X149336100Y-115643750D01*
X149415141Y-115635965D01*
X149491144Y-115612910D01*
X149561189Y-115575470D01*
X149622584Y-115525084D01*
X149672970Y-115463689D01*
X149710410Y-115393644D01*
X149733465Y-115317641D01*
X149741250Y-115238600D01*
X149741250Y-114078500D01*
X149876500Y-114078500D01*
X149876500Y-115303565D01*
X149901848Y-115430998D01*
X149951570Y-115551038D01*
X150023755Y-115659070D01*
X150115629Y-115750945D01*
X150223662Y-115823130D01*
X150343702Y-115872852D01*
X150471135Y-115898200D01*
X151146200Y-115898200D01*
X151311100Y-115733300D01*
X151311100Y-113913600D01*
X151361100Y-113913600D01*
X151361100Y-115733300D01*
X151526000Y-115898200D01*
X152201065Y-115898200D01*
X152328498Y-115872852D01*
X152448538Y-115823130D01*
X152556571Y-115750945D01*
X152648445Y-115659070D01*
X152720630Y-115551038D01*
X152770352Y-115430998D01*
X152795700Y-115303565D01*
X152795700Y-114078500D01*
X152630800Y-113913600D01*
X151361100Y-113913600D01*
X151311100Y-113913600D01*
X150041400Y-113913600D01*
X149876500Y-114078500D01*
X149741250Y-114078500D01*
X149741250Y-112538600D01*
X149734852Y-112473635D01*
X149876500Y-112473635D01*
X149876500Y-113698700D01*
X150041400Y-113863600D01*
X151311100Y-113863600D01*
X151311100Y-112043900D01*
X151361100Y-112043900D01*
X151361100Y-113863600D01*
X152630800Y-113863600D01*
X152795700Y-113698700D01*
X152795700Y-113691302D01*
X164442900Y-113691302D01*
X164442900Y-114085898D01*
X164519881Y-114472912D01*
X164670887Y-114837471D01*
X164890113Y-115165566D01*
X165169134Y-115444587D01*
X165497229Y-115663813D01*
X165861788Y-115814819D01*
X166248802Y-115891800D01*
X166643398Y-115891800D01*
X167030412Y-115814819D01*
X167394971Y-115663813D01*
X167723066Y-115444587D01*
X168002087Y-115165566D01*
X168221313Y-114837471D01*
X168372319Y-114472912D01*
X168449300Y-114085898D01*
X168449300Y-113691302D01*
X168372319Y-113304288D01*
X168221313Y-112939729D01*
X168002087Y-112611634D01*
X167723066Y-112332613D01*
X167394971Y-112113387D01*
X167030412Y-111962381D01*
X166643398Y-111885400D01*
X166248802Y-111885400D01*
X165861788Y-111962381D01*
X165497229Y-112113387D01*
X165169134Y-112332613D01*
X164890113Y-112611634D01*
X164670887Y-112939729D01*
X164519881Y-113304288D01*
X164442900Y-113691302D01*
X152795700Y-113691302D01*
X152795700Y-112473635D01*
X152770352Y-112346202D01*
X152720630Y-112226162D01*
X152648445Y-112118130D01*
X152556571Y-112026255D01*
X152448538Y-111954070D01*
X152328498Y-111904348D01*
X152201065Y-111879000D01*
X151526000Y-111879000D01*
X151361100Y-112043900D01*
X151311100Y-112043900D01*
X151146200Y-111879000D01*
X150471135Y-111879000D01*
X150343702Y-111904348D01*
X150223662Y-111954070D01*
X150115629Y-112026255D01*
X150023755Y-112118130D01*
X149951570Y-112226162D01*
X149901848Y-112346202D01*
X149876500Y-112473635D01*
X149734852Y-112473635D01*
X149733465Y-112459559D01*
X149710410Y-112383556D01*
X149672970Y-112313511D01*
X149622584Y-112252116D01*
X149561189Y-112201730D01*
X149491144Y-112164290D01*
X149415141Y-112141235D01*
X149336100Y-112133450D01*
X147736100Y-112133450D01*
X147657059Y-112141235D01*
X147581056Y-112164290D01*
X147511011Y-112201730D01*
X147449616Y-112252116D01*
X147399230Y-112313511D01*
X147367657Y-112372579D01*
X145321250Y-110326172D01*
X145321250Y-109378600D01*
X145313465Y-109299559D01*
X145299717Y-109254238D01*
X145832886Y-108175000D01*
X147036580Y-108175000D01*
X147043735Y-108247641D01*
X147066790Y-108323644D01*
X147104230Y-108393689D01*
X147154616Y-108455084D01*
X147216011Y-108505470D01*
X147286056Y-108542910D01*
X147362059Y-108565965D01*
X147441100Y-108573750D01*
X147868518Y-108573750D01*
X147878755Y-108589070D01*
X147970629Y-108680945D01*
X148078662Y-108753130D01*
X148198702Y-108802852D01*
X148326135Y-108828200D01*
X148476200Y-108828200D01*
X148641100Y-108663300D01*
X148641100Y-107593600D01*
X148621100Y-107593600D01*
X148621100Y-107543600D01*
X148641100Y-107543600D01*
X148641100Y-106473900D01*
X148691100Y-106473900D01*
X148691100Y-107543600D01*
X148711100Y-107543600D01*
X148711100Y-107593600D01*
X148691100Y-107593600D01*
X148691100Y-108663300D01*
X148856000Y-108828200D01*
X149006065Y-108828200D01*
X149133498Y-108802852D01*
X149253538Y-108753130D01*
X149361571Y-108680945D01*
X149453445Y-108589070D01*
X149463682Y-108573750D01*
X149763672Y-108573750D01*
X151272800Y-110082879D01*
X151272800Y-110197115D01*
X151319042Y-110429590D01*
X151409750Y-110648576D01*
X151541436Y-110845659D01*
X151709041Y-111013264D01*
X151906124Y-111144950D01*
X152125110Y-111235658D01*
X152357585Y-111281900D01*
X152594615Y-111281900D01*
X152827090Y-111235658D01*
X153046076Y-111144950D01*
X153243159Y-111013264D01*
X153410764Y-110845659D01*
X153542450Y-110648576D01*
X153633158Y-110429590D01*
X153679400Y-110197115D01*
X153679400Y-109960085D01*
X158892800Y-109960085D01*
X158892800Y-110197115D01*
X158939042Y-110429590D01*
X159029750Y-110648576D01*
X159161436Y-110845659D01*
X159329041Y-111013264D01*
X159526124Y-111144950D01*
X159745110Y-111235658D01*
X159977585Y-111281900D01*
X160214615Y-111281900D01*
X160447090Y-111235658D01*
X160666076Y-111144950D01*
X160863159Y-111013264D01*
X161030764Y-110845659D01*
X161162450Y-110648576D01*
X161253158Y-110429590D01*
X161299400Y-110197115D01*
X161299400Y-109960085D01*
X161261704Y-109770574D01*
X163043827Y-107988452D01*
X163066964Y-107969464D01*
X163142743Y-107877128D01*
X163199051Y-107771782D01*
X163233726Y-107657475D01*
X163242500Y-107568390D01*
X163242500Y-107568381D01*
X163245433Y-107538601D01*
X163242500Y-107508821D01*
X163242500Y-106333750D01*
X163536100Y-106333750D01*
X163615141Y-106325965D01*
X163691144Y-106302910D01*
X163761189Y-106265470D01*
X163822584Y-106215084D01*
X163872970Y-106153689D01*
X163910410Y-106083644D01*
X163933465Y-106007641D01*
X163941250Y-105928600D01*
X163941250Y-104328600D01*
X163933465Y-104249559D01*
X163910410Y-104173556D01*
X163872970Y-104103511D01*
X163822584Y-104042116D01*
X163761189Y-103991730D01*
X163691144Y-103954290D01*
X163615141Y-103931235D01*
X163536100Y-103923450D01*
X161736100Y-103923450D01*
X161657059Y-103931235D01*
X161581056Y-103954290D01*
X161511011Y-103991730D01*
X161449616Y-104042116D01*
X161399230Y-104103511D01*
X161361790Y-104173556D01*
X161338735Y-104249559D01*
X161330950Y-104328600D01*
X161330950Y-105928600D01*
X161338735Y-106007641D01*
X161361790Y-106083644D01*
X161399230Y-106153689D01*
X161449616Y-106215084D01*
X161511011Y-106265470D01*
X161581056Y-106302910D01*
X161657059Y-106325965D01*
X161736100Y-106333750D01*
X162029700Y-106333750D01*
X162029700Y-107287421D01*
X160404126Y-108912996D01*
X160214615Y-108875300D01*
X159977585Y-108875300D01*
X159745110Y-108921542D01*
X159526124Y-109012250D01*
X159329041Y-109143936D01*
X159161436Y-109311541D01*
X159029750Y-109508624D01*
X158939042Y-109727610D01*
X158892800Y-109960085D01*
X153679400Y-109960085D01*
X153633158Y-109727610D01*
X153542450Y-109508624D01*
X153410764Y-109311541D01*
X153243159Y-109143936D01*
X153046076Y-109012250D01*
X152827090Y-108921542D01*
X152594615Y-108875300D01*
X152357585Y-108875300D01*
X152125110Y-108921542D01*
X151914047Y-109008968D01*
X150296250Y-107391172D01*
X150296250Y-106968600D01*
X150288465Y-106889559D01*
X150265410Y-106813556D01*
X150227970Y-106743511D01*
X150177584Y-106682116D01*
X150116189Y-106631730D01*
X150046144Y-106594290D01*
X149970141Y-106571235D01*
X149891100Y-106563450D01*
X149463682Y-106563450D01*
X149453445Y-106548130D01*
X149361571Y-106456255D01*
X149253538Y-106384070D01*
X149133498Y-106334348D01*
X149006065Y-106309000D01*
X148856000Y-106309000D01*
X148691100Y-106473900D01*
X148641100Y-106473900D01*
X148476200Y-106309000D01*
X148326135Y-106309000D01*
X148198702Y-106334348D01*
X148078662Y-106384070D01*
X147970629Y-106456255D01*
X147878755Y-106548130D01*
X147868518Y-106563450D01*
X147441100Y-106563450D01*
X147362059Y-106571235D01*
X147286056Y-106594290D01*
X147216011Y-106631730D01*
X147154616Y-106682116D01*
X147104230Y-106743511D01*
X147066790Y-106813556D01*
X147043735Y-106889559D01*
X147036580Y-106962200D01*
X145506030Y-106962200D01*
X145496381Y-106960600D01*
X145446414Y-106962200D01*
X145426310Y-106962200D01*
X145416625Y-106963154D01*
X145376992Y-106964423D01*
X145357324Y-106968994D01*
X145337225Y-106970974D01*
X145299266Y-106982489D01*
X145260643Y-106991466D01*
X145242246Y-106999786D01*
X145222918Y-107005649D01*
X145187936Y-107024347D01*
X145151805Y-107040687D01*
X145135385Y-107052436D01*
X145117572Y-107061957D01*
X145086909Y-107087122D01*
X145054661Y-107110196D01*
X145040846Y-107124925D01*
X145025236Y-107137736D01*
X145000079Y-107168389D01*
X144972944Y-107197320D01*
X144962267Y-107214463D01*
X144949457Y-107230072D01*
X144930763Y-107265046D01*
X144925620Y-107273304D01*
X144916720Y-107291319D01*
X144893149Y-107335418D01*
X144890309Y-107344781D01*
X144085708Y-108973450D01*
X143516100Y-108973450D01*
X143437059Y-108981235D01*
X143361056Y-109004290D01*
X143291011Y-109041730D01*
X143229616Y-109092116D01*
X143179230Y-109153511D01*
X143141790Y-109223556D01*
X143118735Y-109299559D01*
X143110950Y-109378600D01*
X141521250Y-109378600D01*
X141513465Y-109299559D01*
X141490410Y-109223556D01*
X141452970Y-109153511D01*
X141402584Y-109092116D01*
X141341189Y-109041730D01*
X141271144Y-109004290D01*
X141195141Y-108981235D01*
X141116100Y-108973450D01*
X140452883Y-108973450D01*
X139508917Y-107424012D01*
X139538760Y-107368179D01*
X139618996Y-107103675D01*
X139646089Y-106828600D01*
X139618996Y-106553525D01*
X139538760Y-106289021D01*
X139408463Y-106045252D01*
X139233113Y-105831587D01*
X139019448Y-105656237D01*
X138775679Y-105525940D01*
X138511175Y-105445704D01*
X138305029Y-105425400D01*
X136167171Y-105425400D01*
X135961025Y-105445704D01*
X135696521Y-105525940D01*
X135452752Y-105656237D01*
X135239087Y-105831587D01*
X135063737Y-106045252D01*
X134933440Y-106289021D01*
X134853204Y-106553525D01*
X134826111Y-106828600D01*
X126084300Y-106828600D01*
X126084300Y-104797528D01*
X140632900Y-104797528D01*
X140653204Y-105003674D01*
X140733440Y-105268178D01*
X140863737Y-105511947D01*
X141039087Y-105725612D01*
X141252752Y-105900963D01*
X141496521Y-106031260D01*
X141761025Y-106111496D01*
X142036100Y-106138589D01*
X142311174Y-106111496D01*
X142575678Y-106031260D01*
X142819447Y-105900963D01*
X143033112Y-105725613D01*
X143208463Y-105511948D01*
X143338760Y-105268179D01*
X143418996Y-105003675D01*
X143439300Y-104797529D01*
X143439300Y-102659671D01*
X143418996Y-102453525D01*
X143338760Y-102189021D01*
X143208463Y-101945252D01*
X143033113Y-101731587D01*
X142819448Y-101556237D01*
X142575679Y-101425940D01*
X142311175Y-101345704D01*
X142036100Y-101318611D01*
X141761026Y-101345704D01*
X141496522Y-101425940D01*
X141252753Y-101556237D01*
X141039088Y-101731587D01*
X140863738Y-101945252D01*
X140733441Y-102189021D01*
X140653205Y-102453525D01*
X140632901Y-102659671D01*
X140632900Y-104797528D01*
X126084300Y-104797528D01*
X126084300Y-101012881D01*
X134601029Y-101012881D01*
X134603511Y-101027852D01*
X134693262Y-101340604D01*
X134842303Y-101629837D01*
X135044907Y-101884436D01*
X135293288Y-102094617D01*
X135577901Y-102252303D01*
X135887808Y-102351434D01*
X136211100Y-102388200D01*
X137211100Y-102388200D01*
X137211100Y-100753600D01*
X137261100Y-100753600D01*
X137261100Y-102388200D01*
X138261100Y-102388200D01*
X138584392Y-102351434D01*
X138894299Y-102252303D01*
X139178912Y-102094617D01*
X139427293Y-101884436D01*
X139629897Y-101629837D01*
X139778938Y-101340604D01*
X139868689Y-101027852D01*
X139871171Y-101012881D01*
X139730591Y-100753600D01*
X137261100Y-100753600D01*
X137211100Y-100753600D01*
X134741609Y-100753600D01*
X134601029Y-101012881D01*
X126084300Y-101012881D01*
X126084300Y-100444319D01*
X134601029Y-100444319D01*
X134741609Y-100703600D01*
X137211100Y-100703600D01*
X137211100Y-99069000D01*
X137261100Y-99069000D01*
X137261100Y-100703600D01*
X139730591Y-100703600D01*
X139871171Y-100444319D01*
X139868689Y-100429348D01*
X139778938Y-100116596D01*
X139629897Y-99827363D01*
X139427293Y-99572764D01*
X139178912Y-99362583D01*
X138894299Y-99204897D01*
X138584392Y-99105766D01*
X138261100Y-99069000D01*
X137261100Y-99069000D01*
X137211100Y-99069000D01*
X136211100Y-99069000D01*
X135887808Y-99105766D01*
X135577901Y-99204897D01*
X135293288Y-99362583D01*
X135044907Y-99572764D01*
X134842303Y-99827363D01*
X134693262Y-100116596D01*
X134603511Y-100429348D01*
X134601029Y-100444319D01*
X126084300Y-100444319D01*
X126084300Y-98673600D01*
X142215300Y-98673600D01*
X142215300Y-99384800D01*
X142246517Y-99651749D01*
X142329213Y-99907479D01*
X142460211Y-100142162D01*
X142634476Y-100346779D01*
X142845311Y-100513467D01*
X143084614Y-100635820D01*
X143343189Y-100709137D01*
X143347003Y-100709587D01*
X143561100Y-100565441D01*
X143561100Y-98673600D01*
X143611100Y-98673600D01*
X143611100Y-100565441D01*
X143825197Y-100709587D01*
X143829011Y-100709137D01*
X144087586Y-100635820D01*
X144326889Y-100513467D01*
X144537724Y-100346779D01*
X144711989Y-100142162D01*
X144842987Y-99907479D01*
X144925683Y-99651749D01*
X144956900Y-99384800D01*
X144956900Y-98673600D01*
X143611100Y-98673600D01*
X143561100Y-98673600D01*
X142215300Y-98673600D01*
X126084300Y-98673600D01*
X126084300Y-95911302D01*
X127612900Y-95911302D01*
X127612900Y-96305898D01*
X127689881Y-96692912D01*
X127840887Y-97057471D01*
X128060113Y-97385566D01*
X128339134Y-97664587D01*
X128667229Y-97883813D01*
X129031788Y-98034819D01*
X129418802Y-98111800D01*
X129813398Y-98111800D01*
X130200412Y-98034819D01*
X130495956Y-97912400D01*
X142215300Y-97912400D01*
X142215300Y-98623600D01*
X143561100Y-98623600D01*
X143561100Y-96731759D01*
X143611100Y-96731759D01*
X143611100Y-98623600D01*
X144956900Y-98623600D01*
X144956900Y-97912400D01*
X144953422Y-97882653D01*
X145011700Y-97882653D01*
X145011700Y-99414546D01*
X145027824Y-99578260D01*
X145091547Y-99788325D01*
X145195027Y-99981923D01*
X145334287Y-100151613D01*
X145503977Y-100290873D01*
X145697574Y-100394353D01*
X145907639Y-100458076D01*
X146126100Y-100479592D01*
X146344560Y-100458076D01*
X146554625Y-100394353D01*
X146748223Y-100290873D01*
X146917913Y-100151613D01*
X147057173Y-99981923D01*
X147109701Y-99883651D01*
X147109700Y-104136846D01*
X147104230Y-104143511D01*
X147066790Y-104213556D01*
X147043735Y-104289559D01*
X147035950Y-104368600D01*
X147035950Y-105568600D01*
X147043735Y-105647641D01*
X147066790Y-105723644D01*
X147104230Y-105793689D01*
X147154616Y-105855084D01*
X147216011Y-105905470D01*
X147286056Y-105942910D01*
X147362059Y-105965965D01*
X147441100Y-105973750D01*
X147991100Y-105973750D01*
X148070141Y-105965965D01*
X148146144Y-105942910D01*
X148216189Y-105905470D01*
X148277584Y-105855084D01*
X148327970Y-105793689D01*
X148365410Y-105723644D01*
X148388465Y-105647641D01*
X148396250Y-105568600D01*
X148396250Y-104368600D01*
X148935950Y-104368600D01*
X148935950Y-105568600D01*
X148943735Y-105647641D01*
X148966790Y-105723644D01*
X149004230Y-105793689D01*
X149054616Y-105855084D01*
X149116011Y-105905470D01*
X149186056Y-105942910D01*
X149262059Y-105965965D01*
X149341100Y-105973750D01*
X149891100Y-105973750D01*
X149970141Y-105965965D01*
X150046144Y-105942910D01*
X150116189Y-105905470D01*
X150177584Y-105855084D01*
X150227970Y-105793689D01*
X150265410Y-105723644D01*
X150288465Y-105647641D01*
X150292665Y-105605000D01*
X151176310Y-105605000D01*
X151206100Y-105607934D01*
X151235890Y-105605000D01*
X153586318Y-105605000D01*
X153616100Y-105607933D01*
X153645882Y-105605000D01*
X153645890Y-105605000D01*
X153734975Y-105596226D01*
X153849282Y-105561551D01*
X153954628Y-105505243D01*
X154046964Y-105429464D01*
X154065958Y-105406320D01*
X154338528Y-105133750D01*
X155686100Y-105133750D01*
X155765141Y-105125965D01*
X155841144Y-105102910D01*
X155911189Y-105065470D01*
X155972584Y-105015084D01*
X156022970Y-104953689D01*
X156060410Y-104883644D01*
X156083465Y-104807641D01*
X156091250Y-104728600D01*
X156091250Y-103918500D01*
X156226500Y-103918500D01*
X156226500Y-104793565D01*
X156251848Y-104920998D01*
X156301570Y-105041038D01*
X156373755Y-105149070D01*
X156465629Y-105240945D01*
X156573662Y-105313130D01*
X156693702Y-105362852D01*
X156821135Y-105388200D01*
X157496200Y-105388200D01*
X157661100Y-105223300D01*
X157661100Y-103753600D01*
X157711100Y-103753600D01*
X157711100Y-105223300D01*
X157876000Y-105388200D01*
X158551065Y-105388200D01*
X158678498Y-105362852D01*
X158798538Y-105313130D01*
X158906571Y-105240945D01*
X158998445Y-105149070D01*
X159070630Y-105041038D01*
X159120352Y-104920998D01*
X159145700Y-104793565D01*
X159145700Y-103918500D01*
X158980800Y-103753600D01*
X157711100Y-103753600D01*
X157661100Y-103753600D01*
X156391400Y-103753600D01*
X156226500Y-103918500D01*
X156091250Y-103918500D01*
X156091250Y-102728600D01*
X156084852Y-102663635D01*
X156226500Y-102663635D01*
X156226500Y-103538700D01*
X156391400Y-103703600D01*
X157661100Y-103703600D01*
X157661100Y-102233900D01*
X157711100Y-102233900D01*
X157711100Y-103703600D01*
X158980800Y-103703600D01*
X159145700Y-103538700D01*
X159145700Y-102663635D01*
X159120352Y-102536202D01*
X159070630Y-102416162D01*
X158998445Y-102308130D01*
X158906571Y-102216255D01*
X158798538Y-102144070D01*
X158678498Y-102094348D01*
X158551065Y-102069000D01*
X157876000Y-102069000D01*
X157711100Y-102233900D01*
X157661100Y-102233900D01*
X157496200Y-102069000D01*
X156821135Y-102069000D01*
X156693702Y-102094348D01*
X156573662Y-102144070D01*
X156465629Y-102216255D01*
X156373755Y-102308130D01*
X156301570Y-102416162D01*
X156251848Y-102536202D01*
X156226500Y-102663635D01*
X156084852Y-102663635D01*
X156083465Y-102649559D01*
X156060410Y-102573556D01*
X156022970Y-102503511D01*
X155972584Y-102442116D01*
X155911189Y-102391730D01*
X155841144Y-102354290D01*
X155765141Y-102331235D01*
X155686100Y-102323450D01*
X154086100Y-102323450D01*
X154007059Y-102331235D01*
X153931056Y-102354290D01*
X153861011Y-102391730D01*
X153799616Y-102442116D01*
X153749230Y-102503511D01*
X153711790Y-102573556D01*
X153688735Y-102649559D01*
X153680950Y-102728600D01*
X153680950Y-104076172D01*
X153364922Y-104392200D01*
X151812500Y-104392200D01*
X151812500Y-99983750D01*
X152206100Y-99983750D01*
X152285141Y-99975965D01*
X152361144Y-99952910D01*
X152431189Y-99915470D01*
X152492584Y-99865084D01*
X152542970Y-99803689D01*
X152580410Y-99733644D01*
X152603465Y-99657641D01*
X152611250Y-99578600D01*
X152611250Y-98968500D01*
X155546500Y-98968500D01*
X155546500Y-99643565D01*
X155571848Y-99770998D01*
X155621570Y-99891038D01*
X155693755Y-99999071D01*
X155785630Y-100090945D01*
X155893662Y-100163130D01*
X156013702Y-100212852D01*
X156141135Y-100238200D01*
X157366200Y-100238200D01*
X157531100Y-100073300D01*
X157531100Y-98803600D01*
X157581100Y-98803600D01*
X157581100Y-100073300D01*
X157746000Y-100238200D01*
X158971065Y-100238200D01*
X159098498Y-100212852D01*
X159218538Y-100163130D01*
X159326570Y-100090945D01*
X159418445Y-99999071D01*
X159490630Y-99891038D01*
X159540352Y-99770998D01*
X159565700Y-99643565D01*
X159565700Y-98968500D01*
X159400800Y-98803600D01*
X157581100Y-98803600D01*
X157531100Y-98803600D01*
X155711400Y-98803600D01*
X155546500Y-98968500D01*
X152611250Y-98968500D01*
X152611250Y-97978600D01*
X152604852Y-97913635D01*
X155546500Y-97913635D01*
X155546500Y-98588700D01*
X155711400Y-98753600D01*
X157531100Y-98753600D01*
X157531100Y-97483900D01*
X157581100Y-97483900D01*
X157581100Y-98753600D01*
X159400800Y-98753600D01*
X159565700Y-98588700D01*
X159565700Y-97913635D01*
X159540352Y-97786202D01*
X159490630Y-97666162D01*
X159418445Y-97558129D01*
X159326570Y-97466255D01*
X159218538Y-97394070D01*
X159098498Y-97344348D01*
X158971065Y-97319000D01*
X157746000Y-97319000D01*
X157581100Y-97483900D01*
X157531100Y-97483900D01*
X157366200Y-97319000D01*
X156141135Y-97319000D01*
X156013702Y-97344348D01*
X155893662Y-97394070D01*
X155785630Y-97466255D01*
X155693755Y-97558129D01*
X155621570Y-97666162D01*
X155571848Y-97786202D01*
X155546500Y-97913635D01*
X152604852Y-97913635D01*
X152603465Y-97899559D01*
X152580410Y-97823556D01*
X152542970Y-97753511D01*
X152492584Y-97692116D01*
X152431189Y-97641730D01*
X152361144Y-97604290D01*
X152285141Y-97581235D01*
X152206100Y-97573450D01*
X150206100Y-97573450D01*
X150127059Y-97581235D01*
X150051056Y-97604290D01*
X149981011Y-97641730D01*
X149919616Y-97692116D01*
X149869230Y-97753511D01*
X149831790Y-97823556D01*
X149808735Y-97899559D01*
X149800950Y-97978600D01*
X149800950Y-99578600D01*
X149808735Y-99657641D01*
X149831790Y-99733644D01*
X149869230Y-99803689D01*
X149919616Y-99865084D01*
X149981011Y-99915470D01*
X150051056Y-99952910D01*
X150127059Y-99975965D01*
X150206100Y-99983750D01*
X150599700Y-99983750D01*
X150599701Y-104392200D01*
X150296250Y-104392200D01*
X150296250Y-104368600D01*
X150288465Y-104289559D01*
X150265410Y-104213556D01*
X150227970Y-104143511D01*
X150177584Y-104082116D01*
X150116189Y-104031730D01*
X150046144Y-103994290D01*
X149970141Y-103971235D01*
X149891100Y-103963450D01*
X149341100Y-103963450D01*
X149262059Y-103971235D01*
X149186056Y-103994290D01*
X149116011Y-104031730D01*
X149054616Y-104082116D01*
X149004230Y-104143511D01*
X148966790Y-104213556D01*
X148943735Y-104289559D01*
X148935950Y-104368600D01*
X148396250Y-104368600D01*
X148388465Y-104289559D01*
X148365410Y-104213556D01*
X148327970Y-104143511D01*
X148322500Y-104136846D01*
X148322500Y-98827263D01*
X150580714Y-97183750D01*
X152206100Y-97183750D01*
X152285141Y-97175965D01*
X152361144Y-97152910D01*
X152431189Y-97115470D01*
X152492584Y-97065084D01*
X152542970Y-97003689D01*
X152580410Y-96933644D01*
X152603465Y-96857641D01*
X152611250Y-96778600D01*
X152611250Y-96585000D01*
X155800950Y-96585000D01*
X155800950Y-96778600D01*
X155808735Y-96857641D01*
X155831790Y-96933644D01*
X155869230Y-97003689D01*
X155919616Y-97065084D01*
X155981011Y-97115470D01*
X156051056Y-97152910D01*
X156127059Y-97175965D01*
X156206100Y-97183750D01*
X158906100Y-97183750D01*
X158985141Y-97175965D01*
X159061144Y-97152910D01*
X159131189Y-97115470D01*
X159192584Y-97065084D01*
X159242970Y-97003689D01*
X159280410Y-96933644D01*
X159303465Y-96857641D01*
X159311250Y-96778600D01*
X159311250Y-96715000D01*
X159844922Y-96715000D01*
X162029701Y-98899780D01*
X162029700Y-101123450D01*
X161736100Y-101123450D01*
X161657059Y-101131235D01*
X161581056Y-101154290D01*
X161511011Y-101191730D01*
X161449616Y-101242116D01*
X161399230Y-101303511D01*
X161361790Y-101373556D01*
X161338735Y-101449559D01*
X161330950Y-101528600D01*
X161330950Y-103128600D01*
X161338735Y-103207641D01*
X161361790Y-103283644D01*
X161399230Y-103353689D01*
X161449616Y-103415084D01*
X161511011Y-103465470D01*
X161581056Y-103502910D01*
X161657059Y-103525965D01*
X161736100Y-103533750D01*
X163536100Y-103533750D01*
X163615141Y-103525965D01*
X163691144Y-103502910D01*
X163761189Y-103465470D01*
X163822584Y-103415084D01*
X163872970Y-103353689D01*
X163910410Y-103283644D01*
X163933465Y-103207641D01*
X163941250Y-103128600D01*
X163941250Y-101528600D01*
X163933465Y-101449559D01*
X163910410Y-101373556D01*
X163872970Y-101303511D01*
X163822584Y-101242116D01*
X163761189Y-101191730D01*
X163691144Y-101154290D01*
X163615141Y-101131235D01*
X163536100Y-101123450D01*
X163242500Y-101123450D01*
X163242500Y-98678379D01*
X163245433Y-98648599D01*
X163242500Y-98618819D01*
X163242500Y-98618810D01*
X163233726Y-98529725D01*
X163199051Y-98415418D01*
X163142743Y-98310072D01*
X163066964Y-98217736D01*
X163043826Y-98198747D01*
X160756381Y-95911302D01*
X164442900Y-95911302D01*
X164442900Y-96305898D01*
X164519881Y-96692912D01*
X164670887Y-97057471D01*
X164890113Y-97385566D01*
X165169134Y-97664587D01*
X165497229Y-97883813D01*
X165861788Y-98034819D01*
X166248802Y-98111800D01*
X166643398Y-98111800D01*
X167030412Y-98034819D01*
X167394971Y-97883813D01*
X167723066Y-97664587D01*
X168002087Y-97385566D01*
X168221313Y-97057471D01*
X168372319Y-96692912D01*
X168449300Y-96305898D01*
X168449300Y-95911302D01*
X168372319Y-95524288D01*
X168221313Y-95159729D01*
X168002087Y-94831634D01*
X167723066Y-94552613D01*
X167394971Y-94333387D01*
X167030412Y-94182381D01*
X166643398Y-94105400D01*
X166248802Y-94105400D01*
X165861788Y-94182381D01*
X165497229Y-94333387D01*
X165169134Y-94552613D01*
X164890113Y-94831634D01*
X164670887Y-95159729D01*
X164519881Y-95524288D01*
X164442900Y-95911302D01*
X160756381Y-95911302D01*
X160545958Y-95700880D01*
X160526964Y-95677736D01*
X160434628Y-95601957D01*
X160329282Y-95545649D01*
X160214975Y-95510974D01*
X160125890Y-95502200D01*
X160125882Y-95502200D01*
X160096100Y-95499267D01*
X160066318Y-95502200D01*
X159311250Y-95502200D01*
X159311250Y-95178600D01*
X159303465Y-95099559D01*
X159280410Y-95023556D01*
X159242970Y-94953511D01*
X159192584Y-94892116D01*
X159131189Y-94841730D01*
X159061144Y-94804290D01*
X158985141Y-94781235D01*
X158906100Y-94773450D01*
X156206100Y-94773450D01*
X156127059Y-94781235D01*
X156051056Y-94804290D01*
X155981011Y-94841730D01*
X155919616Y-94892116D01*
X155869230Y-94953511D01*
X155831790Y-95023556D01*
X155808735Y-95099559D01*
X155800950Y-95178600D01*
X155800950Y-95372200D01*
X152611250Y-95372200D01*
X152611250Y-95178600D01*
X152603465Y-95099559D01*
X152580410Y-95023556D01*
X152542970Y-94953511D01*
X152492584Y-94892116D01*
X152431189Y-94841730D01*
X152361144Y-94804290D01*
X152285141Y-94781235D01*
X152206100Y-94773450D01*
X150206100Y-94773450D01*
X150127059Y-94781235D01*
X150051056Y-94804290D01*
X149981011Y-94841730D01*
X149919616Y-94892116D01*
X149869230Y-94953511D01*
X149831790Y-95023556D01*
X149808735Y-95099559D01*
X149800950Y-95178600D01*
X149800950Y-96251262D01*
X147518795Y-97912200D01*
X147240500Y-97912200D01*
X147240500Y-97882653D01*
X147224376Y-97718939D01*
X147160653Y-97508874D01*
X147057173Y-97315277D01*
X146917913Y-97145587D01*
X146748223Y-97006327D01*
X146554626Y-96902847D01*
X146344561Y-96839124D01*
X146126100Y-96817608D01*
X145907640Y-96839124D01*
X145697575Y-96902847D01*
X145503978Y-97006327D01*
X145334288Y-97145587D01*
X145195028Y-97315277D01*
X145091548Y-97508874D01*
X145027824Y-97718939D01*
X145011700Y-97882653D01*
X144953422Y-97882653D01*
X144925683Y-97645451D01*
X144842987Y-97389721D01*
X144711989Y-97155038D01*
X144537724Y-96950421D01*
X144326889Y-96783733D01*
X144087586Y-96661380D01*
X143829011Y-96588063D01*
X143825197Y-96587613D01*
X143611100Y-96731759D01*
X143561100Y-96731759D01*
X143347003Y-96587613D01*
X143343189Y-96588063D01*
X143084614Y-96661380D01*
X142845311Y-96783733D01*
X142634476Y-96950421D01*
X142460211Y-97155038D01*
X142329213Y-97389721D01*
X142246517Y-97645451D01*
X142215300Y-97912400D01*
X130495956Y-97912400D01*
X130564971Y-97883813D01*
X130893066Y-97664587D01*
X131172087Y-97385566D01*
X131391313Y-97057471D01*
X131542319Y-96692912D01*
X131619300Y-96305898D01*
X131619300Y-95911302D01*
X131542319Y-95524288D01*
X131391313Y-95159729D01*
X131172087Y-94831634D01*
X130893066Y-94552613D01*
X130564971Y-94333387D01*
X130200412Y-94182381D01*
X129813398Y-94105400D01*
X129418802Y-94105400D01*
X129031788Y-94182381D01*
X128667229Y-94333387D01*
X128339134Y-94552613D01*
X128060113Y-94831634D01*
X127840887Y-95159729D01*
X127689881Y-95524288D01*
X127612900Y-95911302D01*
X126084300Y-95911302D01*
X126084300Y-92586800D01*
X170917901Y-92586800D01*
X170917900Y-117420400D01*
X170917900Y-117420400D01*
G37*
X170917900Y-117420400D02*
X126084300Y-117420400D01*
X126084300Y-113691302D01*
X127612900Y-113691302D01*
X127612900Y-114085898D01*
X127689881Y-114472912D01*
X127840887Y-114837471D01*
X128060113Y-115165566D01*
X128339134Y-115444587D01*
X128667229Y-115663813D01*
X129031788Y-115814819D01*
X129418802Y-115891800D01*
X129813398Y-115891800D01*
X130200412Y-115814819D01*
X130564971Y-115663813D01*
X130893066Y-115444587D01*
X131172087Y-115165566D01*
X131391313Y-114837471D01*
X131542319Y-114472912D01*
X131619300Y-114085898D01*
X131619300Y-113913600D01*
X134595300Y-113913600D01*
X134595300Y-114624800D01*
X134626517Y-114891749D01*
X134709213Y-115147479D01*
X134840211Y-115382162D01*
X135014476Y-115586779D01*
X135225311Y-115753467D01*
X135464614Y-115875820D01*
X135723189Y-115949137D01*
X135727003Y-115949587D01*
X135941100Y-115805441D01*
X135941100Y-113913600D01*
X135991100Y-113913600D01*
X135991100Y-115805441D01*
X136205197Y-115949587D01*
X136209011Y-115949137D01*
X136467586Y-115875820D01*
X136706889Y-115753467D01*
X136917724Y-115586779D01*
X137091989Y-115382162D01*
X137222987Y-115147479D01*
X137305683Y-114891749D01*
X137336900Y-114624800D01*
X137336900Y-113913600D01*
X135991100Y-113913600D01*
X135941100Y-113913600D01*
X134595300Y-113913600D01*
X131619300Y-113913600D01*
X131619300Y-113691302D01*
X131542319Y-113304288D01*
X131479405Y-113152400D01*
X134595300Y-113152400D01*
X134595300Y-113863600D01*
X135941100Y-113863600D01*
X135941100Y-111971759D01*
X135991100Y-111971759D01*
X135991100Y-113863600D01*
X137336900Y-113863600D01*
X137336900Y-113152400D01*
X137333422Y-113122654D01*
X137391700Y-113122654D01*
X137391700Y-114654547D01*
X137407824Y-114818261D01*
X137471548Y-115028326D01*
X137575028Y-115221923D01*
X137714288Y-115391613D01*
X137883978Y-115530873D01*
X138077575Y-115634353D01*
X138287640Y-115698076D01*
X138506100Y-115719592D01*
X138724561Y-115698076D01*
X138934626Y-115634353D01*
X139128223Y-115530873D01*
X139297913Y-115391613D01*
X139437173Y-115221923D01*
X139540653Y-115028326D01*
X139560575Y-114962653D01*
X139561056Y-114962910D01*
X139637059Y-114985965D01*
X139716100Y-114993750D01*
X141116100Y-114993750D01*
X141195141Y-114985965D01*
X141271144Y-114962910D01*
X141341189Y-114925470D01*
X141402584Y-114875084D01*
X141452970Y-114813689D01*
X141490410Y-114743644D01*
X141513465Y-114667641D01*
X141521250Y-114588600D01*
X141521250Y-113188600D01*
X141513465Y-113109559D01*
X141490410Y-113033556D01*
X141452970Y-112963511D01*
X141402584Y-112902116D01*
X141341189Y-112851730D01*
X141271144Y-112814290D01*
X141195141Y-112791235D01*
X141116100Y-112783450D01*
X139716100Y-112783450D01*
X139637059Y-112791235D01*
X139561056Y-112814290D01*
X139560575Y-112814547D01*
X139540653Y-112748874D01*
X139437173Y-112555277D01*
X139297913Y-112385587D01*
X139128223Y-112246327D01*
X138934625Y-112142847D01*
X138724560Y-112079124D01*
X138506100Y-112057608D01*
X138287639Y-112079124D01*
X138077574Y-112142847D01*
X137883977Y-112246327D01*
X137714287Y-112385587D01*
X137575027Y-112555277D01*
X137471547Y-112748875D01*
X137407824Y-112958940D01*
X137391700Y-113122654D01*
X137333422Y-113122654D01*
X137305683Y-112885451D01*
X137222987Y-112629721D01*
X137091989Y-112395038D01*
X136917724Y-112190421D01*
X136706889Y-112023733D01*
X136467586Y-111901380D01*
X136209011Y-111828063D01*
X136205197Y-111827613D01*
X135991100Y-111971759D01*
X135941100Y-111971759D01*
X135727003Y-111827613D01*
X135723189Y-111828063D01*
X135464614Y-111901380D01*
X135225311Y-112023733D01*
X135014476Y-112190421D01*
X134840211Y-112395038D01*
X134709213Y-112629721D01*
X134626517Y-112885451D01*
X134595300Y-113152400D01*
X131479405Y-113152400D01*
X131391313Y-112939729D01*
X131172087Y-112611634D01*
X130893066Y-112332613D01*
X130564971Y-112113387D01*
X130200412Y-111962381D01*
X129813398Y-111885400D01*
X129418802Y-111885400D01*
X129031788Y-111962381D01*
X128667229Y-112113387D01*
X128339134Y-112332613D01*
X128060113Y-112611634D01*
X127840887Y-112939729D01*
X127689881Y-113304288D01*
X127612900Y-113691302D01*
X126084300Y-113691302D01*
X126084300Y-106828600D01*
X134826111Y-106828600D01*
X134853204Y-107103675D01*
X134933440Y-107368179D01*
X135063737Y-107611948D01*
X135239087Y-107825613D01*
X135452752Y-108000963D01*
X135696521Y-108131260D01*
X135961025Y-108211496D01*
X136167171Y-108231800D01*
X138305029Y-108231800D01*
X138511175Y-108211496D01*
X138559583Y-108196812D01*
X139310950Y-109430116D01*
X139310950Y-110778600D01*
X139318735Y-110857641D01*
X139341790Y-110933644D01*
X139379230Y-111003689D01*
X139429616Y-111065084D01*
X139491011Y-111115470D01*
X139561056Y-111152910D01*
X139637059Y-111175965D01*
X139716100Y-111183750D01*
X141116100Y-111183750D01*
X141195141Y-111175965D01*
X141271144Y-111152910D01*
X141341189Y-111115470D01*
X141402584Y-111065084D01*
X141452970Y-111003689D01*
X141490410Y-110933644D01*
X141513465Y-110857641D01*
X141521250Y-110778600D01*
X141521250Y-109378600D01*
X143110950Y-109378600D01*
X143110950Y-110778600D01*
X143118735Y-110857641D01*
X143141790Y-110933644D01*
X143179230Y-111003689D01*
X143229616Y-111065084D01*
X143291011Y-111115470D01*
X143361056Y-111152910D01*
X143437059Y-111175965D01*
X143516100Y-111183750D01*
X143609701Y-111183750D01*
X143609700Y-112783450D01*
X143516100Y-112783450D01*
X143437059Y-112791235D01*
X143361056Y-112814290D01*
X143291011Y-112851730D01*
X143229616Y-112902116D01*
X143179230Y-112963511D01*
X143141790Y-113033556D01*
X143118735Y-113109559D01*
X143110950Y-113188600D01*
X143110950Y-114588600D01*
X143118735Y-114667641D01*
X143141790Y-114743644D01*
X143179230Y-114813689D01*
X143229616Y-114875084D01*
X143291011Y-114925470D01*
X143361056Y-114962910D01*
X143437059Y-114985965D01*
X143516100Y-114993750D01*
X144916100Y-114993750D01*
X144995141Y-114985965D01*
X145071144Y-114962910D01*
X145141189Y-114925470D01*
X145202584Y-114875084D01*
X145252970Y-114813689D01*
X145290410Y-114743644D01*
X145313465Y-114667641D01*
X145321250Y-114588600D01*
X145321250Y-113188600D01*
X145313465Y-113109559D01*
X145290410Y-113033556D01*
X145252970Y-112963511D01*
X145202584Y-112902116D01*
X145141189Y-112851730D01*
X145071144Y-112814290D01*
X144995141Y-112791235D01*
X144916100Y-112783450D01*
X144822500Y-112783450D01*
X144822500Y-111542578D01*
X147330950Y-114051029D01*
X147330950Y-115238600D01*
X147338735Y-115317641D01*
X147361790Y-115393644D01*
X147399230Y-115463689D01*
X147449616Y-115525084D01*
X147511011Y-115575470D01*
X147581056Y-115612910D01*
X147657059Y-115635965D01*
X147736100Y-115643750D01*
X149336100Y-115643750D01*
X149415141Y-115635965D01*
X149491144Y-115612910D01*
X149561189Y-115575470D01*
X149622584Y-115525084D01*
X149672970Y-115463689D01*
X149710410Y-115393644D01*
X149733465Y-115317641D01*
X149741250Y-115238600D01*
X149741250Y-114078500D01*
X149876500Y-114078500D01*
X149876500Y-115303565D01*
X149901848Y-115430998D01*
X149951570Y-115551038D01*
X150023755Y-115659070D01*
X150115629Y-115750945D01*
X150223662Y-115823130D01*
X150343702Y-115872852D01*
X150471135Y-115898200D01*
X151146200Y-115898200D01*
X151311100Y-115733300D01*
X151311100Y-113913600D01*
X151361100Y-113913600D01*
X151361100Y-115733300D01*
X151526000Y-115898200D01*
X152201065Y-115898200D01*
X152328498Y-115872852D01*
X152448538Y-115823130D01*
X152556571Y-115750945D01*
X152648445Y-115659070D01*
X152720630Y-115551038D01*
X152770352Y-115430998D01*
X152795700Y-115303565D01*
X152795700Y-114078500D01*
X152630800Y-113913600D01*
X151361100Y-113913600D01*
X151311100Y-113913600D01*
X150041400Y-113913600D01*
X149876500Y-114078500D01*
X149741250Y-114078500D01*
X149741250Y-112538600D01*
X149734852Y-112473635D01*
X149876500Y-112473635D01*
X149876500Y-113698700D01*
X150041400Y-113863600D01*
X151311100Y-113863600D01*
X151311100Y-112043900D01*
X151361100Y-112043900D01*
X151361100Y-113863600D01*
X152630800Y-113863600D01*
X152795700Y-113698700D01*
X152795700Y-113691302D01*
X164442900Y-113691302D01*
X164442900Y-114085898D01*
X164519881Y-114472912D01*
X164670887Y-114837471D01*
X164890113Y-115165566D01*
X165169134Y-115444587D01*
X165497229Y-115663813D01*
X165861788Y-115814819D01*
X166248802Y-115891800D01*
X166643398Y-115891800D01*
X167030412Y-115814819D01*
X167394971Y-115663813D01*
X167723066Y-115444587D01*
X168002087Y-115165566D01*
X168221313Y-114837471D01*
X168372319Y-114472912D01*
X168449300Y-114085898D01*
X168449300Y-113691302D01*
X168372319Y-113304288D01*
X168221313Y-112939729D01*
X168002087Y-112611634D01*
X167723066Y-112332613D01*
X167394971Y-112113387D01*
X167030412Y-111962381D01*
X166643398Y-111885400D01*
X166248802Y-111885400D01*
X165861788Y-111962381D01*
X165497229Y-112113387D01*
X165169134Y-112332613D01*
X164890113Y-112611634D01*
X164670887Y-112939729D01*
X164519881Y-113304288D01*
X164442900Y-113691302D01*
X152795700Y-113691302D01*
X152795700Y-112473635D01*
X152770352Y-112346202D01*
X152720630Y-112226162D01*
X152648445Y-112118130D01*
X152556571Y-112026255D01*
X152448538Y-111954070D01*
X152328498Y-111904348D01*
X152201065Y-111879000D01*
X151526000Y-111879000D01*
X151361100Y-112043900D01*
X151311100Y-112043900D01*
X151146200Y-111879000D01*
X150471135Y-111879000D01*
X150343702Y-111904348D01*
X150223662Y-111954070D01*
X150115629Y-112026255D01*
X150023755Y-112118130D01*
X149951570Y-112226162D01*
X149901848Y-112346202D01*
X149876500Y-112473635D01*
X149734852Y-112473635D01*
X149733465Y-112459559D01*
X149710410Y-112383556D01*
X149672970Y-112313511D01*
X149622584Y-112252116D01*
X149561189Y-112201730D01*
X149491144Y-112164290D01*
X149415141Y-112141235D01*
X149336100Y-112133450D01*
X147736100Y-112133450D01*
X147657059Y-112141235D01*
X147581056Y-112164290D01*
X147511011Y-112201730D01*
X147449616Y-112252116D01*
X147399230Y-112313511D01*
X147367657Y-112372579D01*
X145321250Y-110326172D01*
X145321250Y-109378600D01*
X145313465Y-109299559D01*
X145299717Y-109254238D01*
X145832886Y-108175000D01*
X147036580Y-108175000D01*
X147043735Y-108247641D01*
X147066790Y-108323644D01*
X147104230Y-108393689D01*
X147154616Y-108455084D01*
X147216011Y-108505470D01*
X147286056Y-108542910D01*
X147362059Y-108565965D01*
X147441100Y-108573750D01*
X147868518Y-108573750D01*
X147878755Y-108589070D01*
X147970629Y-108680945D01*
X148078662Y-108753130D01*
X148198702Y-108802852D01*
X148326135Y-108828200D01*
X148476200Y-108828200D01*
X148641100Y-108663300D01*
X148641100Y-107593600D01*
X148621100Y-107593600D01*
X148621100Y-107543600D01*
X148641100Y-107543600D01*
X148641100Y-106473900D01*
X148691100Y-106473900D01*
X148691100Y-107543600D01*
X148711100Y-107543600D01*
X148711100Y-107593600D01*
X148691100Y-107593600D01*
X148691100Y-108663300D01*
X148856000Y-108828200D01*
X149006065Y-108828200D01*
X149133498Y-108802852D01*
X149253538Y-108753130D01*
X149361571Y-108680945D01*
X149453445Y-108589070D01*
X149463682Y-108573750D01*
X149763672Y-108573750D01*
X151272800Y-110082879D01*
X151272800Y-110197115D01*
X151319042Y-110429590D01*
X151409750Y-110648576D01*
X151541436Y-110845659D01*
X151709041Y-111013264D01*
X151906124Y-111144950D01*
X152125110Y-111235658D01*
X152357585Y-111281900D01*
X152594615Y-111281900D01*
X152827090Y-111235658D01*
X153046076Y-111144950D01*
X153243159Y-111013264D01*
X153410764Y-110845659D01*
X153542450Y-110648576D01*
X153633158Y-110429590D01*
X153679400Y-110197115D01*
X153679400Y-109960085D01*
X158892800Y-109960085D01*
X158892800Y-110197115D01*
X158939042Y-110429590D01*
X159029750Y-110648576D01*
X159161436Y-110845659D01*
X159329041Y-111013264D01*
X159526124Y-111144950D01*
X159745110Y-111235658D01*
X159977585Y-111281900D01*
X160214615Y-111281900D01*
X160447090Y-111235658D01*
X160666076Y-111144950D01*
X160863159Y-111013264D01*
X161030764Y-110845659D01*
X161162450Y-110648576D01*
X161253158Y-110429590D01*
X161299400Y-110197115D01*
X161299400Y-109960085D01*
X161261704Y-109770574D01*
X163043827Y-107988452D01*
X163066964Y-107969464D01*
X163142743Y-107877128D01*
X163199051Y-107771782D01*
X163233726Y-107657475D01*
X163242500Y-107568390D01*
X163242500Y-107568381D01*
X163245433Y-107538601D01*
X163242500Y-107508821D01*
X163242500Y-106333750D01*
X163536100Y-106333750D01*
X163615141Y-106325965D01*
X163691144Y-106302910D01*
X163761189Y-106265470D01*
X163822584Y-106215084D01*
X163872970Y-106153689D01*
X163910410Y-106083644D01*
X163933465Y-106007641D01*
X163941250Y-105928600D01*
X163941250Y-104328600D01*
X163933465Y-104249559D01*
X163910410Y-104173556D01*
X163872970Y-104103511D01*
X163822584Y-104042116D01*
X163761189Y-103991730D01*
X163691144Y-103954290D01*
X163615141Y-103931235D01*
X163536100Y-103923450D01*
X161736100Y-103923450D01*
X161657059Y-103931235D01*
X161581056Y-103954290D01*
X161511011Y-103991730D01*
X161449616Y-104042116D01*
X161399230Y-104103511D01*
X161361790Y-104173556D01*
X161338735Y-104249559D01*
X161330950Y-104328600D01*
X161330950Y-105928600D01*
X161338735Y-106007641D01*
X161361790Y-106083644D01*
X161399230Y-106153689D01*
X161449616Y-106215084D01*
X161511011Y-106265470D01*
X161581056Y-106302910D01*
X161657059Y-106325965D01*
X161736100Y-106333750D01*
X162029700Y-106333750D01*
X162029700Y-107287421D01*
X160404126Y-108912996D01*
X160214615Y-108875300D01*
X159977585Y-108875300D01*
X159745110Y-108921542D01*
X159526124Y-109012250D01*
X159329041Y-109143936D01*
X159161436Y-109311541D01*
X159029750Y-109508624D01*
X158939042Y-109727610D01*
X158892800Y-109960085D01*
X153679400Y-109960085D01*
X153633158Y-109727610D01*
X153542450Y-109508624D01*
X153410764Y-109311541D01*
X153243159Y-109143936D01*
X153046076Y-109012250D01*
X152827090Y-108921542D01*
X152594615Y-108875300D01*
X152357585Y-108875300D01*
X152125110Y-108921542D01*
X151914047Y-109008968D01*
X150296250Y-107391172D01*
X150296250Y-106968600D01*
X150288465Y-106889559D01*
X150265410Y-106813556D01*
X150227970Y-106743511D01*
X150177584Y-106682116D01*
X150116189Y-106631730D01*
X150046144Y-106594290D01*
X149970141Y-106571235D01*
X149891100Y-106563450D01*
X149463682Y-106563450D01*
X149453445Y-106548130D01*
X149361571Y-106456255D01*
X149253538Y-106384070D01*
X149133498Y-106334348D01*
X149006065Y-106309000D01*
X148856000Y-106309000D01*
X148691100Y-106473900D01*
X148641100Y-106473900D01*
X148476200Y-106309000D01*
X148326135Y-106309000D01*
X148198702Y-106334348D01*
X148078662Y-106384070D01*
X147970629Y-106456255D01*
X147878755Y-106548130D01*
X147868518Y-106563450D01*
X147441100Y-106563450D01*
X147362059Y-106571235D01*
X147286056Y-106594290D01*
X147216011Y-106631730D01*
X147154616Y-106682116D01*
X147104230Y-106743511D01*
X147066790Y-106813556D01*
X147043735Y-106889559D01*
X147036580Y-106962200D01*
X145506030Y-106962200D01*
X145496381Y-106960600D01*
X145446414Y-106962200D01*
X145426310Y-106962200D01*
X145416625Y-106963154D01*
X145376992Y-106964423D01*
X145357324Y-106968994D01*
X145337225Y-106970974D01*
X145299266Y-106982489D01*
X145260643Y-106991466D01*
X145242246Y-106999786D01*
X145222918Y-107005649D01*
X145187936Y-107024347D01*
X145151805Y-107040687D01*
X145135385Y-107052436D01*
X145117572Y-107061957D01*
X145086909Y-107087122D01*
X145054661Y-107110196D01*
X145040846Y-107124925D01*
X145025236Y-107137736D01*
X145000079Y-107168389D01*
X144972944Y-107197320D01*
X144962267Y-107214463D01*
X144949457Y-107230072D01*
X144930763Y-107265046D01*
X144925620Y-107273304D01*
X144916720Y-107291319D01*
X144893149Y-107335418D01*
X144890309Y-107344781D01*
X144085708Y-108973450D01*
X143516100Y-108973450D01*
X143437059Y-108981235D01*
X143361056Y-109004290D01*
X143291011Y-109041730D01*
X143229616Y-109092116D01*
X143179230Y-109153511D01*
X143141790Y-109223556D01*
X143118735Y-109299559D01*
X143110950Y-109378600D01*
X141521250Y-109378600D01*
X141513465Y-109299559D01*
X141490410Y-109223556D01*
X141452970Y-109153511D01*
X141402584Y-109092116D01*
X141341189Y-109041730D01*
X141271144Y-109004290D01*
X141195141Y-108981235D01*
X141116100Y-108973450D01*
X140452883Y-108973450D01*
X139508917Y-107424012D01*
X139538760Y-107368179D01*
X139618996Y-107103675D01*
X139646089Y-106828600D01*
X139618996Y-106553525D01*
X139538760Y-106289021D01*
X139408463Y-106045252D01*
X139233113Y-105831587D01*
X139019448Y-105656237D01*
X138775679Y-105525940D01*
X138511175Y-105445704D01*
X138305029Y-105425400D01*
X136167171Y-105425400D01*
X135961025Y-105445704D01*
X135696521Y-105525940D01*
X135452752Y-105656237D01*
X135239087Y-105831587D01*
X135063737Y-106045252D01*
X134933440Y-106289021D01*
X134853204Y-106553525D01*
X134826111Y-106828600D01*
X126084300Y-106828600D01*
X126084300Y-104797528D01*
X140632900Y-104797528D01*
X140653204Y-105003674D01*
X140733440Y-105268178D01*
X140863737Y-105511947D01*
X141039087Y-105725612D01*
X141252752Y-105900963D01*
X141496521Y-106031260D01*
X141761025Y-106111496D01*
X142036100Y-106138589D01*
X142311174Y-106111496D01*
X142575678Y-106031260D01*
X142819447Y-105900963D01*
X143033112Y-105725613D01*
X143208463Y-105511948D01*
X143338760Y-105268179D01*
X143418996Y-105003675D01*
X143439300Y-104797529D01*
X143439300Y-102659671D01*
X143418996Y-102453525D01*
X143338760Y-102189021D01*
X143208463Y-101945252D01*
X143033113Y-101731587D01*
X142819448Y-101556237D01*
X142575679Y-101425940D01*
X142311175Y-101345704D01*
X142036100Y-101318611D01*
X141761026Y-101345704D01*
X141496522Y-101425940D01*
X141252753Y-101556237D01*
X141039088Y-101731587D01*
X140863738Y-101945252D01*
X140733441Y-102189021D01*
X140653205Y-102453525D01*
X140632901Y-102659671D01*
X140632900Y-104797528D01*
X126084300Y-104797528D01*
X126084300Y-101012881D01*
X134601029Y-101012881D01*
X134603511Y-101027852D01*
X134693262Y-101340604D01*
X134842303Y-101629837D01*
X135044907Y-101884436D01*
X135293288Y-102094617D01*
X135577901Y-102252303D01*
X135887808Y-102351434D01*
X136211100Y-102388200D01*
X137211100Y-102388200D01*
X137211100Y-100753600D01*
X137261100Y-100753600D01*
X137261100Y-102388200D01*
X138261100Y-102388200D01*
X138584392Y-102351434D01*
X138894299Y-102252303D01*
X139178912Y-102094617D01*
X139427293Y-101884436D01*
X139629897Y-101629837D01*
X139778938Y-101340604D01*
X139868689Y-101027852D01*
X139871171Y-101012881D01*
X139730591Y-100753600D01*
X137261100Y-100753600D01*
X137211100Y-100753600D01*
X134741609Y-100753600D01*
X134601029Y-101012881D01*
X126084300Y-101012881D01*
X126084300Y-100444319D01*
X134601029Y-100444319D01*
X134741609Y-100703600D01*
X137211100Y-100703600D01*
X137211100Y-99069000D01*
X137261100Y-99069000D01*
X137261100Y-100703600D01*
X139730591Y-100703600D01*
X139871171Y-100444319D01*
X139868689Y-100429348D01*
X139778938Y-100116596D01*
X139629897Y-99827363D01*
X139427293Y-99572764D01*
X139178912Y-99362583D01*
X138894299Y-99204897D01*
X138584392Y-99105766D01*
X138261100Y-99069000D01*
X137261100Y-99069000D01*
X137211100Y-99069000D01*
X136211100Y-99069000D01*
X135887808Y-99105766D01*
X135577901Y-99204897D01*
X135293288Y-99362583D01*
X135044907Y-99572764D01*
X134842303Y-99827363D01*
X134693262Y-100116596D01*
X134603511Y-100429348D01*
X134601029Y-100444319D01*
X126084300Y-100444319D01*
X126084300Y-98673600D01*
X142215300Y-98673600D01*
X142215300Y-99384800D01*
X142246517Y-99651749D01*
X142329213Y-99907479D01*
X142460211Y-100142162D01*
X142634476Y-100346779D01*
X142845311Y-100513467D01*
X143084614Y-100635820D01*
X143343189Y-100709137D01*
X143347003Y-100709587D01*
X143561100Y-100565441D01*
X143561100Y-98673600D01*
X143611100Y-98673600D01*
X143611100Y-100565441D01*
X143825197Y-100709587D01*
X143829011Y-100709137D01*
X144087586Y-100635820D01*
X144326889Y-100513467D01*
X144537724Y-100346779D01*
X144711989Y-100142162D01*
X144842987Y-99907479D01*
X144925683Y-99651749D01*
X144956900Y-99384800D01*
X144956900Y-98673600D01*
X143611100Y-98673600D01*
X143561100Y-98673600D01*
X142215300Y-98673600D01*
X126084300Y-98673600D01*
X126084300Y-95911302D01*
X127612900Y-95911302D01*
X127612900Y-96305898D01*
X127689881Y-96692912D01*
X127840887Y-97057471D01*
X128060113Y-97385566D01*
X128339134Y-97664587D01*
X128667229Y-97883813D01*
X129031788Y-98034819D01*
X129418802Y-98111800D01*
X129813398Y-98111800D01*
X130200412Y-98034819D01*
X130495956Y-97912400D01*
X142215300Y-97912400D01*
X142215300Y-98623600D01*
X143561100Y-98623600D01*
X143561100Y-96731759D01*
X143611100Y-96731759D01*
X143611100Y-98623600D01*
X144956900Y-98623600D01*
X144956900Y-97912400D01*
X144953422Y-97882653D01*
X145011700Y-97882653D01*
X145011700Y-99414546D01*
X145027824Y-99578260D01*
X145091547Y-99788325D01*
X145195027Y-99981923D01*
X145334287Y-100151613D01*
X145503977Y-100290873D01*
X145697574Y-100394353D01*
X145907639Y-100458076D01*
X146126100Y-100479592D01*
X146344560Y-100458076D01*
X146554625Y-100394353D01*
X146748223Y-100290873D01*
X146917913Y-100151613D01*
X147057173Y-99981923D01*
X147109701Y-99883651D01*
X147109700Y-104136846D01*
X147104230Y-104143511D01*
X147066790Y-104213556D01*
X147043735Y-104289559D01*
X147035950Y-104368600D01*
X147035950Y-105568600D01*
X147043735Y-105647641D01*
X147066790Y-105723644D01*
X147104230Y-105793689D01*
X147154616Y-105855084D01*
X147216011Y-105905470D01*
X147286056Y-105942910D01*
X147362059Y-105965965D01*
X147441100Y-105973750D01*
X147991100Y-105973750D01*
X148070141Y-105965965D01*
X148146144Y-105942910D01*
X148216189Y-105905470D01*
X148277584Y-105855084D01*
X148327970Y-105793689D01*
X148365410Y-105723644D01*
X148388465Y-105647641D01*
X148396250Y-105568600D01*
X148396250Y-104368600D01*
X148935950Y-104368600D01*
X148935950Y-105568600D01*
X148943735Y-105647641D01*
X148966790Y-105723644D01*
X149004230Y-105793689D01*
X149054616Y-105855084D01*
X149116011Y-105905470D01*
X149186056Y-105942910D01*
X149262059Y-105965965D01*
X149341100Y-105973750D01*
X149891100Y-105973750D01*
X149970141Y-105965965D01*
X150046144Y-105942910D01*
X150116189Y-105905470D01*
X150177584Y-105855084D01*
X150227970Y-105793689D01*
X150265410Y-105723644D01*
X150288465Y-105647641D01*
X150292665Y-105605000D01*
X151176310Y-105605000D01*
X151206100Y-105607934D01*
X151235890Y-105605000D01*
X153586318Y-105605000D01*
X153616100Y-105607933D01*
X153645882Y-105605000D01*
X153645890Y-105605000D01*
X153734975Y-105596226D01*
X153849282Y-105561551D01*
X153954628Y-105505243D01*
X154046964Y-105429464D01*
X154065958Y-105406320D01*
X154338528Y-105133750D01*
X155686100Y-105133750D01*
X155765141Y-105125965D01*
X155841144Y-105102910D01*
X155911189Y-105065470D01*
X155972584Y-105015084D01*
X156022970Y-104953689D01*
X156060410Y-104883644D01*
X156083465Y-104807641D01*
X156091250Y-104728600D01*
X156091250Y-103918500D01*
X156226500Y-103918500D01*
X156226500Y-104793565D01*
X156251848Y-104920998D01*
X156301570Y-105041038D01*
X156373755Y-105149070D01*
X156465629Y-105240945D01*
X156573662Y-105313130D01*
X156693702Y-105362852D01*
X156821135Y-105388200D01*
X157496200Y-105388200D01*
X157661100Y-105223300D01*
X157661100Y-103753600D01*
X157711100Y-103753600D01*
X157711100Y-105223300D01*
X157876000Y-105388200D01*
X158551065Y-105388200D01*
X158678498Y-105362852D01*
X158798538Y-105313130D01*
X158906571Y-105240945D01*
X158998445Y-105149070D01*
X159070630Y-105041038D01*
X159120352Y-104920998D01*
X159145700Y-104793565D01*
X159145700Y-103918500D01*
X158980800Y-103753600D01*
X157711100Y-103753600D01*
X157661100Y-103753600D01*
X156391400Y-103753600D01*
X156226500Y-103918500D01*
X156091250Y-103918500D01*
X156091250Y-102728600D01*
X156084852Y-102663635D01*
X156226500Y-102663635D01*
X156226500Y-103538700D01*
X156391400Y-103703600D01*
X157661100Y-103703600D01*
X157661100Y-102233900D01*
X157711100Y-102233900D01*
X157711100Y-103703600D01*
X158980800Y-103703600D01*
X159145700Y-103538700D01*
X159145700Y-102663635D01*
X159120352Y-102536202D01*
X159070630Y-102416162D01*
X158998445Y-102308130D01*
X158906571Y-102216255D01*
X158798538Y-102144070D01*
X158678498Y-102094348D01*
X158551065Y-102069000D01*
X157876000Y-102069000D01*
X157711100Y-102233900D01*
X157661100Y-102233900D01*
X157496200Y-102069000D01*
X156821135Y-102069000D01*
X156693702Y-102094348D01*
X156573662Y-102144070D01*
X156465629Y-102216255D01*
X156373755Y-102308130D01*
X156301570Y-102416162D01*
X156251848Y-102536202D01*
X156226500Y-102663635D01*
X156084852Y-102663635D01*
X156083465Y-102649559D01*
X156060410Y-102573556D01*
X156022970Y-102503511D01*
X155972584Y-102442116D01*
X155911189Y-102391730D01*
X155841144Y-102354290D01*
X155765141Y-102331235D01*
X155686100Y-102323450D01*
X154086100Y-102323450D01*
X154007059Y-102331235D01*
X153931056Y-102354290D01*
X153861011Y-102391730D01*
X153799616Y-102442116D01*
X153749230Y-102503511D01*
X153711790Y-102573556D01*
X153688735Y-102649559D01*
X153680950Y-102728600D01*
X153680950Y-104076172D01*
X153364922Y-104392200D01*
X151812500Y-104392200D01*
X151812500Y-99983750D01*
X152206100Y-99983750D01*
X152285141Y-99975965D01*
X152361144Y-99952910D01*
X152431189Y-99915470D01*
X152492584Y-99865084D01*
X152542970Y-99803689D01*
X152580410Y-99733644D01*
X152603465Y-99657641D01*
X152611250Y-99578600D01*
X152611250Y-98968500D01*
X155546500Y-98968500D01*
X155546500Y-99643565D01*
X155571848Y-99770998D01*
X155621570Y-99891038D01*
X155693755Y-99999071D01*
X155785630Y-100090945D01*
X155893662Y-100163130D01*
X156013702Y-100212852D01*
X156141135Y-100238200D01*
X157366200Y-100238200D01*
X157531100Y-100073300D01*
X157531100Y-98803600D01*
X157581100Y-98803600D01*
X157581100Y-100073300D01*
X157746000Y-100238200D01*
X158971065Y-100238200D01*
X159098498Y-100212852D01*
X159218538Y-100163130D01*
X159326570Y-100090945D01*
X159418445Y-99999071D01*
X159490630Y-99891038D01*
X159540352Y-99770998D01*
X159565700Y-99643565D01*
X159565700Y-98968500D01*
X159400800Y-98803600D01*
X157581100Y-98803600D01*
X157531100Y-98803600D01*
X155711400Y-98803600D01*
X155546500Y-98968500D01*
X152611250Y-98968500D01*
X152611250Y-97978600D01*
X152604852Y-97913635D01*
X155546500Y-97913635D01*
X155546500Y-98588700D01*
X155711400Y-98753600D01*
X157531100Y-98753600D01*
X157531100Y-97483900D01*
X157581100Y-97483900D01*
X157581100Y-98753600D01*
X159400800Y-98753600D01*
X159565700Y-98588700D01*
X159565700Y-97913635D01*
X159540352Y-97786202D01*
X159490630Y-97666162D01*
X159418445Y-97558129D01*
X159326570Y-97466255D01*
X159218538Y-97394070D01*
X159098498Y-97344348D01*
X158971065Y-97319000D01*
X157746000Y-97319000D01*
X157581100Y-97483900D01*
X157531100Y-97483900D01*
X157366200Y-97319000D01*
X156141135Y-97319000D01*
X156013702Y-97344348D01*
X155893662Y-97394070D01*
X155785630Y-97466255D01*
X155693755Y-97558129D01*
X155621570Y-97666162D01*
X155571848Y-97786202D01*
X155546500Y-97913635D01*
X152604852Y-97913635D01*
X152603465Y-97899559D01*
X152580410Y-97823556D01*
X152542970Y-97753511D01*
X152492584Y-97692116D01*
X152431189Y-97641730D01*
X152361144Y-97604290D01*
X152285141Y-97581235D01*
X152206100Y-97573450D01*
X150206100Y-97573450D01*
X150127059Y-97581235D01*
X150051056Y-97604290D01*
X149981011Y-97641730D01*
X149919616Y-97692116D01*
X149869230Y-97753511D01*
X149831790Y-97823556D01*
X149808735Y-97899559D01*
X149800950Y-97978600D01*
X149800950Y-99578600D01*
X149808735Y-99657641D01*
X149831790Y-99733644D01*
X149869230Y-99803689D01*
X149919616Y-99865084D01*
X149981011Y-99915470D01*
X150051056Y-99952910D01*
X150127059Y-99975965D01*
X150206100Y-99983750D01*
X150599700Y-99983750D01*
X150599701Y-104392200D01*
X150296250Y-104392200D01*
X150296250Y-104368600D01*
X150288465Y-104289559D01*
X150265410Y-104213556D01*
X150227970Y-104143511D01*
X150177584Y-104082116D01*
X150116189Y-104031730D01*
X150046144Y-103994290D01*
X149970141Y-103971235D01*
X149891100Y-103963450D01*
X149341100Y-103963450D01*
X149262059Y-103971235D01*
X149186056Y-103994290D01*
X149116011Y-104031730D01*
X149054616Y-104082116D01*
X149004230Y-104143511D01*
X148966790Y-104213556D01*
X148943735Y-104289559D01*
X148935950Y-104368600D01*
X148396250Y-104368600D01*
X148388465Y-104289559D01*
X148365410Y-104213556D01*
X148327970Y-104143511D01*
X148322500Y-104136846D01*
X148322500Y-98827263D01*
X150580714Y-97183750D01*
X152206100Y-97183750D01*
X152285141Y-97175965D01*
X152361144Y-97152910D01*
X152431189Y-97115470D01*
X152492584Y-97065084D01*
X152542970Y-97003689D01*
X152580410Y-96933644D01*
X152603465Y-96857641D01*
X152611250Y-96778600D01*
X152611250Y-96585000D01*
X155800950Y-96585000D01*
X155800950Y-96778600D01*
X155808735Y-96857641D01*
X155831790Y-96933644D01*
X155869230Y-97003689D01*
X155919616Y-97065084D01*
X155981011Y-97115470D01*
X156051056Y-97152910D01*
X156127059Y-97175965D01*
X156206100Y-97183750D01*
X158906100Y-97183750D01*
X158985141Y-97175965D01*
X159061144Y-97152910D01*
X159131189Y-97115470D01*
X159192584Y-97065084D01*
X159242970Y-97003689D01*
X159280410Y-96933644D01*
X159303465Y-96857641D01*
X159311250Y-96778600D01*
X159311250Y-96715000D01*
X159844922Y-96715000D01*
X162029701Y-98899780D01*
X162029700Y-101123450D01*
X161736100Y-101123450D01*
X161657059Y-101131235D01*
X161581056Y-101154290D01*
X161511011Y-101191730D01*
X161449616Y-101242116D01*
X161399230Y-101303511D01*
X161361790Y-101373556D01*
X161338735Y-101449559D01*
X161330950Y-101528600D01*
X161330950Y-103128600D01*
X161338735Y-103207641D01*
X161361790Y-103283644D01*
X161399230Y-103353689D01*
X161449616Y-103415084D01*
X161511011Y-103465470D01*
X161581056Y-103502910D01*
X161657059Y-103525965D01*
X161736100Y-103533750D01*
X163536100Y-103533750D01*
X163615141Y-103525965D01*
X163691144Y-103502910D01*
X163761189Y-103465470D01*
X163822584Y-103415084D01*
X163872970Y-103353689D01*
X163910410Y-103283644D01*
X163933465Y-103207641D01*
X163941250Y-103128600D01*
X163941250Y-101528600D01*
X163933465Y-101449559D01*
X163910410Y-101373556D01*
X163872970Y-101303511D01*
X163822584Y-101242116D01*
X163761189Y-101191730D01*
X163691144Y-101154290D01*
X163615141Y-101131235D01*
X163536100Y-101123450D01*
X163242500Y-101123450D01*
X163242500Y-98678379D01*
X163245433Y-98648599D01*
X163242500Y-98618819D01*
X163242500Y-98618810D01*
X163233726Y-98529725D01*
X163199051Y-98415418D01*
X163142743Y-98310072D01*
X163066964Y-98217736D01*
X163043826Y-98198747D01*
X160756381Y-95911302D01*
X164442900Y-95911302D01*
X164442900Y-96305898D01*
X164519881Y-96692912D01*
X164670887Y-97057471D01*
X164890113Y-97385566D01*
X165169134Y-97664587D01*
X165497229Y-97883813D01*
X165861788Y-98034819D01*
X166248802Y-98111800D01*
X166643398Y-98111800D01*
X167030412Y-98034819D01*
X167394971Y-97883813D01*
X167723066Y-97664587D01*
X168002087Y-97385566D01*
X168221313Y-97057471D01*
X168372319Y-96692912D01*
X168449300Y-96305898D01*
X168449300Y-95911302D01*
X168372319Y-95524288D01*
X168221313Y-95159729D01*
X168002087Y-94831634D01*
X167723066Y-94552613D01*
X167394971Y-94333387D01*
X167030412Y-94182381D01*
X166643398Y-94105400D01*
X166248802Y-94105400D01*
X165861788Y-94182381D01*
X165497229Y-94333387D01*
X165169134Y-94552613D01*
X164890113Y-94831634D01*
X164670887Y-95159729D01*
X164519881Y-95524288D01*
X164442900Y-95911302D01*
X160756381Y-95911302D01*
X160545958Y-95700880D01*
X160526964Y-95677736D01*
X160434628Y-95601957D01*
X160329282Y-95545649D01*
X160214975Y-95510974D01*
X160125890Y-95502200D01*
X160125882Y-95502200D01*
X160096100Y-95499267D01*
X160066318Y-95502200D01*
X159311250Y-95502200D01*
X159311250Y-95178600D01*
X159303465Y-95099559D01*
X159280410Y-95023556D01*
X159242970Y-94953511D01*
X159192584Y-94892116D01*
X159131189Y-94841730D01*
X159061144Y-94804290D01*
X158985141Y-94781235D01*
X158906100Y-94773450D01*
X156206100Y-94773450D01*
X156127059Y-94781235D01*
X156051056Y-94804290D01*
X155981011Y-94841730D01*
X155919616Y-94892116D01*
X155869230Y-94953511D01*
X155831790Y-95023556D01*
X155808735Y-95099559D01*
X155800950Y-95178600D01*
X155800950Y-95372200D01*
X152611250Y-95372200D01*
X152611250Y-95178600D01*
X152603465Y-95099559D01*
X152580410Y-95023556D01*
X152542970Y-94953511D01*
X152492584Y-94892116D01*
X152431189Y-94841730D01*
X152361144Y-94804290D01*
X152285141Y-94781235D01*
X152206100Y-94773450D01*
X150206100Y-94773450D01*
X150127059Y-94781235D01*
X150051056Y-94804290D01*
X149981011Y-94841730D01*
X149919616Y-94892116D01*
X149869230Y-94953511D01*
X149831790Y-95023556D01*
X149808735Y-95099559D01*
X149800950Y-95178600D01*
X149800950Y-96251262D01*
X147518795Y-97912200D01*
X147240500Y-97912200D01*
X147240500Y-97882653D01*
X147224376Y-97718939D01*
X147160653Y-97508874D01*
X147057173Y-97315277D01*
X146917913Y-97145587D01*
X146748223Y-97006327D01*
X146554626Y-96902847D01*
X146344561Y-96839124D01*
X146126100Y-96817608D01*
X145907640Y-96839124D01*
X145697575Y-96902847D01*
X145503978Y-97006327D01*
X145334288Y-97145587D01*
X145195028Y-97315277D01*
X145091548Y-97508874D01*
X145027824Y-97718939D01*
X145011700Y-97882653D01*
X144953422Y-97882653D01*
X144925683Y-97645451D01*
X144842987Y-97389721D01*
X144711989Y-97155038D01*
X144537724Y-96950421D01*
X144326889Y-96783733D01*
X144087586Y-96661380D01*
X143829011Y-96588063D01*
X143825197Y-96587613D01*
X143611100Y-96731759D01*
X143561100Y-96731759D01*
X143347003Y-96587613D01*
X143343189Y-96588063D01*
X143084614Y-96661380D01*
X142845311Y-96783733D01*
X142634476Y-96950421D01*
X142460211Y-97155038D01*
X142329213Y-97389721D01*
X142246517Y-97645451D01*
X142215300Y-97912400D01*
X130495956Y-97912400D01*
X130564971Y-97883813D01*
X130893066Y-97664587D01*
X131172087Y-97385566D01*
X131391313Y-97057471D01*
X131542319Y-96692912D01*
X131619300Y-96305898D01*
X131619300Y-95911302D01*
X131542319Y-95524288D01*
X131391313Y-95159729D01*
X131172087Y-94831634D01*
X130893066Y-94552613D01*
X130564971Y-94333387D01*
X130200412Y-94182381D01*
X129813398Y-94105400D01*
X129418802Y-94105400D01*
X129031788Y-94182381D01*
X128667229Y-94333387D01*
X128339134Y-94552613D01*
X128060113Y-94831634D01*
X127840887Y-95159729D01*
X127689881Y-95524288D01*
X127612900Y-95911302D01*
X126084300Y-95911302D01*
X126084300Y-92586800D01*
X170917901Y-92586800D01*
X170917900Y-117420400D01*
G04 #@! TD*
M02*
