G04 #@! TF.GenerationSoftware,KiCad,Pcbnew,(5.0.0)*
G04 #@! TF.CreationDate,2020-02-21T08:37:36-08:00*
G04 #@! TF.ProjectId,Battery Power Circuit V3,4261747465727920506F776572204369,rev?*
G04 #@! TF.SameCoordinates,Original*
G04 #@! TF.FileFunction,Legend,Top*
G04 #@! TF.FilePolarity,Positive*
%FSLAX46Y46*%
G04 Gerber Fmt 4.6, Leading zero omitted, Abs format (unit mm)*
G04 Created by KiCad (PCBNEW (5.0.0)) date 02/21/20 08:37:36*
%MOMM*%
%LPD*%
G01*
G04 APERTURE LIST*
%ADD10C,0.152400*%
%ADD11C,0.203200*%
%ADD12C,0.609600*%
%ADD13C,0.150000*%
%ADD14C,0.101600*%
%ADD15C,0.127000*%
G04 APERTURE END LIST*
D10*
G04 #@! TO.C,U$1*
X147294100Y-105533600D02*
X147338100Y-105533600D01*
X149994100Y-105533600D02*
X150038100Y-105533600D01*
X150038100Y-107003600D02*
X149994100Y-107003600D01*
X147338100Y-107003600D02*
X147294100Y-107003600D01*
X149188100Y-107003600D02*
X149094100Y-107003600D01*
X148238100Y-107003600D02*
X148144100Y-107003600D01*
X148144100Y-105533600D02*
X149188100Y-105533600D01*
X147294100Y-107003600D02*
X147294100Y-105533600D01*
X150038100Y-105533600D02*
X150038100Y-107003600D01*
G04 #@! TO.C,JP1*
X139776100Y-114904600D02*
X139776100Y-112872600D01*
X139776100Y-114904600D02*
X139522100Y-115158600D01*
X137490100Y-115158600D02*
X139522100Y-115158600D01*
X134950100Y-115158600D02*
X136982100Y-115158600D01*
X134950100Y-115158600D02*
X134696100Y-114904600D01*
X134696100Y-112872600D02*
X134696100Y-114904600D01*
X134950100Y-112618600D02*
X136982100Y-112618600D01*
X134950100Y-112618600D02*
X134696100Y-112872600D01*
X139776100Y-112872600D02*
X139522100Y-112618600D01*
X137490100Y-112618600D02*
X139522100Y-112618600D01*
X137236100Y-112872600D02*
X137490100Y-112618600D01*
X137236100Y-112872600D02*
X136982100Y-112618600D01*
X137236100Y-114904600D02*
X137490100Y-115158600D01*
X137236100Y-114904600D02*
X136982100Y-115158600D01*
G04 #@! TO.C,JP2*
X142316100Y-97632600D02*
X142316100Y-99664600D01*
X142316100Y-97632600D02*
X142570100Y-97378600D01*
X144602100Y-97378600D02*
X142570100Y-97378600D01*
X147142100Y-97378600D02*
X145110100Y-97378600D01*
X147142100Y-97378600D02*
X147396100Y-97632600D01*
X147396100Y-99664600D02*
X147396100Y-97632600D01*
X147142100Y-99918600D02*
X145110100Y-99918600D01*
X147142100Y-99918600D02*
X147396100Y-99664600D01*
X142316100Y-99664600D02*
X142570100Y-99918600D01*
X144602100Y-99918600D02*
X142570100Y-99918600D01*
X144856100Y-99664600D02*
X144602100Y-99918600D01*
X144856100Y-99664600D02*
X145110100Y-99918600D01*
X144856100Y-97632600D02*
X144602100Y-97378600D01*
X144856100Y-97632600D02*
X145110100Y-97378600D01*
D11*
G04 #@! TO.C,J1*
X132936100Y-106028600D02*
X132936100Y-107628600D01*
X132936100Y-93328600D02*
X132936100Y-101278600D01*
X132936100Y-107628600D02*
X134536100Y-107628600D01*
X139936100Y-107628600D02*
X141536100Y-107628600D01*
X141536100Y-107628600D02*
X141536100Y-93328600D01*
X141536100Y-93328600D02*
X132936100Y-93328600D01*
D12*
G04 #@! TO.C,J2*
X153669900Y-110078600D02*
X158902300Y-110078600D01*
G04 #@! TO.C,@HOLE0*
D13*
G04 #@! TO.C,@HOLE1*
G04 #@! TO.C,@HOLE2*
G04 #@! TO.C,@HOLE3*
G04 #@! TO.C,U$1*
D14*
X147114401Y-103099647D02*
X147114401Y-104076338D01*
X147171854Y-104191242D01*
X147229306Y-104248695D01*
X147344211Y-104306147D01*
X147574020Y-104306147D01*
X147688925Y-104248695D01*
X147746378Y-104191242D01*
X147803830Y-104076338D01*
X147803830Y-103099647D01*
X148320901Y-104248695D02*
X148493259Y-104306147D01*
X148780520Y-104306147D01*
X148895425Y-104248695D01*
X148952878Y-104191242D01*
X149010330Y-104076338D01*
X149010330Y-103961433D01*
X148952878Y-103846528D01*
X148895425Y-103789076D01*
X148780520Y-103731623D01*
X148550711Y-103674171D01*
X148435806Y-103616719D01*
X148378354Y-103559266D01*
X148320901Y-103444361D01*
X148320901Y-103329457D01*
X148378354Y-103214552D01*
X148435806Y-103157100D01*
X148550711Y-103099647D01*
X148837973Y-103099647D01*
X149010330Y-103157100D01*
X148665616Y-102927290D02*
X148665616Y-104478504D01*
X150159378Y-104306147D02*
X149469949Y-104306147D01*
X149814663Y-104306147D02*
X149814663Y-103099647D01*
X149699759Y-103272004D01*
X149584854Y-103386909D01*
X149469949Y-103444361D01*
G04 #@! TO.C,D1*
X141281774Y-112227647D02*
X141281774Y-111021147D01*
X141569036Y-111021147D01*
X141741393Y-111078600D01*
X141856298Y-111193504D01*
X141913750Y-111308409D01*
X141971202Y-111538219D01*
X141971202Y-111710576D01*
X141913750Y-111940385D01*
X141856298Y-112055290D01*
X141741393Y-112170195D01*
X141569036Y-112227647D01*
X141281774Y-112227647D01*
X143120250Y-112227647D02*
X142430821Y-112227647D01*
X142775536Y-112227647D02*
X142775536Y-111021147D01*
X142660631Y-111193504D01*
X142545726Y-111308409D01*
X142430821Y-111365861D01*
G04 #@! TO.C,D2*
X141281774Y-116037647D02*
X141281774Y-114831147D01*
X141569036Y-114831147D01*
X141741393Y-114888600D01*
X141856298Y-115003504D01*
X141913750Y-115118409D01*
X141971202Y-115348219D01*
X141971202Y-115520576D01*
X141913750Y-115750385D01*
X141856298Y-115865290D01*
X141741393Y-115980195D01*
X141569036Y-116037647D01*
X141281774Y-116037647D01*
X142430821Y-114946052D02*
X142488274Y-114888600D01*
X142603179Y-114831147D01*
X142890440Y-114831147D01*
X143005345Y-114888600D01*
X143062798Y-114946052D01*
X143120250Y-115060957D01*
X143120250Y-115175861D01*
X143062798Y-115348219D01*
X142373369Y-116037647D01*
X143120250Y-116037647D01*
G04 #@! TO.C,C1*
X149073830Y-111811242D02*
X149016378Y-111868695D01*
X148844020Y-111926147D01*
X148729116Y-111926147D01*
X148556759Y-111868695D01*
X148441854Y-111753790D01*
X148384401Y-111638885D01*
X148326949Y-111409076D01*
X148326949Y-111236719D01*
X148384401Y-111006909D01*
X148441854Y-110892004D01*
X148556759Y-110777100D01*
X148729116Y-110719647D01*
X148844020Y-110719647D01*
X149016378Y-110777100D01*
X149073830Y-110834552D01*
X150222878Y-111926147D02*
X149533449Y-111926147D01*
X149878163Y-111926147D02*
X149878163Y-110719647D01*
X149763259Y-110892004D01*
X149648354Y-111006909D01*
X149533449Y-111064361D01*
G04 #@! TO.C,C2*
X160495242Y-96918497D02*
X160552695Y-96975949D01*
X160610147Y-97148306D01*
X160610147Y-97263211D01*
X160552695Y-97435568D01*
X160437790Y-97550473D01*
X160322885Y-97607925D01*
X160093076Y-97665378D01*
X159920719Y-97665378D01*
X159690909Y-97607925D01*
X159576004Y-97550473D01*
X159461100Y-97435568D01*
X159403647Y-97263211D01*
X159403647Y-97148306D01*
X159461100Y-96975949D01*
X159518552Y-96918497D01*
X159518552Y-96458878D02*
X159461100Y-96401425D01*
X159403647Y-96286520D01*
X159403647Y-95999259D01*
X159461100Y-95884354D01*
X159518552Y-95826901D01*
X159633457Y-95769449D01*
X159748361Y-95769449D01*
X159920719Y-95826901D01*
X160610147Y-96516330D01*
X160610147Y-95769449D01*
G04 #@! TO.C,C3*
X161193742Y-103955869D02*
X161251195Y-104013321D01*
X161308647Y-104185679D01*
X161308647Y-104300583D01*
X161251195Y-104472940D01*
X161136290Y-104587845D01*
X161021385Y-104645298D01*
X160791576Y-104702750D01*
X160619219Y-104702750D01*
X160389409Y-104645298D01*
X160274504Y-104587845D01*
X160159600Y-104472940D01*
X160102147Y-104300583D01*
X160102147Y-104185679D01*
X160159600Y-104013321D01*
X160217052Y-103955869D01*
X160102147Y-103553702D02*
X160102147Y-102806821D01*
X160561766Y-103208988D01*
X160561766Y-103036631D01*
X160619219Y-102921726D01*
X160676671Y-102864274D01*
X160791576Y-102806821D01*
X161078838Y-102806821D01*
X161193742Y-102864274D01*
X161251195Y-102921726D01*
X161308647Y-103036631D01*
X161308647Y-103381345D01*
X161251195Y-103496250D01*
X161193742Y-103553702D01*
G04 #@! TO.C,R1*
X156111202Y-106147647D02*
X155709036Y-105573123D01*
X155421774Y-106147647D02*
X155421774Y-104941147D01*
X155881393Y-104941147D01*
X155996298Y-104998600D01*
X156053750Y-105056052D01*
X156111202Y-105170957D01*
X156111202Y-105343314D01*
X156053750Y-105458219D01*
X155996298Y-105515671D01*
X155881393Y-105573123D01*
X155421774Y-105573123D01*
X157260250Y-106147647D02*
X156570821Y-106147647D01*
X156915536Y-106147647D02*
X156915536Y-104941147D01*
X156800631Y-105113504D01*
X156685726Y-105228409D01*
X156570821Y-105285861D01*
G04 #@! TO.C,R2*
X149878647Y-97605869D02*
X149304123Y-98008036D01*
X149878647Y-98295298D02*
X148672147Y-98295298D01*
X148672147Y-97835679D01*
X148729600Y-97720774D01*
X148787052Y-97663321D01*
X148901957Y-97605869D01*
X149074314Y-97605869D01*
X149189219Y-97663321D01*
X149246671Y-97720774D01*
X149304123Y-97835679D01*
X149304123Y-98295298D01*
X148787052Y-97146250D02*
X148729600Y-97088798D01*
X148672147Y-96973893D01*
X148672147Y-96686631D01*
X148729600Y-96571726D01*
X148787052Y-96514274D01*
X148901957Y-96456821D01*
X149016861Y-96456821D01*
X149189219Y-96514274D01*
X149878647Y-97203702D01*
X149878647Y-96456821D01*
G04 #@! TO.C,JP1*
D15*
X137050740Y-115482147D02*
X137050740Y-116343933D01*
X136993288Y-116516290D01*
X136878383Y-116631195D01*
X136706026Y-116688647D01*
X136591121Y-116688647D01*
X137625264Y-116688647D02*
X137625264Y-115482147D01*
X138084883Y-115482147D01*
X138199788Y-115539600D01*
X138257240Y-115597052D01*
X138314692Y-115711957D01*
X138314692Y-115884314D01*
X138257240Y-115999219D01*
X138199788Y-116056671D01*
X138084883Y-116114123D01*
X137625264Y-116114123D01*
X139463740Y-116688647D02*
X138774311Y-116688647D01*
X139119026Y-116688647D02*
X139119026Y-115482147D01*
X139004121Y-115654504D01*
X138889216Y-115769409D01*
X138774311Y-115826861D01*
G04 #@! TO.C,JP2*
X143030626Y-95733647D02*
X143030626Y-96595433D01*
X142973173Y-96767790D01*
X142858269Y-96882695D01*
X142685911Y-96940147D01*
X142571007Y-96940147D01*
X143605150Y-96940147D02*
X143605150Y-95733647D01*
X144064769Y-95733647D01*
X144179673Y-95791100D01*
X144237126Y-95848552D01*
X144294578Y-95963457D01*
X144294578Y-96135814D01*
X144237126Y-96250719D01*
X144179673Y-96308171D01*
X144064769Y-96365623D01*
X143605150Y-96365623D01*
X144754197Y-95848552D02*
X144811650Y-95791100D01*
X144926554Y-95733647D01*
X145213816Y-95733647D01*
X145328721Y-95791100D01*
X145386173Y-95848552D01*
X145443626Y-95963457D01*
X145443626Y-96078361D01*
X145386173Y-96250719D01*
X144696745Y-96940147D01*
X145443626Y-96940147D01*
G04 #@! TO.C,J1*
D14*
X139543750Y-108751147D02*
X139543750Y-109612933D01*
X139486298Y-109785290D01*
X139371393Y-109900195D01*
X139199036Y-109957647D01*
X139084131Y-109957647D01*
X140750250Y-109957647D02*
X140060821Y-109957647D01*
X140405536Y-109957647D02*
X140405536Y-108751147D01*
X140290631Y-108923504D01*
X140175726Y-109038409D01*
X140060821Y-109095861D01*
G04 #@! TO.C,J2*
D15*
X154460626Y-108179647D02*
X154460626Y-109041433D01*
X154403173Y-109213790D01*
X154288269Y-109328695D01*
X154115911Y-109386147D01*
X154001007Y-109386147D01*
X154977697Y-108294552D02*
X155035150Y-108237100D01*
X155150054Y-108179647D01*
X155437316Y-108179647D01*
X155552221Y-108237100D01*
X155609673Y-108294552D01*
X155667126Y-108409457D01*
X155667126Y-108524361D01*
X155609673Y-108696719D01*
X154920245Y-109386147D01*
X155667126Y-109386147D01*
G04 #@! TD*
M02*
